<svg width="26" height="26" viewBox="0 0 26 26" fill="none" xmlns="http://www.w3.org/2000/svg">
<path d="M25 1H9.85187V16.4217H25V1Z" stroke="#D0DB23" stroke-width="1.47" stroke-linejoin="round"/>
<path d="M4.43663 18.4747C5.85363 18.4747 7.00234 17.3053 7.00234 15.8627C7.00234 14.4201 5.85363 13.2506 4.43663 13.2506C3.01962 13.2506 1.87091 14.4201 1.87091 15.8627C1.87091 17.3053 3.01962 18.4747 4.43663 18.4747Z" stroke="#D0DB23" stroke-width="1.3" stroke-linejoin="round"/>
<path d="M2.89352 19.5253H6.06516C6.56735 19.5253 7.04897 19.7284 7.40408 20.0899C7.75918 20.4514 7.95868 20.9417 7.95868 21.453V25H1V21.453C1 20.9417 1.1995 20.4514 1.5546 20.0899C1.9097 19.7284 2.39133 19.5253 2.89352 19.5253V19.5253Z" stroke="#D0DB23" stroke-width="1.3" stroke-linejoin="round"/>
<path d="M5.11804 19.3134H13.6389" stroke="#D0DB23" stroke-width="1.3" stroke-linecap="round" stroke-linejoin="round"/>
</svg>
