<svg width="25" height="26" viewBox="0 0 25 26" fill="none" xmlns="http://www.w3.org/2000/svg">
<path d="M1.02108 12.9142C1.02108 12.6516 1.08435 12.3889 1.14763 12.1372C1.31555 11.4615 1.66214 10.848 2.14829 10.3659C2.63444 9.88382 3.2408 9.55237 3.89888 9.40896C4.55695 9.26555 5.24057 9.31591 5.87253 9.55434C6.50449 9.79277 7.05961 10.2098 7.47526 10.7583C7.49535 10.8008 7.52438 10.8381 7.56016 10.8675C7.59595 10.8968 7.63762 10.9175 7.68211 10.928C7.7266 10.9385 7.77278 10.9386 7.81728 10.9281C7.86179 10.9177 7.90347 10.8971 7.93929 10.8677C10.8922 9.32102 13.8486 7.78888 16.8085 6.27134C16.8534 6.25902 16.895 6.23625 16.9302 6.20475C16.9653 6.17325 16.9931 6.13386 17.0114 6.08956C17.0297 6.04526 17.038 5.9972 17.0358 5.94906C17.0335 5.90091 17.0207 5.85393 16.9983 5.81169C16.856 5.3161 16.8142 4.7953 16.8756 4.28211C16.9369 3.76891 17.1 3.27447 17.3547 2.82997C17.6094 2.38548 17.9501 2.0006 18.3553 1.69956C18.7604 1.39852 19.2214 1.18789 19.7089 1.08094C20.1965 0.973982 20.7001 0.973013 21.188 1.07813C21.676 1.18325 22.1376 1.39217 22.5438 1.69168C22.9501 1.99119 23.2921 2.37479 23.5483 2.81832C23.8046 3.26185 23.9695 3.75569 24.0326 4.26865C24.1025 4.75281 24.0788 5.24656 23.9628 5.72112C23.8469 6.19568 23.6411 6.64155 23.3574 7.03271C23.0737 7.42388 22.7178 7.7525 22.3105 7.99944C21.9031 8.24639 21.4524 8.40672 20.9848 8.47105C20.3364 8.58299 19.6707 8.50268 19.0644 8.23937C18.458 7.97607 17.9356 7.54046 17.5573 6.98268C17.5417 6.94983 17.519 6.92111 17.4911 6.89872C17.4631 6.87633 17.4306 6.86085 17.396 6.85347C17.3615 6.84608 17.3257 6.84699 17.2915 6.8561C17.2574 6.86522 17.2256 6.8823 17.1987 6.90607L8.2135 11.5681C8.1786 11.5784 8.14637 11.5966 8.11917 11.6215C8.09196 11.6464 8.07048 11.6773 8.05631 11.712C8.04215 11.7467 8.03564 11.7841 8.03729 11.8217C8.03894 11.8593 8.04869 11.8961 8.06584 11.9293C8.28972 12.6404 8.28972 13.4069 8.06584 14.118C8.01311 14.2931 8.06585 14.3807 8.2135 14.4682L17.2304 19.1741C17.4096 19.2725 17.4835 19.174 17.5995 19.0646C18.0056 18.4765 18.5726 18.0285 19.227 17.7787C19.8814 17.529 20.593 17.4889 21.2695 17.6638C21.9425 17.7871 22.5634 18.1202 23.0494 18.6188C23.5355 19.1173 23.8637 19.7576 23.9904 20.4545C24.1104 21.0118 24.1055 21.5904 23.9761 22.1455C23.8467 22.7006 23.5963 23.2175 23.2441 23.6564C22.8919 24.0953 22.4473 24.4444 21.9445 24.6769C21.4418 24.9093 20.8944 25.019 20.3444 24.9973C19.7944 24.9757 19.2566 24.8233 18.7723 24.552C18.288 24.2807 17.8701 23.8976 17.5509 23.4323C17.2318 22.967 17.0198 22.4319 16.9313 21.8682C16.8428 21.3045 16.8802 20.7272 17.0405 20.1809C17.1038 20.0058 17.0405 19.9182 16.9034 19.8416L7.87602 15.1358C7.71783 15.0483 7.63347 15.0811 7.52801 15.2233C7.10219 15.8125 6.51874 16.2588 5.85032 16.5064C5.18191 16.754 4.45805 16.7921 3.76892 16.616C3.07979 16.4398 2.45583 16.0572 1.97472 15.5157C1.49362 14.9742 1.17665 14.2979 1.06327 13.5709C1.06327 13.4176 1.06328 13.2644 1 13.1112L1.02108 12.9142ZM7.51745 13.0237C7.52163 12.4345 7.35721 11.8572 7.04503 11.3651C6.73284 10.873 6.28694 10.488 5.76378 10.2591C5.24062 10.0301 4.66374 9.96736 4.10621 10.0789C3.54868 10.1903 3.03559 10.471 2.63189 10.8853C2.22819 11.2997 1.95205 11.829 1.83846 12.4063C1.72487 12.9836 1.77895 13.5828 1.99381 14.1282C2.20867 14.6736 2.57464 15.1405 3.04542 15.4699C3.5162 15.7993 4.07059 15.9763 4.63837 15.9785C5.39734 15.9814 6.12649 15.6721 6.66612 15.1182C7.20575 14.5644 7.51188 13.8112 7.51745 13.0237ZM20.5102 24.241C21.078 24.2388 21.6324 24.0619 22.1032 23.7325C22.5739 23.4031 22.9399 22.9361 23.1548 22.3908C23.3697 21.8454 23.4237 21.2461 23.3101 20.6688C23.1965 20.0915 22.9204 19.5622 22.5167 19.1479C22.113 18.7336 21.5999 18.4529 21.0424 18.3414C20.4848 18.2299 19.9079 18.2926 19.3848 18.5216C18.8616 18.7506 18.4157 19.1355 18.1035 19.6277C17.7914 20.1198 17.6269 20.697 17.6311 21.2862C17.6325 21.6766 17.7081 22.0629 17.8537 22.4229C17.9993 22.7828 18.2119 23.1095 18.4794 23.384C18.7469 23.6585 19.0639 23.8755 19.4124 24.0226C19.7609 24.1697 20.134 24.2439 20.5102 24.241ZM17.6417 4.79393C17.6396 5.38359 17.8063 5.9606 18.1207 6.45179C18.4351 6.94298 18.883 7.32623 19.4076 7.55288C19.9322 7.77954 20.5098 7.83942 21.0672 7.72491C21.6246 7.61041 22.1367 7.32667 22.5385 6.90971C22.9403 6.49275 23.2138 5.96134 23.3241 5.3829C23.4345 4.80446 23.3768 4.20504 23.1583 3.66068C22.9399 3.11631 22.5706 2.65152 22.0973 2.32527C21.624 1.99902 21.0679 1.82601 20.4996 1.82818C20.1235 1.82526 19.7507 1.89999 19.4027 2.048C19.0546 2.19601 18.7385 2.41436 18.4725 2.69034C18.2066 2.96632 17.9961 3.2944 17.8535 3.65553C17.7109 4.01667 17.6389 4.40365 17.6417 4.79393Z" fill="#D0DB23" stroke="#D0DB23" stroke-width="0.75" stroke-miterlimit="10"/>
</svg>
