<svg width="22" height="22" viewBox="0 0 22 22" fill="none" xmlns="http://www.w3.org/2000/svg">
<mask id="path-1-outside-1_1620_3993" maskUnits="userSpaceOnUse" x="-0.5" y="-0.5" width="23" height="23" fill="black">
<rect fill="white" x="-0.5" y="-0.5" width="23" height="23"/>
<path d="M5.5 11.5C4.5111 11.5 3.5444 11.7933 2.72215 12.3427C1.89991 12.8921 1.25904 13.673 0.880605 14.5866C0.502166 15.5002 0.40315 16.5056 0.596076 17.4755C0.789002 18.4454 1.26521 19.3363 1.96447 20.0355C2.66373 20.7348 3.55465 21.211 4.52455 21.4039C5.49446 21.5969 6.49979 21.4978 7.41342 21.1194C8.32705 20.741 9.10794 20.1001 9.65735 19.2779C10.2068 18.4556 10.5 17.4889 10.5 16.5C10.4984 15.1744 9.97116 13.9035 9.03382 12.9662C8.09647 12.0288 6.82561 11.5016 5.5 11.5ZM5.5 20.5C4.70888 20.5 3.93552 20.2654 3.27772 19.8259C2.61992 19.3864 2.10723 18.7616 1.80448 18.0307C1.50173 17.2998 1.42252 16.4956 1.57686 15.7196C1.7312 14.9437 2.11217 14.231 2.67158 13.6716C3.23099 13.1122 3.94372 12.7312 4.71964 12.5769C5.49557 12.4225 6.29983 12.5017 7.03074 12.8045C7.76164 13.1072 8.38635 13.6199 8.82588 14.2777C9.26541 14.9355 9.5 15.7089 9.5 16.5C9.49894 17.5606 9.07718 18.5774 8.32726 19.3273C7.57734 20.0772 6.56054 20.499 5.5 20.5ZM19 0.50001H15C14.3371 0.500621 13.7016 0.76421 13.2329 1.23292C12.7642 1.70163 12.5006 2.33716 12.5 3.00001V7.00001C12.5006 7.66286 12.7642 8.29839 13.2329 8.7671C13.7016 9.23581 14.3371 9.4994 15 9.50001H19C19.6629 9.4994 20.2984 9.23581 20.7671 8.7671C21.2358 8.29839 21.4994 7.66286 21.5 7.00001V3.00001C21.4994 2.33716 21.2358 1.70163 20.7671 1.23292C20.2984 0.76421 19.6629 0.500621 19 0.50001ZM20.5 7.00001C20.4996 7.3977 20.3414 7.77898 20.0602 8.06019C19.779 8.3414 19.3977 8.49958 19 8.50001H15C14.6023 8.49958 14.221 8.3414 13.9398 8.06019C13.6586 7.77898 13.5004 7.3977 13.5 7.00001V3.00001C13.5004 2.60232 13.6586 2.22104 13.9398 1.93983C14.221 1.65862 14.6023 1.50044 15 1.50001H19C19.3977 1.50044 19.779 1.65862 20.0602 1.93983C20.3414 2.22104 20.4996 2.60232 20.5 3.00001V7.00001ZM18.2637 12.7813C18.1464 12.5465 17.966 12.3491 17.7428 12.2111C17.5196 12.0731 17.2624 12 17 12C16.7376 12 16.4804 12.0731 16.2572 12.2111C16.034 12.3491 15.8536 12.5465 15.7363 12.7813L12.6504 18.9551C12.5426 19.1705 12.4916 19.4099 12.5024 19.6505C12.5131 19.8912 12.5852 20.1251 12.7119 20.33C12.8385 20.5349 13.0154 20.7041 13.2258 20.8213C13.4363 20.9386 13.6732 21.0001 13.9141 21H20.0859C20.3268 21.0001 20.5637 20.9386 20.7742 20.8213C20.9846 20.7041 21.1615 20.5349 21.2881 20.33C21.4148 20.1251 21.4869 19.8912 21.4977 19.6505C21.5084 19.4099 21.4574 19.1705 21.3496 18.9551L18.2637 12.7813ZM20.4375 19.8047C20.4007 19.8648 20.349 19.9143 20.2874 19.9485C20.2258 19.9828 20.1564 20.0005 20.0859 20H13.9141C13.8436 20.0002 13.7743 19.9823 13.7127 19.9481C13.6511 19.9138 13.5994 19.8644 13.5623 19.8044C13.5253 19.7445 13.5043 19.676 13.5012 19.6057C13.4982 19.5353 13.5132 19.4653 13.5449 19.4023L16.6309 13.2285C16.6651 13.1599 16.7177 13.1021 16.7829 13.0618C16.8481 13.0214 16.9233 13 17 13C17.0767 13 17.1519 13.0214 17.2171 13.0618C17.2823 13.1021 17.3349 13.1599 17.3691 13.2285L20.4551 19.4023C20.487 19.4653 20.5022 19.5353 20.4991 19.6058C20.4961 19.6763 20.4748 19.7448 20.4375 19.8047ZM1.21191 1.16993C1.08463 1.37461 1.01212 1.60859 1.00134 1.84938C0.99057 2.09018 1.0419 2.3297 1.15039 2.54493L4.23633 8.71876C4.35362 8.9535 4.53397 9.15093 4.75717 9.28892C4.98037 9.42691 5.23759 9.50001 5.5 9.50001C5.76241 9.50001 6.01964 9.42691 6.24284 9.28892C6.46604 9.15093 6.64639 8.9535 6.76367 8.71876L9.84961 2.54493C9.95745 2.32953 10.0084 2.09013 9.99765 1.84948C9.98689 1.60883 9.91477 1.37493 9.78814 1.17001C9.66151 0.965092 9.48458 0.795961 9.27416 0.678692C9.06374 0.561424 8.82683 0.499914 8.58594 0.50001H2.41406C2.17303 0.499111 1.93583 0.560269 1.72529 0.677599C1.51475 0.794928 1.33795 0.964478 1.21191 1.16993ZM2.0625 1.69532C2.09931 1.63524 2.15102 1.58569 2.21262 1.55147C2.27421 1.51725 2.3436 1.49952 2.41406 1.50001H8.58594C8.6564 1.49983 8.72572 1.51772 8.7873 1.55196C8.84887 1.5862 8.90065 1.63565 8.93767 1.6956C8.97469 1.75554 8.99573 1.82397 8.99878 1.89436C9.00183 1.96475 8.98678 2.03475 8.95508 2.09767L5.86914 8.27149C5.83495 8.34013 5.78228 8.39789 5.71708 8.43825C5.65187 8.47862 5.57669 8.5 5.5 8.5C5.42331 8.5 5.34814 8.47862 5.28293 8.43825C5.21772 8.39789 5.16506 8.34013 5.13086 8.27149L2.04492 2.09767C2.01296 2.03477 1.99778 1.96468 2.00086 1.89419C2.00394 1.8237 2.02517 1.7552 2.0625 1.69532Z"/>
</mask>
<path d="M5.5 11.5C4.5111 11.5 3.5444 11.7933 2.72215 12.3427C1.89991 12.8921 1.25904 13.673 0.880605 14.5866C0.502166 15.5002 0.40315 16.5056 0.596076 17.4755C0.789002 18.4454 1.26521 19.3363 1.96447 20.0355C2.66373 20.7348 3.55465 21.211 4.52455 21.4039C5.49446 21.5969 6.49979 21.4978 7.41342 21.1194C8.32705 20.741 9.10794 20.1001 9.65735 19.2779C10.2068 18.4556 10.5 17.4889 10.5 16.5C10.4984 15.1744 9.97116 13.9035 9.03382 12.9662C8.09647 12.0288 6.82561 11.5016 5.5 11.5ZM5.5 20.5C4.70888 20.5 3.93552 20.2654 3.27772 19.8259C2.61992 19.3864 2.10723 18.7616 1.80448 18.0307C1.50173 17.2998 1.42252 16.4956 1.57686 15.7196C1.7312 14.9437 2.11217 14.231 2.67158 13.6716C3.23099 13.1122 3.94372 12.7312 4.71964 12.5769C5.49557 12.4225 6.29983 12.5017 7.03074 12.8045C7.76164 13.1072 8.38635 13.6199 8.82588 14.2777C9.26541 14.9355 9.5 15.7089 9.5 16.5C9.49894 17.5606 9.07718 18.5774 8.32726 19.3273C7.57734 20.0772 6.56054 20.499 5.5 20.5ZM19 0.50001H15C14.3371 0.500621 13.7016 0.76421 13.2329 1.23292C12.7642 1.70163 12.5006 2.33716 12.5 3.00001V7.00001C12.5006 7.66286 12.7642 8.29839 13.2329 8.7671C13.7016 9.23581 14.3371 9.4994 15 9.50001H19C19.6629 9.4994 20.2984 9.23581 20.7671 8.7671C21.2358 8.29839 21.4994 7.66286 21.5 7.00001V3.00001C21.4994 2.33716 21.2358 1.70163 20.7671 1.23292C20.2984 0.76421 19.6629 0.500621 19 0.50001ZM20.5 7.00001C20.4996 7.3977 20.3414 7.77898 20.0602 8.06019C19.779 8.3414 19.3977 8.49958 19 8.50001H15C14.6023 8.49958 14.221 8.3414 13.9398 8.06019C13.6586 7.77898 13.5004 7.3977 13.5 7.00001V3.00001C13.5004 2.60232 13.6586 2.22104 13.9398 1.93983C14.221 1.65862 14.6023 1.50044 15 1.50001H19C19.3977 1.50044 19.779 1.65862 20.0602 1.93983C20.3414 2.22104 20.4996 2.60232 20.5 3.00001V7.00001ZM18.2637 12.7813C18.1464 12.5465 17.966 12.3491 17.7428 12.2111C17.5196 12.0731 17.2624 12 17 12C16.7376 12 16.4804 12.0731 16.2572 12.2111C16.034 12.3491 15.8536 12.5465 15.7363 12.7813L12.6504 18.9551C12.5426 19.1705 12.4916 19.4099 12.5024 19.6505C12.5131 19.8912 12.5852 20.1251 12.7119 20.33C12.8385 20.5349 13.0154 20.7041 13.2258 20.8213C13.4363 20.9386 13.6732 21.0001 13.9141 21H20.0859C20.3268 21.0001 20.5637 20.9386 20.7742 20.8213C20.9846 20.7041 21.1615 20.5349 21.2881 20.33C21.4148 20.1251 21.4869 19.8912 21.4977 19.6505C21.5084 19.4099 21.4574 19.1705 21.3496 18.9551L18.2637 12.7813ZM20.4375 19.8047C20.4007 19.8648 20.349 19.9143 20.2874 19.9485C20.2258 19.9828 20.1564 20.0005 20.0859 20H13.9141C13.8436 20.0002 13.7743 19.9823 13.7127 19.9481C13.6511 19.9138 13.5994 19.8644 13.5623 19.8044C13.5253 19.7445 13.5043 19.676 13.5012 19.6057C13.4982 19.5353 13.5132 19.4653 13.5449 19.4023L16.6309 13.2285C16.6651 13.1599 16.7177 13.1021 16.7829 13.0618C16.8481 13.0214 16.9233 13 17 13C17.0767 13 17.1519 13.0214 17.2171 13.0618C17.2823 13.1021 17.3349 13.1599 17.3691 13.2285L20.4551 19.4023C20.487 19.4653 20.5022 19.5353 20.4991 19.6058C20.4961 19.6763 20.4748 19.7448 20.4375 19.8047ZM1.21191 1.16993C1.08463 1.37461 1.01212 1.60859 1.00134 1.84938C0.99057 2.09018 1.0419 2.3297 1.15039 2.54493L4.23633 8.71876C4.35362 8.9535 4.53397 9.15093 4.75717 9.28892C4.98037 9.42691 5.23759 9.50001 5.5 9.50001C5.76241 9.50001 6.01964 9.42691 6.24284 9.28892C6.46604 9.15093 6.64639 8.9535 6.76367 8.71876L9.84961 2.54493C9.95745 2.32953 10.0084 2.09013 9.99765 1.84948C9.98689 1.60883 9.91477 1.37493 9.78814 1.17001C9.66151 0.965092 9.48458 0.795961 9.27416 0.678692C9.06374 0.561424 8.82683 0.499914 8.58594 0.50001H2.41406C2.17303 0.499111 1.93583 0.560269 1.72529 0.677599C1.51475 0.794928 1.33795 0.964478 1.21191 1.16993ZM2.0625 1.69532C2.09931 1.63524 2.15102 1.58569 2.21262 1.55147C2.27421 1.51725 2.3436 1.49952 2.41406 1.50001H8.58594C8.6564 1.49983 8.72572 1.51772 8.7873 1.55196C8.84887 1.5862 8.90065 1.63565 8.93767 1.6956C8.97469 1.75554 8.99573 1.82397 8.99878 1.89436C9.00183 1.96475 8.98678 2.03475 8.95508 2.09767L5.86914 8.27149C5.83495 8.34013 5.78228 8.39789 5.71708 8.43825C5.65187 8.47862 5.57669 8.5 5.5 8.5C5.42331 8.5 5.34814 8.47862 5.28293 8.43825C5.21772 8.39789 5.16506 8.34013 5.13086 8.27149L2.04492 2.09767C2.01296 2.03477 1.99778 1.96468 2.00086 1.89419C2.00394 1.8237 2.02517 1.7552 2.0625 1.69532Z" fill="#D0DB23"/>
<path d="M5.5 11.5C4.5111 11.5 3.5444 11.7933 2.72215 12.3427C1.89991 12.8921 1.25904 13.673 0.880605 14.5866C0.502166 15.5002 0.40315 16.5056 0.596076 17.4755C0.789002 18.4454 1.26521 19.3363 1.96447 20.0355C2.66373 20.7348 3.55465 21.211 4.52455 21.4039C5.49446 21.5969 6.49979 21.4978 7.41342 21.1194C8.32705 20.741 9.10794 20.1001 9.65735 19.2779C10.2068 18.4556 10.5 17.4889 10.5 16.5C10.4984 15.1744 9.97116 13.9035 9.03382 12.9662C8.09647 12.0288 6.82561 11.5016 5.5 11.5ZM5.5 20.5C4.70888 20.5 3.93552 20.2654 3.27772 19.8259C2.61992 19.3864 2.10723 18.7616 1.80448 18.0307C1.50173 17.2998 1.42252 16.4956 1.57686 15.7196C1.7312 14.9437 2.11217 14.231 2.67158 13.6716C3.23099 13.1122 3.94372 12.7312 4.71964 12.5769C5.49557 12.4225 6.29983 12.5017 7.03074 12.8045C7.76164 13.1072 8.38635 13.6199 8.82588 14.2777C9.26541 14.9355 9.5 15.7089 9.5 16.5C9.49894 17.5606 9.07718 18.5774 8.32726 19.3273C7.57734 20.0772 6.56054 20.499 5.5 20.5ZM19 0.50001H15C14.3371 0.500621 13.7016 0.76421 13.2329 1.23292C12.7642 1.70163 12.5006 2.33716 12.5 3.00001V7.00001C12.5006 7.66286 12.7642 8.29839 13.2329 8.7671C13.7016 9.23581 14.3371 9.4994 15 9.50001H19C19.6629 9.4994 20.2984 9.23581 20.7671 8.7671C21.2358 8.29839 21.4994 7.66286 21.5 7.00001V3.00001C21.4994 2.33716 21.2358 1.70163 20.7671 1.23292C20.2984 0.76421 19.6629 0.500621 19 0.50001ZM20.5 7.00001C20.4996 7.3977 20.3414 7.77898 20.0602 8.06019C19.779 8.3414 19.3977 8.49958 19 8.50001H15C14.6023 8.49958 14.221 8.3414 13.9398 8.06019C13.6586 7.77898 13.5004 7.3977 13.5 7.00001V3.00001C13.5004 2.60232 13.6586 2.22104 13.9398 1.93983C14.221 1.65862 14.6023 1.50044 15 1.50001H19C19.3977 1.50044 19.779 1.65862 20.0602 1.93983C20.3414 2.22104 20.4996 2.60232 20.5 3.00001V7.00001ZM18.2637 12.7813C18.1464 12.5465 17.966 12.3491 17.7428 12.2111C17.5196 12.0731 17.2624 12 17 12C16.7376 12 16.4804 12.0731 16.2572 12.2111C16.034 12.3491 15.8536 12.5465 15.7363 12.7813L12.6504 18.9551C12.5426 19.1705 12.4916 19.4099 12.5024 19.6505C12.5131 19.8912 12.5852 20.1251 12.7119 20.33C12.8385 20.5349 13.0154 20.7041 13.2258 20.8213C13.4363 20.9386 13.6732 21.0001 13.9141 21H20.0859C20.3268 21.0001 20.5637 20.9386 20.7742 20.8213C20.9846 20.7041 21.1615 20.5349 21.2881 20.33C21.4148 20.1251 21.4869 19.8912 21.4977 19.6505C21.5084 19.4099 21.4574 19.1705 21.3496 18.9551L18.2637 12.7813ZM20.4375 19.8047C20.4007 19.8648 20.349 19.9143 20.2874 19.9485C20.2258 19.9828 20.1564 20.0005 20.0859 20H13.9141C13.8436 20.0002 13.7743 19.9823 13.7127 19.9481C13.6511 19.9138 13.5994 19.8644 13.5623 19.8044C13.5253 19.7445 13.5043 19.676 13.5012 19.6057C13.4982 19.5353 13.5132 19.4653 13.5449 19.4023L16.6309 13.2285C16.6651 13.1599 16.7177 13.1021 16.7829 13.0618C16.8481 13.0214 16.9233 13 17 13C17.0767 13 17.1519 13.0214 17.2171 13.0618C17.2823 13.1021 17.3349 13.1599 17.3691 13.2285L20.4551 19.4023C20.487 19.4653 20.5022 19.5353 20.4991 19.6058C20.4961 19.6763 20.4748 19.7448 20.4375 19.8047ZM1.21191 1.16993C1.08463 1.37461 1.01212 1.60859 1.00134 1.84938C0.99057 2.09018 1.0419 2.3297 1.15039 2.54493L4.23633 8.71876C4.35362 8.9535 4.53397 9.15093 4.75717 9.28892C4.98037 9.42691 5.23759 9.50001 5.5 9.50001C5.76241 9.50001 6.01964 9.42691 6.24284 9.28892C6.46604 9.15093 6.64639 8.9535 6.76367 8.71876L9.84961 2.54493C9.95745 2.32953 10.0084 2.09013 9.99765 1.84948C9.98689 1.60883 9.91477 1.37493 9.78814 1.17001C9.66151 0.965092 9.48458 0.795961 9.27416 0.678692C9.06374 0.561424 8.82683 0.499914 8.58594 0.50001H2.41406C2.17303 0.499111 1.93583 0.560269 1.72529 0.677599C1.51475 0.794928 1.33795 0.964478 1.21191 1.16993ZM2.0625 1.69532C2.09931 1.63524 2.15102 1.58569 2.21262 1.55147C2.27421 1.51725 2.3436 1.49952 2.41406 1.50001H8.58594C8.6564 1.49983 8.72572 1.51772 8.7873 1.55196C8.84887 1.5862 8.90065 1.63565 8.93767 1.6956C8.97469 1.75554 8.99573 1.82397 8.99878 1.89436C9.00183 1.96475 8.98678 2.03475 8.95508 2.09767L5.86914 8.27149C5.83495 8.34013 5.78228 8.39789 5.71708 8.43825C5.65187 8.47862 5.57669 8.5 5.5 8.5C5.42331 8.5 5.34814 8.47862 5.28293 8.43825C5.21772 8.39789 5.16506 8.34013 5.13086 8.27149L2.04492 2.09767C2.01296 2.03477 1.99778 1.96468 2.00086 1.89419C2.00394 1.8237 2.02517 1.7552 2.0625 1.69532Z" stroke="#D0DB23" stroke-width="0.6" mask="url(#path-1-outside-1_1620_3993)"/>
</svg>
