<svg width="26" height="25" viewBox="0 0 26 25" fill="none" xmlns="http://www.w3.org/2000/svg">
<path d="M1 15.252V1.43099C1.11913 1.06703 1.39405 1 1.72395 1H24.3585C24.8075 1 25 1.19154 25 1.64171V14.9934C25 15.434 24.8076 15.6256 24.386 15.6352C23.9645 15.6447 23.5246 15.6352 23.0939 15.6352C23.0057 15.6196 22.9151 15.6382 22.8391 15.6876C22.7632 15.737 22.7071 15.8137 22.6816 15.9033C22.5761 16.1525 22.4372 16.3847 22.2692 16.593C21.7912 17.2021 21.1165 17.6075 20.3723 17.7327H21.5453C22.1701 17.7318 22.7714 17.9818 23.225 18.4309C23.6787 18.8801 23.9499 19.4942 23.9828 20.1464C24.0378 21.2383 23.9828 22.3397 23.9828 23.4316C23.9828 23.7956 23.7812 23.968 23.433 23.9967H2.59449C2.51415 24.0058 2.43289 23.996 2.35667 23.9679C2.28045 23.9398 2.21123 23.8942 2.15409 23.8345C2.09695 23.7748 2.05334 23.7024 2.02648 23.6228C1.99962 23.5431 1.99016 23.4581 1.99885 23.3742C1.99885 22.3589 1.99885 21.334 1.99885 20.3188C1.99879 19.9739 2.06452 19.6324 2.19218 19.3143C2.31984 18.9962 2.50687 18.7079 2.74235 18.4663C2.97783 18.2246 3.25704 18.0344 3.56364 17.9068C3.87025 17.7792 4.19811 17.7168 4.52807 17.7232H5.65523C5.13111 17.6435 4.63495 17.4259 4.21337 17.0908C3.79179 16.7557 3.45863 16.3142 3.24514 15.8076C3.221 15.771 3.18976 15.7401 3.15344 15.717C3.11713 15.6939 3.07654 15.6791 3.03437 15.6735H1.67811C1.53652 15.6906 1.3935 15.6586 1.27099 15.5824C1.14848 15.5063 1.05326 15.3902 1 15.252V15.252ZM23.992 14.5912V2.07273H1.99885V14.5816H2.97938C2.96157 13.7768 3.23469 12.9946 3.74425 12.391C4.2538 11.7874 4.96234 11.4068 5.72853 11.3251C6.45431 11.2608 7.17682 11.4829 7.75372 11.9476C8.13829 12.2579 8.4486 12.6574 8.66011 13.1145C8.87163 13.5716 8.97859 14.0738 8.97252 14.5816H9.9622C9.94985 13.7547 10.238 12.9538 10.7686 12.3403C11.0315 12.0302 11.3527 11.78 11.7122 11.6054C12.0716 11.4307 12.4617 11.3353 12.858 11.3251C13.5425 11.2897 14.2162 11.5142 14.7549 11.9572C15.1403 12.2645 15.4514 12.662 15.6631 13.1178C15.8748 13.5736 15.9812 14.075 15.9736 14.5816H16.9634C16.9519 13.7853 17.2191 13.0121 17.7148 12.4074C18.2068 11.7925 18.912 11.4067 19.6758 11.3346C20.3664 11.2513 21.0621 11.439 21.6277 11.8614C22.0504 12.1649 22.3946 12.573 22.6296 13.0493C22.8646 13.5256 22.9833 14.0553 22.9748 14.5912H23.992ZM9.00915 22.9432V22.7229C9.00915 21.9087 9.00915 21.0946 9.00915 20.2805C9.00474 20.0712 8.95961 19.865 8.87648 19.6745C8.79336 19.4841 8.67399 19.3132 8.52566 19.1725C8.37732 19.0318 8.20314 18.9242 8.01371 18.8562C7.82429 18.7881 7.62358 18.7611 7.42383 18.7767H4.67469C4.45758 18.7582 4.23919 18.789 4.0345 18.8669C3.82981 18.9448 3.64365 19.068 3.48875 19.2281C3.33385 19.3882 3.21387 19.5814 3.13703 19.7944C3.06019 20.0074 3.0283 20.2353 3.04354 20.4625V22.9432H9.00915ZM22.9931 22.9432C22.9931 22.0428 22.9931 21.1712 22.9931 20.29C22.9932 19.8962 22.8454 19.518 22.5815 19.2368C22.3176 18.9556 21.9587 18.7939 21.5819 18.7863C20.5372 18.7863 19.4926 18.7863 18.4479 18.7863C18.0866 18.7881 17.7396 18.9337 17.4774 19.1935C17.2152 19.4533 17.0576 19.8077 17.0367 20.1847C16.9908 21.085 17.0367 21.9949 17.0367 22.8953C17.0367 22.8953 17.0367 22.8953 17.0367 22.9432H22.9931ZM16.0011 22.9432C16.0011 22.0907 16.0011 21.2574 16.0011 20.4242C16.0102 20.2053 15.9757 19.9868 15.8997 19.7827C15.8237 19.5785 15.7079 19.393 15.5597 19.2381C15.4115 19.0832 15.2341 18.9622 15.0387 18.8828C14.8434 18.8034 14.6344 18.7672 14.425 18.7767H11.5842C11.3728 18.7655 11.1615 18.8011 10.9642 18.8811C10.7669 18.9612 10.588 19.0839 10.4392 19.2412C10.2904 19.3986 10.175 19.587 10.1007 19.7941C10.0264 20.0013 9.99485 20.2225 10.008 20.4433C10.008 21.2095 10.008 21.9758 10.008 22.742C10.0037 22.809 10.0037 22.8762 10.008 22.9432H16.0011ZM13.0046 16.6792C13.4178 16.6944 13.8259 16.5801 14.1764 16.3509C14.5269 16.1217 14.8037 15.788 14.9712 15.3929C15.1387 14.9979 15.1893 14.5594 15.1164 14.134C15.0434 13.7087 14.8504 13.3159 14.562 13.0062C14.2736 12.6965 13.9032 12.4841 13.4983 12.3964C13.0935 12.3086 12.6728 12.3495 12.2904 12.5138C11.908 12.6781 11.5814 12.9583 11.3527 13.3183C11.1239 13.6782 11.0035 14.1016 11.0069 14.5337C11.0043 15.0936 11.2123 15.6322 11.5859 16.0335C11.9595 16.4347 12.469 16.6666 13.0046 16.6792V16.6792ZM7.99199 14.5241C7.97935 14.1134 7.85106 13.7158 7.6232 13.381C7.39535 13.0461 7.07806 12.789 6.71104 12.6418C6.34403 12.4946 5.94361 12.4639 5.55995 12.5534C5.17629 12.643 4.82643 12.8488 4.55419 13.1452C4.28195 13.4416 4.09941 13.8154 4.02947 14.2197C3.95952 14.624 4.00527 15.0409 4.16096 15.4182C4.31666 15.7955 4.5754 16.1164 4.90477 16.3407C5.23414 16.565 5.6195 16.6827 6.0126 16.6792C6.54657 16.6617 7.05274 16.4263 7.42272 16.0235C7.79269 15.6207 7.99704 15.0825 7.99199 14.5241ZM18.008 14.5241C18.008 15.0779 18.2185 15.609 18.5931 16.0006C18.9678 16.3921 19.4759 16.6121 20.0057 16.6121C20.5355 16.6121 21.0437 16.3921 21.4183 16.0006C21.793 15.609 22.0034 15.0779 22.0034 14.5241C22.0034 13.9703 21.793 13.4392 21.4183 13.0477C21.0437 12.6561 20.5355 12.4361 20.0057 12.4361C19.4759 12.4361 18.9678 12.6561 18.5931 13.0477C18.2185 13.4392 18.008 13.9703 18.008 14.5241V14.5241ZM9.50401 18.8151L9.58648 18.6905C9.82202 18.3878 10.1198 18.1445 10.4578 17.9787C10.7957 17.8128 11.1651 17.7288 11.5384 17.7327H12.7205C12.1884 17.6638 11.6828 17.4507 11.2536 17.1147C10.8245 16.7788 10.4867 16.3315 10.2738 15.8171C10.2526 15.7752 10.2226 15.7388 10.1861 15.7106C10.1497 15.6824 10.1076 15.6632 10.063 15.6543C9.6873 15.6543 9.31157 15.6543 8.93586 15.6543C8.89782 15.6614 8.86171 15.6771 8.83006 15.7002C8.79841 15.7234 8.77196 15.7535 8.75257 15.7884C8.54215 16.2936 8.21221 16.7345 7.79379 17.0696C7.37537 17.4047 6.88225 17.623 6.36083 17.704C7.5338 17.6944 8.69759 17.637 9.50401 18.8151V18.8151ZM19.685 17.7423C19.4193 17.6657 19.1993 17.6178 18.9885 17.5316C18.607 17.3863 18.2584 17.1597 17.965 16.8662C17.6716 16.5728 17.4398 16.2188 17.2841 15.8267C17.271 15.7676 17.2377 15.7155 17.1904 15.6802C17.1432 15.645 17.0852 15.6289 17.0275 15.6352C16.6793 15.6352 16.3219 15.6352 15.9736 15.6352C15.9283 15.6422 15.8847 15.6585 15.8454 15.6831C15.8061 15.7078 15.7718 15.7403 15.7446 15.7788C15.5341 16.284 15.2042 16.7249 14.7858 17.06C14.3674 17.3951 13.8742 17.6134 13.3528 17.6944H14.5808C14.955 17.7044 15.3221 17.8036 15.6541 17.9845C15.986 18.1655 16.274 18.4233 16.496 18.7384L16.6609 18.5469C16.8699 18.2982 17.1243 18.0956 17.4091 17.9509C17.6939 17.8062 18.0034 17.7222 18.3196 17.704C18.7594 17.7232 19.1902 17.7423 19.685 17.7423V17.7423Z" fill="#D0DB23" stroke="#D0DB23" stroke-width="0.3" stroke-miterlimit="10"/>
</svg>
