<svg width="26" height="26" viewBox="0 0 26 26" fill="none" xmlns="http://www.w3.org/2000/svg">
<path d="M25 1H1V25H25V1Z" stroke="#D0DB23" stroke-width="1.2" stroke-linejoin="round"/>
<path d="M4.6044 13.0489C4.6044 12.8569 4.60438 12.6768 4.70038 12.4968C4.81994 12.0087 5.07513 11.5644 5.43646 11.2152C5.7978 10.8659 6.25056 10.626 6.74245 10.5231C7.23433 10.4202 7.74527 10.4585 8.2163 10.6337C8.68732 10.8088 9.09921 11.1136 9.4044 11.5129C9.42141 11.5417 9.44427 11.5666 9.47149 11.5861C9.49871 11.6055 9.52968 11.6191 9.56245 11.6259C9.59522 11.6327 9.62906 11.6325 9.66177 11.6254C9.69448 11.6184 9.72536 11.6046 9.75241 11.5849L16.3044 8.30885C16.4724 8.23685 16.5084 8.15286 16.4484 7.98486C16.3356 7.58369 16.3186 7.16163 16.3986 6.75267C16.4786 6.34371 16.6534 5.95925 16.909 5.63012C17.1646 5.301 17.4939 5.0364 17.8703 4.85764C18.2467 4.67888 18.6598 4.59094 19.0764 4.60085C19.7463 4.6086 20.3884 4.86957 20.8738 5.33137C21.3591 5.79317 21.6517 6.42156 21.6928 7.09024C21.7338 7.75893 21.5202 8.41835 21.095 8.93602C20.6697 9.45369 20.0643 9.79125 19.4004 9.88084C18.9205 9.96095 18.4278 9.90311 17.9795 9.71404C17.5313 9.52496 17.1459 9.21244 16.8684 8.81286C16.8527 8.79289 16.8326 8.77672 16.8098 8.76562C16.7869 8.75452 16.7618 8.74878 16.7364 8.74878C16.711 8.74878 16.6859 8.75452 16.663 8.76562C16.6402 8.77672 16.6201 8.79289 16.6044 8.81286L9.94441 12.1248C9.91783 12.1321 9.89326 12.1455 9.87263 12.1637C9.85201 12.182 9.83586 12.2048 9.82543 12.2303C9.81499 12.2558 9.81057 12.2833 9.81246 12.3108C9.81436 12.3383 9.82257 12.365 9.83641 12.3888C9.99818 12.8963 9.99818 13.4414 9.83641 13.9489C9.83641 14.0689 9.8364 14.1288 9.9324 14.1888L16.6044 17.5489C16.7364 17.6089 16.7964 17.5489 16.8804 17.4649C17.1804 17.0459 17.5994 16.7269 18.083 16.5493C18.5667 16.3717 19.0926 16.3436 19.5924 16.4688C20.0939 16.5462 20.5604 16.7731 20.9308 17.12C21.3013 17.4669 21.5583 17.9175 21.6684 18.4129C21.7616 18.8119 21.7614 19.227 21.668 19.6259C21.5746 20.0248 21.3904 20.3969 21.1298 20.713C20.8692 21.0292 20.5391 21.281 20.1654 21.4488C19.7916 21.6167 19.3841 21.696 18.9747 21.6807C18.5652 21.6654 18.1648 21.5558 17.8046 21.3606C17.4444 21.1653 17.1341 20.8896 16.8978 20.5548C16.6615 20.2201 16.5056 19.8354 16.4422 19.4306C16.3789 19.0258 16.4097 18.6118 16.5324 18.2209C16.5324 18.0889 16.5324 18.0288 16.4244 17.9688L9.6684 14.5728C9.65155 14.5547 9.63113 14.5402 9.60841 14.5303C9.5857 14.5203 9.5612 14.5152 9.53641 14.5152C9.51163 14.5152 9.4871 14.5203 9.46438 14.5303C9.44167 14.5402 9.42125 14.5547 9.4044 14.5728C9.08955 14.9991 8.65522 15.3223 8.15646 15.5015C7.6577 15.6806 7.11695 15.7077 6.60281 15.5791C6.08867 15.4506 5.6243 15.1723 5.26852 14.7795C4.91274 14.3867 4.6816 13.8972 4.6044 13.3728C4.59858 13.2649 4.59858 13.1568 4.6044 13.0489ZM9.4044 13.1209C9.40676 12.7008 9.2845 12.2894 9.05309 11.9388C8.82168 11.5882 8.49151 11.3141 8.10431 11.1512C7.71712 10.9882 7.2903 10.9438 6.87783 11.0234C6.46536 11.103 6.08576 11.3032 5.78704 11.5985C5.48832 11.8939 5.28392 12.2712 5.19964 12.6827C5.11535 13.0943 5.15497 13.5216 5.31353 13.9106C5.47209 14.2996 5.74245 14.6328 6.09041 14.8682C6.43837 15.1036 6.84832 15.2305 7.2684 15.2328C7.54833 15.236 7.82613 15.1838 8.08582 15.0792C8.3455 14.9747 8.58196 14.8198 8.78158 14.6235C8.9812 14.4273 9.14007 14.1935 9.24901 13.9356C9.35796 13.6777 9.41484 13.4008 9.41641 13.1209H9.4044ZM19.0044 21.1129C19.425 21.1105 19.8354 20.9832 20.1836 20.7473C20.5318 20.5114 20.8021 20.1774 20.9603 19.7877C21.1185 19.398 21.1574 18.9701 21.0722 18.5583C20.9869 18.1464 20.7812 17.7691 20.4813 17.4743C20.1814 17.1794 19.8007 16.9802 19.3875 16.902C18.9742 16.8237 18.547 16.8699 18.1601 17.0347C17.7731 17.1995 17.4438 17.4755 17.2138 17.8276C16.9839 18.1798 16.8637 18.5923 16.8684 19.0129C16.8699 19.2923 16.9269 19.5686 17.036 19.8258C17.1451 20.083 17.3041 20.316 17.5039 20.5114C17.7037 20.7067 17.9403 20.8604 18.1999 20.9637C18.4595 21.0669 18.737 21.1176 19.0164 21.1129H19.0044ZM16.8684 7.26485C16.8684 7.68545 16.9933 8.09656 17.2272 8.4461C17.4611 8.79565 17.7936 9.06789 18.1824 9.22829C18.5712 9.38869 18.9989 9.43006 19.4112 9.34713C19.8236 9.2642 20.202 9.06068 20.4985 8.76244C20.7951 8.46419 20.9964 8.08463 21.077 7.67182C21.1576 7.25902 21.1138 6.83156 20.9512 6.44366C20.7886 6.05577 20.5145 5.72488 20.1637 5.49294C19.8128 5.261 19.401 5.13849 18.9804 5.14087C18.702 5.14086 18.4264 5.19588 18.1694 5.30277C17.9124 5.40966 17.679 5.56629 17.4827 5.76368C17.2864 5.96107 17.1312 6.1953 17.0257 6.45293C16.9203 6.71055 16.8668 6.98649 16.8684 7.26485V7.26485Z" fill="#D0DB23" stroke="#D0DB23" stroke-width="0.75" stroke-miterlimit="10"/>
</svg>
