<svg width="26" height="26" viewBox="0 0 26 26" fill="none" xmlns="http://www.w3.org/2000/svg">
<path d="M25 1H1V25H25V1Z" stroke="#D0DB23" stroke-width="1.2" stroke-linejoin="round"/>
<path d="M21.7493 4.59998H10.5449V15.6584H21.7493V4.59998Z" stroke="#D0DB23" stroke-width="1.1" stroke-linejoin="round"/>
<path d="M6.52576 17.3424C7.56122 17.3424 8.40063 16.503 8.40063 15.4675C8.40063 14.4321 7.56122 13.5927 6.52576 13.5927C5.49029 13.5927 4.65088 14.4321 4.65088 15.4675C4.65088 16.503 5.49029 17.3424 6.52576 17.3424Z" stroke="#D0DB23" stroke-width="1.1" stroke-linejoin="round"/>
<path d="M6.25592 18.0946H6.82849C7.42399 18.0946 7.99511 18.3312 8.4162 18.7523C8.83728 19.1733 9.07385 19.7445 9.07385 20.34V22.024H4.01056V20.34C4.01056 19.7445 4.24712 19.1733 4.66821 18.7523C5.0893 18.3312 5.66041 18.0946 6.25592 18.0946V18.0946Z" stroke="#D0DB23" stroke-width="1.1" stroke-linejoin="round"/>
<path d="M6.84027 18.0271H13.2171" stroke="#D0DB23" stroke-width="1.1" stroke-linecap="round" stroke-linejoin="round"/>
</svg>
