<svg width="26" height="26" viewBox="0 0 26 26" fill="none" xmlns="http://www.w3.org/2000/svg">
<path d="M25 1H1V25H25V1Z" stroke="#D0DB23" stroke-width="1.2" stroke-linejoin="round"/>
<path d="M12.0372 22.4202C11.3573 22.4169 10.6797 22.3399 10.0164 22.1905C8.46794 21.8167 7.05267 21.023 5.9263 19.8966C4.79994 18.7703 4.00616 17.3549 3.63234 15.8065C3.33067 14.5237 3.3227 13.1892 3.609 11.9029C3.8953 10.6165 4.46848 9.41142 5.28576 8.37761C6.09483 7.36001 7.12325 6.53825 8.29427 5.97362C9.46529 5.40898 10.7487 5.11605 12.0487 5.1167C12.2162 5.1167 12.3768 5.18325 12.4953 5.30168C12.6137 5.42011 12.6802 5.58071 12.6802 5.7482V13.1427H20.0747C20.1576 13.1427 20.2397 13.159 20.3164 13.1907C20.393 13.2225 20.4626 13.269 20.5212 13.3276C20.5799 13.3863 20.6264 13.4559 20.6581 13.5325C20.6899 13.6091 20.7062 13.6913 20.7062 13.7742C20.7062 14.9115 20.4818 16.0377 20.0459 17.0882C19.6099 18.1387 18.971 19.0928 18.1657 19.896C17.3605 20.6991 16.4046 21.3355 15.353 21.7687C14.3013 22.2018 13.1746 22.4232 12.0372 22.4202ZM11.4172 6.41418C10.4167 6.49655 9.44385 6.78367 8.55897 7.25771C7.67408 7.73176 6.89609 8.3826 6.27324 9.16987C5.57389 10.053 5.08351 11.0831 4.83893 12.1827C4.59434 13.2824 4.60187 14.4231 4.86093 15.5195C5.17866 16.84 5.85506 18.0471 6.81546 19.0075C7.77585 19.9679 8.9829 20.6442 10.3034 20.962C11.3998 21.221 12.5405 21.2285 13.6402 20.984C14.7398 20.7394 15.7698 20.249 16.653 19.5497C17.4403 18.9268 18.0912 18.1488 18.5652 17.2639C19.0392 16.379 19.3264 15.4062 19.4087 14.4057H12.0487C11.8812 14.4057 11.7206 14.3392 11.6022 14.2208C11.4837 14.1023 11.4172 13.9417 11.4172 13.7742V6.41418Z" fill="#D0DB23"/>
<path d="M21.9913 12.3619H13.9539C13.8709 12.3619 13.7888 12.3455 13.7122 12.3138C13.6356 12.282 13.5659 12.2356 13.5073 12.1769C13.4487 12.1183 13.4021 12.0486 13.3704 11.972C13.3387 11.8954 13.3223 11.8133 13.3223 11.7304V3.6929C13.3223 3.6105 13.3387 3.52893 13.3706 3.45294C13.4025 3.37696 13.4492 3.30807 13.508 3.25034C13.5668 3.19261 13.6365 3.14721 13.7131 3.11673C13.7896 3.08626 13.8715 3.07133 13.9539 3.07286C16.2469 3.07286 18.446 3.98376 20.0675 5.6052C21.6889 7.22664 22.5999 9.4258 22.5999 11.7189C22.603 11.8844 22.5409 12.0446 22.4271 12.1649C22.3133 12.2851 22.1568 12.3559 21.9913 12.3619V12.3619ZM14.6083 11.0988H21.3368C21.1866 9.36475 20.4294 7.73928 19.1987 6.50851C17.9679 5.27775 16.3424 4.5206 14.6083 4.37034V11.0988Z" fill="#D0DB23"/>
</svg>
