<svg width="26" height="26" viewBox="0 0 26 26" fill="none" xmlns="http://www.w3.org/2000/svg">
<path d="M25 1H1V25H25V1Z" stroke="#D0DB23" stroke-width="1.2" stroke-linejoin="round"/>
<path d="M20.5869 9.33706L16.3364 4.98242L3.99957 17.6214L8.25008 21.9761L20.5869 9.33706Z" stroke="#D0DB23" stroke-width="1.1" stroke-linejoin="round"/>
<path d="M18.4005 7.22156L6.15277 19.7809" stroke="#D0DB23" stroke-width="1.1" stroke-linejoin="round"/>
<path d="M8.22695 21.9762L3.40002 22.6001L3.99775 17.6549" stroke="#D0DB23" stroke-width="1.1" stroke-linejoin="round"/>
<path d="M16.2684 5.04914L17.024 4.27499C17.5717 3.71478 18.3139 3.40015 19.0878 3.40015C19.8617 3.40015 20.604 3.71478 21.1517 4.27499L21.2419 4.35588C21.7894 4.91893 22.0968 5.68129 22.0968 6.47606C22.0968 7.27082 21.7894 8.03323 21.2419 8.59627L20.4863 9.37038" stroke="#D0DB23" stroke-width="1.1" stroke-linejoin="round"/>
</svg>
