<svg width="22" height="26" viewBox="0 0 22 26" fill="none" xmlns="http://www.w3.org/2000/svg">
<path d="M0.850085 10.714C0.84036 13.5984 1.66256 16.4273 3.22307 18.8803C4.78352 21.3332 7.01968 23.3119 9.67764 24.5925C9.67776 24.5926 9.67789 24.5927 9.67801 24.5927L10.6714 25.0747L10.7369 24.9397L10.6714 25.0747C10.7737 25.1243 10.8861 25.15 11 25.15C11.1139 25.15 11.2263 25.1243 11.3286 25.0747L11.2631 24.9397L11.3286 25.0747L12.322 24.5927C12.3221 24.5927 12.3222 24.5926 12.3224 24.5925C14.9803 23.3119 17.2165 21.3332 18.7769 18.8803C20.3375 16.4273 21.1597 13.5982 21.1499 10.7138C21.1498 8.09636 20.0793 5.58709 18.1755 3.73766C16.2717 1.88825 13.6905 0.85 11 0.85C8.30945 0.85 5.72826 1.88825 3.82447 3.73766C1.9206 5.58715 0.850154 8.09653 0.850085 10.714ZM0.850085 10.714C0.850086 10.7139 0.850086 10.7139 0.850086 10.7138L1.00009 10.7143H0.850085C0.850085 10.7142 0.850085 10.7141 0.850085 10.714ZM19.6735 10.7145L19.6735 10.7148C19.6824 13.3289 18.9373 15.8936 17.5222 18.118C16.1071 20.3424 14.0784 22.1378 11.6656 23.3001L11.6652 23.3003L11 23.6234L10.3348 23.3003L10.3344 23.3001C7.92161 22.1378 5.89289 20.3424 4.47775 18.118C3.06265 15.8936 2.31757 13.3289 2.32655 10.7148L2.32655 10.7145C2.32905 8.48308 3.2426 6.34289 4.86821 4.7637C6.49394 3.18441 8.69906 2.29534 11 2.29286C13.3009 2.29534 15.5061 3.18441 17.1318 4.7637C18.7574 6.34289 19.6709 8.48308 19.6735 10.7145ZM6.73239 10.7143L6.73239 10.7145C6.73376 11.8161 7.18489 12.8713 7.98535 13.6489C8.78566 14.4263 9.86983 14.863 10.9998 14.8643L11 14.7143V14.8643C11.8431 14.8643 12.6676 14.6214 13.3693 14.166C14.071 13.7105 14.6186 13.0627 14.9422 12.3039C15.2657 11.545 15.3505 10.7097 15.1854 9.90383C15.0204 9.09797 14.6133 8.35836 14.0161 7.77827C13.419 7.19822 12.6588 6.80367 11.8318 6.64387C11.0048 6.48407 10.1475 6.56605 9.36826 6.87961C8.58896 7.19319 7.92219 7.72449 7.45274 8.407C6.98326 9.08956 6.73239 9.89251 6.73239 10.7143ZM8.67811 12.2166C8.37199 11.7716 8.20888 11.2488 8.20885 10.7144L8.20885 10.7143C8.20957 9.99795 8.50278 9.31024 9.0256 8.80234C9.54861 8.29427 10.2587 8.00781 11.0001 8.00714C11.5531 8.00717 12.0933 8.16648 12.5523 8.46448C13.0114 8.76247 13.3686 9.18556 13.5793 9.67974C13.79 10.1739 13.845 10.7173 13.7377 11.2416C13.6303 11.7659 13.3652 12.2481 12.9752 12.627C12.5851 13.0059 12.0876 13.2645 11.5453 13.3693C11.0031 13.474 10.441 13.4202 9.93046 13.2148C9.41994 13.0094 8.98429 12.6618 8.67811 12.2166Z" fill="#D0DB23" stroke="#D0DB23" stroke-width="0.3"/>
</svg>
