<svg width="24" height="26" viewBox="0 0 24 26" fill="none" xmlns="http://www.w3.org/2000/svg">
<path d="M5.48158 7.28572V7.2859C5.48363 8.99272 6.17151 10.6287 7.39369 11.835C8.6158 13.0412 10.2723 13.7194 11.9998 13.7214L12 13.5714V13.7214C13.2888 13.7214 14.5488 13.3442 15.6207 12.6373C16.6926 11.9304 17.5284 10.9254 18.022 9.7492C18.5156 8.57299 18.6448 7.2786 18.3931 6.0298C18.1414 4.78102 17.5203 3.63421 16.6085 2.73429C15.6968 1.83439 14.5354 1.22177 13.2713 0.973591C12.0072 0.725418 10.697 0.852772 9.50615 1.33963C8.31529 1.82649 7.29712 2.6511 6.58064 3.70947C5.86414 4.76787 5.48158 6.01241 5.48158 7.28572ZM17.7896 16.85H17.7895H6.21053V17L6.21036 16.85C4.78981 16.8515 3.42749 17.4092 2.42242 18.4012C1.41728 19.3933 0.851549 20.7388 0.85 22.1427V22.1429V24.4286C0.85 24.6205 0.927283 24.8043 1.0642 24.9394C1.20105 25.0745 1.38625 25.15 1.57895 25.15C1.77165 25.15 1.95684 25.0745 2.0937 24.9394C2.23061 24.8043 2.30789 24.6205 2.30789 24.4286L2.30789 22.143C2.30789 22.143 2.30789 22.143 2.30789 22.1429C2.30917 21.1229 2.72028 20.1445 3.45169 19.4226C4.18319 18.7006 5.17537 18.2941 6.21071 18.2929H17.7893C18.8246 18.2941 19.8168 18.7006 20.5483 19.4226C21.2797 20.1445 21.6909 21.1229 21.6921 22.143V24.4286C21.6921 24.6205 21.7694 24.8043 21.9063 24.9394C22.0432 25.0745 22.2284 25.15 22.4211 25.15C22.6138 25.15 22.799 25.0745 22.9358 24.9394C23.0727 24.8043 23.15 24.6205 23.15 24.4286V22.1429V22.1427C23.1485 20.7388 22.5827 19.3933 21.5776 18.4012C20.5725 17.4092 19.2102 16.8515 17.7896 16.85ZM12.0002 2.29286C13.0014 2.29289 13.98 2.58597 14.8122 3.13481C15.6445 3.68367 16.2928 4.46357 16.6756 5.37568C17.0584 6.28776 17.1585 7.29127 16.9634 8.2594C16.7683 9.22755 16.2866 10.1171 15.579 10.8155C14.8714 11.5139 13.9696 11.9898 12.9876 12.1826C12.0056 12.3754 10.9877 12.2764 10.0628 11.8983C9.13787 11.5201 8.34764 10.8799 7.79182 10.0588C7.23604 9.23787 6.93951 8.27288 6.93947 7.28588C6.94093 5.96273 7.4741 4.69378 8.42263 3.75757C9.37123 2.82128 10.6578 2.2943 12.0002 2.29286Z" fill="#D0DB23" stroke="#D0DB23" stroke-width="0.3"/>
</svg>
