<svg width="52" height="52" viewBox="0 0 52 52" fill="none" xmlns="http://www.w3.org/2000/svg">
<path fill-rule="evenodd" clip-rule="evenodd" d="M39.3594 24.6251C34.8035 24.6251 31.0938 28.3935 31.0938 33.0626C31.0938 37.7317 34.8035 41.5001 39.3594 41.5001C43.9152 41.5001 47.625 37.7317 47.625 33.0626C47.625 28.3935 43.9152 24.6251 39.3594 24.6251ZM30.0938 33.0626C30.0938 27.8596 34.233 23.6251 39.3594 23.6251C44.4857 23.6251 48.625 27.8596 48.625 33.0626C48.625 38.2656 44.4857 42.5001 39.3594 42.5001C34.233 42.5001 30.0938 38.2656 30.0938 33.0626Z" fill="#D0DB23"/>
<path fill-rule="evenodd" clip-rule="evenodd" d="M35.8197 19.7083C35.9032 19.9716 35.7575 20.2526 35.4943 20.3361C32.8355 21.1794 30.5092 22.8682 28.8565 25.1578C27.2037 27.4474 26.3118 30.2173 26.3125 33.0625C26.3126 33.3387 26.0888 33.5626 25.8126 33.5626C25.5365 33.5627 25.3126 33.3389 25.3125 33.0628C25.3117 30.0089 26.269 27.0338 28.0457 24.5725C29.8225 22.111 32.3262 20.2918 35.192 19.3829C35.4552 19.2994 35.7362 19.4451 35.8197 19.7083Z" fill="#4C4338"/>
<path fill-rule="evenodd" clip-rule="evenodd" d="M12.2656 24.6251C7.70975 24.6251 4 28.3935 4 33.0626C4 37.7317 7.70975 41.5001 12.2656 41.5001C16.8215 41.5001 20.5312 37.7317 20.5312 33.0626C20.5312 28.3935 16.8215 24.6251 12.2656 24.6251ZM3 33.0626C3 27.8596 7.13925 23.6251 12.2656 23.6251C17.392 23.6251 21.5312 27.8596 21.5312 33.0626C21.5312 38.2656 17.392 42.5001 12.2656 42.5001C7.13925 42.5001 3 38.2656 3 33.0626Z" fill="#D0DB23"/>
<path fill-rule="evenodd" clip-rule="evenodd" d="M32.042 9.0218C32.3062 8.94139 32.5856 9.09036 32.666 9.35454L39.8378 32.917C39.9182 33.1812 39.7693 33.4606 39.5051 33.541C39.2409 33.6214 38.9616 33.4724 38.8812 33.2082L31.7093 9.64573C31.6289 9.38155 31.7779 9.10221 32.042 9.0218Z" fill="#4C4338"/>
<path fill-rule="evenodd" clip-rule="evenodd" d="M26.9062 9.50012C26.9062 9.22398 27.1301 9.00012 27.4062 9.00012H36.9688C37.2449 9.00012 37.4688 9.22398 37.4688 9.50012C37.4688 9.77626 37.2449 10.0001 36.9688 10.0001H27.4062C27.1301 10.0001 26.9062 9.77626 26.9062 9.50012Z" fill="#4C4338"/>
<path fill-rule="evenodd" clip-rule="evenodd" d="M12.9111 32.5626L16.7341 17.75L15.7659 17.5001L11.7815 32.9376C11.7429 33.0874 11.7757 33.2465 11.8704 33.3688C11.9651 33.491 12.111 33.5626 12.2656 33.5626H25.8125V32.5626H12.9111Z" fill="#4C4338"/>
<path fill-rule="evenodd" clip-rule="evenodd" d="M12.5625 17.6251C12.5625 17.349 12.7864 17.1251 13.0625 17.1251H19.4375C19.7136 17.1251 19.9375 17.349 19.9375 17.6251C19.9375 17.9013 19.7136 18.1251 19.4375 18.1251H13.0625C12.7864 18.1251 12.5625 17.9013 12.5625 17.6251Z" fill="#4C4338"/>
</svg>
