<svg width="52" height="52" viewBox="0 0 52 52" fill="none" xmlns="http://www.w3.org/2000/svg">
<path d="M5 25.6214C11.0695 27.1387 12.5868 24.104 17.1389 24.104C21.691 24.104 23.2084 27.1387 26.2431 27.1387C29.2778 27.1387 30.7952 24.104 35.3473 24.104C39.8994 24.104 41.4167 27.1387 47.4862 25.6214" stroke="#D0DB23" stroke-linecap="round" stroke-linejoin="round"/>
<path d="M47.4862 25.6215C42.9341 25.6215 38.382 15 32.3126 15C29.2778 15 26.2431 18.0347 26.2431 18.0347C26.2431 18.0347 23.2084 15 20.1736 15C14.1042 15 9.55209 25.6215 5 25.6215C12.5868 28.6563 9.55209 37.7605 26.2431 37.7605C42.9341 37.7605 39.8994 28.6563 47.4862 25.6215Z" stroke="#4C4338" stroke-linecap="round" stroke-linejoin="round"/>
</svg>
