<svg width="23" height="23" viewBox="0 0 23 23" fill="none" xmlns="http://www.w3.org/2000/svg">
<path d="M17.15 11.5C17.1512 10.3773 17.0576 9.25669 16.8702 8.15H20.2214C20.6357 9.21805 20.8489 10.3538 20.85 11.5C20.8489 12.6462 20.6357 13.7819 20.2214 14.85H16.8702C17.0576 13.7433 17.1512 12.6227 17.15 11.5ZM17.15 11.5C17.15 11.5001 17.15 11.5001 17.15 11.5002L17 11.5L17.15 11.4998C17.15 11.4999 17.15 11.4999 17.15 11.5ZM22.15 11.5V11.4998C22.1468 8.67632 21.0237 5.96938 19.0272 3.97285C17.0306 1.97633 14.3237 0.853251 11.5002 0.85L11.5 1V0.85C9.39363 0.85 7.33457 1.47461 5.58318 2.64485C3.8318 3.81509 2.46676 5.47839 1.66069 7.42442C0.854614 9.37045 0.643709 11.5118 1.05464 13.5777C1.46557 15.6436 2.47989 17.5413 3.96932 19.0307C5.45875 20.5201 7.35639 21.5344 9.42229 21.9454C11.4882 22.3563 13.6295 22.1454 15.5756 21.3393C17.5216 20.5332 19.1849 19.1682 20.3552 17.4168C21.5254 15.6654 22.15 13.6064 22.15 11.5ZM3.39189 6.85C4.48978 4.94271 6.22141 3.48344 8.2812 2.72332C7.36772 3.94796 6.72499 5.35466 6.39768 6.85H3.39189ZM2.15 11.5C2.15109 10.3538 2.36432 9.21805 2.77862 8.15H6.13001C5.75667 10.3677 5.75667 12.6323 6.13001 14.85H2.77862C2.36432 13.7819 2.15109 12.6462 2.15 11.5ZM15.85 11.4999L15.85 11.5001C15.8511 12.6239 15.7485 13.7453 15.5434 14.85H7.45675C7.04776 12.6354 7.04776 10.3646 7.45675 8.15H15.5434C15.7485 9.25472 15.8511 10.3761 15.85 11.4999ZM6.39768 16.15C6.72499 17.6453 7.36772 19.052 8.2812 20.2767C6.22141 19.5166 4.48978 18.0573 3.39189 16.15H6.39768ZM16.6023 16.15H19.6081C18.5102 18.0573 16.7786 19.5166 14.7188 20.2767C15.6323 19.052 16.275 17.6453 16.6023 16.15ZM11.5 2.15C12.2717 2.15 13.0251 2.62268 13.6906 3.48525C14.3259 4.30875 14.8662 5.47022 15.2476 6.85H7.75244C8.13383 5.47022 8.6741 4.30875 9.3094 3.48525C9.97486 2.62268 10.7283 2.15 11.5 2.15ZM11.5 20.85C10.7283 20.85 9.97486 20.3773 9.3094 19.5147C8.6741 18.6913 8.13383 17.5298 7.75244 16.15H15.2476C14.8662 17.5298 14.3259 18.6913 13.6906 19.5147C13.0251 20.3773 12.2717 20.85 11.5 20.85ZM16.6023 6.85C16.275 5.35466 15.6323 3.94796 14.7188 2.72333C16.7786 3.48344 18.5102 4.94271 19.6081 6.85H16.6023Z" fill="#939393" stroke="#939393" stroke-width="0.3"/>
</svg>
