<svg width="24" height="24" viewBox="0 0 24 24" fill="none" xmlns="http://www.w3.org/2000/svg">
<path d="M5.14286 16.6316H9.21429L11.6572 19.8314C11.6971 19.8837 11.7488 19.9262 11.8083 19.9555C11.8678 19.9848 11.9335 20 12 20C12.0665 20 12.1322 19.9848 12.1917 19.9555C12.2512 19.9262 12.3029 19.8837 12.3428 19.8314L14.7857 16.6316H18.8571C19.4253 16.631 19.97 16.409 20.3717 16.0143C20.7734 15.6196 20.9994 15.0845 21 14.5263V6.10526C20.9994 5.54709 20.7734 5.01195 20.3717 4.61726C19.97 4.22258 19.4253 4.00059 18.8571 4H5.14286C4.57474 4.00066 4.03008 4.22267 3.62837 4.61734C3.22665 5.01201 3.00067 5.54711 3 6.10526V14.5263C3.00067 15.0845 3.22665 15.6196 3.62837 16.0142C4.03008 16.4089 4.57474 16.6309 5.14286 16.6316ZM3.85714 6.10526C3.85751 5.77037 3.99309 5.44929 4.23413 5.21248C4.47517 4.97567 4.80198 4.84247 5.14286 4.84211H18.8571C19.198 4.84247 19.5248 4.97567 19.7659 5.21248C20.0069 5.44929 20.1425 5.77037 20.1429 6.10526V14.5263C20.1425 14.8612 20.0069 15.1823 19.7659 15.4191C19.5248 15.6559 19.198 15.7891 18.8571 15.7895H14.5714C14.5048 15.7895 14.4392 15.8048 14.3796 15.834C14.3201 15.8633 14.2682 15.9058 14.2282 15.9581L12 18.8771L9.77134 15.9581C9.73146 15.9057 9.67972 15.8633 9.62022 15.834C9.56073 15.8047 9.49511 15.7895 9.42857 15.7895H5.14286C4.80198 15.7891 4.47517 15.6559 4.23413 15.4191C3.99309 15.1823 3.85751 14.8612 3.85714 14.5263V6.10526Z" fill="#939393" stroke="#939393" stroke-width="0.3"/>
</svg>
