<svg width="52" height="52" viewBox="0 0 52 52" fill="none" xmlns="http://www.w3.org/2000/svg">
<path fill-rule="evenodd" clip-rule="evenodd" d="M26.0625 10.5C24.3068 10.5 22.582 10.9621 21.0614 11.8397C19.5408 12.7174 18.278 13.9798 17.3998 15.5001C17.3105 15.6548 17.1455 15.75 16.9669 15.75H16.875C14.919 15.75 13.0432 16.527 11.6601 17.9101C10.277 19.2932 9.5 21.169 9.5 23.125C9.5 25.081 10.277 26.9568 11.6601 28.3399C13.0432 29.723 14.919 30.5 16.875 30.5C17.1511 30.5 17.375 30.7239 17.375 31V42.3125H34.75V31C34.75 30.8674 34.8027 30.7402 34.8965 30.6464C34.9903 30.5526 35.1175 30.5 35.2501 30.5C36.2187 30.5003 37.1778 30.3097 38.0727 29.9392C38.9676 29.5686 39.7807 29.0254 40.4655 28.3406C41.1504 27.6557 41.6936 26.8426 42.0642 25.9477C42.4347 25.0528 42.6253 24.0937 42.625 23.1251C42.6253 22.1566 42.4347 21.1972 42.0642 20.3023C41.6936 19.4074 41.1504 18.5943 40.4655 17.9095C39.7807 17.2246 38.9676 16.6814 38.0727 16.3108C37.1778 15.9403 36.2187 15.7497 35.2501 15.75H35.1581C34.9795 15.75 34.8145 15.6548 34.7252 15.5001C33.847 13.9798 32.5842 12.7174 31.0636 11.8397C29.543 10.9621 27.8182 10.5 26.0625 10.5ZM43.625 23.1249C43.6253 22.025 43.4088 20.9359 42.9881 19.9198C42.5673 18.9035 41.9504 17.9801 41.1727 17.2024C40.3949 16.4246 39.4715 15.8077 38.4552 15.3869C37.4987 14.9909 36.4775 14.7758 35.4436 14.7522C34.4861 13.1904 33.1528 11.891 31.5635 10.9737C29.8909 10.0082 27.9937 9.5 26.0625 9.5C24.1313 9.5 22.2341 10.0082 20.5615 10.9737C18.9722 11.891 17.6389 13.1904 16.6813 14.7522C14.5303 14.8019 12.4779 15.6781 10.953 17.203C9.38236 18.7736 8.5 20.9038 8.5 23.125C8.5 25.3462 9.38236 27.4764 10.953 29.047C12.4053 30.4994 14.3362 31.3632 16.375 31.4851V42.8125C16.375 43.0887 16.5989 43.3125 16.875 43.3125H35.25C35.5261 43.3125 35.75 43.0887 35.75 42.8125V31.4852C36.6789 31.4299 37.5933 31.22 38.4552 30.8631C39.4715 30.4423 40.3949 29.8254 41.1727 29.0477C41.9504 28.2699 42.5673 27.3465 42.9881 26.3303C43.4088 25.3141 43.6253 24.2247 43.625 23.1249Z" fill="#4C4338"/>
<path fill-rule="evenodd" clip-rule="evenodd" d="M26.0625 15.75C24.8027 15.75 23.5945 16.2504 22.7037 17.1412C21.8129 18.032 21.3125 19.2402 21.3125 20.5C21.3125 20.7761 21.0886 21 20.8125 21C20.5364 21 20.3125 20.7761 20.3125 20.5C20.3125 18.975 20.9183 17.5125 21.9966 16.4341C23.075 15.3558 24.5375 14.75 26.0625 14.75C26.3386 14.75 26.5625 14.9739 26.5625 15.25C26.5625 15.5261 26.3386 15.75 26.0625 15.75Z" fill="#D0DB23"/>
<path fill-rule="evenodd" clip-rule="evenodd" d="M16.875 37.0625H35.25V38.0625H16.875V37.0625Z" fill="#4C4338"/>
<path fill-rule="evenodd" clip-rule="evenodd" d="M16.875 21C16.3114 21 15.7709 21.2239 15.3724 21.6224C14.9739 22.0209 14.75 22.5614 14.75 23.125C14.75 23.4011 14.5261 23.625 14.25 23.625C13.9739 23.625 13.75 23.4011 13.75 23.125C13.75 22.2962 14.0792 21.5013 14.6653 20.9153C15.2513 20.3292 16.0462 20 16.875 20C17.1511 20 17.375 20.2239 17.375 20.5C17.375 20.7761 17.1511 21 16.875 21Z" fill="#D0DB23"/>
</svg>
