<svg width="21" height="21" viewBox="0 0 21 21" fill="none" xmlns="http://www.w3.org/2000/svg">
<path d="M10.2998 1.3125C8.56922 1.3125 6.8775 1.85134 5.43857 2.86087C3.99964 3.87041 2.87813 5.3053 2.21586 6.9841C1.5536 8.66289 1.38032 10.5102 1.71794 12.2924C2.05556 14.0746 2.88891 15.7116 4.11262 16.9965C5.33633 18.2814 6.89543 19.1565 8.59277 19.511C10.2901 19.8655 12.0494 19.6835 13.6483 18.9881C15.2471 18.2928 16.6137 17.1152 17.5752 15.6043C18.5366 14.0934 19.0498 12.3171 19.0498 10.5C19.0471 8.06418 18.1244 5.72894 16.484 4.00655C14.8437 2.28417 12.6196 1.3153 10.2998 1.3125ZM10.2998 18.8125C8.73404 18.8125 7.20343 18.325 5.90154 17.4116C4.59966 16.4982 3.58496 15.2 2.98576 13.6811C2.38657 12.1621 2.22979 10.4908 2.53526 8.87831C2.84072 7.26584 3.59471 5.7847 4.70188 4.62217C5.80905 3.45965 7.21966 2.66796 8.75534 2.34722C10.291 2.02648 11.8828 2.1911 13.3294 2.82025C14.776 3.4494 16.0124 4.51484 16.8823 5.88182C17.7522 7.24881 18.2165 8.85594 18.2165 10.5C18.2141 12.7038 17.3792 14.8167 15.8951 16.3751C14.411 17.9334 12.3987 18.81 10.2998 18.8125ZM14.4665 7.875C14.4665 8.04806 14.4176 8.21723 14.326 8.36112C14.2345 8.50502 14.1043 8.61717 13.952 8.68339C13.7998 8.74962 13.6322 8.76695 13.4706 8.73319C13.3089 8.69942 13.1604 8.61609 13.0439 8.49372C12.9273 8.37135 12.848 8.21544 12.8158 8.0457C12.7837 7.87597 12.8002 7.70004 12.8632 7.54015C12.9263 7.38027 13.0331 7.24361 13.1702 7.14746C13.3072 7.05132 13.4683 7 13.6331 7C13.8542 7 14.0661 7.09219 14.2224 7.25628C14.3787 7.42038 14.4665 7.64294 14.4665 7.875ZM6.96648 8.75C6.80166 8.75 6.64054 8.69868 6.5035 8.60254C6.36646 8.50639 6.25965 8.36973 6.19658 8.20985C6.1335 8.04996 6.117 7.87403 6.14915 7.7043C6.18131 7.53456 6.26068 7.37865 6.37722 7.25628C6.49376 7.13391 6.64225 7.05057 6.8039 7.01681C6.96555 6.98305 7.13311 7.00038 7.28538 7.06661C7.43765 7.13283 7.5678 7.24498 7.65937 7.38888C7.75093 7.53277 7.79981 7.70194 7.79981 7.875C7.79981 8.10706 7.71201 8.32962 7.55573 8.49372C7.39945 8.65781 7.18749 8.75 6.96648 8.75ZM14.0498 11.375C14.0498 12.4193 13.6547 13.4208 12.9515 14.1592C12.2482 14.8977 11.2944 15.3125 10.2998 15.3125C9.30525 15.3125 8.35142 14.8977 7.64816 14.1592C6.9449 13.4208 6.54981 12.4193 6.54981 11.375C6.54981 11.259 6.59371 11.1477 6.67185 11.0656C6.74999 10.9836 6.85597 10.9375 6.96648 10.9375C7.07698 10.9375 7.18296 10.9836 7.2611 11.0656C7.33924 11.1477 7.38314 11.259 7.38314 11.375C7.38314 12.1872 7.69043 12.9662 8.23741 13.5405C8.7844 14.1148 9.52626 14.4375 10.2998 14.4375C11.0734 14.4375 11.8152 14.1148 12.3622 13.5405C12.9092 12.9662 13.2165 12.1872 13.2165 11.375C13.2165 11.259 13.2604 11.1477 13.3385 11.0656C13.4167 10.9836 13.5226 10.9375 13.6331 10.9375C13.7436 10.9375 13.8496 10.9836 13.9278 11.0656C14.0059 11.1477 14.0498 11.259 14.0498 11.375Z" fill="#939393"/>
</svg>
