<svg width="21" height="21" viewBox="0 0 21 21" fill="none" xmlns="http://www.w3.org/2000/svg">
<path d="M19.4998 8.73032V17.8703C19.4998 18.2744 19.3399 18.662 19.0552 18.9487C18.7704 19.2353 18.3838 19.3977 17.9797 19.4003H2.97974C2.58007 19.3977 2.19753 19.2378 1.91492 18.9551C1.6323 18.6725 1.47235 18.29 1.46973 17.8903V3.10031C1.47235 2.69534 1.63441 2.3077 1.92078 2.02133C2.20714 1.73497 2.59478 1.57293 2.99976 1.57031H13.1997" stroke="#353535" stroke-width="1.3" stroke-miterlimit="10" stroke-linecap="round" stroke-linejoin="round"/>
<path d="M17.1991 1.67954L9.34914 8.43951C9.25411 8.51943 9.18174 8.62289 9.13918 8.73953L8.13918 11.5595C8.09909 11.6795 8.09086 11.808 8.11537 11.9321C8.13988 12.0563 8.19625 12.172 8.27895 12.2678C8.36164 12.3636 8.4678 12.4362 8.58705 12.4786C8.7063 12.521 8.83451 12.5316 8.95912 12.5095L11.8892 11.9495C12.0118 11.9274 12.1259 11.8721 12.2191 11.7895L20.0692 5.02951C20.2064 4.90327 20.29 4.72936 20.303 4.54343C20.316 4.35749 20.2574 4.17363 20.1392 4.02951L18.1991 1.76953C18.077 1.62727 17.9042 1.53826 17.7174 1.52145C17.5307 1.50465 17.3447 1.56137 17.1991 1.67954Z" stroke="#353535" stroke-width="1.3" stroke-miterlimit="10" stroke-linejoin="round"/>
</svg>
