<svg width="21" height="21" viewBox="0 0 21 21" fill="none" xmlns="http://www.w3.org/2000/svg">
<path d="M17.4999 13.5626L17.6201 13.4729C17.3564 13.1195 17.2134 12.6906 17.2124 12.2497V8.13279C17.2337 6.35798 16.5697 4.6433 15.3588 3.34561C14.1476 2.04771 12.4825 1.26694 10.7101 1.16584L10.7101 1.16579L10.7062 1.16567C9.80772 1.13806 8.91289 1.29117 8.07475 1.61592C7.2366 1.94068 6.47221 2.43046 5.82693 3.05622C5.18165 3.68197 4.66862 4.43095 4.31827 5.25872C3.96793 6.0865 3.7874 6.97621 3.7874 7.87507V12.2499C3.78645 12.6907 3.64354 13.1194 3.37986 13.4726C3.11946 13.8199 2.9609 14.2328 2.92194 14.6651C2.88297 15.0975 2.96516 15.5321 3.15929 15.9204C3.35342 16.3086 3.65182 16.6352 4.02106 16.8634C4.3903 17.0916 4.8158 17.2125 5.24988 17.2126H7.35387C7.4837 17.9258 7.85245 18.5753 8.40142 19.0527C8.98338 19.5588 9.72864 19.8376 10.4999 19.8376C11.2711 19.8376 12.0164 19.5588 12.5984 19.0527C13.1473 18.5753 13.5161 17.9258 13.6459 17.2126H15.7499C15.7499 17.2126 15.7499 17.2126 15.7499 17.2126C16.184 17.2126 16.6096 17.0918 16.9789 16.8636C17.3482 16.6354 17.6467 16.3089 17.8409 15.9205C18.035 15.5322 18.1172 15.0975 18.0781 14.6652C18.0391 14.2328 17.8804 13.8198 17.6199 13.4725L17.4999 13.5626ZM17.4999 13.5626C17.7437 13.8875 17.8922 14.274 17.9287 14.6786C17.9653 15.0833 17.8884 15.4901 17.7067 15.8535C17.525 16.2169 17.2457 16.5225 16.9001 16.736C16.5544 16.9496 16.1562 17.0626 15.7499 17.0626L17.0624 12.2501C17.0635 12.7232 17.2169 13.1834 17.4999 13.5626ZM4.31987 14.1775L4.31972 14.1777C4.19019 14.3504 4.11131 14.5558 4.09193 14.7708C4.07256 14.9858 4.11344 15.202 4.21001 15.3951C4.30658 15.5882 4.45501 15.7505 4.63867 15.864C4.82234 15.9775 5.03398 16.0376 5.24987 16.0376H5.2499H15.7499H15.7499C15.9659 16.0376 16.1776 15.9775 16.3612 15.864C16.5449 15.7505 16.6934 15.588 16.7899 15.3948C16.8864 15.2017 16.9271 14.9854 16.9076 14.7704C16.8881 14.5553 16.809 14.35 16.6793 14.1773L16.6789 14.1769C16.2638 13.6203 16.0389 12.9448 16.0374 12.2504L16.0374 12.2501L16.0374 8.13181V8.12958L16.0374 8.12958C16.0592 6.65877 15.5131 5.23617 14.5126 4.15784C13.5125 3.07995 12.1355 2.42903 10.6678 2.3404C10.6116 2.33841 10.5551 2.33757 10.4982 2.33757L4.31987 14.1775ZM4.31987 14.1775C4.7358 13.6209 4.96113 12.9451 4.9624 12.2503V12.2501M4.31987 14.1775L4.9624 12.2501M4.9624 12.2501V7.87507M4.9624 12.2501V7.87507M4.9624 7.87507C4.96237 6.40672 5.54554 4.99848 6.58366 3.96004M4.9624 7.87507L6.58366 3.96004M6.58366 3.96004C7.62177 2.92161 9.02981 2.33801 10.4981 2.33757L6.58366 3.96004ZM10.4999 18.6626C10.0305 18.6619 9.57559 18.4994 9.21196 18.2025C8.89647 17.9449 8.66639 17.5998 8.54927 17.2126H12.4506C12.3335 17.5998 12.1034 17.9449 11.7879 18.2026C11.4243 18.4995 10.9694 18.6619 10.4999 18.6626Z" fill="#353535" stroke="#353535" stroke-width="0.3"/>
</svg>
