<svg width="85" height="35" viewBox="0 0 85 35" fill="none" xmlns="http://www.w3.org/2000/svg">
<path d="M60.1779 0.000536596C56.8328 -0.0213761 53.5172 0.628051 50.4275 1.91038C47.3378 3.19271 44.5368 5.08187 42.1903 7.46604C39.8459 5.08412 37.0479 3.19625 33.9616 1.91399C30.8753 0.631734 27.5632 -0.018895 24.2212 0.000536596C10.8555 0.000536596 0 10.078 0 22.573V34.5308H84.4176V22.573C84.4176 10.078 73.5621 0.000536596 60.1779 0.000536596Z" fill="#E3EF27"/>
<path d="M35.1957 20.243V28.7459H31.7871V20.243C31.8401 19.1713 31.4664 18.1222 30.7477 17.3255C30.029 16.5287 29.024 16.049 27.9525 15.9916C25.8406 15.9916 24.1271 18.2794 24.1271 21.0951V28.7459H20.7371V20.243C20.7901 19.1728 20.4176 18.1251 19.7009 17.3286C18.9842 16.532 17.9815 16.0514 16.9117 15.9916C14.7906 15.9916 13.077 18.2794 13.077 21.0951V28.7459H9.67773V13.4444H13.0493C13.0208 13.667 12.9743 13.8869 12.9103 14.102L11.9841 16.7696L12.4194 16.9178L12.9381 15.4451C13.1105 14.9106 13.4133 14.4275 13.8192 14.0394C14.2251 13.6513 14.7213 13.3704 15.263 13.2221C15.8023 13.0878 16.3559 13.0193 16.9117 13.0183C17.9955 13.0174 19.0655 13.2609 20.0422 13.7308C21.0188 14.2007 21.8769 14.8848 22.5525 15.7322C23.1882 14.9003 24.0046 14.2237 24.94 13.7536C25.8755 13.2834 26.9056 13.032 27.9525 13.0183C28.9025 13.0171 29.8434 13.203 30.7215 13.5654C31.5996 13.9278 32.3978 14.4597 33.0704 15.1305C33.743 15.8014 34.2768 16.5982 34.6415 17.4754C35.0061 18.3526 35.1945 19.293 35.1957 20.243Z" fill="#4C4338"/>
<path d="M55.7401 21.0951C55.7401 25.5596 51.6461 29.172 46.5981 29.172C41.55 29.172 37.4561 25.5596 37.4561 21.0951C37.4561 16.6307 41.55 13.0183 46.5981 13.0183C51.6461 13.0183 55.7401 16.6307 55.7401 21.0951ZM52.3408 21.0951C52.3408 18.3164 49.7658 15.9915 46.5981 15.9915C43.4303 15.9915 40.8554 18.2794 40.8554 21.0951C40.8554 23.9109 43.4303 26.1987 46.5981 26.1987C49.7658 26.1987 52.35 23.9109 52.35 21.0951H52.3408Z" fill="#4C4338"/>
<path d="M75.8864 13.4446V28.7462H72.4871V21.0954C72.4871 18.3167 69.9214 15.9918 66.7444 15.9918C63.5674 15.9918 61.0109 18.2796 61.0109 21.0954C61.0109 23.9112 62.7245 26.199 64.8363 26.199C65.3717 26.1753 65.8971 26.0457 66.3822 25.8178C66.8672 25.5899 67.3023 25.2681 67.6623 24.8711C68.0223 24.4741 68.3001 24.0097 68.4795 23.5047C68.659 22.9997 68.7367 22.4642 68.708 21.929H72.1073C72.1073 23.8451 71.3461 25.6827 69.9912 27.0376C68.6364 28.3925 66.7987 29.1537 64.8826 29.1537C60.8905 29.1537 57.6487 25.5414 57.6487 21.0769C57.6487 16.6124 61.7427 13 66.7907 13C68.176 12.9957 69.5475 13.2763 70.8198 13.8244C71.6009 14.1683 72.2276 14.7883 72.5797 15.5657L73.1818 16.918L73.5893 16.7328L72.8298 15.01C72.6352 14.5759 72.5342 14.1056 72.5334 13.6299V13.4261L75.8864 13.4446Z" fill="#4C4338"/>
</svg>
