<svg width="21" height="23" viewBox="0 0 21 23" fill="none" xmlns="http://www.w3.org/2000/svg">
<path d="M10.4998 12.15H10.5C11.6175 12.15 12.7098 11.8186 13.639 11.1978C14.5681 10.577 15.2923 9.69457 15.7199 8.66216C16.1476 7.62976 16.2594 6.49373 16.0414 5.39774C15.8234 4.30175 15.2853 3.29502 14.4952 2.50485C13.705 1.71468 12.6983 1.17657 11.6023 0.958566C10.5063 0.740559 9.37024 0.852448 8.33784 1.28008C7.30544 1.70772 6.42303 2.43189 5.8022 3.36103C5.18137 4.29017 4.85 5.38254 4.85 6.5L4.85 6.50018C4.85178 7.99806 5.4476 9.43408 6.50676 10.4932C7.56592 11.5524 9.00194 12.1482 10.4998 12.15ZM5.5 14.85H5.49984C4.26704 14.8513 3.08511 15.3417 2.21339 16.2134C1.34167 17.0851 0.851343 18.267 0.85 19.4998V19.5V21.5C0.85 21.6724 0.918482 21.8377 1.04038 21.9596C1.16228 22.0815 1.32761 22.15 1.5 22.15C1.67239 22.15 1.83772 22.0815 1.95962 21.9596C2.08152 21.8377 2.15 21.6724 2.15 21.5L2.15 19.5002C2.15 19.5002 2.15 19.5001 2.15 19.5001C2.1511 18.6119 2.50441 17.7605 3.13243 17.1324C3.76048 16.5044 4.61199 16.1511 5.50018 16.15H15.4998C16.388 16.1511 17.2395 16.5044 17.8676 17.1324C18.4956 17.7605 18.8489 18.612 18.85 19.5002V21.5C18.85 21.6724 18.9185 21.8377 19.0404 21.9596C19.1623 22.0815 19.3276 22.15 19.5 22.15C19.6724 22.15 19.8377 22.0815 19.9596 21.9596C20.0815 21.8377 20.15 21.6724 20.15 21.5V19.5V19.4998C20.1487 18.267 19.6583 17.0851 18.7866 16.2134C17.9149 15.3417 16.733 14.8513 15.5002 14.85H15.5H5.5ZM10.5002 2.15C11.3605 2.15003 12.2014 2.40516 12.9167 2.88311C13.6321 3.36109 14.1896 4.04047 14.5189 4.83533C14.8481 5.63019 14.9343 6.50483 14.7664 7.34865C14.5986 8.19246 14.1843 8.96756 13.5759 9.57592C12.9676 10.1843 12.1925 10.5986 11.3486 10.7664C10.5048 10.9343 9.63019 10.8481 8.83533 10.5189C8.04047 10.1896 7.36109 9.63209 6.88311 8.91673C6.40515 8.20142 6.15003 7.36046 6.15 6.50017C6.15126 5.34682 6.60998 4.24107 7.42552 3.42552C8.24106 2.60998 9.34681 2.15126 10.5002 2.15Z" fill="#939393" stroke="#939393" stroke-width="0.3"/>
</svg>
