<svg width="24" height="24" viewBox="0 0 24 24" fill="none" xmlns="http://www.w3.org/2000/svg">
<path d="M14.619 12L14.469 12.0001C14.469 11.9116 14.4864 11.8239 14.5202 11.7421C14.5541 11.6604 14.6037 11.586 14.6663 11.5235C14.7289 11.4609 14.8032 11.4112 14.885 11.3774L14.619 12ZM14.619 12C14.619 12.0688 14.6325 12.1369 14.6588 12.2005C14.6852 12.2641 14.7237 12.3218 14.7724 12.3705C14.821 12.4191 14.8788 12.4577 14.9424 12.484C15.0059 12.5103 15.0741 12.5239 15.1429 12.5238V12.6738C15.1429 12.6738 15.1429 12.6738 15.1429 12.6738C16.7108 12.6738 18.2145 12.0509 19.3232 10.9423C20.4319 9.83356 21.0548 8.32984 21.0548 6.76191C21.0548 5.19397 20.4319 3.69025 19.3232 2.58156C18.2145 1.47286 16.7108 0.85 15.1429 0.85C14.9642 0.85 14.7928 0.92099 14.6664 1.04735C14.54 1.17372 14.469 1.3451 14.469 1.52381C14.469 1.70251 14.54 1.8739 14.6664 2.00026C14.7928 2.12663 14.9642 2.19762 15.1429 2.19762C16.3534 2.19762 17.5143 2.6785 18.3703 3.53447C19.2263 4.39044 19.7071 5.55138 19.7071 6.76191C19.7071 7.97243 19.2263 9.13337 18.3703 9.98934C17.5143 10.8453 16.3534 11.3262 15.1429 11.3262L14.619 12ZM14.769 6.76191V6.76173C14.7672 5.19441 14.1437 3.69182 13.0355 2.58356C11.9272 1.4753 10.4246 0.85186 8.85732 0.85L8.85714 0.999799V0.85C7.68788 0.85 6.54487 1.19673 5.57266 1.84634C4.60046 2.49594 3.84271 3.41926 3.39526 4.49952C2.9478 5.57978 2.83072 6.76846 3.05883 7.91526C3.28695 9.06206 3.85 10.1155 4.6768 10.9423C5.50359 11.769 6.55699 12.3321 7.70379 12.5602C8.85058 12.7883 10.0393 12.6713 11.1195 12.2238C12.1998 11.7763 13.1231 11.0186 13.7727 10.0464C14.4223 9.07418 14.769 7.93117 14.769 6.76191ZM0.85 20.3808V20.381V22.4762C0.85 22.6549 0.92099 22.8263 1.04735 22.9526C1.17372 23.079 1.3451 23.15 1.52381 23.15C1.70251 23.15 1.8739 23.079 2.00026 22.9526C2.12663 22.8263 2.19762 22.6549 2.19762 22.4762L2.19762 20.3811C2.19762 20.3811 2.19762 20.3811 2.19762 20.381C2.19877 19.4487 2.56966 18.5549 3.22893 17.8956C3.88822 17.2363 4.78209 16.8654 5.71447 16.8643H11.9998C12.9322 16.8654 13.8261 17.2363 14.4854 17.8956C15.1447 18.5549 15.5155 19.4488 15.5167 20.3811V22.4762C15.5167 22.6549 15.5877 22.8263 15.714 22.9526C15.8404 23.079 16.0118 23.15 16.1905 23.15C16.3692 23.15 16.5406 23.079 16.6669 22.9526C16.7933 22.8263 16.8643 22.6549 16.8643 22.4762V20.381V20.3808C16.8629 19.0912 16.35 17.8548 15.4381 16.9429C14.5262 16.031 13.2898 15.5181 12.0002 15.5167H12H5.71429H5.71412C4.42451 15.5181 3.18812 16.031 2.27622 16.9429C1.36432 17.8548 0.851405 19.0912 0.85 20.3808ZM18.2859 15.5167H18.2857C18.107 15.5167 17.9356 15.5877 17.8093 15.714C17.6829 15.8404 17.6119 16.0118 17.6119 16.1905C17.6119 16.3692 17.6829 16.5406 17.8093 16.6669C17.9356 16.7933 18.1069 16.8642 18.2855 16.8643C19.2179 16.8654 20.1118 17.2363 20.7711 17.8956C21.4304 18.5549 21.8013 19.4488 21.8024 20.3811V22.4762C21.8024 22.6549 21.8734 22.8263 21.9997 22.9526C22.1261 23.079 22.2975 23.15 22.4762 23.15C22.6549 23.15 22.8263 23.079 22.9526 22.9526C23.079 22.8263 23.15 22.6549 23.15 22.4762V20.381V20.3808C23.1486 19.0912 22.6357 17.8548 21.7238 16.9429C20.8119 16.031 19.5755 15.5181 18.2859 15.5167ZM8.85698 11.3262C7.95431 11.3262 7.07191 11.0585 6.32136 10.557C5.57077 10.0554 4.98575 9.3426 4.64029 8.50858C4.29483 7.67457 4.20444 6.75684 4.38056 5.87146C4.55667 4.98607 4.99138 4.17279 5.62971 3.53447C6.26803 2.89614 7.08131 2.46143 7.96669 2.28532C8.85208 2.10921 9.76981 2.19959 10.6038 2.54505C11.4378 2.89051 12.1507 3.47553 12.6522 4.22612C13.1537 4.97667 13.4214 5.85907 13.4214 6.76174C13.4201 7.9719 12.9388 9.13212 12.0831 9.98784C11.2274 10.8436 10.0671 11.3249 8.85698 11.3262Z" fill="#D0DB23" stroke="#D0DB23" stroke-width="0.3"/>
</svg>
