<svg width="29" height="26" viewBox="0 0 29 26" fill="none" xmlns="http://www.w3.org/2000/svg">
<path d="M14.5 19C16.9853 19 19 16.9853 19 14.5C19 12.0147 16.9853 10 14.5 10C12.0147 10 10 12.0147 10 14.5C10 16.9853 12.0147 19 14.5 19Z" fill="#C0C0C2"/>
<path d="M10.15 0L7.4965 2.88889H2.9C1.305 2.88889 0 4.18889 0 5.77778V23.1111C0 24.7 1.305 26 2.9 26H26.1C27.695 26 29 24.7 29 23.1111V5.77778C29 4.18889 27.695 2.88889 26.1 2.88889H21.5035L18.85 0H10.15ZM14.5 21.6667C10.498 21.6667 7.25 18.4311 7.25 14.4444C7.25 10.4578 10.498 7.22222 14.5 7.22222C18.502 7.22222 21.75 10.4578 21.75 14.4444C21.75 18.4311 18.502 21.6667 14.5 21.6667Z" fill="#C0C0C2"/>
</svg>
