<svg width="51" height="17" viewBox="0 0 51 17" fill="none" xmlns="http://www.w3.org/2000/svg">
<path d="M21.3786 16L19.0686 0.599999H14.8446L11.1926 8.982L7.56263 0.599999H3.31663L0.984625 16H5.29663L6.48463 7.156L10.5546 16.044H11.8086L15.9006 7.134L17.0886 16H21.3786ZM29.0915 16.396C32.9635 16.396 35.7575 13.734 35.7575 10.06C35.7575 6.386 32.9635 3.746 29.0915 3.746C25.2195 3.746 22.4475 6.386 22.4475 10.06C22.4475 13.734 25.2195 16.396 29.0915 16.396ZM29.0915 12.722C27.6175 12.722 26.5395 11.644 26.5395 10.082C26.5395 8.498 27.6175 7.42 29.0915 7.42C30.5875 7.42 31.6655 8.52 31.6655 10.082C31.6655 11.644 30.5875 12.722 29.0915 12.722ZM47.245 4.12L46.827 5.044C45.859 4.23 44.605 3.768 43.197 3.768C39.567 3.768 36.971 6.386 36.971 10.06C36.971 13.756 39.567 16.396 43.197 16.396C44.583 16.396 45.815 15.956 46.783 15.164L47.135 16H50.303V4.12H47.245ZM43.747 12.788C42.207 12.788 41.085 11.622 41.085 10.06C41.085 8.52 42.207 7.376 43.747 7.376C45.287 7.376 46.409 8.52 46.409 10.06C46.409 11.622 45.287 12.788 43.747 12.788Z" fill="#FAFAFA"/>
</svg>
