<svg width="370" height="140" viewBox="0 0 370 140" fill="none" xmlns="http://www.w3.org/2000/svg">
<path fill-rule="evenodd" clip-rule="evenodd" d="M272.089 1H3C1.89543 1 1 1.89543 1 3V137C1 138.105 1.89542 139 2.99999 139H272.01C272.272 132.328 277.764 127 284.5 127C291.236 127 296.728 132.328 296.99 139H367C368.105 139 369 138.105 369 137V3C369 1.89543 368.105 1 367 1H296.911C296.17 7.19668 290.896 12 284.5 12C278.104 12 272.83 7.19668 272.089 1ZM273.011 0H3C1.34315 0 0 1.34315 0 3V137C0 138.657 1.34314 140 2.99999 140H273.011C273.004 139.834 273 139.668 273 139.5C273 139.332 273.004 139.166 273.011 139C273.272 132.881 278.316 128 284.5 128C290.684 128 295.728 132.881 295.989 139C295.996 139.166 296 139.332 296 139.5C296 139.668 295.996 139.834 295.989 140H367C368.657 140 370 138.657 370 137V3C370 1.34315 368.657 0 367 0H295.989C295.728 6.11931 290.684 11 284.5 11C278.316 11 273.272 6.11931 273.011 0Z" fill="#EEEEEE"/>
<path fill-rule="evenodd" clip-rule="evenodd" d="M284 13.9828L284 13L285 13L285 13.9828L284 13.9828ZM284 17.9138L284 15.9483L285 15.9483L285 17.9138L284 17.9138ZM284 21.8448L284 19.8793L285 19.8793L285 21.8448L284 21.8448ZM284 25.7759L284 23.8103L285 23.8103L285 25.7759L284 25.7759ZM284 29.7069L284 27.7414L285 27.7414L285 29.7069L284 29.7069ZM284 33.6379L284 31.6724L285 31.6724L285 33.6379L284 33.6379ZM284 37.569L284 35.6034L285 35.6034L285 37.569L284 37.569ZM284 41.5L284 39.5345L285 39.5345L285 41.5L284 41.5ZM284 45.431L284 43.4655L285 43.4655L285 45.431L284 45.431ZM284 49.3621L284 47.3966L285 47.3966L285 49.3621L284 49.3621ZM284 53.2931L284 51.3276L285 51.3276L285 53.2931L284 53.2931ZM284 57.2241L284 55.2586L285 55.2586L285 57.2241L284 57.2241ZM284 61.1552L284 59.1897L285 59.1897L285 61.1552L284 61.1552ZM284 65.0862L284 63.1207L285 63.1207L285 65.0862L284 65.0862ZM284 69.0173L284 67.0517L285 67.0517L285 69.0173L284 69.0173ZM284 72.9483L284 70.9828L285 70.9828L285 72.9483L284 72.9483ZM284 76.8793L284 74.9138L285 74.9138L285 76.8793L284 76.8793ZM284 80.8104L284 78.8449L285 78.8449L285 80.8104L284 80.8104ZM284 84.7414L284 82.7759L285 82.7759L285 84.7414L284 84.7414ZM284 88.6724L284 86.7069L285 86.7069L285 88.6724L284 88.6724ZM284 92.6035L284 90.6379L285 90.6379L285 92.6035L284 92.6035ZM284 96.5345L284 94.569L285 94.569L285 96.5345L284 96.5345ZM284 100.466L284 98.5L285 98.5L285 100.466L284 100.466ZM284 104.397L284 102.431L285 102.431L285 104.397L284 104.397ZM284 108.328L284 106.362L285 106.362L285 108.328L284 108.328ZM284 112.259L284 110.293L285 110.293L285 112.259L284 112.259ZM284 116.19L284 114.224L285 114.224L285 116.19L284 116.19ZM284 120.121L284 118.155L285 118.155L285 120.121L284 120.121ZM284 124.052L284 122.086L285 122.086L285 124.052L284 124.052ZM284 127L284 126.017L285 126.017L285 127L284 127Z" fill="#EEEEEE"/>
</svg>
