<svg width="370" height="140" viewBox="0 0 370 140" fill="none" xmlns="http://www.w3.org/2000/svg">
<path fill-rule="evenodd" clip-rule="evenodd" d="M273.011 0H3C1.34315 0 0 1.34315 0 3V137C0 138.657 1.34314 140 2.99999 140H273.011C273.004 139.834 273 139.668 273 139.5C273 133.149 278.149 128 284.5 128C290.851 128 296 133.149 296 139.5C296 139.668 295.996 139.834 295.989 140H367C368.657 140 370 138.657 370 137V3C370 1.34315 368.657 0 367 0H295.989C295.728 6.11931 290.684 11 284.5 11C278.316 11 273.272 6.11931 273.011 0Z" fill="#FAFAFA"/>
</svg>
