<svg width="20" height="20" viewBox="0 0 20 20" fill="none" xmlns="http://www.w3.org/2000/svg">
<path d="M1.6 2.35H18.4C18.5989 2.35 18.7897 2.27098 18.9303 2.13033C19.071 1.98968 19.15 1.79891 19.15 1.6C19.15 1.40109 19.071 1.21032 18.9303 1.06967C18.7897 0.929018 18.5989 0.85 18.4 0.85H1.6C1.40109 0.85 1.21032 0.929018 1.06967 1.06967C0.929017 1.21032 0.85 1.40109 0.85 1.6C0.85 1.79891 0.929017 1.98968 1.06967 2.13033C1.21032 2.27098 1.40109 2.35 1.6 2.35ZM1.6 10.75H18.4C18.5989 10.75 18.7897 10.671 18.9303 10.5303C19.071 10.3897 19.15 10.1989 19.15 10C19.15 9.80109 19.071 9.61032 18.9303 9.46967C18.7897 9.32902 18.5989 9.25 18.4 9.25H1.6C1.40109 9.25 1.21032 9.32902 1.06967 9.46967C0.929017 9.61032 0.85 9.80109 0.85 10C0.85 10.1989 0.929017 10.3897 1.06967 10.5303C1.21032 10.671 1.40109 10.75 1.6 10.75ZM1.6 19.15H18.4C18.5989 19.15 18.7897 19.071 18.9303 18.9303C19.071 18.7897 19.15 18.5989 19.15 18.4C19.15 18.2011 19.071 18.0103 18.9303 17.8697C18.7897 17.729 18.5989 17.65 18.4 17.65H1.6C1.40109 17.65 1.21032 17.729 1.06967 17.8697C0.929017 18.0103 0.85 18.2011 0.85 18.4C0.85 18.5989 0.929017 18.7897 1.06967 18.9303C1.21032 19.071 1.40109 19.15 1.6 19.15Z" fill="#939393" stroke="#939393" stroke-width="0.3"/>
</svg>
