<svg width="52" height="52" viewBox="0 0 52 52" fill="none" xmlns="http://www.w3.org/2000/svg">
<path fill-rule="evenodd" clip-rule="evenodd" d="M7.5 20.4375C7.5 20.1614 7.72386 19.9375 8 19.9375H34.875C35.1511 19.9375 35.375 20.1614 35.375 20.4375V35.2188C35.375 35.4949 35.1511 35.7188 34.875 35.7188H8C7.72386 35.7188 7.5 35.4949 7.5 35.2188V20.4375ZM8.5 20.9375V34.7188H34.375V20.9375H8.5Z" fill="#4C4338"/>
<path fill-rule="evenodd" clip-rule="evenodd" d="M44.5823 20.0383C44.7076 20.1328 44.7812 20.2806 44.7812 20.4375V35.2188C44.7812 35.3757 44.7076 35.5234 44.5823 35.6179C44.4571 35.7124 44.2947 35.7426 44.1439 35.6995L34.7376 33.012C34.523 32.9507 34.375 32.7545 34.375 32.5313V23.125C34.375 22.9018 34.523 22.7056 34.7376 22.6442L44.1439 19.9567C44.2947 19.9136 44.4571 19.9438 44.5823 20.0383ZM35.375 23.5022V32.1541L43.7812 34.5559V21.1004L35.375 23.5022Z" fill="#4C4338"/>
<path fill-rule="evenodd" clip-rule="evenodd" d="M12.875 35.2188C12.875 34.9426 13.0989 34.7188 13.375 34.7188H28.1562C28.4324 34.7188 28.6562 34.9426 28.6562 35.2188V40.5938C28.6562 40.8699 28.4324 41.0938 28.1562 41.0938H13.375C13.0989 41.0938 12.875 40.8699 12.875 40.5938V35.2188ZM13.875 35.7188V40.0938H27.6562V35.7188H13.875Z" fill="#4C4338"/>
<path fill-rule="evenodd" clip-rule="evenodd" d="M28.1562 7.5C24.7217 7.5 21.9375 10.2842 21.9375 13.7188C21.9375 17.1533 24.7217 19.9375 28.1562 19.9375C31.5908 19.9375 34.375 17.1533 34.375 13.7188C34.375 10.2842 31.5908 7.5 28.1562 7.5ZM20.9375 13.7188C20.9375 9.73194 24.1694 6.5 28.1562 6.5C32.1431 6.5 35.375 9.73194 35.375 13.7188C35.375 17.7056 32.1431 20.9375 28.1562 20.9375C24.1694 20.9375 20.9375 17.7056 20.9375 13.7188Z" fill="#4C4338"/>
<path fill-rule="evenodd" clip-rule="evenodd" d="M14.7188 7.5C11.2842 7.5 8.5 10.2842 8.5 13.7188C8.5 17.1533 11.2842 19.9375 14.7188 19.9375C18.1533 19.9375 20.9375 17.1533 20.9375 13.7188C20.9375 10.2842 18.1533 7.5 14.7188 7.5ZM7.5 13.7188C7.5 9.73194 10.7319 6.5 14.7188 6.5C18.7056 6.5 21.9375 9.73194 21.9375 13.7188C21.9375 17.7056 18.7056 20.9375 14.7188 20.9375C10.7319 20.9375 7.5 17.7056 7.5 13.7188Z" fill="#4C4338"/>
<path fill-rule="evenodd" clip-rule="evenodd" d="M24.125 26.3125H12.0312V25.3125H24.125V26.3125Z" fill="#D0DB23"/>
<path fill-rule="evenodd" clip-rule="evenodd" d="M24.125 30.3438H12.0312V29.3438H24.125V30.3438Z" fill="#D0DB23"/>
<path fill-rule="evenodd" clip-rule="evenodd" d="M16.9062 40.5938C16.9062 40.3176 17.1301 40.0938 17.4062 40.0938H24.125C24.4011 40.0938 24.625 40.3176 24.625 40.5938V44.625C24.625 44.9011 24.4011 45.125 24.125 45.125H17.4062C17.1301 45.125 16.9062 44.9011 16.9062 44.625V40.5938ZM17.9062 41.0938V44.125H23.625V41.0938H17.9062Z" fill="#4C4338"/>
</svg>
