<svg width="19" height="17" viewBox="0 0 19 17" fill="none" xmlns="http://www.w3.org/2000/svg">
<path d="M15.9763 0.85H15.9762L3.02381 0.85L3.02367 0.85C2.44854 0.850518 1.89638 1.07353 1.48858 1.47122C1.08065 1.86905 0.850534 2.40927 0.85 2.97354V2.97368L0.85 14.0263L0.85 14.0265C0.850534 14.5907 1.08065 15.131 1.48858 15.5288C1.89638 15.9265 2.44854 16.1495 3.02367 16.15H3.02381H15.9762H15.9763C16.5515 16.1495 17.1036 15.9265 17.5114 15.5288C17.9193 15.131 18.1495 14.5907 18.15 14.0265V14.0263V2.97368V2.97354C18.1495 2.40927 17.9193 1.86905 17.5114 1.47122C17.1036 1.07353 16.5515 0.850518 15.9763 0.85ZM17.0405 14.0261C17.0402 14.2992 16.9289 14.5617 16.7297 14.7559C16.5304 14.9503 16.2594 15.0602 15.976 15.0605H3.02397C2.74056 15.0602 2.46958 14.9503 2.2703 14.7559C2.07116 14.5617 1.95986 14.2992 1.95952 14.0262V6.30068L8.38305 10.0596C8.38307 10.0596 8.38308 10.0596 8.38309 10.0596C8.7207 10.2573 9.10676 10.3616 9.5 10.3616C9.89324 10.3616 10.2793 10.2573 10.6169 10.0596C10.6169 10.0596 10.6169 10.0596 10.6169 10.0596L17.0405 6.30068V14.0261ZM17.0405 2.97385V5.03251L10.0496 9.12375C10.0496 9.12376 10.0496 9.12377 10.0496 9.12378C9.88379 9.22072 9.69383 9.27208 9.5 9.27208C9.30616 9.27208 9.11618 9.22071 8.9504 9.12375L1.95952 5.03251V2.97375C1.95986 2.70077 2.07116 2.43829 2.2703 2.24409C2.46958 2.04974 2.74056 1.93978 3.02397 1.93947H15.976C15.9761 1.93947 15.9761 1.93947 15.9761 1.93947C16.2595 1.93979 16.5304 2.04975 16.7297 2.24409C16.9289 2.43831 17.0402 2.70084 17.0405 2.97385Z" fill="white" stroke="white" stroke-width="0.3"/>
</svg>
