<svg width="73" height="89" viewBox="0 0 73 89" fill="none" xmlns="http://www.w3.org/2000/svg">
<path d="M32.0036 86.3777L35.5585 88.1531C35.8508 88.299 36.173 88.375 36.4997 88.375C36.8263 88.375 37.1485 88.299 37.4408 88.1531L40.9957 86.3777C50.4155 81.7058 58.3382 74.4886 63.8659 65.5441C69.3936 56.5996 72.3051 46.2855 72.2705 35.7708C72.2705 26.2838 68.5018 17.1854 61.7935 10.477C55.0851 3.7687 45.9867 0 36.4997 0C27.0126 0 17.9142 3.7687 11.2059 10.477C4.49752 17.1854 0.728821 26.2838 0.728821 35.7708C0.694208 46.2855 3.60574 56.5996 9.13341 65.5441C14.6611 74.4886 22.5838 81.7058 32.0036 86.3777ZM36.4997 50.5C39.4128 50.5 42.2605 49.6361 44.6827 48.0177C47.1049 46.3992 48.9928 44.0988 50.1076 41.4074C51.2224 38.716 51.5141 35.7545 50.9458 32.8973C50.3775 30.0401 48.9747 27.4157 46.9148 25.3557C44.8548 23.2958 42.2304 21.893 39.3732 21.3247C36.516 20.7564 33.5545 21.048 30.863 22.1629C28.1716 23.2777 25.8713 25.1655 24.2528 27.5877C22.6343 30.0099 21.7705 32.8577 21.7705 35.7708C21.7752 39.6758 23.3285 43.4195 26.0898 46.1807C28.851 48.9419 32.5947 50.4953 36.4997 50.5Z" fill="#D0DB23"/>
</svg>
