<svg width="16" height="16" viewBox="0 0 16 16" fill="none" xmlns="http://www.w3.org/2000/svg">
<path d="M7.51667 2.50011L5.00839 5.00838L5.00654 5.01022L5.00653 5.01021C4.91537 5.09825 4.79328 5.14697 4.66655 5.14587C4.53982 5.14477 4.4186 5.09393 4.32898 5.00432C4.23937 4.91471 4.18854 4.79348 4.18743 4.66675C4.18633 4.54002 4.23505 4.41793 4.32309 4.32677L4.3249 4.3249L4.32492 4.32491L7.65823 0.991597C7.65824 0.99159 7.65825 0.991583 7.65825 0.991577C7.70312 0.946696 7.75639 0.911092 7.81502 0.886801C7.87366 0.862505 7.93651 0.85 7.99999 0.85C8.06346 0.85 8.12631 0.862505 8.18495 0.886801C8.24358 0.911092 8.29685 0.946695 8.34172 0.991577C8.34173 0.991583 8.34173 0.99159 8.34174 0.991597L11.6751 4.32491L11.6769 4.32676L11.6769 4.32677C11.7649 4.41793 11.8136 4.54002 11.8125 4.66675C11.8114 4.79348 11.7606 4.91471 11.671 5.00432C11.5814 5.09393 11.4602 5.14477 11.3334 5.14587C11.2067 5.14697 11.0846 5.09825 10.9934 5.01021L10.9916 5.0084L10.9916 5.00838L8.48333 2.50012V10.6666L7.51667 2.50011ZM7.51667 2.50011V10.6666V2.50011ZM15.15 14.6666C15.15 14.7301 15.1376 14.793 15.1133 14.8516C15.089 14.9103 15.0534 14.9636 15.0085 15.0085C14.9636 15.0534 14.9103 15.089 14.8516 15.1133C14.793 15.1376 14.7301 15.15 14.6666 15.15M15.15 14.6666L14.6666 14.1833H1.33333C1.20514 14.1833 1.08221 14.2343 0.991565 14.3249C0.900923 14.4155 0.85 14.5385 0.85 14.6667C0.85 14.7949 0.900922 14.9178 0.991565 15.0084C1.08221 15.0991 1.20515 15.15 1.33333 15.15H14.6666M15.15 14.6666L15 14.6667L15.15 14.6666ZM14.6666 15.15L14.6667 15.0008V15.15H14.6666Z" fill="#4C4338" stroke="#4C4338" stroke-width="0.3"/>
</svg>
