<svg width="22" height="16" viewBox="0 0 22 16" fill="none" xmlns="http://www.w3.org/2000/svg">
<path d="M18.3323 6.4017C18.2477 6.04259 18.3133 5.66354 18.5147 5.34771C18.7161 5.03187 19.0368 4.80503 19.4066 4.71695L18.5985 1.32465C18.5812 1.25206 18.5493 1.18369 18.5047 1.12348C18.4601 1.06326 18.4035 1.01238 18.3384 0.973736C18.2732 0.935097 18.2006 0.909464 18.1249 0.898305C18.0492 0.887147 17.9717 0.890685 17.897 0.908713L1.51349 4.81145C1.43865 4.82906 1.36791 4.86083 1.30533 4.90494C1.24275 4.94904 1.18956 5.00463 1.1488 5.0685C1.10805 5.13238 1.08054 5.20328 1.06784 5.27715C1.05514 5.35103 1.0575 5.42643 1.07479 5.49902L1.88288 8.89131C2.24758 8.81721 2.62568 8.88354 2.93743 9.07632C3.24919 9.26909 3.47022 9.57325 3.55393 9.92463C3.63763 10.276 3.57746 10.6471 3.3861 10.9598C3.19474 11.2724 2.88715 11.5021 2.5282 11.6003L3.27822 14.7488C3.31318 14.8956 3.40677 15.022 3.53841 15.1003C3.67005 15.1786 3.82896 15.2024 3.98017 15.1664L20.3636 11.2636C20.5148 11.2276 20.646 11.1348 20.7282 11.0055C20.8104 10.8763 20.8369 10.7212 20.8019 10.5745L20.0515 7.42437C19.8682 7.46805 19.6782 7.47625 19.4926 7.4485C19.3069 7.42074 19.1292 7.35758 18.9696 7.26262C18.8099 7.16766 18.6715 7.04275 18.5621 6.89503C18.4528 6.74731 18.3747 6.57968 18.3323 6.4017Z" fill="#E3EF27" stroke="#353535" stroke-miterlimit="10"/>
</svg>
