<svg width="19" height="23" viewBox="0 0 19 23" fill="none" xmlns="http://www.w3.org/2000/svg">
<path d="M8.43171 21.5254L9.27644 21.9473C9.34589 21.9819 9.42245 22 9.50007 22C9.5777 22 9.65426 21.9819 9.7237 21.9473L10.5684 21.5254C12.8068 20.4152 14.6894 18.7003 16.0029 16.5748C17.3164 14.4494 18.0083 11.9985 18.0001 9.5C18.0001 7.24566 17.1045 5.08365 15.5105 3.48959C13.9164 1.89553 11.7544 1 9.50007 1C7.24573 1 5.08372 1.89553 3.48967 3.48959C1.89561 5.08365 1.00007 7.24566 1.00007 9.5C0.991848 11.9985 1.6837 14.4494 2.9972 16.5748C4.31071 18.7003 6.19334 20.4152 8.43171 21.5254V21.5254ZM9.50007 2C11.4885 2.00217 13.3949 2.79304 14.801 4.1991C16.207 5.60515 16.9979 7.51154 17.0001 9.5C17.0078 11.8127 16.3674 14.0813 15.1516 16.0487C13.9358 18.016 12.1931 19.6034 10.1212 20.6309L9.50007 20.9414L8.87898 20.6309C6.80703 19.6034 5.06437 18.016 3.84854 16.0487C2.63271 14.0813 1.99236 11.8127 2.00007 9.5C2.00224 7.51154 2.79312 5.60515 4.19917 4.1991C5.60522 2.79304 7.51162 2.00217 9.50007 2V2ZM9.50007 13C10.1923 13 10.869 12.7947 11.4446 12.4101C12.0201 12.0256 12.4687 11.4789 12.7337 10.8394C12.9986 10.1999 13.0679 9.49612 12.9328 8.81718C12.7978 8.13825 12.4644 7.51461 11.9749 7.02513C11.4855 6.53564 10.8618 6.2023 10.1829 6.06725C9.50396 5.9322 8.80022 6.00152 8.16068 6.26642C7.52114 6.53133 6.97451 6.97993 6.58993 7.5555C6.20534 8.13108 6.00007 8.80777 6.00007 9.5C6.00119 10.4279 6.3703 11.3175 7.02644 11.9736C7.68257 12.6298 8.57216 12.9989 9.50007 13V13ZM9.50007 7C9.99453 7 10.4779 7.14662 10.889 7.42133C11.3001 7.69603 11.6206 8.08648 11.8098 8.54329C11.999 9.00011 12.0485 9.50277 11.952 9.98773C11.8556 10.4727 11.6175 10.9181 11.2678 11.2678C10.9182 11.6174 10.4728 11.8555 9.9878 11.952C9.50285 12.0484 9.00018 11.9989 8.54336 11.8097C8.08655 11.6205 7.6961 11.3 7.4214 10.8889C7.14669 10.4778 7.00007 9.99445 7.00007 9.5C7.00068 8.83715 7.26427 8.20162 7.73298 7.73291C8.20169 7.2642 8.83722 7.00061 9.50007 7V7Z" fill="#D0DB23"/>
<path fill-rule="evenodd" clip-rule="evenodd" d="M9.1426 22.2157L8.29861 21.7941C8.2984 21.794 8.29883 21.7943 8.29861 21.7941C6.01031 20.6591 4.08504 18.9054 2.7422 16.7325C1.39932 14.5596 0.691952 12.0539 0.700268 9.49951C0.700398 7.16578 1.62752 4.92766 3.27773 3.27746C4.92805 1.62714 7.16636 0.699997 9.50027 0.699997C11.8342 0.699997 14.0725 1.62714 15.7228 3.27746C17.3729 4.92754 18.3 7.16546 18.3003 9.49901C18.3087 12.0536 17.6013 14.5594 16.2583 16.7325C14.9155 18.9054 12.9909 20.6587 10.7026 21.7938C10.7024 21.7939 10.7029 21.7937 10.7026 21.7938L9.85794 22.2157C9.74687 22.2711 9.62441 22.3 9.50027 22.3C9.37612 22.3 9.25366 22.2711 9.1426 22.2157ZM10.5686 21.5254C12.807 20.4152 14.6896 18.7003 16.0031 16.5748C17.3166 14.4494 18.0085 11.9985 18.0003 9.5C18.0003 7.24566 17.1047 5.08365 15.5107 3.48959C13.9166 1.89553 11.7546 0.999997 9.50027 0.999997C7.24593 0.999997 5.08392 1.89553 3.48986 3.48959C1.8958 5.08365 1.00027 7.24566 1.00027 9.5C0.992043 11.9985 1.68389 14.4494 2.9974 16.5748C4.3109 18.7003 6.19353 20.4152 8.43191 21.5254L9.27664 21.9473C9.34608 21.9819 9.42264 22 9.50027 22C9.57789 22 9.65445 21.9819 9.7239 21.9473L10.5686 21.5254ZM16.7003 9.50032C16.6982 7.59132 15.9389 5.7611 14.589 4.41123C13.2392 3.06143 11.4092 2.30217 9.50027 2.3C7.59138 2.30217 5.76129 3.06143 4.4115 4.41123C3.06162 5.7611 2.30235 7.59132 2.30027 9.50032C2.29274 11.757 2.91758 13.9713 4.10393 15.8909C5.29029 17.8106 6.99072 19.3595 9.01246 20.3621L9.50027 20.606L9.98719 20.3625C12.0089 19.36 13.7102 17.8106 14.8966 15.8909C16.083 13.9713 16.7078 11.757 16.7003 9.50032ZM9.50027 20.9414L8.87918 20.6309C6.80723 19.6034 5.06456 18.016 3.84874 16.0487C2.63291 14.0813 1.99256 11.8127 2.00027 9.5C2.00244 7.51154 2.79331 5.60515 4.19936 4.19909C5.60542 2.79304 7.51181 2.00217 9.50027 2C11.4887 2.00217 13.3951 2.79304 14.8012 4.19909C16.2072 5.60515 16.9981 7.51154 17.0003 9.5C17.008 11.8127 16.3676 14.0813 15.1518 16.0487C13.936 18.016 12.1933 19.6034 10.1214 20.6309L9.50027 20.9414ZM5.70027 9.5C5.70027 8.74843 5.92313 8.01374 6.34068 7.38883C6.75823 6.76392 7.35171 6.27687 8.04607 5.98925C8.74043 5.70164 9.50448 5.62639 10.2416 5.77301C10.9787 5.91964 11.6558 6.28155 12.1873 6.81299C12.7187 7.34443 13.0806 8.02153 13.2273 8.75865C13.3739 9.49578 13.2986 10.2598 13.011 10.9542C12.7234 11.6486 12.2363 12.242 11.6114 12.6596C10.9865 13.0771 10.2518 13.3 9.50027 13.3V13C10.1925 13 10.8692 12.7947 11.4448 12.4101C12.0203 12.0256 12.4689 11.4789 12.7338 10.8394C12.9988 10.1998 13.0681 9.49611 12.933 8.81718C12.798 8.13825 12.4646 7.51461 11.9751 7.02512C11.4857 6.53564 10.862 6.2023 10.1831 6.06725C9.50415 5.9322 8.80042 6.00151 8.16088 6.26642C7.52133 6.53133 6.97471 6.97993 6.59012 7.5555C6.20554 8.13107 6.00027 8.80776 6.00027 9.5C6.00139 10.4279 6.3705 11.3175 7.02663 11.9736C7.68277 12.6298 8.57235 12.9989 9.50027 13V13.3C8.49292 13.2988 7.52681 12.8981 6.8145 12.1858C6.10219 11.4735 5.70149 10.5073 5.70027 9.5ZM9.50027 7C9.99472 7 10.4781 7.14662 10.8892 7.42132C11.3003 7.69603 11.6207 8.08647 11.81 8.54329C11.9992 9.0001 12.0487 9.50277 11.9522 9.98772C11.8558 10.4727 11.6177 10.9181 11.268 11.2678C10.9184 11.6174 10.4729 11.8555 9.98799 11.952C9.50304 12.0484 9.00037 11.9989 8.54356 11.8097C8.08674 11.6205 7.6963 11.3 7.42159 10.8889C7.14689 10.4778 7.00027 9.99445 7.00027 9.5C7.00088 8.83714 7.26447 8.20161 7.73318 7.73291C8.20188 7.2642 8.83741 7.00061 9.50027 7ZM9.50027 7.3C9.93539 7.3 10.3607 7.42903 10.7225 7.67076C11.0843 7.9125 11.3663 8.2561 11.5328 8.65809C11.6993 9.06009 11.7429 9.50244 11.658 9.9292C11.5731 10.356 11.3636 10.748 11.0559 11.0556C10.7482 11.3633 10.3562 11.5728 9.92947 11.6577C9.50271 11.7426 9.06036 11.699 8.65836 11.5325C8.25637 11.366 7.91277 11.084 7.67103 10.7223C7.4293 10.3605 7.30027 9.93512 7.30027 9.5C7.30088 8.91671 7.53286 8.35749 7.94531 7.94504C8.35776 7.53259 8.91698 7.30061 9.50027 7.3Z" fill="#D0DB23"/>
</svg>
