<svg width="139" height="57" viewBox="0 0 139 57" fill="none" xmlns="http://www.w3.org/2000/svg">
<path d="M99.0875 0.000885759C93.5794 -0.0352856 88.1201 1.03672 83.0327 3.15346C77.9453 5.2702 73.3333 8.38864 69.4695 12.3242C65.6093 8.39235 61.0022 5.27604 55.9203 3.15942C50.8385 1.0428 45.385 -0.03119 39.882 0.000885759C17.8745 0.000885759 0 16.6358 0 37.2613V57H139V37.2613C139 16.6358 121.126 0.000885759 99.0875 0.000885759Z" fill="#E3EF27"/>
<path d="M57.0171 33.3315V47.3321H51.4046V33.3315C51.4919 31.5669 50.8765 29.8395 49.6931 28.5276C48.5098 27.2156 46.8549 26.4258 45.0906 26.3312C41.6133 26.3312 38.7919 30.0982 38.7919 34.7346V47.3321H33.2099V33.3315C33.2973 31.5694 32.684 29.8442 31.5039 28.5327C30.3238 27.2212 28.6727 26.4297 26.9112 26.3312C23.4187 26.3312 20.5972 30.0982 20.5972 34.7346V47.3321H15V22.1371H20.5514C20.5045 22.5036 20.428 22.8658 20.3227 23.22L18.7975 27.6123L19.5144 27.8563L20.3684 25.4314C20.6523 24.5513 21.1509 23.7558 21.8192 23.1168C22.4876 22.4777 23.3046 22.0152 24.1965 21.7711C25.0845 21.5499 25.996 21.4372 26.9112 21.4356C28.6957 21.434 30.4576 21.835 32.0657 22.6087C33.6738 23.3824 35.0867 24.5088 36.1992 25.9042C37.2458 24.5344 38.5901 23.4203 40.1304 22.6462C41.6708 21.8721 43.3669 21.4581 45.0906 21.4356C46.6548 21.4336 48.2041 21.7397 49.65 22.3364C51.0959 22.9331 52.4101 23.8088 53.5176 24.9135C54.625 26.0181 55.5041 27.3301 56.1045 28.7744C56.705 30.2188 57.0151 31.7673 57.0171 33.3315Z" fill="#4C4338"/>
<path d="M90.8451 34.7346C90.8451 42.0857 84.1041 48.0336 75.7922 48.0336C67.4803 48.0336 60.7393 42.0857 60.7393 34.7346C60.7393 27.3835 67.4803 21.4355 75.7922 21.4355C84.1041 21.4355 90.8451 27.3835 90.8451 34.7346ZM85.2479 34.7346C85.2479 30.1592 81.0081 26.3312 75.7922 26.3312C70.5763 26.3312 66.3364 30.0982 66.3364 34.7346C66.3364 39.371 70.5763 43.138 75.7922 43.138C81.0081 43.138 85.2632 39.371 85.2632 34.7346H85.2479Z" fill="#4C4338"/>
<path d="M124.017 22.1375V47.3325H118.42V34.735C118.42 30.1597 114.195 26.3316 108.964 26.3316C103.733 26.3316 99.5235 30.0987 99.5235 34.735C99.5235 39.3714 102.345 43.1384 105.822 43.1384C106.704 43.0994 107.569 42.8861 108.368 42.5108C109.166 42.1355 109.883 41.6057 110.475 40.952C111.068 40.2983 111.526 39.5336 111.821 38.7021C112.117 37.8706 112.244 36.9888 112.197 36.1076H117.794C117.794 39.2626 116.541 42.2884 114.31 44.5193C112.079 46.7503 109.053 48.0036 105.898 48.0036C99.3252 48.0036 93.9873 42.0556 93.9873 34.7045C93.9873 27.3534 100.728 21.4055 109.04 21.4055C111.321 21.3984 113.58 21.8604 115.675 22.7628C116.961 23.329 117.992 24.35 118.572 25.6301L119.564 27.8567L120.235 27.5517L118.984 24.715C118.664 24.0001 118.497 23.2259 118.496 22.4426V22.107L124.017 22.1375Z" fill="#4C4338"/>
</svg>
