<svg width="69" height="22" viewBox="0 0 69 22" fill="none" xmlns="http://www.w3.org/2000/svg">
<path d="M28.6981 21L25.5481 -1.43051e-06H19.7881L14.8081 11.43L9.85813 -1.43051e-06H4.06813L0.888125 21H6.76813L8.38813 8.94L13.9381 21.06H15.6481L21.2281 8.91L22.8481 21H28.6981ZM39.2157 21.54C44.4957 21.54 48.3057 17.91 48.3057 12.9C48.3057 7.89 44.4957 4.29 39.2157 4.29C33.9357 4.29 30.1557 7.89 30.1557 12.9C30.1557 17.91 33.9357 21.54 39.2157 21.54ZM39.2157 16.53C37.2057 16.53 35.7357 15.06 35.7357 12.93C35.7357 10.77 37.2057 9.3 39.2157 9.3C41.2557 9.3 42.7257 10.8 42.7257 12.93C42.7257 15.06 41.2557 16.53 39.2157 16.53ZM63.9704 4.8L63.4004 6.06C62.0804 4.95 60.3704 4.32 58.4504 4.32C53.5004 4.32 49.9604 7.89 49.9604 12.9C49.9604 17.94 53.5004 21.54 58.4504 21.54C60.3404 21.54 62.0204 20.94 63.3404 19.86L63.8204 21H68.1404V4.8H63.9704ZM59.2004 16.62C57.1004 16.62 55.5704 15.03 55.5704 12.9C55.5704 10.8 57.1004 9.24 59.2004 9.24C61.3004 9.24 62.8304 10.8 62.8304 12.9C62.8304 15.03 61.3004 16.62 59.2004 16.62Z" fill="#353535"/>
</svg>
