<svg width="58" height="52" viewBox="0 0 58 52" fill="none" xmlns="http://www.w3.org/2000/svg">
<path d="M29 38C33.9706 38 38 33.9706 38 29C38 24.0294 33.9706 20 29 20C24.0294 20 20 24.0294 20 29C20 33.9706 24.0294 38 29 38Z" fill="#C0C0C2"/>
<path d="M20.3 0L14.993 5.77778H5.8C2.61 5.77778 0 8.37778 0 11.5556V46.2222C0 49.4 2.61 52 5.8 52H52.2C55.39 52 58 49.4 58 46.2222V11.5556C58 8.37778 55.39 5.77778 52.2 5.77778H43.007L37.7 0H20.3ZM29 43.3333C20.996 43.3333 14.5 36.8622 14.5 28.8889C14.5 20.9156 20.996 14.4444 29 14.4444C37.004 14.4444 43.5 20.9156 43.5 28.8889C43.5 36.8622 37.004 43.3333 29 43.3333Z" fill="#C0C0C2"/>
</svg>
