<svg width="13" height="12" viewBox="0 0 13 12" fill="none" xmlns="http://www.w3.org/2000/svg">
<path d="M6.31553 0.44044C6.38407 0.276792 6.61593 0.276792 6.68447 0.44044L8.17998 4.01106C8.20882 4.07991 8.27359 4.12697 8.34798 4.13312L12.206 4.45205C12.3828 4.46667 12.4544 4.68718 12.32 4.80294L9.38627 7.32863C9.3297 7.37733 9.30496 7.45348 9.3221 7.52612L10.211 11.2939C10.2517 11.4665 10.0641 11.6028 9.91248 11.5107L6.60383 9.50106C6.54003 9.46231 6.45997 9.46231 6.39617 9.50106L3.08752 11.5107C2.93588 11.6028 2.7483 11.4665 2.78904 11.2939L3.6779 7.52612C3.69504 7.45348 3.6703 7.37733 3.61373 7.32863L0.680011 4.80294C0.545553 4.68718 0.617203 4.46667 0.794021 4.45205L4.65202 4.13312C4.72641 4.12697 4.79118 4.07991 4.82002 4.01106L6.31553 0.44044Z" fill="#939393"/>
</svg>
