<svg width="139" height="45" viewBox="0 0 139 45" fill="none" xmlns="http://www.w3.org/2000/svg">
<path d="M132.364 0H6.12388C2.74175 0 0 2.72348 0 6.08306V38.9169C0 42.2765 2.74175 45 6.12388 45H132.364C135.746 45 138.488 42.2765 138.488 38.9169V6.08306C138.488 2.72348 135.746 0 132.364 0Z" fill="#E3EF27"/>
<path d="M36.116 29.7465C35.5603 31.0593 34.881 32.3169 34.087 33.5027C32.7682 35.4998 30.9144 37.9733 28.6087 38.0008C26.5705 38.0008 26.0448 36.6724 23.2688 36.6908C20.4928 36.7091 19.921 38.0191 17.8735 38.0008C15.5679 38.0008 13.8155 35.738 12.4967 33.75C8.8076 28.1799 8.42947 21.648 10.6521 18.1759C11.3403 17.0414 12.2979 16.0917 13.441 15.4097C14.5841 14.7278 15.8779 14.3345 17.2095 14.2641C19.6443 14.2641 21.1752 15.5925 23.195 15.5925C25.2148 15.5925 26.34 14.2641 29.1621 14.2641C30.3323 14.3185 31.4761 14.6282 32.5122 15.1713C33.5482 15.7144 34.4512 16.4775 35.1569 17.4064C34.0127 18.0414 33.0755 18.9887 32.4563 20.1361C31.837 21.2836 31.5615 22.5832 31.6624 23.8812C31.7633 25.1793 32.2363 26.4215 33.0256 27.461C33.8148 28.5004 34.8873 29.2935 36.116 29.7465Z" fill="#4C4438"/>
<path d="M27.0687 12.0287C27.645 11.3323 28.0763 10.529 28.3375 9.66561C28.5988 8.80221 28.6847 7.89588 28.5904 6.99921C26.7303 7.21511 25.0224 8.12555 23.8131 9.546C23.221 10.21 22.7762 10.9904 22.5077 11.8364C22.2391 12.6824 22.1529 13.5751 22.2545 14.4564C23.1887 14.4354 24.1061 14.2064 24.9394 13.7862C25.7726 13.366 26.5002 12.7654 27.0687 12.0287Z" fill="#4C4438"/>
<path d="M47.3308 18.0843L42.0554 33.5118H44.4718L46.0489 28.7754H51.1582L52.7814 33.5118H55.2623L49.9593 18.0843H47.3308ZM48.5851 20.622C48.7603 21.3091 48.954 22.0236 49.203 22.8023L50.6233 26.8882H46.5746L47.9764 22.7748C48.1977 22.1061 48.4007 21.3824 48.5851 20.622Z" fill="#4C4438"/>
<path d="M62.0872 22.0877C61.3731 22.0634 60.6638 22.2126 60.021 22.5223C59.3781 22.832 58.821 23.2929 58.3981 23.865L58.3059 22.3351H56.157V22.5275C56.2215 23.4436 56.2492 24.5338 56.2492 26.0454V37.955H58.601V32.4033C59.0016 32.8524 59.4968 33.2083 60.0515 33.4459C60.6062 33.6834 61.2068 33.7966 61.8105 33.7775C62.4761 33.7841 63.1358 33.654 63.7484 33.3955C64.361 33.1369 64.9133 32.7555 65.3705 32.275C66.4525 31.0333 67.0136 29.4266 66.9383 27.7861C66.9919 26.2999 66.5076 24.8438 65.5734 23.6818C65.1491 23.1743 64.6157 22.7677 64.0124 22.4918C63.4091 22.216 62.7513 22.0779 62.0872 22.0877ZM61.5062 24.0207C63.5998 24.0207 64.5312 25.9446 64.5312 27.8593C64.5312 30.3145 63.3415 31.8445 61.4139 31.8445C60.7752 31.8456 60.1548 31.6328 59.6528 31.2405C59.1507 30.8482 58.7964 30.2993 58.6471 29.6824C58.587 29.4366 58.5592 29.1841 58.5642 28.9312V27.099C58.5722 26.9048 58.5969 26.7118 58.6379 26.5218V26.3294C58.7851 25.6803 59.1482 25.0994 59.6686 24.6806C60.1891 24.2617 60.8364 24.0292 61.5062 24.0207Z" fill="#4C4438"/>
<path d="M74.169 22.0877C73.4549 22.0634 72.7456 22.2126 72.1027 22.5223C71.4598 22.832 70.9028 23.2929 70.4799 23.865L70.3877 22.3351H68.2388V22.5275C68.3033 23.4436 68.331 24.5338 68.331 26.0454V37.955H70.6828V32.4033C71.0833 32.8524 71.5786 33.2083 72.1333 33.4459C72.688 33.6834 73.2886 33.7966 73.8923 33.7775C74.5578 33.7841 75.2176 33.654 75.8302 33.3955C76.4428 33.1369 76.995 32.7555 77.4522 32.275C78.5342 31.0333 79.0954 29.4266 79.0201 27.7861C79.0736 26.2999 78.5894 24.8438 77.6552 23.6818C77.2296 23.1758 76.6959 22.7702 76.0929 22.4945C75.4899 22.2188 74.8327 22.0798 74.169 22.0877ZM73.5787 24.0207C75.6722 24.0207 76.613 25.9446 76.613 27.8593C76.613 30.3145 75.414 31.8445 73.4957 31.8445C72.857 31.8456 72.2365 31.6328 71.7345 31.2405C71.2325 30.8482 70.8782 30.2993 70.7289 29.6824C70.6688 29.4366 70.6409 29.1841 70.6459 28.9312V27.099C70.6534 26.9048 70.6781 26.7117 70.7197 26.5218V26.3294C70.8657 25.678 71.2298 25.0951 71.7524 24.6757C72.275 24.2564 72.9254 24.0255 73.5972 24.0207H73.5787Z" fill="#4C4438"/>
<path d="M89.3402 24.6712C87.1544 23.8284 86.4443 23.1596 86.4443 21.9228C86.4443 20.8968 87.2743 19.8524 89.1189 19.8524C90.0865 19.8308 91.0422 20.0681 91.8857 20.5395L92.0886 20.6677L92.7526 18.7164L92.6143 18.6431C91.5619 18.0915 90.3815 17.8261 89.1926 17.8736C86.1952 17.8736 84.111 19.6325 84.111 22.1519C84.111 24.1765 85.4206 25.5965 88.2335 26.6134C90.2256 27.3554 91.0003 28.1067 91.0003 29.3618C91.0003 30.8367 89.8567 31.7528 88.0214 31.7528C86.8265 31.7653 85.6516 31.4482 84.6274 30.8367L84.4245 30.6993L83.7974 32.6965L83.908 32.7698C85.1234 33.4415 86.4922 33.7916 87.883 33.7866C91.9226 33.7866 93.3521 31.3406 93.3521 29.206C93.3521 27.0715 92.1624 25.7247 89.3402 24.6712Z" fill="#4C4438"/>
<path d="M97.5393 19.6692L95.2336 20.3929V22.3351H93.5366V24.1674H95.2244V29.884C95.127 30.9353 95.4152 31.9861 96.036 32.843C96.3293 33.1465 96.6838 33.385 97.0764 33.5429C97.469 33.7007 97.8907 33.7744 98.314 33.7591C98.9398 33.7683 99.5629 33.6754 100.159 33.4843L100.288 33.4294L100.177 31.5971L99.9464 31.6704C99.5928 31.7702 99.2255 31.8135 98.8581 31.7987C97.9359 31.7987 97.5577 31.2215 97.5577 29.884V24.2315H100.389V22.3992H97.5577L97.5393 19.6692Z" fill="#4C4438"/>
<path d="M106.19 22.0877C102.907 22.0877 100.61 24.5247 100.61 28.0151C100.61 31.5055 102.833 33.7591 106.015 33.7591C108.708 33.7591 111.604 31.9269 111.604 27.8135C111.661 26.2948 111.122 24.8134 110.101 23.6818C109.597 23.1599 108.988 22.7485 108.315 22.474C107.642 22.1995 106.918 22.0679 106.19 22.0877ZM106.126 23.92C108.238 23.92 109.206 25.9629 109.206 27.8685C109.206 30.2046 107.887 31.9086 106.079 31.9086C104.299 31.9086 102.999 30.2412 102.999 27.9326C102.981 25.9446 103.958 23.9292 106.126 23.9292V23.92Z" fill="#4C4438"/>
<path d="M118.816 22.1977H118.678C118.485 22.1463 118.287 22.1216 118.088 22.1244C117.471 22.1376 116.869 22.32 116.35 22.6515C115.831 22.9829 115.414 23.4505 115.146 24.0025L115.072 22.3717H112.969V22.5641C113.034 23.4803 113.061 24.5246 113.061 25.9263V33.5484H115.404V27.6028C115.405 27.2963 115.426 26.9903 115.468 26.6867C115.524 26.0635 115.804 25.4814 116.259 25.0484C116.714 24.6154 117.311 24.3609 117.94 24.3322C118.152 24.3173 118.365 24.3173 118.576 24.3322H118.825L118.816 22.1977Z" fill="#4C4438"/>
<path d="M124.101 22.0603C120.974 22.0603 118.788 24.5429 118.788 28.0975C118.788 31.6521 120.956 33.7409 124.322 33.7409C125.588 33.7604 126.845 33.517 128.011 33.0262L128.149 32.9621L127.697 31.2215L127.504 31.3039C126.566 31.6768 125.562 31.8545 124.553 31.8261C124.091 31.8616 123.628 31.7994 123.193 31.6436C122.758 31.4878 122.361 31.242 122.029 30.9224C121.697 30.6027 121.436 30.2167 121.266 29.7897C121.095 29.3627 121.018 28.9046 121.039 28.4456H128.62V28.2991C128.67 27.9779 128.692 27.6529 128.684 27.328C128.758 24.9094 127.541 22.0603 124.101 22.0603ZM123.944 23.8376C124.261 23.824 124.579 23.8755 124.875 23.989C125.172 24.1025 125.442 24.2754 125.668 24.4971C126.191 25.1017 126.479 25.8717 126.48 26.6683H121.122C121.334 25.3216 122.182 23.8376 123.971 23.8376H123.944Z" fill="#4C4438"/>
<path d="M42.0554 7.54887C42.8045 7.44948 43.5592 7.39748 44.315 7.39314C45.4898 7.30317 46.6589 7.62757 47.6167 8.30927C48.004 8.6267 48.3108 9.02993 48.5126 9.48657C48.7144 9.94322 48.8056 10.4405 48.7788 10.9385C48.7982 11.4674 48.7037 11.9944 48.5017 12.4841C48.2998 12.9739 47.9949 13.4151 47.6075 13.7785C46.562 14.5421 45.2776 14.9122 43.983 14.8229C43.3394 14.8324 42.6958 14.8049 42.0554 14.7404V7.54887ZM43.1253 14.0167C43.4814 14.043 43.839 14.043 44.1951 14.0167C46.4454 14.0167 47.6721 12.8899 47.6721 10.911C47.6721 9.17039 46.593 8.09852 44.3611 8.09852C43.9468 8.09264 43.533 8.12643 43.1253 8.19934V14.0167Z" fill="#4C4438"/>
<path d="M52.5602 14.8686C52.1934 14.8917 51.8257 14.8386 51.4807 14.7127C51.1357 14.5868 50.8209 14.391 50.5563 14.1376C50.2917 13.8842 50.0831 13.5789 49.9438 13.241C49.8045 12.9032 49.7376 12.5402 49.7473 12.1752C49.7467 11.8016 49.8228 11.4319 49.971 11.0885C50.1192 10.7451 50.3363 10.4354 50.6091 10.1781C50.8818 9.92093 51.2045 9.72166 51.5574 9.59249C51.9103 9.46332 52.286 9.40694 52.6616 9.42687C53.029 9.39973 53.3981 9.44963 53.7448 9.57331C54.0916 9.69699 54.4083 9.89166 54.6744 10.1448C54.9405 10.3979 55.1501 10.7037 55.2895 11.0425C55.4289 11.3812 55.4951 11.7453 55.4838 12.1111C55.4842 12.4839 55.4083 12.8529 55.2607 13.1956C55.1131 13.5384 54.8969 13.8477 54.6251 14.1048C54.3533 14.3619 54.0318 14.5614 53.68 14.6911C53.3282 14.8209 52.9535 14.8781 52.5786 14.8595L52.5602 14.8686ZM52.5602 14.1541C52.8159 14.1469 53.0673 14.087 53.2984 13.9781C53.5295 13.8692 53.7353 13.7138 53.9027 13.5216C54.07 13.3295 54.1954 13.1049 54.2707 12.8621C54.346 12.6192 54.3697 12.3635 54.3401 12.1111C54.2891 11.7756 54.1424 11.4616 53.9174 11.2063C53.6924 10.951 53.3986 10.765 53.0706 10.6703C52.7426 10.5755 52.3941 10.5761 52.0664 10.6718C51.7387 10.7675 51.4454 10.9544 51.2212 11.2104C50.997 11.4664 50.8513 11.7808 50.8012 12.1164C50.7511 12.4521 50.7988 12.7949 50.9387 13.1045C51.0785 13.4141 51.3046 13.6774 51.5903 13.8634C51.876 14.0494 52.2094 14.1503 52.5509 14.1541H52.5602Z" fill="#4C4438"/>
<path d="M57.1715 9.50937L57.9554 12.1661C58.1122 12.7524 58.269 13.3021 58.3797 13.8426C58.518 13.3113 58.7117 12.7524 58.9054 12.1753L59.8276 9.50937H60.7499L61.6722 12.1295C61.8935 12.7524 62.0595 13.3113 62.1979 13.8426C62.3088 13.2658 62.4566 12.6967 62.6405 12.1386L63.4798 9.50937H64.5312L62.6866 14.7496H61.7183L60.796 12.2486C60.5931 11.6531 60.4179 11.1309 60.2703 10.5171C60.1278 11.1076 59.9491 11.6889 59.7354 12.2577L58.8131 14.7496H57.8447L56.074 9.50937H57.1715Z" fill="#4C4438"/>
<path d="M65.6656 10.9294C65.6656 10.3797 65.6656 9.93995 65.6656 9.50937H66.5879L66.6524 10.3614C66.8654 10.0492 67.1551 9.79627 67.494 9.62635C67.8329 9.45642 68.2098 9.37516 68.5892 9.39027C68.88 9.3789 69.1699 9.43039 69.4387 9.54119C69.7076 9.65198 69.949 9.81946 70.1463 10.032C70.3436 10.2446 70.4922 10.4971 70.5816 10.7723C70.671 11.0474 70.6992 11.3386 70.6643 11.6256V14.7496H69.5575V11.7264C69.5575 10.8835 69.1979 10.169 68.1926 10.169C67.8821 10.168 67.5787 10.2613 67.3232 10.4366C67.0677 10.6118 66.8722 10.8605 66.763 11.1492C66.7132 11.2905 66.6882 11.4392 66.6893 11.5889V14.7496H65.6287L65.6656 10.9294Z" fill="#4C4438"/>
<path d="M72.3889 7.06335H73.4587V14.7496H72.3889V7.06335Z" fill="#4C4438"/>
<path d="M77.609 14.8686C77.2459 14.8851 76.8834 14.8271 76.5438 14.6983C76.2043 14.5695 75.8952 14.3727 75.6356 14.12C75.376 13.8673 75.1716 13.5642 75.0351 13.2296C74.8986 12.8951 74.8329 12.5361 74.8422 12.1752C74.8417 11.8025 74.9176 11.4335 75.0652 11.0908C75.2128 10.748 75.4291 10.4387 75.7008 10.1816C75.9726 9.92453 76.2942 9.72503 76.646 9.59528C76.9978 9.46554 77.3725 9.40823 77.7473 9.42687C78.1147 9.39973 78.4838 9.44963 78.8305 9.57331C79.1773 9.69699 79.494 9.89166 79.7601 10.1448C80.0262 10.3979 80.2358 10.7037 80.3752 11.0425C80.5147 11.3812 80.5808 11.7453 80.5695 12.1111C80.57 12.4839 80.4941 12.8529 80.3465 13.1956C80.1988 13.5384 79.9826 13.8477 79.7108 14.1048C79.4391 14.3619 79.1175 14.5614 78.7657 14.6911C78.4139 14.8209 78.0391 14.8781 77.6643 14.8595L77.609 14.8686ZM77.609 14.1541C77.8647 14.1469 78.1161 14.087 78.3472 13.9781C78.5783 13.8692 78.7841 13.7138 78.9515 13.5216C79.1189 13.3295 79.2442 13.1049 79.3195 12.8621C79.3949 12.6192 79.4185 12.3635 79.389 12.1111C79.413 11.8638 79.3861 11.6143 79.31 11.3776C79.2339 11.1409 79.1101 10.9221 78.9462 10.7345C78.7823 10.5468 78.5817 10.3942 78.3566 10.286C78.1314 10.1777 77.8865 10.1161 77.6367 10.1048C77.1433 10.1709 76.6908 10.4125 76.3631 10.7848C76.0354 11.1572 75.8548 11.6349 75.8548 12.1294C75.8548 12.624 76.0354 13.1017 76.3631 13.474C76.6908 13.8464 77.1433 14.088 77.6367 14.1541H77.609Z" fill="#4C4438"/>
<path d="M86.0111 13.4945C86.0077 13.9143 86.0354 14.3338 86.094 14.7495H85.1718L85.0795 14.09C84.8536 14.3525 84.5694 14.5594 84.2494 14.6945C83.9293 14.8296 83.5821 14.8892 83.235 14.8686C83.0166 14.8954 82.795 14.877 82.5842 14.8146C82.3733 14.7522 82.1777 14.6471 82.0097 14.506C81.8416 14.3649 81.7048 14.1908 81.6077 13.9947C81.5107 13.7985 81.4556 13.5845 81.4458 13.3662C81.4458 12.1019 82.7093 11.4057 84.9689 11.4149V11.3049C84.9689 10.8743 84.8398 10.0865 83.6408 10.0957C83.1024 10.088 82.5713 10.2207 82.1006 10.4804L81.8608 9.84831C82.4581 9.53824 83.1237 9.38081 83.7976 9.39025C84.0952 9.3445 84.3994 9.36765 84.6865 9.45791C84.9736 9.54817 85.2359 9.7031 85.4528 9.9106C85.6697 10.1181 85.8355 10.3725 85.9371 10.6541C86.0387 10.9357 86.0735 11.2368 86.0387 11.5339L86.0111 13.4945ZM84.9689 12.0745C83.8068 12.0745 82.488 12.2394 82.488 13.2563C82.4877 13.3822 82.5135 13.5068 82.5638 13.6223C82.6141 13.7379 82.6879 13.8419 82.7805 13.9279C82.8731 14.0138 82.9825 14.0799 83.102 14.122C83.2214 14.164 83.3484 14.1812 83.4748 14.1724C83.7764 14.1898 84.0763 14.1159 84.3348 13.9605C84.5933 13.8051 84.7983 13.5756 84.9227 13.3021C84.955 13.2046 84.9707 13.1024 84.9689 12.9998V12.0745Z" fill="#4C4438"/>
<path d="M92.7805 7.06335V13.3937C92.7805 13.861 92.7805 14.3923 92.8358 14.7496H91.9135L91.8674 13.8335C91.6572 14.172 91.3581 14.4472 91.0022 14.6296C90.6464 14.812 90.2472 14.8946 89.8477 14.8687C89.5026 14.8694 89.161 14.7997 88.8442 14.6639C88.5274 14.528 88.242 14.3289 88.0059 14.0789C87.7698 13.8289 87.588 13.5334 87.4717 13.2106C87.3554 12.8879 87.3071 12.5448 87.3299 12.2028C87.3033 11.8437 87.3514 11.4829 87.4714 11.1431C87.5914 10.8033 87.7807 10.4917 88.0273 10.2278C88.274 9.96388 88.5728 9.75329 88.905 9.6092C89.2372 9.4651 89.5958 9.39058 89.9583 9.39029C90.2965 9.36168 90.6365 9.41898 90.9462 9.55681C91.256 9.69463 91.5254 9.90844 91.7291 10.1781V7.06335H92.7805ZM91.7199 11.644C91.7196 11.5047 91.701 11.3661 91.6645 11.2317C91.5682 10.9065 91.3652 10.6225 91.0878 10.425C90.8104 10.2275 90.4746 10.1277 90.1336 10.1415C89.882 10.1515 89.6352 10.2125 89.4084 10.3208C89.1815 10.4291 88.9793 10.5823 88.8143 10.7711C88.6493 10.9599 88.5249 11.1802 88.4489 11.4186C88.3728 11.6569 88.3467 11.9082 88.372 12.157C88.3435 12.4004 88.3669 12.647 88.4409 12.8808C88.515 13.1145 88.6378 13.3301 88.8015 13.5134C88.9652 13.6967 89.166 13.8437 89.3907 13.9446C89.6155 14.0456 89.8592 14.0982 90.1059 14.0992C90.4558 14.1085 90.7988 14.0019 91.081 13.7962C91.3632 13.5906 91.5684 13.2974 91.6645 12.9631C91.7028 12.8291 91.7215 12.6903 91.7199 12.5509V11.644Z" fill="#4C4438"/>
<path d="M99.5131 14.8687C99.1463 14.8917 98.7786 14.8386 98.4336 14.7127C98.0886 14.5869 97.7738 14.391 97.5092 14.1376C97.2445 13.8842 97.0359 13.5789 96.8967 13.2411C96.7574 12.9032 96.6904 12.5402 96.7001 12.1753C96.6997 11.8025 96.7755 11.4335 96.9232 11.0908C97.0708 10.748 97.287 10.4387 97.5588 10.1816C97.8306 9.92455 98.1521 9.72505 98.5039 9.5953C98.8557 9.46556 99.2305 9.40825 99.6053 9.42689C99.9731 9.39828 100.343 9.44716 100.69 9.57031C101.038 9.69346 101.355 9.88814 101.621 10.1415C101.888 10.395 102.097 10.7014 102.236 11.0408C102.375 11.3802 102.44 11.7449 102.427 12.1111C102.428 12.4839 102.352 12.8529 102.204 13.1957C102.057 13.5384 101.841 13.8477 101.569 14.1048C101.297 14.3619 100.975 14.5614 100.624 14.6911C100.272 14.8209 99.8971 14.8781 99.5223 14.8595L99.5131 14.8687ZM99.5131 14.1541C99.7687 14.1469 100.02 14.087 100.251 13.9781C100.482 13.8692 100.688 13.7138 100.856 13.5217C101.023 13.3295 101.148 13.1049 101.224 12.8621C101.299 12.6192 101.323 12.3635 101.293 12.1111C101.242 11.7781 101.097 11.4663 100.874 11.2121C100.652 10.9578 100.361 10.7717 100.036 10.6754C99.711 10.579 99.3651 10.5764 99.0386 10.6678C98.7122 10.7593 98.4186 10.9409 98.1922 11.1918C97.9657 11.4426 97.8158 11.7521 97.7597 12.0844C97.7035 12.4167 97.7437 12.7579 97.8753 13.0684C98.007 13.3789 98.2248 13.6457 98.5033 13.838C98.7818 14.0302 99.1096 14.1399 99.4485 14.1541H99.5131Z" fill="#4C4438"/>
<path d="M103.774 10.9294C103.774 10.3797 103.774 9.93997 103.728 9.50939H104.65L104.715 10.3614C104.926 10.048 105.216 9.79404 105.555 9.62396C105.894 9.45389 106.272 9.37342 106.651 9.39029C106.942 9.3787 107.231 9.43012 107.5 9.54098C107.768 9.65185 108.009 9.81951 108.206 10.0323C108.403 10.245 108.55 10.4977 108.638 10.7729C108.727 11.0481 108.754 11.3391 108.717 11.6256V14.7496H107.657V11.7264C107.657 10.8836 107.306 10.169 106.301 10.169C105.99 10.168 105.687 10.2614 105.432 10.4366C105.176 10.6118 104.981 10.8605 104.871 11.1492C104.817 11.2893 104.792 11.4389 104.798 11.589V14.7496H103.774V10.9294Z" fill="#4C4438"/>
<path d="M114.352 8.2543V9.50939H115.883V10.2331H114.352V13.064C114.352 13.7144 114.564 14.0808 115.155 14.0808C115.363 14.0896 115.571 14.068 115.773 14.0167V14.7404C115.473 14.8272 115.162 14.8704 114.85 14.8687C114.429 14.8921 114.015 14.7507 113.697 14.4748C113.381 14.086 113.232 13.5888 113.282 13.0914V10.2331H112.36V9.50939H113.282V8.54747L114.352 8.2543Z" fill="#4C4438"/>
<path d="M117.082 7.06335H118.143V10.3339C118.324 10.039 118.591 9.80583 118.908 9.66511C119.242 9.48325 119.616 9.38868 119.997 9.39029C120.286 9.38278 120.574 9.43747 120.84 9.5506C121.106 9.66372 121.345 9.83261 121.539 10.0457C121.733 10.2589 121.879 10.5112 121.966 10.7854C122.054 11.0597 122.08 11.3494 122.044 11.6348V14.7496H120.984V11.7447C120.984 10.8836 120.624 10.1781 119.619 10.1781C119.316 10.1757 119.02 10.2611 118.766 10.4239C118.512 10.5867 118.311 10.8197 118.189 11.0943C118.134 11.2405 118.109 11.3963 118.115 11.5523V14.713H117.055L117.082 7.06335Z" fill="#4C4438"/>
<path d="M124.414 12.2943C124.404 12.5511 124.451 12.807 124.55 13.0443C124.649 13.2816 124.799 13.4947 124.99 13.6689C125.18 13.843 125.406 13.9742 125.652 14.0532C125.898 14.1322 126.159 14.1572 126.416 14.1266C126.969 14.142 127.52 14.0518 128.039 13.8609L128.232 14.5297C127.606 14.7683 126.939 14.8835 126.268 14.8686C125.899 14.9094 125.525 14.871 125.171 14.756C124.818 14.641 124.494 14.4521 124.22 14.2021C123.947 13.952 123.73 13.6467 123.585 13.3065C123.441 12.9664 123.371 12.5993 123.381 12.2302C123.357 11.8587 123.411 11.4862 123.54 11.1367C123.669 10.7871 123.87 10.4683 124.131 10.2007C124.391 9.9332 124.706 9.72286 125.053 9.58327C125.401 9.44367 125.774 9.37792 126.148 9.39024C126.476 9.37108 126.804 9.42175 127.111 9.53887C127.418 9.65599 127.696 9.83686 127.926 10.0693C128.157 10.3018 128.334 10.5806 128.448 10.8869C128.561 11.1932 128.607 11.52 128.583 11.8454C128.601 11.9976 128.601 12.1513 128.583 12.3035L124.414 12.2943ZM127.522 11.6072C127.544 11.4065 127.521 11.2036 127.457 11.0122C127.392 10.8209 127.286 10.6458 127.147 10.4988C127.008 10.3518 126.838 10.2364 126.65 10.1605C126.462 10.0846 126.259 10.05 126.056 10.059C125.637 10.0652 125.237 10.2281 124.934 10.5152C124.631 10.8022 124.449 11.1923 124.423 11.6072H127.522Z" fill="#4C4438"/>
</svg>
