<svg width="486" height="476" viewBox="0 0 486 476" fill="none" xmlns="http://www.w3.org/2000/svg">
<g filter="url(#filter0_d_290_166)">
<rect x="261" width="220.926" height="468" rx="10" fill="white"/>
</g>
<rect x="272.74" y="422.107" width="197.446" height="33.0855" rx="3" fill="#D0DB23"/>
<path d="M335.015 50.476V51.784H345.071V50.476H335.015ZM335.783 42.916V44.188H344.243V42.916H335.783ZM335.831 47.512V48.796H344.207V47.512H335.831ZM337.295 44.092V47.632H338.891V44.092H337.295ZM341.147 44.092V47.632H342.731V44.092H341.147ZM353.699 41.944V53.092H355.295V41.944H353.699ZM346.643 49.204V50.5H347.627C349.655 50.5 351.287 50.44 353.087 50.116L352.931 48.832C351.167 49.132 349.595 49.204 347.627 49.204H346.643ZM346.631 42.892V44.164H350.243V45.928H346.643V49.684H348.263V47.188H351.875V42.892H346.631ZM365.038 41.956V50.2H366.55V41.956H365.038ZM363.694 45.112V46.396H365.458V45.112H363.694ZM362.662 42.16V49.984H364.15V42.16H362.662ZM359.074 51.604V52.876H366.838V51.604H359.074ZM359.074 49.432V52.084H360.67V49.432H359.074ZM357.526 47.44V48.7H358.294C359.938 48.7 361.018 48.664 362.278 48.436L362.146 47.176C360.922 47.404 359.89 47.44 358.294 47.44H357.526ZM357.514 42.856V44.104H360.19V45.16H357.526V48.148H359.074V46.324H361.726V42.856H357.514ZM373.725 45.424V46.708H376.653V45.424H373.725ZM370.701 42.808V44.416C370.701 46.528 369.861 48.676 367.965 49.552L368.961 50.836C371.049 49.792 371.997 47.212 371.997 44.416V42.808H370.701ZM371.037 42.808V44.416C371.037 47.188 371.913 49.636 374.001 50.644L374.949 49.372C373.113 48.556 372.309 46.528 372.309 44.416V42.808H371.037ZM375.861 41.944V53.092H377.445V41.944H375.861ZM389.51 41.968V49.948H391.118V41.968H389.51ZM383.714 51.604V52.876H391.394V51.604H383.714ZM383.714 49.144V52.12H385.31V49.144H383.714ZM385.07 42.664C383.366 42.664 382.046 43.84 382.046 45.484C382.046 47.116 383.366 48.304 385.07 48.304C386.774 48.304 388.082 47.116 388.082 45.484C388.082 43.84 386.774 42.664 385.07 42.664ZM385.07 44.044C385.886 44.044 386.522 44.572 386.522 45.484C386.522 46.384 385.886 46.912 385.07 46.912C384.242 46.912 383.606 46.384 383.606 45.484C383.606 44.572 384.242 44.044 385.07 44.044ZM392.918 47.08V48.34H402.962V47.08H392.918ZM397.922 48.952C395.521 48.952 394.058 49.708 394.058 51.016C394.058 52.324 395.521 53.068 397.922 53.068C400.322 53.068 401.774 52.324 401.774 51.016C401.774 49.708 400.322 48.952 397.922 48.952ZM397.922 50.188C399.41 50.188 400.166 50.44 400.166 51.016C400.166 51.58 399.41 51.844 397.922 51.844C396.434 51.844 395.678 51.58 395.678 51.016C395.678 50.44 396.434 50.188 397.922 50.188ZM396.842 43.096V43.372C396.842 44.236 395.774 45.208 393.338 45.424L393.89 46.66C396.758 46.408 398.258 45.028 398.258 43.372V43.096H396.842ZM397.622 43.096V43.372C397.622 45.04 399.134 46.408 401.99 46.66L402.542 45.424C400.094 45.208 399.038 44.236 399.038 43.372V43.096H397.622ZM393.83 42.472V43.732H402.062V42.472H393.83Z" fill="#353535"/>
<rect opacity="0.35" x="451.119" y="11.3506" width="10.74" height="5.04789" rx="2.16667" stroke="white"/>
<path opacity="0.4" d="M462.893 12.8073V14.9418C463.322 14.761 463.602 14.3405 463.602 13.8745C463.602 13.4086 463.322 12.988 462.893 12.8073Z" fill="black"/>
<rect x="451.687" y="11.9178" width="9.60547" height="3.91334" rx="1.33333" fill="black"/>
<path fill-rule="evenodd" clip-rule="evenodd" d="M443.86 12.0687C445.047 12.0687 446.189 12.5245 447.049 13.3418C447.114 13.4049 447.218 13.4041 447.282 13.3401L447.901 12.7155C447.933 12.683 447.951 12.639 447.951 12.5932C447.951 12.5474 447.932 12.5036 447.899 12.4714C445.641 10.309 442.078 10.309 439.82 12.4714C439.787 12.5035 439.769 12.5473 439.769 12.5931C439.768 12.639 439.786 12.683 439.819 12.7155L440.438 13.3401C440.502 13.4042 440.605 13.405 440.67 13.3418C441.531 12.5245 442.673 12.0687 443.86 12.0687ZM443.86 14.1006C444.512 14.1005 445.141 14.3428 445.625 14.7803C445.69 14.8423 445.793 14.841 445.857 14.7772L446.476 14.1527C446.508 14.1199 446.526 14.0755 446.526 14.0293C446.525 13.9831 446.506 13.9391 446.473 13.907C445.001 12.5385 442.72 12.5385 441.248 13.907C441.215 13.9391 441.196 13.9832 441.195 14.0293C441.195 14.0755 441.213 14.12 441.246 14.1527L441.864 14.7772C441.928 14.841 442.031 14.8423 442.096 14.7803C442.58 14.3431 443.208 14.1009 443.86 14.1006ZM445.099 15.4677C445.1 15.514 445.082 15.5586 445.049 15.5911L443.979 16.6701C443.947 16.7018 443.905 16.7197 443.86 16.7197C443.815 16.7197 443.773 16.7018 443.741 16.6701L442.671 15.5911C442.638 15.5586 442.62 15.514 442.621 15.4677C442.622 15.4213 442.642 15.3775 442.676 15.3465C443.36 14.7689 444.36 14.7689 445.044 15.3465C445.078 15.3775 445.098 15.4214 445.099 15.4677Z" fill="black"/>
<path fill-rule="evenodd" clip-rule="evenodd" d="M436.567 11.2065H436.033C435.738 11.2065 435.499 11.4455 435.499 11.7402V16.365C435.499 16.6598 435.738 16.8987 436.033 16.8987H436.567C436.861 16.8987 437.1 16.6598 437.1 16.365V11.7402C437.1 11.4455 436.861 11.2065 436.567 11.2065ZM433.543 12.4517H434.076C434.371 12.4517 434.61 12.6906 434.61 12.9854V16.3651C434.61 16.6598 434.371 16.8987 434.076 16.8987H433.543C433.248 16.8987 433.009 16.6598 433.009 16.3651V12.9854C433.009 12.6906 433.248 12.4517 433.543 12.4517ZM431.586 13.6968H431.053C430.758 13.6968 430.519 13.9357 430.519 14.2305V16.365C430.519 16.6597 430.758 16.8987 431.053 16.8987H431.586C431.881 16.8987 432.12 16.6597 432.12 16.365V14.2305C432.12 13.9357 431.881 13.6968 431.586 13.6968ZM429.096 14.7641H428.562C428.267 14.7641 428.029 15.003 428.029 15.2977V16.365C428.029 16.6597 428.267 16.8987 428.562 16.8987H429.096C429.391 16.8987 429.629 16.6597 429.629 16.365V15.2977C429.629 15.003 429.391 14.7641 429.096 14.7641Z" fill="black"/>
<path d="M283.24 15.728C283.24 16.0533 283.216 16.3787 283.168 16.704C283.12 17.024 283.037 17.328 282.92 17.616C282.803 17.8987 282.64 18.152 282.432 18.376C282.224 18.5947 281.957 18.768 281.632 18.896C281.312 19.0187 280.923 19.08 280.464 19.08C280.357 19.08 280.229 19.0747 280.08 19.064C279.936 19.0533 279.816 19.0373 279.72 19.016V18.184C279.821 18.2107 279.931 18.232 280.048 18.248C280.171 18.264 280.291 18.272 280.408 18.272C280.771 18.272 281.069 18.224 281.304 18.128C281.544 18.0267 281.731 17.888 281.864 17.712C282.003 17.5307 282.104 17.32 282.168 17.08C282.232 16.8347 282.269 16.5733 282.28 16.296H282.232C282.152 16.4187 282.056 16.5307 281.944 16.632C281.837 16.7333 281.701 16.8133 281.536 16.872C281.376 16.9307 281.173 16.96 280.928 16.96C280.603 16.96 280.317 16.8907 280.072 16.752C279.832 16.6133 279.645 16.4133 279.512 16.152C279.379 15.8853 279.312 15.5627 279.312 15.184C279.312 14.7733 279.389 14.4213 279.544 14.128C279.699 13.8347 279.917 13.6107 280.2 13.456C280.488 13.296 280.824 13.216 281.208 13.216C281.496 13.216 281.763 13.2693 282.008 13.376C282.253 13.4773 282.467 13.632 282.648 13.84C282.835 14.0427 282.979 14.3013 283.08 14.616C283.187 14.9307 283.24 15.3013 283.24 15.728ZM281.224 14.048C280.952 14.048 280.731 14.1387 280.56 14.32C280.389 14.5013 280.304 14.784 280.304 15.168C280.304 15.4773 280.376 15.7227 280.52 15.904C280.669 16.08 280.896 16.168 281.2 16.168C281.408 16.168 281.587 16.1253 281.736 16.04C281.891 15.9493 282.011 15.8373 282.096 15.704C282.181 15.5707 282.224 15.4293 282.224 15.28C282.224 15.136 282.203 14.992 282.16 14.848C282.117 14.6987 282.053 14.5627 281.968 14.44C281.888 14.3173 281.784 14.2213 281.656 14.152C281.533 14.0827 281.389 14.048 281.224 14.048ZM283.782 18.488C283.782 18.264 283.841 18.1067 283.958 18.016C284.075 17.92 284.219 17.872 284.39 17.872C284.561 17.872 284.705 17.9173 284.822 18.008C284.945 18.0987 285.006 18.2587 285.006 18.488C285.006 18.7067 284.945 18.864 284.822 18.96C284.705 19.056 284.561 19.104 284.39 19.104C284.219 19.104 284.075 19.056 283.958 18.96C283.841 18.864 283.782 18.7067 283.782 18.488ZM283.782 15.192C283.782 14.9627 283.841 14.8027 283.958 14.712C284.075 14.616 284.219 14.568 284.39 14.568C284.561 14.568 284.705 14.6133 284.822 14.704C284.945 14.7947 285.006 14.9573 285.006 15.192C285.006 15.4107 284.945 15.568 284.822 15.664C284.705 15.76 284.561 15.808 284.39 15.808C284.219 15.808 284.075 15.76 283.958 15.664C283.841 15.568 283.782 15.4107 283.782 15.192ZM289.645 17.776H288.901V19H287.909V17.776H285.365V17.024L287.933 13.272H288.901V16.952H289.645V17.776ZM287.909 16.952V15.672C287.909 15.56 287.909 15.4453 287.909 15.328C287.914 15.2053 287.919 15.0853 287.925 14.968C287.93 14.8507 287.935 14.744 287.941 14.648C287.946 14.552 287.951 14.4773 287.957 14.424H287.925C287.877 14.5253 287.823 14.632 287.765 14.744C287.711 14.8507 287.65 14.952 287.581 15.048L286.285 16.952H287.909ZM292.619 19H291.611V15.44C291.611 15.3227 291.611 15.2027 291.611 15.08C291.616 14.9573 291.621 14.8347 291.627 14.712C291.632 14.584 291.637 14.4667 291.643 14.36C291.589 14.4133 291.523 14.4773 291.443 14.552C291.363 14.6213 291.28 14.6933 291.195 14.768L290.555 15.28L290.051 14.656L291.779 13.288H292.619V19Z" fill="black"/>
<rect x="273.24" y="104.5" width="196.446" height="132.409" rx="2.5" fill="#FAFAFA" stroke="#EEEEEE"/>
<rect x="273.04" y="243.046" width="95.4547" height="25.5482" rx="2.7" fill="white" stroke="#D0DB23" stroke-width="0.6"/>
<rect x="374.965" y="243.046" width="94.9211" height="25.5482" rx="2.7" fill="white" stroke="#D0DB23" stroke-width="0.6"/>
<path d="M278.439 69.268V70.726C278.439 72.211 277.512 73.777 276.333 74.371L276.792 74.965C278.079 74.281 279.051 72.526 279.051 70.726V69.268H278.439ZM278.574 69.268V70.726C278.574 72.472 279.519 74.137 280.779 74.812L281.238 74.218C280.086 73.642 279.177 72.157 279.177 70.726V69.268H278.574ZM281.949 68.566V76.702H282.705V68.566H281.949ZM282.525 71.86V72.49H284.037V71.86H282.525ZM288.815 70.501V71.122H291.002V70.501H288.815ZM286.943 68.935C285.728 68.935 284.846 69.709 284.846 70.825C284.846 71.941 285.728 72.706 286.943 72.706C288.158 72.706 289.04 71.941 289.04 70.825C289.04 69.709 288.158 68.935 286.943 68.935ZM286.943 69.565C287.744 69.565 288.32 70.078 288.32 70.825C288.32 71.563 287.744 72.085 286.943 72.085C286.142 72.085 285.566 71.563 285.566 70.825C285.566 70.078 286.142 69.565 286.943 69.565ZM290.669 68.566V72.931H291.416V68.566H290.669ZM286.205 73.336V76.594H291.416V73.336H290.678V74.362H286.952V73.336H286.205ZM286.952 74.956H290.678V75.991H286.952V74.956ZM295.016 69.727V71.05C295.016 72.427 294.035 73.975 292.874 74.542L293.306 75.136C294.575 74.488 295.61 72.742 295.61 71.05V69.727H295.016ZM295.151 69.727V71.05C295.151 72.661 296.132 74.299 297.419 74.938L297.842 74.344C296.663 73.786 295.745 72.337 295.745 71.05V69.727H295.151ZM293.162 69.394V70.024H297.545V69.394H293.162ZM298.508 68.566V76.702H299.264V68.566H298.508ZM299.084 71.851V72.481H300.596V71.851H299.084ZM303.292 72.436V73.039H310.645V72.436H303.292ZM306.964 73.741C305.227 73.741 304.174 74.281 304.174 75.217C304.174 76.153 305.227 76.684 306.964 76.684C308.701 76.684 309.754 76.153 309.754 75.217C309.754 74.281 308.701 73.741 306.964 73.741ZM306.964 74.335C308.242 74.335 308.998 74.65 308.998 75.217C308.998 75.775 308.242 76.099 306.964 76.099C305.695 76.099 304.93 75.775 304.93 75.217C304.93 74.65 305.695 74.335 306.964 74.335ZM306.487 69.304V69.547C306.487 70.465 305.164 71.194 303.706 71.356L303.976 71.941C305.659 71.743 307.153 70.852 307.153 69.547V69.304H306.487ZM306.802 69.304V69.547C306.802 70.852 308.287 71.743 309.97 71.941L310.24 71.356C308.782 71.194 307.459 70.465 307.459 69.547V69.304H306.802ZM303.967 68.98V69.583H309.988V68.98H303.967ZM312.003 69.07V72.85H315.81V69.07H315.072V70.312H312.732V69.07H312.003ZM312.732 70.906H315.072V72.247H312.732V70.906ZM317.493 68.575V73.489H318.249V68.575H317.493ZM315.54 73.651C313.848 73.651 312.813 74.218 312.813 75.172C312.813 76.135 313.848 76.684 315.54 76.684C317.232 76.684 318.276 76.135 318.276 75.172C318.276 74.218 317.232 73.651 315.54 73.651ZM315.54 74.245C316.782 74.245 317.529 74.587 317.529 75.172C317.529 75.757 316.782 76.099 315.54 76.099C314.307 76.099 313.56 75.757 313.56 75.172C313.56 74.587 314.307 74.245 315.54 74.245ZM325.931 71.32V71.932H328.199V71.32H325.931ZM323.969 69.268V70.717C323.969 72.229 323.051 73.795 321.854 74.389L322.331 74.983C323.618 74.29 324.581 72.544 324.581 70.717V69.268H323.969ZM324.113 69.268V70.717C324.113 72.499 325.058 74.173 326.372 74.839L326.813 74.236C325.634 73.678 324.716 72.202 324.716 70.717V69.268H324.113ZM327.83 68.557V76.711H328.568V68.557H327.83ZM330.142 73.408V74.02H337.522V73.408H330.142ZM332.05 73.741V76.702H332.806V73.741H332.05ZM334.849 73.741V76.702H335.596V73.741H334.849ZM331.024 68.881V69.484H335.875V70.402H331.042V72.373H331.798V70.978H336.622V68.881H331.024ZM331.042 71.977V72.58H336.811V71.977H331.042ZM338.079 77.611H338.673L341.364 68.854H340.779L338.079 77.611ZM348.279 70.807V71.419H350.331V70.807H348.279ZM349.908 68.575V74.533H350.655V68.575H349.908ZM345.462 75.91V76.522H350.88V75.91H345.462ZM345.462 74.011V76.225H346.209V74.011H345.462ZM346.038 69.583V70.24C346.038 71.392 345.201 72.472 343.986 72.904L344.373 73.498C345.732 72.994 346.65 71.716 346.65 70.24V69.583H346.038ZM346.182 69.583V70.231C346.182 71.608 347.055 72.832 348.378 73.309L348.756 72.724C347.577 72.31 346.785 71.284 346.785 70.231V69.583H346.182ZM344.22 69.232V69.835H348.567V69.232H344.22ZM352.238 72.724V73.336H359.609V72.724H352.238ZM355.604 73.102V74.974H356.351V73.102H355.604ZM353.183 68.944V71.806H358.655V68.944H353.183ZM357.917 69.547V71.203H353.912V69.547H357.917ZM353.174 75.91V76.522H358.79V75.91H353.174ZM353.174 74.191V76.126H353.912V74.191H353.174ZM366.025 68.557V76.702H366.781V68.557H366.025ZM366.574 71.86V72.481H368.077V71.86H366.574ZM363.946 69.439V69.556C363.946 71.707 362.821 73.444 360.571 74.587L360.985 75.163C363.613 73.84 364.675 71.752 364.675 69.439H363.946ZM360.949 69.439V70.051H364.333V69.439H360.949ZM372.825 69.727V71.05C372.825 72.427 371.844 73.975 370.683 74.542L371.115 75.136C372.384 74.488 373.419 72.742 373.419 71.05V69.727H372.825ZM372.96 69.727V71.05C372.96 72.661 373.941 74.299 375.228 74.938L375.651 74.344C374.472 73.786 373.554 72.337 373.554 71.05V69.727H372.96ZM370.971 69.394V70.024H375.354V69.394H370.971ZM376.317 68.566V76.702H377.073V68.566H376.317ZM376.893 71.851V72.481H378.405V71.851H376.893ZM382.562 69.115V69.439C382.562 70.951 381.302 72.148 379.214 72.724L379.511 73.309C381.878 72.661 383.345 71.185 383.345 69.115H382.562ZM379.628 69.115V69.718H383.021V69.115H379.628ZM380.357 73.786V74.389H385.037V76.684H385.784V73.786H380.357ZM385.037 68.566V73.417H385.784V68.566H385.037ZM383.012 70.015V70.627H385.19V70.015H383.012ZM382.931 71.743V72.355H385.136V71.743H382.931ZM387.368 72.436V73.039H394.721V72.436H387.368ZM391.04 73.741C389.303 73.741 388.25 74.281 388.25 75.217C388.25 76.153 389.303 76.684 391.04 76.684C392.777 76.684 393.83 76.153 393.83 75.217C393.83 74.281 392.777 73.741 391.04 73.741ZM391.04 74.335C392.318 74.335 393.074 74.65 393.074 75.217C393.074 75.775 392.318 76.099 391.04 76.099C389.771 76.099 389.006 75.775 389.006 75.217C389.006 74.65 389.771 74.335 391.04 74.335ZM390.563 69.304V69.547C390.563 70.465 389.24 71.194 387.782 71.356L388.052 71.941C389.735 71.743 391.229 70.852 391.229 69.547V69.304H390.563ZM390.878 69.304V69.547C390.878 70.852 392.363 71.743 394.046 71.941L394.316 71.356C392.858 71.194 391.535 70.465 391.535 69.547V69.304H390.878ZM388.043 68.98V69.583H394.064V68.98H388.043ZM397.669 72.436V73.057H405.022V72.436H397.669ZM398.596 71.059V71.662H404.167V71.059H398.596ZM398.596 68.89V71.347H399.334V69.502H404.104V68.89H398.596ZM401.332 73.759C399.595 73.759 398.542 74.29 398.542 75.226C398.542 76.162 399.595 76.684 401.332 76.684C403.069 76.684 404.122 76.162 404.122 75.226C404.122 74.29 403.069 73.759 401.332 73.759ZM401.332 74.335C402.61 74.335 403.366 74.659 403.366 75.226C403.366 75.784 402.61 76.099 401.332 76.099C400.063 76.099 399.298 75.784 399.298 75.226C399.298 74.659 400.063 74.335 401.332 74.335ZM407.961 75.037V75.658H415.332V75.037H407.961ZM408.6 69.376V69.988H414.639V69.376H408.6ZM408.618 72.814V73.426H414.63V72.814H408.618ZM409.869 69.943V72.877H410.616V69.943H409.869ZM412.641 69.943V72.877H413.379V69.943H412.641ZM422.162 68.557V76.711H422.909V68.557H422.162ZM416.708 74.128V74.749H417.383C418.778 74.749 420.002 74.695 421.478 74.452L421.397 73.84C419.957 74.074 418.742 74.128 417.383 74.128H416.708ZM416.69 69.322V69.934H419.696V71.617H416.708V74.362H417.455V72.229H420.452V69.322H416.69ZM430.657 68.566V74.623H431.368V68.566H430.657ZM429.352 70.996V71.617H430.882V70.996H429.352ZM428.866 68.719V74.398H429.568V68.719H428.866ZM426.067 75.91V76.522H431.62V75.91H426.067ZM426.067 74.074V76.126H426.814V74.074H426.067ZM424.888 72.805V73.417H425.41C426.589 73.417 427.444 73.372 428.47 73.174L428.398 72.571C427.399 72.769 426.553 72.805 425.41 72.805H424.888ZM424.87 69.268V69.871H427.21V71.023H424.888V73.129H425.608V71.59H427.93V69.268H424.87ZM436.858 71.32V71.932H439.126V71.32H436.858ZM434.896 69.268V70.717C434.896 72.229 433.978 73.795 432.781 74.389L433.258 74.983C434.545 74.29 435.508 72.544 435.508 70.717V69.268H434.896ZM435.04 69.268V70.717C435.04 72.499 435.985 74.173 437.299 74.839L437.74 74.236C436.561 73.678 435.643 72.202 435.643 70.717V69.268H435.04ZM438.757 68.557V76.711H439.495V68.557H438.757ZM276.828 82.259V82.844H283.371V82.259H276.828ZM280.122 83.177C278.448 83.177 277.494 83.582 277.494 84.356C277.494 85.13 278.448 85.535 280.122 85.535C281.796 85.535 282.75 85.13 282.75 84.356C282.75 83.582 281.796 83.177 280.122 83.177ZM280.122 83.699C281.319 83.699 281.985 83.933 281.985 84.356C281.985 84.77 281.319 84.995 280.122 84.995C278.925 84.995 278.259 84.77 278.259 84.356C278.259 83.933 278.925 83.699 280.122 83.699ZM279.753 81.44V82.61H280.491V81.44H279.753ZM276.441 86.183V86.786H283.794V86.183H276.441ZM279.753 85.328V86.462H280.491V85.328H279.753ZM277.242 87.434V88.019H282.084V89.702H282.822V87.434H277.242ZM284.72 85.841V86.453H292.073V85.841H284.72ZM285.674 88.91V89.522H291.263V88.91H285.674ZM285.674 87.164V89.099H286.421V87.164H285.674ZM288.401 81.836C286.655 81.836 285.539 82.448 285.539 83.465C285.539 84.473 286.655 85.085 288.401 85.085C290.138 85.085 291.263 84.473 291.263 83.465C291.263 82.448 290.138 81.836 288.401 81.836ZM288.401 82.448C289.679 82.448 290.498 82.826 290.498 83.465C290.498 84.104 289.679 84.482 288.401 84.482C287.123 84.482 286.304 84.104 286.304 83.465C286.304 82.826 287.123 82.448 288.401 82.448ZM297.01 82.268V83.726C297.01 85.211 296.083 86.777 294.904 87.371L295.363 87.965C296.65 87.281 297.622 85.526 297.622 83.726V82.268H297.01ZM297.145 82.268V83.726C297.145 85.472 298.09 87.137 299.35 87.812L299.809 87.218C298.657 86.642 297.748 85.157 297.748 83.726V82.268H297.145ZM300.52 81.566V89.702H301.276V81.566H300.52ZM301.096 84.86V85.49H302.608V84.86H301.096ZM307.387 83.501V84.122H309.574V83.501H307.387ZM305.515 81.935C304.3 81.935 303.418 82.709 303.418 83.825C303.418 84.941 304.3 85.706 305.515 85.706C306.73 85.706 307.612 84.941 307.612 83.825C307.612 82.709 306.73 81.935 305.515 81.935ZM305.515 82.565C306.316 82.565 306.892 83.078 306.892 83.825C306.892 84.563 306.316 85.085 305.515 85.085C304.714 85.085 304.138 84.563 304.138 83.825C304.138 83.078 304.714 82.565 305.515 82.565ZM309.241 81.566V85.931H309.988V81.566H309.241ZM304.777 86.336V89.594H309.988V86.336H309.25V87.362H305.524V86.336H304.777ZM305.524 87.956H309.25V88.991H305.524V87.956ZM313.587 82.727V84.05C313.587 85.427 312.606 86.975 311.445 87.542L311.877 88.136C313.146 87.488 314.181 85.742 314.181 84.05V82.727H313.587ZM313.722 82.727V84.05C313.722 85.661 314.703 87.299 315.99 87.938L316.413 87.344C315.234 86.786 314.316 85.337 314.316 84.05V82.727H313.722ZM311.733 82.394V83.024H316.116V82.394H311.733ZM317.079 81.566V89.702H317.835V81.566H317.079ZM317.655 84.851V85.481H319.167V84.851H317.655ZM327.785 81.566V85.931H328.541V81.566H327.785ZM323.294 86.336V89.594H328.541V86.336H327.803V87.326H324.032V86.336H323.294ZM324.032 87.92H327.803V88.991H324.032V87.92ZM324.176 81.953C322.943 81.953 322.052 82.718 322.052 83.825C322.052 84.941 322.943 85.706 324.176 85.706C325.409 85.706 326.291 84.941 326.291 83.825C326.291 82.718 325.409 81.953 324.176 81.953ZM324.176 82.574C324.986 82.574 325.571 83.087 325.571 83.825C325.571 84.563 324.986 85.076 324.176 85.076C323.366 85.076 322.781 84.563 322.781 83.825C322.781 83.087 323.366 82.574 324.176 82.574ZM330.142 85.436V86.039H337.495V85.436H330.142ZM333.814 86.741C332.077 86.741 331.024 87.281 331.024 88.217C331.024 89.153 332.077 89.684 333.814 89.684C335.551 89.684 336.604 89.153 336.604 88.217C336.604 87.281 335.551 86.741 333.814 86.741ZM333.814 87.335C335.092 87.335 335.848 87.65 335.848 88.217C335.848 88.775 335.092 89.099 333.814 89.099C332.545 89.099 331.78 88.775 331.78 88.217C331.78 87.65 332.545 87.335 333.814 87.335ZM333.337 82.304V82.547C333.337 83.465 332.014 84.194 330.556 84.356L330.826 84.941C332.509 84.743 334.003 83.852 334.003 82.547V82.304H333.337ZM333.652 82.304V82.547C333.652 83.852 335.137 84.743 336.82 84.941L337.09 84.356C335.632 84.194 334.309 83.465 334.309 82.547V82.304H333.652ZM330.817 81.98V82.583H336.838V81.98H330.817ZM345.942 81.557V89.702H346.698V81.557H345.942ZM346.491 84.86V85.481H347.994V84.86H346.491ZM343.863 82.439V82.556C343.863 84.707 342.738 86.444 340.488 87.587L340.902 88.163C343.53 86.84 344.592 84.752 344.592 82.439H343.863ZM340.866 82.439V83.051H344.25V82.439H340.866ZM349.721 83.825V84.437H355.238V83.825H349.721ZM349.721 81.728V84.095H350.459V81.728H349.721ZM348.722 85.382V85.985H356.075V85.382H348.722ZM352.385 86.714C350.648 86.714 349.595 87.245 349.595 88.199C349.595 89.135 350.648 89.675 352.385 89.675C354.122 89.675 355.175 89.135 355.175 88.199C355.175 87.245 354.122 86.714 352.385 86.714ZM352.385 87.299C353.663 87.299 354.419 87.623 354.419 88.199C354.419 88.757 353.663 89.081 352.385 89.081C351.116 89.081 350.351 88.757 350.351 88.199C350.351 87.623 351.116 87.299 352.385 87.299ZM362.564 81.575V87.677H363.311V81.575H362.564ZM363.077 84.239V84.869H364.517V84.239H363.077ZM357.02 82.556V83.159H361.826V82.556H357.02ZM359.423 83.609C358.262 83.609 357.47 84.212 357.47 85.13C357.47 86.039 358.262 86.642 359.423 86.642C360.575 86.642 361.367 86.039 361.367 85.13C361.367 84.212 360.575 83.609 359.423 83.609ZM359.423 84.194C360.152 84.194 360.656 84.563 360.656 85.13C360.656 85.688 360.152 86.057 359.423 86.057C358.685 86.057 358.181 85.688 358.181 85.13C358.181 84.563 358.685 84.194 359.423 84.194ZM359.045 81.566V82.871H359.792V81.566H359.045ZM358.244 88.91V89.522H363.68V88.91H358.244ZM358.244 87.191V89.171H358.991V87.191H358.244ZM371.353 84.32V84.932H373.621V84.32H371.353ZM369.391 82.268V83.717C369.391 85.229 368.473 86.795 367.276 87.389L367.753 87.983C369.04 87.29 370.003 85.544 370.003 83.717V82.268H369.391ZM369.535 82.268V83.717C369.535 85.499 370.48 87.173 371.794 87.839L372.235 87.236C371.056 86.678 370.138 85.202 370.138 83.717V82.268H369.535ZM373.252 81.557V89.711H373.99V81.557H373.252ZM375.564 86.408V87.02H382.944V86.408H375.564ZM377.472 86.741V89.702H378.228V86.741H377.472ZM380.271 86.741V89.702H381.018V86.741H380.271ZM376.446 81.881V82.484H381.297V83.402H376.464V85.373H377.22V83.978H382.044V81.881H376.446ZM376.464 84.977V85.58H382.233V84.977H376.464ZM388.034 82.682V82.799C388.034 83.492 387.188 84.059 386.072 84.248L386.333 84.788C387.674 84.554 388.601 83.789 388.601 82.799V82.682H388.034ZM388.196 82.682V82.799C388.196 83.753 389.132 84.482 390.455 84.716L390.716 84.167C389.618 83.987 388.763 83.456 388.763 82.799V82.682H388.196ZM386.252 82.25V82.808H390.536V82.25H386.252ZM388.025 84.428V85.58H388.772V84.428H388.025ZM388.025 81.548V82.52H388.763V81.548H388.025ZM386.9 86.534V87.101H391.436V87.767H386.918V89.297H387.647V88.307H392.165V86.534H386.9ZM386.918 89.045V89.612H392.48V89.045H386.918ZM391.418 81.566V86.183H392.165V81.566H391.418ZM391.85 83.51V84.131H393.353V83.51H391.85ZM385.937 85.922C387.368 85.922 389.276 85.904 390.977 85.616L390.914 85.094C389.267 85.328 387.305 85.337 385.847 85.337L385.937 85.922ZM397.843 82.736V83.348H400.327V82.736H397.843ZM397.843 84.608V85.229H400.327V84.608H397.843ZM396.358 82.043C395.152 82.043 394.261 82.853 394.261 83.978C394.261 85.112 395.152 85.913 396.358 85.913C397.555 85.913 398.455 85.112 398.455 83.978C398.455 82.853 397.555 82.043 396.358 82.043ZM396.358 82.682C397.15 82.682 397.744 83.213 397.744 83.978C397.744 84.743 397.15 85.274 396.358 85.274C395.566 85.274 394.981 84.743 394.981 83.978C394.981 83.213 395.566 82.682 396.358 82.682ZM400.084 81.566V86.381H400.831V81.566H400.084ZM398.158 86.57C396.475 86.57 395.44 87.146 395.44 88.127C395.44 89.117 396.475 89.684 398.158 89.684C399.832 89.684 400.867 89.117 400.867 88.127C400.867 87.146 399.832 86.57 398.158 86.57ZM398.158 87.164C399.382 87.164 400.129 87.524 400.129 88.127C400.129 88.739 399.382 89.099 398.158 89.099C396.925 89.099 396.178 88.739 396.178 88.127C396.178 87.524 396.925 87.164 398.158 87.164ZM404.814 82.493V83.096H411.357V82.493H404.814ZM404.436 86.84V87.452H411.807V86.84H404.436ZM407.73 87.335V89.711H408.477V87.335H407.73ZM408.108 83.564C406.443 83.564 405.462 84.05 405.462 84.923C405.462 85.787 406.443 86.282 408.108 86.282C409.764 86.282 410.745 85.787 410.745 84.923C410.745 84.05 409.764 83.564 408.108 83.564ZM408.108 84.14C409.296 84.14 409.98 84.419 409.98 84.923C409.98 85.427 409.296 85.706 408.108 85.706C406.92 85.706 406.236 85.427 406.236 84.923C406.236 84.419 406.92 84.14 408.108 84.14ZM407.73 81.521V82.898H408.477V81.521H407.73ZM420.641 81.575V87.515H421.397V81.575H420.641ZM416.168 88.91V89.522H421.64V88.91H416.168ZM416.168 86.903V89.117H416.906V86.903H416.168ZM417.032 82.133C415.817 82.133 414.908 82.961 414.908 84.14C414.908 85.31 415.817 86.147 417.032 86.147C418.247 86.147 419.147 85.31 419.147 84.14C419.147 82.961 418.247 82.133 417.032 82.133ZM417.032 82.781C417.824 82.781 418.427 83.339 418.427 84.14C418.427 84.932 417.824 85.49 417.032 85.49C416.24 85.49 415.637 84.932 415.637 84.14C415.637 83.339 416.24 82.781 417.032 82.781ZM422.999 85.436V86.039H430.352V85.436H422.999ZM426.671 86.741C424.934 86.741 423.881 87.281 423.881 88.217C423.881 89.153 424.934 89.684 426.671 89.684C428.408 89.684 429.461 89.153 429.461 88.217C429.461 87.281 428.408 86.741 426.671 86.741ZM426.671 87.335C427.949 87.335 428.705 87.65 428.705 88.217C428.705 88.775 427.949 89.099 426.671 89.099C425.402 89.099 424.637 88.775 424.637 88.217C424.637 87.65 425.402 87.335 426.671 87.335ZM426.194 82.304V82.547C426.194 83.465 424.871 84.194 423.413 84.356L423.683 84.941C425.366 84.743 426.86 83.852 426.86 82.547V82.304H426.194ZM426.509 82.304V82.547C426.509 83.852 427.994 84.743 429.677 84.941L429.947 84.356C428.489 84.194 427.166 83.465 427.166 82.547V82.304H426.509ZM423.674 81.98V82.583H429.695V81.98H423.674Z" fill="#353535"/>
<path d="M299.209 252.68V261.84H300.259V252.68H299.209ZM295.389 253.36C294.029 253.36 293.039 254.61 293.039 256.58C293.039 258.55 294.029 259.81 295.389 259.81C296.759 259.81 297.749 258.55 297.749 256.58C297.749 254.61 296.759 253.36 295.389 253.36ZM295.389 254.31C296.189 254.31 296.739 255.16 296.739 256.58C296.739 258.01 296.189 258.87 295.389 258.87C294.589 258.87 294.039 258.01 294.039 256.58C294.039 255.16 294.589 254.31 295.389 254.31ZM302.419 253.55V259.59H306.709V253.55H302.419ZM305.689 254.38V258.75H303.449V254.38H305.689ZM308.409 252.68V261.84H309.459V252.68H308.409ZM313.458 254.06V255.34C313.458 256.9 312.508 258.61 311.098 259.26L311.698 260.09C313.268 259.34 314.298 257.35 314.298 255.34V254.06H313.458ZM313.678 254.06V255.34C313.678 257.3 314.708 259.15 316.298 259.86L316.878 259.03C315.448 258.43 314.508 256.85 314.508 255.34V254.06H313.678ZM311.428 253.6V254.47H316.538V253.6H311.428ZM317.608 252.69V261.83H318.658V252.69H317.608ZM327.183 254.8V255.65H329.563V254.8H327.183ZM325.083 253.09C323.713 253.09 322.703 253.98 322.703 255.24C322.703 256.5 323.713 257.38 325.083 257.38C326.453 257.38 327.463 256.5 327.463 255.24C327.463 253.98 326.453 253.09 325.083 253.09ZM325.083 253.97C325.883 253.97 326.453 254.47 326.453 255.24C326.453 256 325.883 256.51 325.083 256.51C324.283 256.51 323.703 256 323.703 255.24C323.703 254.47 324.283 253.97 325.083 253.97ZM329.103 252.69V257.6H330.153V252.69H329.103ZM324.203 258.03V261.72H330.153V258.03H329.113V259.05H325.243V258.03H324.203ZM325.243 259.87H329.113V260.88H325.243V259.87ZM331.782 259.9V260.76H340.062V259.9H331.782ZM335.382 258.04V260.25H336.422V258.04H335.382ZM332.752 253.33V254.17H338.032V255.39H332.772V257.92H333.812V256.22H339.072V253.33H332.752ZM332.772 257.49V258.34H339.282V257.49H332.772ZM341.991 257V257.84H348.331V257H341.991ZM340.981 259.79V260.65H349.261V259.79H340.981ZM341.991 253.49V257.36H343.031V254.35H348.251V253.49H341.991Z" fill="#D0DB23"/>
<path d="M416.045 252.98V253.1C416.045 253.77 415.225 254.34 413.935 254.52L414.295 255.27C415.885 255.03 416.845 254.18 416.845 253.1V252.98H416.045ZM416.295 252.98V253.1C416.295 254.15 417.255 254.96 418.825 255.19L419.175 254.44C417.915 254.27 417.085 253.74 417.085 253.1V252.98H416.295ZM414.155 252.4V253.16H418.975V252.4H414.155ZM416.045 254.9V256.16H417.095V254.9H416.045ZM416.045 251.67V252.79H417.085V251.67H416.045ZM414.875 257.17V257.94H419.865V258.56H414.895V260.31H415.925V259.29H420.895V257.17H414.875ZM414.895 259.97V260.75H421.225V259.97H414.895ZM419.845 251.69V256.8H420.895V251.69H419.845ZM420.495 253.77V254.62H422.145V253.77H420.495ZM413.835 256.59C415.435 256.59 417.535 256.57 419.415 256.26L419.335 255.55C417.515 255.79 415.345 255.8 413.715 255.8L413.835 256.59ZM427.045 252.95V253.8H429.795V252.95H427.045ZM427.045 255.02V255.87H429.795V255.02H427.045ZM425.445 252.21C424.085 252.21 423.065 253.13 423.065 254.41C423.065 255.69 424.085 256.61 425.445 256.61C426.795 256.61 427.825 255.69 427.825 254.41C427.825 253.13 426.795 252.21 425.445 252.21ZM425.445 253.1C426.235 253.1 426.825 253.61 426.825 254.41C426.825 255.2 426.235 255.72 425.445 255.72C424.655 255.72 424.065 255.2 424.065 254.41C424.065 253.61 424.655 253.1 425.445 253.1ZM429.465 251.69V257.07H430.515V251.69H429.465ZM427.465 257.28C425.565 257.28 424.385 257.93 424.385 259.05C424.385 260.17 425.565 260.82 427.465 260.82C429.365 260.82 430.545 260.17 430.545 259.05C430.545 257.93 429.365 257.28 427.465 257.28ZM427.465 258.09C428.765 258.09 429.515 258.43 429.515 259.05C429.515 259.66 428.765 260 427.465 260C426.165 260 425.415 259.66 425.415 259.05C425.415 258.43 426.165 258.09 427.465 258.09Z" fill="#D0DB23"/>
<path d="M368.261 177.108C370.914 177.108 373.064 174.958 373.064 172.305C373.064 169.653 370.914 167.503 368.261 167.503C365.609 167.503 363.458 169.653 363.458 172.305C363.458 174.958 365.609 177.108 368.261 177.108Z" fill="#C0C0C2"/>
<path d="M363.618 156.83L360.786 159.913H355.881C354.178 159.913 352.786 161.301 352.786 162.997V181.496C352.786 183.192 354.178 184.579 355.881 184.579H380.642C382.344 184.579 383.737 183.192 383.737 181.496V162.997C383.737 161.301 382.344 159.913 380.642 159.913H375.736L372.904 156.83H363.618ZM368.261 179.954C363.99 179.954 360.523 176.501 360.523 172.246C360.523 167.991 363.99 164.538 368.261 164.538C372.532 164.538 375.999 167.991 375.999 172.246C375.999 176.501 372.532 179.954 368.261 179.954Z" fill="#C0C0C2"/>
<path d="M363.09 438.072V439.879H364.455V438.072H363.09ZM363.753 433.717C362.037 433.717 360.802 434.679 360.802 436.096C360.802 437.5 362.037 438.462 363.753 438.462C365.469 438.462 366.691 437.5 366.691 436.096C366.691 434.679 365.469 433.717 363.753 433.717ZM363.753 434.744C364.741 434.744 365.417 435.264 365.417 436.096C365.417 436.915 364.741 437.435 363.753 437.435C362.765 437.435 362.076 436.915 362.076 436.096C362.076 435.264 362.765 434.744 363.753 434.744ZM368.121 433.21V442.284H369.486V433.21H368.121ZM368.966 437.097V438.215H371.111V437.097H368.966ZM361.79 443.727V444.832H369.902V443.727H361.79ZM361.79 441.504V444.208H363.155V441.504H361.79ZM360.321 440.62C362.323 440.62 365.079 440.581 367.523 440.126L367.432 439.138C365.053 439.502 362.206 439.515 360.152 439.515L360.321 440.62ZM375.023 440.139V443.012H376.362V440.139H375.023ZM378.806 440.126V442.999H380.132V440.126H378.806ZM372.15 442.57V443.688H382.914V442.57H372.15ZM373.411 434.029V435.121H380.275V436.694H373.437V439.996H374.789V437.773H381.627V434.029H373.411ZM373.437 439.411V440.516H381.9V439.411H373.437Z" fill="white"/>
<g filter="url(#filter1_d_290_166)">
<rect x="4" width="220.926" height="468" rx="10" fill="white"/>
</g>
<rect x="15.74" y="422.107" width="197.446" height="33.0855" rx="3" fill="#D0DB23"/>
<path d="M86.223 43.096V43.792C86.223 45.184 85.419 46.636 83.571 47.236L84.387 48.472C86.523 47.788 87.543 45.892 87.543 43.792V43.096H86.223ZM86.547 43.096V43.792C86.547 45.796 87.555 47.62 89.643 48.28L90.459 47.044C88.647 46.468 87.855 45.112 87.855 43.792V43.096H86.547ZM91.155 41.956V48.652H92.763V41.956H91.155ZM85.179 49.144V50.416H91.155V53.068H92.763V49.144H85.179ZM83.991 42.604V43.864H90.039V42.604H83.991ZM97.034 43.192V43.888C97.034 45.304 96.254 46.756 94.406 47.368L95.198 48.628C97.346 47.92 98.342 46.012 98.342 43.888V43.192H97.034ZM97.358 43.192V43.888C97.358 45.868 98.318 47.608 100.43 48.244L101.186 46.996C99.398 46.456 98.654 45.184 98.654 43.888V43.192H97.358ZM94.826 42.7V43.972H100.826V42.7H94.826ZM101.714 41.956V48.544H103.31V41.956H101.714ZM102.866 44.512V45.82H104.786V44.512H102.866ZM99.686 48.748C97.37 48.748 95.918 49.552 95.918 50.908C95.918 52.264 97.37 53.068 99.686 53.068C101.99 53.068 103.442 52.264 103.442 50.908C103.442 49.552 101.99 48.748 99.686 48.748ZM99.686 49.996C101.102 49.996 101.858 50.284 101.858 50.908C101.858 51.532 101.102 51.844 99.686 51.844C98.27 51.844 97.502 51.532 97.502 50.908C97.502 50.284 98.27 49.996 99.686 49.996ZM113.233 41.968V49.948H114.841V41.968H113.233ZM107.437 51.604V52.876H115.117V51.604H107.437ZM107.437 49.144V52.12H109.033V49.144H107.437ZM108.793 42.664C107.089 42.664 105.769 43.84 105.769 45.484C105.769 47.116 107.089 48.304 108.793 48.304C110.497 48.304 111.805 47.116 111.805 45.484C111.805 43.84 110.497 42.664 108.793 42.664ZM108.793 44.044C109.609 44.044 110.245 44.572 110.245 45.484C110.245 46.384 109.609 46.912 108.793 46.912C107.965 46.912 107.329 46.384 107.329 45.484C107.329 44.572 107.965 44.044 108.793 44.044ZM126.991 41.968V49.948H128.599V41.968H126.991ZM121.195 51.604V52.876H128.875V51.604H121.195ZM121.195 49.144V52.12H122.791V49.144H121.195ZM122.551 42.664C120.847 42.664 119.527 43.84 119.527 45.484C119.527 47.116 120.847 48.304 122.551 48.304C124.255 48.304 125.563 47.116 125.563 45.484C125.563 43.84 124.255 42.664 122.551 42.664ZM122.551 44.044C123.367 44.044 124.003 44.572 124.003 45.484C124.003 46.384 123.367 46.912 122.551 46.912C121.723 46.912 121.087 46.384 121.087 45.484C121.087 44.572 121.723 44.044 122.551 44.044ZM130.398 47.08V48.34H140.442V47.08H130.398ZM135.402 48.952C133.002 48.952 131.538 49.708 131.538 51.016C131.538 52.324 133.002 53.068 135.402 53.068C137.802 53.068 139.254 52.324 139.254 51.016C139.254 49.708 137.802 48.952 135.402 48.952ZM135.402 50.188C136.89 50.188 137.646 50.44 137.646 51.016C137.646 51.58 136.89 51.844 135.402 51.844C133.914 51.844 133.158 51.58 133.158 51.016C133.158 50.44 133.914 50.188 135.402 50.188ZM134.322 43.096V43.372C134.322 44.236 133.254 45.208 130.818 45.424L131.37 46.66C134.238 46.408 135.738 45.028 135.738 43.372V43.096H134.322ZM135.102 43.096V43.372C135.102 45.04 136.614 46.408 139.47 46.66L140.022 45.424C137.574 45.208 136.518 44.236 136.518 43.372V43.096H135.102ZM131.31 42.472V43.732H139.542V42.472H131.31Z" fill="#353535"/>
<path d="M22.24 15.728C22.24 16.0533 22.216 16.3787 22.168 16.704C22.12 17.024 22.0373 17.328 21.92 17.616C21.8027 17.8987 21.64 18.152 21.432 18.376C21.224 18.5947 20.9573 18.768 20.632 18.896C20.312 19.0187 19.9227 19.08 19.464 19.08C19.3573 19.08 19.2293 19.0747 19.08 19.064C18.936 19.0533 18.816 19.0373 18.72 19.016V18.184C18.8213 18.2107 18.9307 18.232 19.048 18.248C19.1707 18.264 19.2907 18.272 19.408 18.272C19.7707 18.272 20.0693 18.224 20.304 18.128C20.544 18.0267 20.7307 17.888 20.864 17.712C21.0027 17.5307 21.104 17.32 21.168 17.08C21.232 16.8347 21.2693 16.5733 21.28 16.296H21.232C21.152 16.4187 21.056 16.5307 20.944 16.632C20.8373 16.7333 20.7013 16.8133 20.536 16.872C20.376 16.9307 20.1733 16.96 19.928 16.96C19.6027 16.96 19.3173 16.8907 19.072 16.752C18.832 16.6133 18.6453 16.4133 18.512 16.152C18.3787 15.8853 18.312 15.5627 18.312 15.184C18.312 14.7733 18.3893 14.4213 18.544 14.128C18.6987 13.8347 18.9173 13.6107 19.2 13.456C19.488 13.296 19.824 13.216 20.208 13.216C20.496 13.216 20.7627 13.2693 21.008 13.376C21.2533 13.4773 21.4667 13.632 21.648 13.84C21.8347 14.0427 21.9787 14.3013 22.08 14.616C22.1867 14.9307 22.24 15.3013 22.24 15.728ZM20.224 14.048C19.952 14.048 19.7307 14.1387 19.56 14.32C19.3893 14.5013 19.304 14.784 19.304 15.168C19.304 15.4773 19.376 15.7227 19.52 15.904C19.6693 16.08 19.896 16.168 20.2 16.168C20.408 16.168 20.5867 16.1253 20.736 16.04C20.8907 15.9493 21.0107 15.8373 21.096 15.704C21.1813 15.5707 21.224 15.4293 21.224 15.28C21.224 15.136 21.2027 14.992 21.16 14.848C21.1173 14.6987 21.0533 14.5627 20.968 14.44C20.888 14.3173 20.784 14.2213 20.656 14.152C20.5333 14.0827 20.3893 14.048 20.224 14.048ZM22.7821 18.488C22.7821 18.264 22.8408 18.1067 22.9581 18.016C23.0755 17.92 23.2195 17.872 23.3901 17.872C23.5608 17.872 23.7048 17.9173 23.8221 18.008C23.9448 18.0987 24.0061 18.2587 24.0061 18.488C24.0061 18.7067 23.9448 18.864 23.8221 18.96C23.7048 19.056 23.5608 19.104 23.3901 19.104C23.2195 19.104 23.0755 19.056 22.9581 18.96C22.8408 18.864 22.7821 18.7067 22.7821 18.488ZM22.7821 15.192C22.7821 14.9627 22.8408 14.8027 22.9581 14.712C23.0755 14.616 23.2195 14.568 23.3901 14.568C23.5608 14.568 23.7048 14.6133 23.8221 14.704C23.9448 14.7947 24.0061 14.9573 24.0061 15.192C24.0061 15.4107 23.9448 15.568 23.8221 15.664C23.7048 15.76 23.5608 15.808 23.3901 15.808C23.2195 15.808 23.0755 15.76 22.9581 15.664C22.8408 15.568 22.7821 15.4107 22.7821 15.192ZM28.6445 17.776H27.9005V19H26.9085V17.776H24.3645V17.024L26.9325 13.272H27.9005V16.952H28.6445V17.776ZM26.9085 16.952V15.672C26.9085 15.56 26.9085 15.4453 26.9085 15.328C26.9138 15.2053 26.9192 15.0853 26.9245 14.968C26.9298 14.8507 26.9352 14.744 26.9405 14.648C26.9458 14.552 26.9512 14.4773 26.9565 14.424H26.9245C26.8765 14.5253 26.8232 14.632 26.7645 14.744C26.7112 14.8507 26.6498 14.952 26.5805 15.048L25.2845 16.952H26.9085ZM31.6186 19H30.6106V15.44C30.6106 15.3227 30.6106 15.2027 30.6106 15.08C30.616 14.9573 30.6213 14.8347 30.6266 14.712C30.632 14.584 30.6373 14.4667 30.6426 14.36C30.5893 14.4133 30.5226 14.4773 30.4426 14.552C30.3626 14.6213 30.28 14.6933 30.1946 14.768L29.5546 15.28L29.0506 14.656L30.7786 13.288H31.6186V19Z" fill="black"/>
<rect opacity="0.35" x="194.119" y="11.3506" width="10.74" height="5.04789" rx="2.16667" stroke="white"/>
<path opacity="0.4" d="M205.893 12.8073V14.9418C206.322 14.761 206.602 14.3405 206.602 13.8745C206.602 13.4086 206.322 12.988 205.893 12.8073Z" fill="black"/>
<rect x="194.687" y="11.9178" width="9.60547" height="3.91334" rx="1.33333" fill="black"/>
<path fill-rule="evenodd" clip-rule="evenodd" d="M186.86 12.0687C188.047 12.0687 189.189 12.5245 190.049 13.3418C190.114 13.4049 190.218 13.4041 190.282 13.3401L190.901 12.7155C190.933 12.683 190.951 12.639 190.951 12.5932C190.951 12.5474 190.932 12.5036 190.899 12.4714C188.641 10.309 185.078 10.309 182.82 12.4714C182.787 12.5035 182.769 12.5473 182.769 12.5931C182.768 12.639 182.786 12.683 182.819 12.7155L183.438 13.3401C183.502 13.4042 183.605 13.405 183.67 13.3418C184.531 12.5245 185.673 12.0687 186.86 12.0687ZM186.86 14.1006C187.512 14.1005 188.141 14.3428 188.625 14.7803C188.69 14.8423 188.793 14.841 188.857 14.7772L189.476 14.1527C189.508 14.1199 189.526 14.0755 189.526 14.0293C189.525 13.9831 189.506 13.9391 189.473 13.907C188.001 12.5385 185.72 12.5385 184.248 13.907C184.215 13.9391 184.196 13.9832 184.195 14.0293C184.195 14.0755 184.213 14.12 184.246 14.1527L184.864 14.7772C184.928 14.841 185.031 14.8423 185.096 14.7803C185.58 14.3431 186.208 14.1009 186.86 14.1006ZM188.099 15.4677C188.1 15.514 188.082 15.5586 188.049 15.5911L186.979 16.6701C186.947 16.7018 186.905 16.7197 186.86 16.7197C186.815 16.7197 186.773 16.7018 186.741 16.6701L185.671 15.5911C185.638 15.5586 185.62 15.514 185.621 15.4677C185.622 15.4213 185.642 15.3775 185.676 15.3465C186.36 14.7689 187.36 14.7689 188.044 15.3465C188.078 15.3775 188.098 15.4214 188.099 15.4677Z" fill="black"/>
<path fill-rule="evenodd" clip-rule="evenodd" d="M179.567 11.2065H179.033C178.738 11.2065 178.499 11.4455 178.499 11.7402V16.365C178.499 16.6598 178.738 16.8987 179.033 16.8987H179.567C179.861 16.8987 180.1 16.6598 180.1 16.365V11.7402C180.1 11.4455 179.861 11.2065 179.567 11.2065ZM176.543 12.4517H177.076C177.371 12.4517 177.61 12.6906 177.61 12.9854V16.3651C177.61 16.6598 177.371 16.8987 177.076 16.8987H176.543C176.248 16.8987 176.009 16.6598 176.009 16.3651V12.9854C176.009 12.6906 176.248 12.4517 176.543 12.4517ZM174.586 13.6968H174.053C173.758 13.6968 173.519 13.9357 173.519 14.2305V16.365C173.519 16.6597 173.758 16.8987 174.053 16.8987H174.586C174.881 16.8987 175.12 16.6597 175.12 16.365V14.2305C175.12 13.9357 174.881 13.6968 174.586 13.6968ZM172.096 14.7641H171.562C171.267 14.7641 171.029 15.003 171.029 15.2977V16.365C171.029 16.6597 171.267 16.8987 171.562 16.8987H172.096C172.391 16.8987 172.629 16.6597 172.629 16.365V15.2977C172.629 15.003 172.391 14.7641 172.096 14.7641Z" fill="black"/>
<rect x="16.04" y="301.046" width="95.4547" height="25.5482" rx="2.7" fill="white" stroke="#D0DB23" stroke-width="0.6"/>
<rect x="117.965" y="301.046" width="94.9211" height="25.5482" rx="2.7" fill="white" stroke="#D0DB23" stroke-width="0.6"/>
<path d="M42.2093 310.68V319.84H43.2593V310.68H42.2093ZM38.3893 311.36C37.0293 311.36 36.0393 312.61 36.0393 314.58C36.0393 316.55 37.0293 317.81 38.3893 317.81C39.7593 317.81 40.7493 316.55 40.7493 314.58C40.7493 312.61 39.7593 311.36 38.3893 311.36ZM38.3893 312.31C39.1893 312.31 39.7393 313.16 39.7393 314.58C39.7393 316.01 39.1893 316.87 38.3893 316.87C37.5893 316.87 37.0393 316.01 37.0393 314.58C37.0393 313.16 37.5893 312.31 38.3893 312.31ZM45.4185 311.55V317.59H49.7085V311.55H45.4185ZM48.6885 312.38V316.75H46.4485V312.38H48.6885ZM51.4085 310.68V319.84H52.4585V310.68H51.4085ZM56.4577 312.06V313.34C56.4577 314.9 55.5077 316.61 54.0977 317.26L54.6977 318.09C56.2677 317.34 57.2977 315.35 57.2977 313.34V312.06H56.4577ZM56.6777 312.06V313.34C56.6777 315.3 57.7077 317.15 59.2977 317.86L59.8777 317.03C58.4477 316.43 57.5077 314.85 57.5077 313.34V312.06H56.6777ZM54.4277 311.6V312.47H59.5377V311.6H54.4277ZM60.6077 310.69V319.83H61.6577V310.69H60.6077ZM70.183 312.8V313.65H72.563V312.8H70.183ZM68.083 311.09C66.713 311.09 65.703 311.98 65.703 313.24C65.703 314.5 66.713 315.38 68.083 315.38C69.453 315.38 70.463 314.5 70.463 313.24C70.463 311.98 69.453 311.09 68.083 311.09ZM68.083 311.97C68.883 311.97 69.453 312.47 69.453 313.24C69.453 314 68.883 314.51 68.083 314.51C67.283 314.51 66.703 314 66.703 313.24C66.703 312.47 67.283 311.97 68.083 311.97ZM72.103 310.69V315.6H73.153V310.69H72.103ZM67.203 316.03V319.72H73.153V316.03H72.113V317.05H68.243V316.03H67.203ZM68.243 317.87H72.113V318.88H68.243V317.87ZM74.7823 317.9V318.76H83.0623V317.9H74.7823ZM78.3823 316.04V318.25H79.4223V316.04H78.3823ZM75.7523 311.33V312.17H81.0323V313.39H75.7723V315.92H76.8123V314.22H82.0723V311.33H75.7523ZM75.7723 315.49V316.34H82.2823V315.49H75.7723ZM84.9915 315V315.84H91.3315V315H84.9915ZM83.9815 317.79V318.65H92.2615V317.79H83.9815ZM84.9915 311.49V315.36H86.0315V312.35H91.2515V311.49H84.9915Z" fill="#D0DB23"/>
<path d="M159.045 310.98V311.1C159.045 311.77 158.225 312.34 156.935 312.52L157.295 313.27C158.885 313.03 159.845 312.18 159.845 311.1V310.98H159.045ZM159.295 310.98V311.1C159.295 312.15 160.255 312.96 161.825 313.19L162.175 312.44C160.915 312.27 160.085 311.74 160.085 311.1V310.98H159.295ZM157.155 310.4V311.16H161.975V310.4H157.155ZM159.045 312.9V314.16H160.095V312.9H159.045ZM159.045 309.67V310.79H160.085V309.67H159.045ZM157.875 315.17V315.94H162.865V316.56H157.895V318.31H158.925V317.29H163.895V315.17H157.875ZM157.895 317.97V318.75H164.225V317.97H157.895ZM162.845 309.69V314.8H163.895V309.69H162.845ZM163.495 311.77V312.62H165.145V311.77H163.495ZM156.835 314.59C158.435 314.59 160.535 314.57 162.415 314.26L162.335 313.55C160.515 313.79 158.345 313.8 156.715 313.8L156.835 314.59ZM170.045 310.95V311.8H172.795V310.95H170.045ZM170.045 313.02V313.87H172.795V313.02H170.045ZM168.445 310.21C167.085 310.21 166.065 311.13 166.065 312.41C166.065 313.69 167.085 314.61 168.445 314.61C169.795 314.61 170.825 313.69 170.825 312.41C170.825 311.13 169.795 310.21 168.445 310.21ZM168.445 311.1C169.235 311.1 169.825 311.61 169.825 312.41C169.825 313.2 169.235 313.72 168.445 313.72C167.655 313.72 167.065 313.2 167.065 312.41C167.065 311.61 167.655 311.1 168.445 311.1ZM172.465 309.69V315.07H173.515V309.69H172.465ZM170.465 315.28C168.565 315.28 167.385 315.93 167.385 317.05C167.385 318.17 168.565 318.82 170.465 318.82C172.365 318.82 173.545 318.17 173.545 317.05C173.545 315.93 172.365 315.28 170.465 315.28ZM170.465 316.09C171.765 316.09 172.515 316.43 172.515 317.05C172.515 317.66 171.765 318 170.465 318C169.165 318 168.415 317.66 168.415 317.05C168.415 316.43 169.165 316.09 170.465 316.09Z" fill="#D0DB23"/>
<rect x="16.24" y="162.5" width="196.446" height="132.409" rx="2.5" fill="#FAFAFA" stroke="#EEEEEE"/>
<path d="M111.261 235.108C113.914 235.108 116.064 232.958 116.064 230.305C116.064 227.653 113.914 225.503 111.261 225.503C108.609 225.503 106.458 227.653 106.458 230.305C106.458 232.958 108.609 235.108 111.261 235.108Z" fill="#C0C0C2"/>
<path d="M106.618 214.83L103.786 217.913H98.8807C97.1784 217.913 95.7856 219.301 95.7856 220.997V239.496C95.7856 241.192 97.1784 242.579 98.8807 242.579H123.642C125.344 242.579 126.737 241.192 126.737 239.496V220.997C126.737 219.301 125.344 217.913 123.642 217.913H118.736L115.904 214.83H106.618ZM111.261 237.954C106.99 237.954 103.523 234.501 103.523 230.246C103.523 225.991 106.99 222.538 111.261 222.538C115.532 222.538 118.999 225.991 118.999 230.246C118.999 234.501 115.532 237.954 111.261 237.954Z" fill="#C0C0C2"/>
<path d="M31.5 87.5C31.5 89.6609 29.5361 91.5 27 91.5C24.4639 91.5 22.5 89.6609 22.5 87.5C22.5 85.3391 24.4639 83.5 27 83.5C29.5361 83.5 31.5 85.3391 31.5 87.5Z" stroke="#D0DB23"/>
<ellipse cx="27" cy="87.5" rx="2.89474" ry="2.60526" fill="#D0DB23"/>
<circle cx="21.5" cy="147.5" r="4" stroke="#C0C0C2"/>
<circle cx="21.5" cy="147.5" r="2.60526" fill="white"/>
<rect x="21.5" y="99.5" width="130" height="25" rx="2.5" fill="#FAFAFA" stroke="#EEEEEE"/>
<rect x="156.3" y="99.3" width="43.4" height="25.4" rx="2.7" fill="white" stroke="#C0C0C2" stroke-width="0.6"/>
<path d="M32.648 109.384V116.632H33.312V109.384H32.648ZM29.496 109.944C28.432 109.944 27.664 110.928 27.664 112.464C27.664 114.008 28.432 114.992 29.496 114.992C30.568 114.992 31.336 114.008 31.336 112.464C31.336 110.928 30.568 109.944 29.496 109.944ZM29.496 110.544C30.208 110.544 30.696 111.296 30.696 112.464C30.696 113.64 30.208 114.408 29.496 114.408C28.792 114.408 28.296 113.64 28.296 112.464C28.296 111.296 28.792 110.544 29.496 110.544ZM35.0154 110.224V114.688H37.7754V110.224H35.0154ZM37.1514 110.752V114.16H35.6394V110.752H37.1514ZM40.2634 109.392V116.624H40.9034V109.392H40.2634ZM37.4394 112.112V112.664H39.1034V112.112H37.4394ZM38.8314 109.544V116.264H39.4634V109.544H38.8314ZM44.1428 109.656C43.0708 109.656 42.2788 110.312 42.2788 111.264C42.2788 112.208 43.0708 112.864 44.1428 112.864C45.2228 112.864 46.0148 112.208 46.0148 111.264C46.0148 110.312 45.2228 109.656 44.1428 109.656ZM44.1428 110.2C44.8468 110.2 45.3668 110.64 45.3668 111.264C45.3668 111.888 44.8468 112.32 44.1428 112.32C43.4468 112.32 42.9188 111.888 42.9188 111.264C42.9188 110.64 43.4468 110.2 44.1428 110.2ZM47.3748 109.392V113.096H48.0468V109.392H47.3748ZM43.3668 113.448V113.984H47.3908V114.712H43.3828V116.296H44.0308V115.208H48.0468V113.448H43.3668ZM43.3828 116V116.528H48.2868V116H43.3828ZM52.7421 109.512C51.1421 109.512 50.1981 109.96 50.1981 110.768C50.1981 111.576 51.1421 112.024 52.7421 112.024C54.3341 112.024 55.2861 111.576 55.2861 110.768C55.2861 109.96 54.3341 109.512 52.7421 109.512ZM52.7421 110.016C53.9181 110.016 54.5981 110.288 54.5981 110.768C54.5981 111.248 53.9181 111.52 52.7421 111.52C51.5581 111.52 50.8781 111.248 50.8781 110.768C50.8781 110.288 51.5581 110.016 52.7421 110.016ZM49.4701 112.504V113.04H56.0061V112.504H49.4701ZM50.2621 113.656V114.168H54.5181V114.808H50.2781V116.168H50.9341V115.288H55.1741V113.656H50.2621ZM50.2781 116.024V116.544H55.3901V116.024H50.2781ZM63.8826 109.392V113.272H64.5546V109.392H63.8826ZM59.8906 113.632V116.528H64.5546V113.632H63.8986V114.512H60.5466V113.632H59.8906ZM60.5466 115.04H63.8986V115.992H60.5466V115.04ZM60.6746 109.736C59.5786 109.736 58.7866 110.416 58.7866 111.4C58.7866 112.392 59.5786 113.072 60.6746 113.072C61.7706 113.072 62.5546 112.392 62.5546 111.4C62.5546 110.416 61.7706 109.736 60.6746 109.736ZM60.6746 110.288C61.3946 110.288 61.9146 110.744 61.9146 111.4C61.9146 112.056 61.3946 112.512 60.6746 112.512C59.9546 112.512 59.4346 112.056 59.4346 111.4C59.4346 110.744 59.9546 110.288 60.6746 110.288ZM66.2819 112.976V113.52H66.8019C68.2499 113.52 68.9699 113.496 69.8659 113.336L69.7939 112.8C68.9299 112.952 68.2259 112.976 66.8019 112.976H66.2819ZM66.2659 109.824V110.368H68.7299V111.36H66.2819V113.304H66.9379V111.88H69.3859V109.824H66.2659ZM71.2659 109.4V113.84H71.9299V109.4H71.2659ZM69.8659 110.464V111.008H71.4179V110.464H69.8659ZM69.8659 111.96V112.504H71.4179V111.96H69.8659ZM67.0899 114.232V114.776H71.2659V116.64H71.9299V114.232H67.0899ZM78.2413 109.392V116.624H78.9053V109.392H78.2413ZM78.7453 112.36V112.92H80.0893V112.36H78.7453ZM73.3053 110.544V111.088H77.5693V110.544H73.3053ZM75.4653 111.688C74.4493 111.688 73.7053 112.376 73.7053 113.352C73.7053 114.328 74.4493 115.016 75.4653 115.016C76.4893 115.016 77.2253 114.328 77.2253 113.352C77.2253 112.376 76.4893 111.688 75.4653 111.688ZM75.4653 112.24C76.1213 112.24 76.5933 112.696 76.5933 113.352C76.5933 114 76.1213 114.464 75.4653 114.464C74.8093 114.464 74.3373 114 74.3373 113.352C74.3373 112.696 74.8093 112.24 75.4653 112.24ZM75.1213 109.48V110.792H75.7853V109.48H75.1213ZM83.5527 111.976V112.528H84.9367V111.976H83.5527ZM82.2007 110.072V111.448C82.2007 112.688 81.6087 113.984 80.6167 114.568L81.0327 115.072C82.0887 114.424 82.7207 112.96 82.7207 111.448V110.072H82.2007ZM82.3287 110.072V111.424C82.3287 112.832 82.9127 114.272 83.9527 114.912L84.3367 114.392C83.3847 113.816 82.8407 112.584 82.8407 111.424V110.072H82.3287ZM86.2087 109.392V116.624H86.8487V109.392H86.2087ZM84.7447 109.544V116.264H85.3687V109.544H84.7447ZM89.6641 113.112V115.28H90.3201V113.112H89.6641ZM92.3361 113.112V115.28H93.0001V113.112H92.3361ZM88.0641 115.152V115.704H94.6161V115.152H88.0641ZM91.3281 109.848C89.7921 109.848 88.6961 110.576 88.6961 111.712C88.6961 112.84 89.7921 113.568 91.3281 113.568C92.8561 113.568 93.9521 112.84 93.9521 111.712C93.9521 110.576 92.8561 109.848 91.3281 109.848ZM91.3281 110.376C92.4881 110.376 93.3121 110.904 93.3121 111.712C93.3121 112.512 92.4881 113.04 91.3281 113.04C90.1681 113.04 89.3361 112.512 89.3361 111.712C89.3361 110.904 90.1681 110.376 91.3281 110.376Z" fill="#C0C0C2"/>
<path d="M27.94 64.7V71.32H28.99V64.7H27.94ZM23.02 72.8V73.65H29.25V72.8H23.02ZM23.02 70.65V73.12H24.07V70.65H23.02ZM24.06 65.31C22.68 65.31 21.63 66.25 21.63 67.59C21.63 68.91 22.68 69.87 24.06 69.87C25.44 69.87 26.48 68.91 26.48 67.59C26.48 66.25 25.44 65.31 24.06 65.31ZM24.06 66.21C24.86 66.21 25.46 66.75 25.46 67.59C25.46 68.41 24.86 68.95 24.06 68.95C23.26 68.95 22.65 68.41 22.65 67.59C22.65 66.75 23.26 66.21 24.06 66.21ZM30.6492 68.98V69.82H38.9092V68.98H30.6492ZM34.7692 70.48C32.8092 70.48 31.6192 71.09 31.6192 72.15C31.6192 73.21 32.8092 73.82 34.7692 73.82C36.7292 73.82 37.9192 73.21 37.9192 72.15C37.9192 71.09 36.7292 70.48 34.7692 70.48ZM34.7692 71.3C36.1092 71.3 36.8592 71.59 36.8592 72.15C36.8592 72.71 36.1092 73 34.7692 73C33.4292 73 32.6792 72.71 32.6792 72.15C32.6792 71.59 33.4292 71.3 34.7692 71.3ZM34.0792 65.57V65.82C34.0792 66.71 32.8592 67.52 31.0692 67.7L31.4292 68.52C33.5292 68.3 35.0092 67.24 35.0092 65.82V65.57H34.0792ZM34.5592 65.57V65.82C34.5592 67.24 36.0392 68.3 38.1292 68.52L38.4992 67.7C36.6992 67.52 35.4792 66.71 35.4792 65.82V65.57H34.5592ZM31.4092 65.14V65.98H38.1692V65.14H31.4092ZM46.2945 70.36C44.4145 70.36 43.2445 71 43.2445 72.09C43.2445 73.19 44.4145 73.83 46.2945 73.83C48.1645 73.83 49.3345 73.19 49.3345 72.09C49.3345 71 48.1645 70.36 46.2945 70.36ZM46.2945 71.19C47.5645 71.19 48.2945 71.5 48.2945 72.09C48.2945 72.69 47.5645 73.01 46.2945 73.01C45.0245 73.01 44.2845 72.69 44.2845 72.09C44.2845 71.5 45.0245 71.19 46.2945 71.19ZM48.1845 64.69V70.13H49.2345V64.69H48.1845ZM48.9445 66.91V67.78H50.5245V66.91H48.9445ZM42.4245 65.27V69.52H46.7245V65.27H45.6945V66.53H43.4645V65.27H42.4245ZM43.4645 67.35H45.6945V68.69H43.4645V67.35ZM53.5738 65.12V66C53.5738 67.27 52.7738 68.5 51.3238 69L51.8438 69.83C53.4938 69.25 54.4438 67.73 54.4438 66V65.12H53.5738ZM53.7738 65.12V66C53.7738 67.69 54.7038 69.11 56.3338 69.67L56.8538 68.84C55.4338 68.38 54.6338 67.23 54.6338 66V65.12H53.7738ZM52.6738 70.6V71.45H57.7838V73.83H58.8338V70.6H52.6738ZM57.7838 64.69V70.17H58.8338V64.69H57.7838ZM67.4191 66.75V67.61H69.6391V66.75H67.4191ZM64.9491 65.25V66.31C64.9491 67.66 64.1491 68.94 62.7291 69.45L63.2791 70.27C64.8891 69.65 65.7891 68.12 65.7891 66.31V65.25H64.9491ZM65.1591 65.25V66.33C65.1591 68.01 66.0391 69.47 67.5791 70.05L68.1391 69.24C66.7691 68.75 65.9991 67.56 65.9991 66.33V65.25H65.1591ZM69.2691 64.7V71.49H70.3191V64.7H69.2691ZM64.3691 72.8V73.65H70.5291V72.8H64.3691ZM64.3691 70.77V73.24H65.4191V70.77H64.3691ZM72.2983 68.97V69.83H72.8983C74.3183 69.83 75.1983 69.79 76.2483 69.6L76.1483 68.75C75.1383 68.94 74.2883 68.97 72.8983 68.97H72.2983ZM72.2983 65.33V69.44H73.3083V66.18H75.8583V65.33H72.2983ZM72.9983 67.14V67.94H75.7583V67.14H72.9983ZM78.6883 64.69V70.25H79.6783V64.69H78.6883ZM77.3783 67.01V67.86H78.9783V67.01H77.3783ZM76.6983 64.86V70.19H77.6783V64.86H76.6983ZM73.4883 70.69V71.54H78.6383V73.83H79.6783V70.69H73.4883ZM85.3036 74.99L86.0136 74.68C85.1636 73.24 84.7636 71.55 84.7636 69.88C84.7636 68.21 85.1636 66.52 86.0136 65.08L85.3036 64.76C84.3636 66.28 83.8136 67.9 83.8136 69.88C83.8136 71.86 84.3636 73.48 85.3036 74.99ZM87.308 68.97V69.83H87.908C89.328 69.83 90.208 69.79 91.258 69.6L91.158 68.75C90.148 68.94 89.298 68.97 87.908 68.97H87.308ZM87.308 65.33V69.44H88.318V66.18H90.868V65.33H87.308ZM88.008 67.14V67.94H90.768V67.14H88.008ZM93.698 64.69V70.25H94.688V64.69H93.698ZM92.388 67.01V67.86H93.988V67.01H92.388ZM91.708 64.86V70.19H92.688V64.86H91.708ZM88.498 70.69V71.54H93.648V73.83H94.688V70.69H88.498ZM96.5473 73H100.757V72.05H99.3173V65.64H98.4473C98.0173 65.9 97.5373 66.08 96.8373 66.2V66.93H98.1673V72.05H96.5473V73ZM101.87 70.61H104.51V69.75H101.87V70.61ZM111.925 64.69V69.4H112.985V64.69H111.925ZM106.925 69.81V70.63H111.945V71.36H106.945V73.38H107.975V72.13H112.985V69.81H106.925ZM106.945 72.92V73.75H113.275V72.92H106.945ZM105.835 65.28V66.1H110.745V65.28H105.835ZM105.695 69.16C107.285 69.15 109.385 69.1 111.195 68.81L111.135 68.06C109.365 68.28 107.205 68.31 105.585 68.31L105.695 69.16ZM106.655 65.65V68.71H107.655V65.65H106.655ZM108.905 65.65V68.71H109.925V65.65H108.905ZM118.214 64.99V65.46C118.214 66.66 116.854 67.8 115.004 68.06L115.414 68.91C117.524 68.57 119.134 67.21 119.134 65.46V64.99H118.214ZM118.404 64.99V65.46C118.404 67.2 120.014 68.57 122.124 68.91L122.534 68.06C120.684 67.8 119.314 66.64 119.314 65.46V64.99H118.404ZM118.214 70.41V73.83H119.254V70.41H118.214ZM114.634 69.75V70.61H122.894V69.75H114.634ZM124.553 74.99C125.483 73.48 126.033 71.86 126.033 69.88C126.033 67.9 125.483 66.28 124.553 64.76L123.833 65.08C124.683 66.52 125.093 68.21 125.093 69.88C125.093 71.55 124.683 73.24 123.833 74.68L124.553 74.99Z" fill="#353535"/>
<path d="M38.763 89.444V90.785H39.519V89.444H38.763ZM42.327 84.566V92.702H43.074V84.566H42.327ZM36.594 91.154C38.097 91.154 40.059 91.136 41.868 90.83L41.814 90.281C40.059 90.506 38.034 90.524 36.495 90.533L36.594 91.154ZM36.666 85.556V86.159H41.607V85.556H36.666ZM39.132 86.627C37.971 86.627 37.179 87.221 37.179 88.13C37.179 89.048 37.971 89.633 39.132 89.633C40.302 89.633 41.094 89.048 41.094 88.13C41.094 87.221 40.302 86.627 39.132 86.627ZM39.132 87.203C39.87 87.203 40.383 87.572 40.383 88.13C40.383 88.688 39.87 89.057 39.132 89.057C38.403 89.057 37.89 88.688 37.89 88.13C37.89 87.572 38.403 87.203 39.132 87.203ZM38.763 84.566V85.889H39.51V84.566H38.763ZM46.7183 85.268V86.726C46.7183 88.211 45.7913 89.777 44.6123 90.371L45.0713 90.965C46.3583 90.281 47.3303 88.526 47.3303 86.726V85.268H46.7183ZM46.8533 85.268V86.726C46.8533 88.472 47.7983 90.137 49.0583 90.812L49.5173 90.218C48.3653 89.642 47.4563 88.157 47.4563 86.726V85.268H46.8533ZM50.2283 84.566V92.702H50.9843V84.566H50.2283ZM50.8043 87.86V88.49H52.3163V87.86H50.8043ZM60.9253 84.557V92.711H61.6723V84.557H60.9253ZM57.3793 85.187C56.1823 85.187 55.3183 86.294 55.3183 88.022C55.3183 89.759 56.1823 90.866 57.3793 90.866C58.5853 90.866 59.4493 89.759 59.4493 88.022C59.4493 86.294 58.5853 85.187 57.3793 85.187ZM57.3793 85.862C58.1803 85.862 58.7293 86.708 58.7293 88.022C58.7293 89.345 58.1803 90.209 57.3793 90.209C56.5873 90.209 56.0293 89.345 56.0293 88.022C56.0293 86.708 56.5873 85.862 57.3793 85.862ZM63.5886 85.502V90.524H66.6936V85.502H63.5886ZM65.9916 86.096V89.93H64.2906V86.096H65.9916ZM69.4926 84.566V92.702H70.2126V84.566H69.4926ZM66.3156 87.626V88.247H68.1876V87.626H66.3156ZM67.8816 84.737V92.297H68.5926V84.737H67.8816ZM73.8569 84.863C72.6509 84.863 71.7599 85.601 71.7599 86.672C71.7599 87.734 72.6509 88.472 73.8569 88.472C75.0719 88.472 75.9629 87.734 75.9629 86.672C75.9629 85.601 75.0719 84.863 73.8569 84.863ZM73.8569 85.475C74.6489 85.475 75.2339 85.97 75.2339 86.672C75.2339 87.374 74.6489 87.86 73.8569 87.86C73.0739 87.86 72.4799 87.374 72.4799 86.672C72.4799 85.97 73.0739 85.475 73.8569 85.475ZM77.4929 84.566V88.733H78.2489V84.566H77.4929ZM72.9839 89.129V89.732H77.5109V90.551H73.0019V92.333H73.7309V91.109H78.2489V89.129H72.9839ZM73.0019 92V92.594H78.5189V92H73.0019ZM79.8592 91.082V91.703H87.2302V91.082H79.8592ZM83.1532 89.336V91.343H83.9002V89.336H83.1532ZM80.7502 85.169V85.772H85.5832V87.032H80.7772V89.264H81.5152V87.635H86.3212V85.169H80.7502ZM80.7772 88.949V89.561H86.5102V88.949H80.7772ZM96.0642 84.575V90.515H96.8202V84.575H96.0642ZM91.5912 91.91V92.522H97.0632V91.91H91.5912ZM91.5912 89.903V92.117H92.3292V89.903H91.5912ZM92.4552 85.133C91.2402 85.133 90.3312 85.961 90.3312 87.14C90.3312 88.31 91.2402 89.147 92.4552 89.147C93.6702 89.147 94.5702 88.31 94.5702 87.14C94.5702 85.961 93.6702 85.133 92.4552 85.133ZM92.4552 85.781C93.2472 85.781 93.8502 86.339 93.8502 87.14C93.8502 87.932 93.2472 88.49 92.4552 88.49C91.6632 88.49 91.0602 87.932 91.0602 87.14C91.0602 86.339 91.6632 85.781 92.4552 85.781ZM98.4215 88.436V89.039H105.774V88.436H98.4215ZM102.093 89.741C100.356 89.741 99.3035 90.281 99.3035 91.217C99.3035 92.153 100.356 92.684 102.093 92.684C103.83 92.684 104.883 92.153 104.883 91.217C104.883 90.281 103.83 89.741 102.093 89.741ZM102.093 90.335C103.371 90.335 104.127 90.65 104.127 91.217C104.127 91.775 103.371 92.099 102.093 92.099C100.824 92.099 100.059 91.775 100.059 91.217C100.059 90.65 100.824 90.335 102.093 90.335ZM101.616 85.304V85.547C101.616 86.465 100.293 87.194 98.8355 87.356L99.1055 87.941C100.788 87.743 102.282 86.852 102.282 85.547V85.304H101.616ZM101.931 85.304V85.547C101.931 86.852 103.416 87.743 105.099 87.941L105.369 87.356C103.911 87.194 102.588 86.465 102.588 85.547V85.304H101.931ZM99.0965 84.98V85.583H105.117V84.98H99.0965ZM112.218 84.566V92.702H112.965V84.566H112.218ZM112.785 87.905V88.535H114.297V87.905H112.785ZM106.665 85.862V86.474H111.462V85.862H106.665ZM109.095 87.149C107.952 87.149 107.115 87.923 107.115 89.021C107.115 90.119 107.952 90.893 109.095 90.893C110.247 90.893 111.075 90.119 111.075 89.021C111.075 87.923 110.247 87.149 109.095 87.149ZM109.095 87.77C109.833 87.77 110.364 88.283 110.364 89.021C110.364 89.75 109.833 90.272 109.095 90.272C108.357 90.272 107.826 89.75 107.826 89.021C107.826 88.283 108.357 87.77 109.095 87.77ZM108.708 84.665V86.141H109.455V84.665H108.708ZM120.911 84.566V92.702H121.658V84.566H120.911ZM118.526 85.439V85.565C118.526 87.725 117.437 89.453 115.088 90.587L115.484 91.19C118.202 89.858 119.264 87.797 119.264 85.439H118.526ZM115.457 85.439V86.051H118.85V85.439H115.457ZM126.982 93.773L127.486 93.539C126.712 92.261 126.334 90.74 126.334 89.21C126.334 87.68 126.712 86.159 127.486 84.881L126.982 84.638C126.145 85.988 125.65 87.446 125.65 89.21C125.65 90.983 126.145 92.423 126.982 93.773ZM134.235 84.575V89.57H134.991V84.575H134.235ZM128.736 88.463V89.075H129.393C130.905 89.075 132.003 89.039 133.344 88.814L133.263 88.202C131.958 88.418 130.869 88.463 129.393 88.463H128.736ZM128.718 85.079V85.691H131.679V86.744H128.736V88.805H129.465V87.329H132.408V85.079H128.718ZM132.309 89.75C130.608 89.75 129.582 90.281 129.582 91.217C129.582 92.153 130.608 92.693 132.309 92.693C134.001 92.693 135.045 92.153 135.045 91.217C135.045 90.281 134.001 89.75 132.309 89.75ZM132.309 90.344C133.551 90.344 134.298 90.659 134.298 91.217C134.298 91.775 133.551 92.099 132.309 92.099C131.067 92.099 130.32 91.775 130.32 91.217C130.32 90.659 131.067 90.344 132.309 90.344ZM137.474 85.394V86.006H142.64V85.394H137.474ZM136.601 90.947V91.577H143.954V90.947H136.601ZM142.316 85.394V86.393C142.316 87.563 142.316 88.724 141.965 90.29L142.703 90.362C143.045 88.697 143.045 87.59 143.045 86.393V85.394H142.316ZM142.505 87.644L137.258 87.86L137.366 88.481L142.505 88.202V87.644ZM152.806 84.575V90.515H153.562V84.575H152.806ZM148.333 91.91V92.522H153.805V91.91H148.333ZM148.333 89.903V92.117H149.071V89.903H148.333ZM149.197 85.133C147.982 85.133 147.073 85.961 147.073 87.14C147.073 88.31 147.982 89.147 149.197 89.147C150.412 89.147 151.312 88.31 151.312 87.14C151.312 85.961 150.412 85.133 149.197 85.133ZM149.197 85.781C149.989 85.781 150.592 86.339 150.592 87.14C150.592 87.932 149.989 88.49 149.197 88.49C148.405 88.49 147.802 87.932 147.802 87.14C147.802 86.339 148.405 85.781 149.197 85.781ZM155.164 88.436V89.039H162.517V88.436H155.164ZM158.836 89.741C157.099 89.741 156.046 90.281 156.046 91.217C156.046 92.153 157.099 92.684 158.836 92.684C160.573 92.684 161.626 92.153 161.626 91.217C161.626 90.281 160.573 89.741 158.836 89.741ZM158.836 90.335C160.114 90.335 160.87 90.65 160.87 91.217C160.87 91.775 160.114 92.099 158.836 92.099C157.567 92.099 156.802 91.775 156.802 91.217C156.802 90.65 157.567 90.335 158.836 90.335ZM158.359 85.304V85.547C158.359 86.465 157.036 87.194 155.578 87.356L155.848 87.941C157.531 87.743 159.025 86.852 159.025 85.547V85.304H158.359ZM158.674 85.304V85.547C158.674 86.852 160.159 87.743 161.842 87.941L162.112 87.356C160.654 87.194 159.331 86.465 159.331 85.547V85.304H158.674ZM155.839 84.98V85.583H161.86V84.98H155.839ZM163.893 93.773C164.721 92.423 165.216 90.983 165.216 89.21C165.216 87.446 164.721 85.988 163.893 84.638L163.38 84.881C164.154 86.159 164.532 87.68 164.532 89.21C164.532 90.74 164.154 92.261 163.38 93.539L163.893 93.773Z" fill="#353535"/>
<path d="M32.763 149.444V150.785H33.519V149.444H32.763ZM36.327 144.566V152.702H37.074V144.566H36.327ZM30.594 151.154C32.097 151.154 34.059 151.136 35.868 150.83L35.814 150.281C34.059 150.506 32.034 150.524 30.495 150.533L30.594 151.154ZM30.666 145.556V146.159H35.607V145.556H30.666ZM33.132 146.627C31.971 146.627 31.179 147.221 31.179 148.13C31.179 149.048 31.971 149.633 33.132 149.633C34.302 149.633 35.094 149.048 35.094 148.13C35.094 147.221 34.302 146.627 33.132 146.627ZM33.132 147.203C33.87 147.203 34.383 147.572 34.383 148.13C34.383 148.688 33.87 149.057 33.132 149.057C32.403 149.057 31.89 148.688 31.89 148.13C31.89 147.572 32.403 147.203 33.132 147.203ZM32.763 144.566V145.889H33.51V144.566H32.763ZM40.7183 145.268V146.726C40.7183 148.211 39.7913 149.777 38.6123 150.371L39.0713 150.965C40.3583 150.281 41.3303 148.526 41.3303 146.726V145.268H40.7183ZM40.8533 145.268V146.726C40.8533 148.472 41.7983 150.137 43.0583 150.812L43.5173 150.218C42.3653 149.642 41.4563 148.157 41.4563 146.726V145.268H40.8533ZM44.2283 144.566V152.702H44.9843V144.566H44.2283ZM44.8043 147.86V148.49H46.3163V147.86H44.8043ZM52.9003 145.88V146.492H55.2493V145.88H52.9003ZM52.9003 147.5V148.103H55.2673V147.5H52.9003ZM54.9613 144.566V149.381H55.7083V144.566H54.9613ZM49.3903 145.178V148.796H53.1073V145.178H49.3903ZM52.3693 145.781V148.202H50.1193V145.781H52.3693ZM53.0353 149.615C51.3523 149.615 50.3173 150.182 50.3173 151.154C50.3173 152.126 51.3523 152.684 53.0353 152.684C54.7093 152.684 55.7443 152.126 55.7443 151.154C55.7443 150.182 54.7093 149.615 53.0353 149.615ZM53.0353 150.209C54.2593 150.209 55.0063 150.56 55.0063 151.154C55.0063 151.748 54.2593 152.099 53.0353 152.099C51.8113 152.099 51.0643 151.748 51.0643 151.154C51.0643 150.56 51.8113 150.209 53.0353 150.209ZM62.8626 144.566V149.462H63.6096V144.566H62.8626ZM63.4026 146.726V147.347H64.8156V146.726H63.4026ZM58.4976 149.921V152.594H63.6096V149.921H58.4976ZM62.8806 150.524V151.991H59.2266V150.524H62.8806ZM57.3186 145.421V146.033H62.1246V145.421H57.3186ZM59.7216 146.429C58.5516 146.429 57.7686 147.005 57.7686 147.887C57.7686 148.769 58.5516 149.327 59.7216 149.327C60.8826 149.327 61.6656 148.769 61.6656 147.887C61.6656 147.005 60.8826 146.429 59.7216 146.429ZM59.7216 147.005C60.4506 147.005 60.9546 147.347 60.9546 147.887C60.9546 148.418 60.4506 148.76 59.7216 148.76C58.9746 148.76 58.4796 148.418 58.4796 147.887C58.4796 147.347 58.9746 147.005 59.7216 147.005ZM59.3436 144.494V145.736H60.0906V144.494H59.3436ZM69.2519 145.079C67.5599 145.079 66.2909 145.979 66.2909 147.329C66.2909 148.688 67.5599 149.579 69.2519 149.579C70.9439 149.579 72.2039 148.688 72.2039 147.329C72.2039 145.979 70.9439 145.079 69.2519 145.079ZM69.2519 145.691C70.5389 145.691 71.4929 146.348 71.4929 147.329C71.4929 148.301 70.5389 148.967 69.2519 148.967C67.9649 148.967 67.0109 148.301 67.0109 147.329C67.0109 146.348 67.9649 145.691 69.2519 145.691ZM65.5799 151.001V151.631H72.9509V151.001H65.5799ZM73.8592 151.082V151.703H81.2302V151.082H73.8592ZM77.1532 149.336V151.343H77.9002V149.336H77.1532ZM74.7502 145.169V145.772H79.5832V147.032H74.7772V149.264H75.5152V147.635H80.3212V145.169H74.7502ZM74.7772 148.949V149.561H80.5102V148.949H74.7772ZM90.0642 144.575V150.515H90.8202V144.575H90.0642ZM85.5912 151.91V152.522H91.0632V151.91H85.5912ZM85.5912 149.903V152.117H86.3292V149.903H85.5912ZM86.4552 145.133C85.2402 145.133 84.3312 145.961 84.3312 147.14C84.3312 148.31 85.2402 149.147 86.4552 149.147C87.6702 149.147 88.5702 148.31 88.5702 147.14C88.5702 145.961 87.6702 145.133 86.4552 145.133ZM86.4552 145.781C87.2472 145.781 87.8502 146.339 87.8502 147.14C87.8502 147.932 87.2472 148.49 86.4552 148.49C85.6632 148.49 85.0602 147.932 85.0602 147.14C85.0602 146.339 85.6632 145.781 86.4552 145.781ZM92.4215 148.436V149.039H99.7745V148.436H92.4215ZM96.0935 149.741C94.3565 149.741 93.3035 150.281 93.3035 151.217C93.3035 152.153 94.3565 152.684 96.0935 152.684C97.8305 152.684 98.8835 152.153 98.8835 151.217C98.8835 150.281 97.8305 149.741 96.0935 149.741ZM96.0935 150.335C97.3715 150.335 98.1275 150.65 98.1275 151.217C98.1275 151.775 97.3715 152.099 96.0935 152.099C94.8245 152.099 94.0595 151.775 94.0595 151.217C94.0595 150.65 94.8245 150.335 96.0935 150.335ZM95.6165 145.304V145.547C95.6165 146.465 94.2935 147.194 92.8355 147.356L93.1055 147.941C94.7885 147.743 96.2825 146.852 96.2825 145.547V145.304H95.6165ZM95.9315 145.304V145.547C95.9315 146.852 97.4165 147.743 99.0995 147.941L99.3695 147.356C97.9115 147.194 96.5885 146.465 96.5885 145.547V145.304H95.9315ZM93.0965 144.98V145.583H99.1175V144.98H93.0965ZM106.218 144.566V152.702H106.965V144.566H106.218ZM106.785 147.905V148.535H108.297V147.905H106.785ZM100.665 145.862V146.474H105.462V145.862H100.665ZM103.095 147.149C101.952 147.149 101.115 147.923 101.115 149.021C101.115 150.119 101.952 150.893 103.095 150.893C104.247 150.893 105.075 150.119 105.075 149.021C105.075 147.923 104.247 147.149 103.095 147.149ZM103.095 147.77C103.833 147.77 104.364 148.283 104.364 149.021C104.364 149.75 103.833 150.272 103.095 150.272C102.357 150.272 101.826 149.75 101.826 149.021C101.826 148.283 102.357 147.77 103.095 147.77ZM102.708 144.665V146.141H103.455V144.665H102.708ZM114.911 144.566V152.702H115.658V144.566H114.911ZM112.526 145.439V145.565C112.526 147.725 111.437 149.453 109.088 150.587L109.484 151.19C112.202 149.858 113.264 147.797 113.264 145.439H112.526ZM109.457 145.439V146.051H112.85V145.439H109.457Z" fill="#353535"/>
<path d="M174.091 110.23V110.91H176.371V110.23H174.091ZM175.901 107.75V114.37H176.731V107.75H175.901ZM170.961 115.9V116.58H176.981V115.9H170.961ZM170.961 113.79V116.25H171.791V113.79H170.961ZM171.601 108.87V109.6C171.601 110.88 170.671 112.08 169.321 112.56L169.751 113.22C171.261 112.66 172.281 111.24 172.281 109.6V108.87H171.601ZM171.761 108.87V109.59C171.761 111.12 172.731 112.48 174.201 113.01L174.621 112.36C173.311 111.9 172.431 110.76 172.431 109.59V108.87H171.761ZM169.581 108.48V109.15H174.411V108.48H169.581ZM182.16 110.9V112.59H182.98V110.9H182.16ZM182.15 107.88V108.28C182.15 109.49 180.6 110.49 178.98 110.71L179.3 111.37C181.14 111.07 182.87 109.91 182.87 108.28V107.88H182.15ZM182.28 107.88V108.28C182.28 109.91 184.02 111.06 185.85 111.37L186.16 110.71C184.55 110.49 182.99 109.49 182.99 108.28V107.88H182.28ZM178.49 112.23V112.89H186.66V112.23H178.49ZM182.57 113.64C180.63 113.64 179.47 114.2 179.47 115.2C179.47 116.21 180.63 116.76 182.57 116.76C184.51 116.76 185.67 116.21 185.67 115.2C185.67 114.2 184.51 113.64 182.57 113.64ZM182.57 114.28C184 114.28 184.83 114.61 184.83 115.2C184.83 115.79 184 116.12 182.57 116.12C181.15 116.12 180.31 115.79 180.31 115.2C180.31 114.61 181.15 114.28 182.57 114.28Z" fill="#C0C0C2"/>
<path d="M106.09 438.072V439.879H107.455V438.072H106.09ZM106.753 433.717C105.037 433.717 103.802 434.679 103.802 436.096C103.802 437.5 105.037 438.462 106.753 438.462C108.469 438.462 109.691 437.5 109.691 436.096C109.691 434.679 108.469 433.717 106.753 433.717ZM106.753 434.744C107.741 434.744 108.417 435.264 108.417 436.096C108.417 436.915 107.741 437.435 106.753 437.435C105.765 437.435 105.076 436.915 105.076 436.096C105.076 435.264 105.765 434.744 106.753 434.744ZM111.121 433.21V442.284H112.486V433.21H111.121ZM111.966 437.097V438.215H114.111V437.097H111.966ZM104.79 443.727V444.832H112.902V443.727H104.79ZM104.79 441.504V444.208H106.155V441.504H104.79ZM103.321 440.62C105.323 440.62 108.079 440.581 110.523 440.126L110.432 439.138C108.053 439.502 105.206 439.515 103.152 439.515L103.321 440.62ZM118.023 440.139V443.012H119.362V440.139H118.023ZM121.806 440.126V442.999H123.132V440.126H121.806ZM115.15 442.57V443.688H125.914V442.57H115.15ZM116.411 434.029V435.121H123.275V436.694H116.437V439.996H117.789V437.773H124.627V434.029H116.411ZM116.437 439.411V440.516H124.9V439.411H116.437Z" fill="white"/>
<defs>
<filter id="filter0_d_290_166" x="257" y="0" width="228.926" height="476" filterUnits="userSpaceOnUse" color-interpolation-filters="sRGB">
<feFlood flood-opacity="0" result="BackgroundImageFix"/>
<feColorMatrix in="SourceAlpha" type="matrix" values="0 0 0 0 0 0 0 0 0 0 0 0 0 0 0 0 0 0 127 0" result="hardAlpha"/>
<feOffset dy="4"/>
<feGaussianBlur stdDeviation="2"/>
<feComposite in2="hardAlpha" operator="out"/>
<feColorMatrix type="matrix" values="0 0 0 0 0 0 0 0 0 0 0 0 0 0 0 0 0 0 0.25 0"/>
<feBlend mode="normal" in2="BackgroundImageFix" result="effect1_dropShadow_290_166"/>
<feBlend mode="normal" in="SourceGraphic" in2="effect1_dropShadow_290_166" result="shape"/>
</filter>
<filter id="filter1_d_290_166" x="0" y="0" width="228.926" height="476" filterUnits="userSpaceOnUse" color-interpolation-filters="sRGB">
<feFlood flood-opacity="0" result="BackgroundImageFix"/>
<feColorMatrix in="SourceAlpha" type="matrix" values="0 0 0 0 0 0 0 0 0 0 0 0 0 0 0 0 0 0 127 0" result="hardAlpha"/>
<feOffset dy="4"/>
<feGaussianBlur stdDeviation="2"/>
<feComposite in2="hardAlpha" operator="out"/>
<feColorMatrix type="matrix" values="0 0 0 0 0 0 0 0 0 0 0 0 0 0 0 0 0 0 0.25 0"/>
<feBlend mode="normal" in2="BackgroundImageFix" result="effect1_dropShadow_290_166"/>
<feBlend mode="normal" in="SourceGraphic" in2="effect1_dropShadow_290_166" result="shape"/>
</filter>
</defs>
</svg>
