<svg width="136" height="45" viewBox="0 0 136 45" fill="none" xmlns="http://www.w3.org/2000/svg">
<path d="M129.996 0.439728H6.22736C2.91146 0.439728 0.223389 3.10989 0.223389 6.40369V38.5963C0.223389 41.8901 2.91146 44.5602 6.22736 44.5602H129.996C133.312 44.5602 136 41.8901 136 38.5963V6.40369C136 3.10989 133.312 0.439728 129.996 0.439728Z" fill="#E3EF27"/>
<path d="M10.4053 8.9322V23.8742V38.807L25.5766 23.8742L10.4053 8.9322Z" fill="url(#paint0_linear_290_69)"/>
<path d="M29.6531 19.8616L23.5292 16.3528L10.4053 8.82227V8.9322L25.5766 23.8742L29.6531 19.8616Z" fill="url(#paint1_linear_290_69)"/>
<path d="M10.4053 38.807V38.9169L23.5292 31.3956L29.6531 27.8868L25.5766 23.8742L10.4053 38.807Z" fill="url(#paint2_linear_290_69)"/>
<path d="M29.6531 19.8616L25.5767 23.8742L29.6531 27.8868L36.6439 23.8742L29.6531 19.8616Z" fill="url(#paint3_linear_290_69)"/>
<path d="M105.934 29.7099C105.398 29.7184 104.866 29.6121 104.375 29.3984C103.907 29.1978 103.498 28.8826 103.186 28.4823H103.093C103.154 28.9593 103.185 29.4397 103.186 29.9206V33.5027H101.867V20.8693H102.946L103.13 22.0511H103.167C103.467 21.6119 103.877 21.2582 104.357 21.0251C104.847 20.8068 105.379 20.6973 105.915 20.7044C106.425 20.6759 106.934 20.7682 107.401 20.9737C107.868 21.1792 108.278 21.492 108.599 21.8862C109.223 22.8832 109.553 24.0335 109.553 25.2072C109.553 26.3809 109.223 27.5311 108.599 28.5281C108.278 28.9176 107.87 29.2272 107.407 29.4323C106.945 29.6375 106.44 29.7326 105.934 29.7099ZM105.74 21.8221C105.382 21.7889 105.02 21.8386 104.684 21.9674C104.348 22.0961 104.047 22.3004 103.803 22.5642C103.348 23.2594 103.132 24.082 103.186 24.9094V25.2026C103.109 26.1188 103.325 27.0356 103.803 27.8227C104.047 28.0982 104.353 28.3131 104.696 28.4499C105.039 28.5867 105.409 28.6418 105.777 28.6106C106.127 28.6224 106.474 28.5443 106.784 28.3838C107.094 28.2233 107.357 27.9858 107.548 27.6944C108.02 26.9446 108.246 26.0673 108.193 25.1843C108.251 24.3065 108.025 23.4334 107.548 22.6924C107.339 22.4023 107.06 22.1699 106.735 22.0176C106.411 21.8652 106.052 21.798 105.694 21.8221H105.74Z" fill="#4C4438"/>
<path d="M112.583 29.5542H111.265V17.214H112.583V29.5542Z" fill="#4C4438"/>
<path d="M120.202 29.5542L119.943 28.3174H119.879C119.536 28.7842 119.088 29.1641 118.569 29.4259C118.054 29.6324 117.501 29.7292 116.946 29.7099C116.207 29.7516 115.48 29.5162 114.908 29.0503C114.656 28.8049 114.459 28.5087 114.332 28.1815C114.205 27.8544 114.149 27.504 114.17 27.1539C114.17 25.395 115.584 24.4788 118.412 24.4056L119.897 24.3506V23.8192C119.943 23.2783 119.786 22.7395 119.455 22.3076C119.265 22.1322 119.041 21.9984 118.796 21.9147C118.552 21.8311 118.292 21.7995 118.034 21.8221C117.171 21.8558 116.327 22.0812 115.563 22.4817L115.157 21.474C116.07 20.995 117.085 20.7405 118.117 20.7319C118.948 20.6658 119.774 20.9109 120.432 21.419C120.706 21.7162 120.915 22.0668 121.045 22.4485C121.175 22.8301 121.224 23.2346 121.188 23.636V29.5633L120.202 29.5542ZM117.213 28.638C117.926 28.6696 118.623 28.4268 119.159 27.9601C119.402 27.7112 119.589 27.4148 119.71 27.0899C119.831 26.7649 119.882 26.4186 119.86 26.0729V25.2942L118.532 25.3491C117.744 25.3218 116.962 25.4886 116.254 25.8347C116.027 25.9756 115.842 26.1753 115.72 26.4126C115.598 26.6499 115.544 26.9157 115.563 27.1814C115.548 27.3824 115.58 27.584 115.655 27.7712C115.73 27.9584 115.846 28.1263 115.996 28.2624C116.345 28.5241 116.777 28.654 117.213 28.6289V28.638Z" fill="#4C4438"/>
<path d="M121.954 20.8693H123.374L125.292 25.8164C125.606 26.6172 125.868 27.4373 126.076 28.2716H126.141C126.205 27.9967 126.353 27.5387 126.574 26.8882C126.796 26.2378 127.497 24.2223 128.742 20.8693H130.162L126.399 30.7543C126.15 31.5484 125.703 32.2669 125.099 32.843C124.576 33.2576 123.923 33.4751 123.254 33.4569C122.851 33.4569 122.448 33.4108 122.055 33.3194V32.2658C122.38 32.3315 122.711 32.3623 123.042 32.3575C123.49 32.3545 123.925 32.2034 124.277 31.9281C124.63 31.6527 124.88 31.2688 124.988 30.8367L125.477 29.5999L121.954 20.8693Z" fill="#4C4438"/>
<path d="M81.3463 21.6755C81.7676 21.9591 82.1084 22.3454 82.3361 22.7975C82.5638 23.2495 82.6708 23.7521 82.6467 24.2571C82.6227 24.762 82.4684 25.2523 82.1987 25.681C81.929 26.1097 81.5529 26.4622 81.1065 26.705C80.9632 26.8149 80.8442 26.953 80.7569 27.1107C80.6696 27.2683 80.616 27.442 80.5993 27.6211C80.6109 27.7797 80.6594 27.9334 80.741 28.0701C80.8226 28.2068 80.9351 28.3229 81.0696 28.409L81.7336 28.9129C82.178 29.1818 82.5497 29.5542 82.8165 29.998C83.0833 30.4418 83.2371 30.9435 83.2646 31.4597C83.2646 33.1637 81.6045 34.8951 78.4596 34.8951C75.8035 34.8951 74.5215 33.6401 74.5215 32.2934C74.5407 31.8335 74.6812 31.3866 74.9288 30.9976C75.1764 30.6085 75.5225 30.2909 75.9325 30.0764C77.0181 29.5364 78.214 29.2512 79.428 29.2427C79.0988 28.9106 78.9021 28.4711 78.8746 28.0059C78.8807 27.7598 78.9438 27.5184 79.059 27.3005C78.8561 27.3005 78.6625 27.3005 78.478 27.3005C78.0873 27.319 77.6969 27.2589 77.3302 27.124C76.9634 26.989 76.6279 26.7818 76.3437 26.5149C76.0595 26.248 75.8325 25.9268 75.6762 25.5707C75.52 25.2145 75.4378 24.8307 75.4345 24.4422C75.445 23.9768 75.5549 23.5189 75.7568 23.0988C75.9587 22.6787 76.2481 22.306 76.6058 22.0053C77.5476 21.2985 78.7104 20.9448 79.8891 21.0067H83.652L82.4807 21.6663L81.3463 21.6755ZM80.0459 29.7374C79.9077 29.7271 79.769 29.7271 79.6308 29.7374C78.9781 29.75 78.33 29.8485 77.7033 30.0305C77.2812 30.1333 76.9024 30.3657 76.6209 30.6946C76.3394 31.0236 76.1695 31.4324 76.1355 31.8628C76.1355 33.1453 77.399 34.0798 79.3542 34.0798C81.1065 34.0798 82.0472 33.237 82.0472 32.1101C82.0472 31.2123 81.4385 30.7268 80.0459 29.7374ZM80.5808 26.2928C80.9028 25.927 81.0653 25.4492 81.0327 24.9644C81.0327 23.6543 80.2488 21.6205 78.7363 21.6205C78.4918 21.6211 78.2505 21.6747 78.029 21.7775C77.8076 21.8804 77.6114 22.03 77.4543 22.216C77.1665 22.6049 77.0231 23.0807 77.0485 23.5627C77.0485 24.7811 77.7586 26.7966 79.3357 26.7966C79.7987 26.785 80.2415 26.6059 80.5808 26.2928Z" fill="#4C4438"/>
<path d="M69.8271 29.4534C69.2487 29.4718 68.6726 29.3746 68.1328 29.1674C67.5931 28.9602 67.1008 28.6473 66.6853 28.2473C66.2697 27.8473 65.9393 27.3684 65.7138 26.839C65.4883 26.3097 65.3723 25.7407 65.3726 25.1659C65.3843 24.5656 65.5168 23.9737 65.7624 23.4251C66.0081 22.8765 66.3617 22.3823 66.8027 21.9716C67.2436 21.561 67.7629 21.2421 68.3299 21.0339C68.8968 20.8257 69.5 20.7324 70.1038 20.7594C70.6754 20.7471 71.2437 20.849 71.7749 21.0589C72.3061 21.2689 72.7894 21.5827 73.1963 21.9817C73.6031 22.3807 73.9252 22.8568 74.1433 23.3817C74.3614 23.9067 74.4712 24.4698 74.4661 25.0377C74.4641 25.6334 74.3413 26.2226 74.105 26.77C73.8687 27.3175 73.5237 27.8121 73.0907 28.2242C72.6577 28.6364 72.1456 28.9576 71.5849 29.1688C71.0242 29.38 70.4263 29.4768 69.8271 29.4534ZM72.1144 27.9784C72.5143 27.3845 72.7056 26.676 72.6585 25.963C72.6585 24.3689 71.893 21.3183 69.6334 21.3183C69.026 21.3236 68.4404 21.5445 67.9825 21.9412C67.6851 22.2252 67.4554 22.5717 67.3102 22.9553C67.1649 23.3389 67.1079 23.7499 67.1433 24.1582C67.1433 25.9447 68.0656 28.9037 70.2514 28.9037C70.6129 28.9041 70.9696 28.8206 71.293 28.66C71.6164 28.4994 71.8977 28.266 72.1144 27.9784Z" fill="#4C4438"/>
<path d="M59.9312 29.4534C59.3525 29.4731 58.7758 29.3767 58.2355 29.17C57.6951 28.9633 57.2023 28.6504 56.7865 28.2502C56.3706 27.85 56.0403 27.3705 55.8153 26.8406C55.5902 26.3107 55.475 25.7411 55.4766 25.1659C55.4883 24.5656 55.6209 23.9737 55.8665 23.4251C56.1121 22.8765 56.4658 22.3823 56.9068 21.9716C57.3477 21.561 57.8669 21.2421 58.4339 21.0339C59.0008 20.8257 59.604 20.7324 60.2078 20.7594C60.7794 20.7471 61.3477 20.849 61.8789 21.0589C62.4101 21.2689 62.8935 21.5827 63.3003 21.9817C63.7072 22.3807 64.0292 22.8568 64.2473 23.3817C64.4655 23.9067 64.5753 24.4698 64.5702 25.0377C64.5682 25.6334 64.4454 26.2226 64.209 26.77C63.9727 27.3175 63.6278 27.8121 63.1948 28.2242C62.7618 28.6364 62.2497 28.9576 61.689 29.1688C61.1282 29.38 60.5304 29.4768 59.9312 29.4534ZM62.2184 27.9784C62.6146 27.3828 62.8055 26.6756 62.7625 25.963C62.7625 24.3689 61.9971 21.3183 59.7283 21.3183C59.1237 21.3241 58.5412 21.5452 58.0866 21.9412C57.7892 22.2252 57.5594 22.5717 57.4142 22.9553C57.269 23.3389 57.212 23.7499 57.2474 24.1582C57.2474 25.9447 58.1696 28.9037 60.3554 28.9037C60.717 28.9041 61.0737 28.8206 61.3971 28.66C61.7205 28.4994 62.0017 28.266 62.2184 27.9784Z" fill="#4C4438"/>
<path d="M54.0748 29.1693L51.4555 29.7649C50.4538 29.9473 49.4393 30.0515 48.4212 30.0764C43.358 30.0764 41.4304 26.4118 41.4304 23.4711C41.4304 19.9348 44.1972 16.6551 48.8086 16.6551C49.7439 16.6613 50.6743 16.7907 51.5754 17.0399C52.4469 17.2559 53.2677 17.6387 53.9917 18.1667L52.47 19.605L51.8244 19.7516L52.2856 19.0279C51.7911 18.4805 51.1851 18.0438 50.5077 17.7468C49.8303 17.4499 49.0971 17.2995 48.3567 17.3056C45.4608 17.3056 43.275 19.4951 43.275 22.6924C43.2414 23.5551 43.3836 24.4157 43.693 25.2225C44.0024 26.0293 44.4726 26.7658 45.0755 27.3877C45.6783 28.0096 46.4014 28.5043 47.2014 28.8419C48.0013 29.1795 48.8617 29.3532 49.7309 29.3526C50.5332 29.3733 51.3302 29.2168 52.0642 28.8945V25.9538L49.2974 26.1004L50.7638 25.3125H54.6558L54.1762 25.7706C54.1267 25.8041 54.0848 25.8475 54.053 25.8979C54.0213 25.9484 54.0004 26.0049 53.9917 26.0637C53.9917 26.2286 53.9917 26.76 53.9917 26.9799L54.0748 29.1693Z" fill="#4C4438"/>
<path d="M87.1566 28.638C86.5479 28.5831 86.4188 28.4731 86.4188 27.7219V17.443C86.4188 17.3972 86.4188 17.3605 86.4188 17.3239C86.4926 16.6826 86.677 16.5727 87.2488 16.2429H84.6296L83.2554 16.9025H84.6572V28.1708C84.6572 28.5281 84.5835 28.5831 84.1592 29.0869H87.4148L88.0881 28.6838L87.1566 28.638Z" fill="#4C4438"/>
<path d="M94.6268 28.8121C94.4239 28.922 94.2211 29.0411 94.0274 29.1327C93.4692 29.3739 92.8652 29.4926 92.2566 29.4809C91.3917 29.5196 90.5384 29.2714 89.831 28.7754C89.2416 28.3266 88.7672 27.7459 88.4467 27.0804C88.1261 26.4149 87.9684 25.6836 87.9865 24.946C87.9766 24.397 88.0777 23.8517 88.2838 23.3422C88.4899 22.8327 88.7968 22.3695 89.1864 21.9799C89.576 21.5904 90.0403 21.2825 90.5518 21.0744C91.0633 20.8663 91.6117 20.7623 92.1644 20.7685C92.8141 20.7652 93.4523 20.9395 94.0089 21.2724C94.6524 21.7001 95.1075 22.3553 95.2817 23.1046L90.9931 24.8269L89.5913 24.9369C90.0432 27.2363 91.611 28.6014 93.3449 28.6014C94.1295 28.5742 94.8957 28.3572 95.5768 27.9692L94.6268 28.8121ZM92.9114 23.407C93.2527 23.2879 93.4371 23.178 93.4371 22.9214C93.3704 22.4845 93.147 22.0862 92.808 21.8C92.4691 21.5139 92.0374 21.359 91.5926 21.364C91.2843 21.3815 90.983 21.462 90.7075 21.6006C90.432 21.7392 90.1884 21.9329 89.9918 22.1694C89.7952 22.406 89.65 22.6803 89.5652 22.9752C89.4804 23.2702 89.4579 23.5794 89.499 23.8834C89.499 24.1857 89.499 24.5155 89.5544 24.8453L92.9114 23.407Z" fill="#4C4438"/>
<path d="M96.3884 20.8876V22.0877H96.2408V20.8876H95.8442V20.7685H96.7665V20.8876H96.3884Z" fill="#4C4438"/>
<path d="M98.03 22.0877V20.8785L97.6612 22.0877H97.5413L97.1723 20.8785V22.0877H97.0432V20.7685H97.2645L97.6058 21.8313L97.9378 20.7685H98.1684V22.0877H98.03Z" fill="#4C4438"/>
<path d="M45.0642 13.1006H44.1419C44.09 12.739 44.0035 12.3832 43.8837 12.0379H42.5648C42.442 12.3829 42.3525 12.7387 42.2974 13.1006H41.4397C41.4397 13.0273 41.661 12.4165 42.1037 11.2683C42.3655 10.6728 42.5873 10.0607 42.7678 9.43607H43.8468C44.0131 10.0582 44.2164 10.67 44.4555 11.2683C44.6926 11.8673 44.8958 12.479 45.0642 13.1006ZM43.7454 11.4973C43.4226 10.5263 43.2565 10.0041 43.2565 9.92164C43.2565 9.99493 43.0906 10.5171 42.7585 11.4973H43.7454Z" fill="#4C4438"/>
<path d="M48.7532 13.1006H48.043C47.8258 12.6652 47.5631 12.2537 47.2591 11.873C46.8803 11.3857 46.57 10.8494 46.3369 10.2789C46.382 10.6498 46.4067 11.023 46.4106 11.3966C46.4106 11.8638 46.4106 12.4318 46.4106 13.1006H45.7097C45.7097 12.5142 45.7558 11.873 45.7558 11.1767C45.7558 10.4805 45.7558 9.89411 45.7097 9.41772H46.5582C46.7395 9.84291 46.9751 10.2432 47.2591 10.6087C47.6069 11.0754 47.895 11.5831 48.1168 12.1203H48.1629C48.1207 11.7431 48.0992 11.3639 48.0984 10.9843C48.0984 10.4804 48.0984 9.94908 48.0984 9.41772H48.7532C48.7532 9.88495 48.7532 10.4713 48.7532 11.1767C48.7532 11.8821 48.7532 12.5234 48.7532 13.1006Z" fill="#4C4438"/>
<path d="M52.8849 11.1309C52.8916 11.6452 52.7078 12.1441 52.3685 12.5326C52.1858 12.7343 51.9604 12.8931 51.7084 12.9977C51.4564 13.1022 51.1841 13.1499 50.9113 13.1372C50.6254 13.1372 50.2381 13.1372 49.7493 13.1372C49.7493 12.5692 49.7493 11.928 49.7493 11.2134C49.7493 10.4988 49.7493 9.93082 49.7493 9.45444H50.9297C51.2004 9.42957 51.4734 9.46157 51.7308 9.54838C51.9882 9.63519 52.2243 9.77486 52.4238 9.9583C52.7121 10.2828 52.8755 10.6982 52.8849 11.1309ZM52.101 11.25C52.1118 10.917 52.0003 10.5914 51.7874 10.3339C51.6625 10.2034 51.5101 10.1021 51.3411 10.0371C51.1721 9.97219 50.9906 9.94527 50.8098 9.9583H50.4778C50.4778 10.3431 50.4778 10.737 50.4778 11.1492C50.4778 11.5615 50.4778 12.0654 50.4778 12.4868C50.6004 12.5003 50.7242 12.5003 50.8468 12.4868C51.0196 12.5025 51.1936 12.4765 51.3542 12.4111C51.5147 12.3457 51.657 12.2428 51.769 12.1112C51.9719 11.8681 52.0885 11.5655 52.101 11.25Z" fill="#4C4438"/>
<path d="M56.6939 13.1006H55.8547C55.7356 12.6684 55.5621 12.2529 55.3382 11.8638C55.271 11.7817 55.1846 11.717 55.0866 11.6755C54.9885 11.6339 54.8818 11.6169 54.7756 11.6256H54.4528C54.4528 12.1112 54.4528 12.5967 54.4528 13.0914H53.6597C53.6597 12.5234 53.6597 11.8821 53.6597 11.1676C53.6597 10.453 53.6597 9.88501 53.6597 9.40863H55.0154C55.8915 9.40863 56.325 9.70179 56.325 10.3248C56.3285 10.5475 56.2568 10.765 56.1214 10.9426C55.986 11.1202 55.7948 11.2478 55.578 11.305C55.7968 11.3828 55.978 11.5399 56.0852 11.7447C56.3165 12.1836 56.5198 12.6364 56.6939 13.1006ZM55.6241 10.4988C55.6241 10.1232 55.3843 9.93077 54.8955 9.93077C54.7389 9.91985 54.5818 9.91985 54.4252 9.93077C54.4252 10.2239 54.4252 10.6087 54.4252 11.0759H54.6926C55.3198 11.1217 55.6241 10.9294 55.6241 10.4988Z" fill="#4C4438"/>
<path d="M60.7427 11.1859C60.7626 11.7194 60.5705 12.2393 60.2078 12.6333C60.0395 12.816 59.8341 12.9611 59.6051 13.059C59.3762 13.1569 59.1289 13.2054 58.8797 13.2013C58.6454 13.2072 58.4125 13.1637 58.1963 13.0737C57.9801 12.9837 57.7855 12.8492 57.6254 12.6791C57.455 12.5013 57.3223 12.2913 57.2351 12.0615C57.148 11.8318 57.1082 11.587 57.1182 11.3416C57.0978 10.8107 57.2902 10.2935 57.6531 9.90331C57.8191 9.71713 58.0238 9.56907 58.2531 9.4694C58.4825 9.36973 58.7309 9.32084 58.9812 9.32614C59.2155 9.32029 59.4485 9.3638 59.6646 9.4538C59.8808 9.5438 60.0754 9.67827 60.2355 9.84834C60.4059 10.0262 60.5387 10.2362 60.6258 10.4659C60.7129 10.6957 60.7527 10.9406 60.7427 11.1859ZM59.9588 11.2683C59.9673 10.9371 59.8597 10.6133 59.6545 10.3522C59.5677 10.2342 59.4538 10.1386 59.3222 10.0732C59.1907 10.0079 59.0453 9.97478 58.8982 9.97661C58.7596 9.97902 58.6237 10.0144 58.5017 10.0797C58.3798 10.1451 58.2754 10.2385 58.1972 10.3522C57.9953 10.6145 57.891 10.9382 57.9021 11.2683C57.8973 11.599 58.0045 11.9216 58.2065 12.1844C58.2942 12.3007 58.4086 12.3946 58.5401 12.4583C58.6716 12.522 58.8165 12.5538 58.9627 12.5509C59.1006 12.5503 59.2363 12.5166 59.3584 12.4528C59.4804 12.3891 59.5851 12.297 59.6637 12.1844C59.8724 11.9235 59.9891 11.6016 59.9957 11.2683H59.9588Z" fill="#4C4438"/>
<path d="M62.3937 13.1006H61.5913C61.5913 12.5142 61.5913 11.873 61.5913 11.1767C61.5913 10.4805 61.5913 9.89411 61.5913 9.41772H62.3937C62.3937 9.88495 62.3937 10.4713 62.3937 11.1767C62.3937 11.8821 62.366 12.5234 62.3937 13.1006Z" fill="#4C4438"/>
<path d="M66.5254 11.1309C66.532 11.6452 66.3482 12.1441 66.0089 12.5326C65.8262 12.7343 65.6007 12.8931 65.3487 12.9977C65.0967 13.1022 64.8245 13.1499 64.5517 13.1372C64.275 13.1372 63.8877 13.1372 63.3896 13.1372C63.3896 12.5692 63.3896 11.928 63.3896 11.2134C63.3896 10.4988 63.3896 9.93082 63.3896 9.45444H64.5702C64.8409 9.42957 65.1138 9.46157 65.3712 9.54838C65.6286 9.63519 65.8648 9.77486 66.0643 9.9583C66.3526 10.2828 66.5159 10.6982 66.5254 11.1309ZM65.7507 11.25C65.7588 10.9158 65.6441 10.5901 65.4279 10.3339C65.3038 10.2024 65.1515 10.1003 64.9822 10.0353C64.813 9.97027 64.6312 9.94396 64.4503 9.9583H64.1182C64.1182 10.3431 64.1182 10.737 64.1182 11.1492C64.1182 11.5615 64.1182 12.0654 64.1182 12.4868C64.2408 12.4999 64.3645 12.4999 64.4872 12.4868C64.6598 12.501 64.8334 12.4743 64.9937 12.409C65.154 12.3437 65.2964 12.2416 65.4094 12.1112C65.6127 11.8676 65.7322 11.5659 65.7507 11.25Z" fill="#4C4438"/>
<path d="M72.0129 13.1006H71.0907C71.0338 12.74 70.9474 12.3846 70.8325 12.0379H69.5136C69.386 12.3815 69.2963 12.7378 69.2461 13.1006H68.3884C68.3884 13.0273 68.6098 12.4165 69.0525 11.2683C69.3143 10.6728 69.5361 10.0607 69.7165 9.43607H70.7956C70.961 10.0574 71.1611 10.6691 71.395 11.2683C71.6373 11.8664 71.8436 12.4782 72.0129 13.1006ZM70.6941 11.4973C70.3713 10.5263 70.2053 10.0041 70.2053 9.92164C70.064 10.4553 69.8947 10.9812 69.6981 11.4973H70.6941Z" fill="#4C4438"/>
<path d="M75.3332 10.3797C75.3473 10.5761 75.3076 10.7727 75.2183 10.9485C75.129 11.1243 74.9934 11.2728 74.8259 11.3782C74.4553 11.605 74.025 11.7166 73.5901 11.6989H73.3964C73.3964 12.047 73.3964 12.5234 73.3964 13.1005H72.594C72.594 12.56 72.594 11.9096 72.594 11.1767C72.594 10.4438 72.594 9.90326 72.594 9.41771H74.0143C74.3385 9.40694 74.6588 9.48968 74.9366 9.65591C75.0608 9.7314 75.1628 9.83804 75.2324 9.96507C75.302 10.0921 75.3368 10.2351 75.3332 10.3797ZM74.6046 10.5354C74.6046 10.1323 74.3279 9.93074 73.793 9.93074C73.6488 9.91789 73.5037 9.91789 73.3595 9.93074C73.3595 10.288 73.3595 10.6911 73.3595 11.1492H73.5255C74.2541 11.1858 74.5769 10.9752 74.5769 10.5354H74.6046Z" fill="#4C4438"/>
<path d="M78.7548 10.3797C78.7689 10.5762 78.7292 10.7727 78.6399 10.9486C78.5506 11.1244 78.415 11.2729 78.2475 11.3783C77.8769 11.605 77.4466 11.7167 77.0117 11.6989H76.818C76.818 12.0471 76.818 12.5234 76.818 13.1006H76.0156C76.0156 12.5601 76.0156 11.9096 76.0156 11.1767C76.0156 10.4438 76.0156 9.9033 76.0156 9.41775H77.4359C77.76 9.4075 78.0802 9.4902 78.3582 9.65595C78.4824 9.73144 78.5844 9.83808 78.654 9.96511C78.7236 10.0921 78.7584 10.2351 78.7548 10.3797ZM78.0169 10.5355C78.0169 10.1324 77.7495 9.93078 77.2146 9.93078C77.0704 9.91793 76.9253 9.91793 76.7811 9.93078C76.7811 10.2881 76.7811 10.6912 76.7811 11.1492H76.9471C77.6757 11.1859 78.0169 10.9752 78.0169 10.5355Z" fill="#4C4438"/>
<path d="M84.3436 11.1859C84.3635 11.7194 84.1713 12.2393 83.8087 12.6333C83.6425 12.8162 83.4388 12.9615 83.2113 13.0595C82.9838 13.1575 82.7378 13.2058 82.4898 13.2013C82.2542 13.2068 82.02 13.1631 81.8024 13.0732C81.5848 12.9832 81.3886 12.849 81.2263 12.6791C81.0559 12.5013 80.9231 12.2913 80.836 12.0615C80.7488 11.8318 80.7091 11.587 80.719 11.3416C80.6986 10.8107 80.891 10.2935 81.254 9.90331C81.4207 9.71809 81.6256 9.57067 81.8548 9.47108C82.0839 9.37149 82.3319 9.32206 82.582 9.32614C82.8164 9.32029 83.0493 9.3638 83.2655 9.4538C83.4817 9.5438 83.6762 9.67827 83.8363 9.84834C84.0068 10.0262 84.1396 10.2362 84.2267 10.4659C84.3138 10.6957 84.3536 10.9406 84.3436 11.1859ZM83.5597 11.2683C83.5682 10.9371 83.4606 10.6133 83.2553 10.3522C83.1685 10.2342 83.0546 10.1386 82.9231 10.0732C82.7915 10.0079 82.6461 9.97478 82.4991 9.97661C82.3605 9.97902 82.2246 10.0144 82.1026 10.0797C81.9807 10.1451 81.8762 10.2385 81.7981 10.3522C81.6029 10.6304 81.4983 10.9613 81.4983 11.3004C81.4983 11.6395 81.6029 11.9704 81.7981 12.2486C81.8859 12.3649 82.0002 12.4587 82.1317 12.5225C82.2632 12.5862 82.4081 12.6179 82.5544 12.6151C82.6937 12.6151 82.831 12.5818 82.9546 12.518C83.0782 12.4543 83.1845 12.3618 83.2645 12.2486C83.4739 11.9655 83.5782 11.6191 83.5597 11.2683Z" fill="#4C4438"/>
<path d="M88.2172 13.1006H87.4886C87.2714 12.6652 87.0087 12.2537 86.7047 11.873C86.3259 11.3857 86.0156 10.8494 85.7825 10.2789C85.8276 10.6498 85.8522 11.023 85.8562 11.3966C85.8562 11.8638 85.8562 12.4318 85.8562 13.1006H85.1553C85.1553 12.5142 85.1553 11.873 85.1553 11.1767C85.1553 10.4805 85.1553 9.89411 85.1553 9.41772H86.0038C86.1851 9.84291 86.4207 10.2432 86.7047 10.6087C87.0525 11.0754 87.3406 11.5831 87.5624 12.1203C87.5202 11.7431 87.4987 11.3639 87.4979 10.9843C87.4979 10.4804 87.4979 9.94908 87.4979 9.41772H88.2172C88.2172 9.88495 88.2172 10.4713 88.2172 11.1767C88.2172 11.8821 88.1896 12.5234 88.2172 13.1006Z" fill="#4C4438"/>
<defs>
<linearGradient id="paint0_linear_290_69" x1="17.9956" y1="8.9322" x2="17.9956" y2="38.807" gradientUnits="userSpaceOnUse">
<stop stop-color="#257DB0"/>
<stop offset="0.21" stop-color="#3C90B3"/>
<stop offset="0.74" stop-color="#73BDB9"/>
<stop offset="1" stop-color="#89CEBC"/>
</linearGradient>
<linearGradient id="paint1_linear_290_69" x1="10.4053" y1="16.3528" x2="29.6531" y2="16.3528" gradientUnits="userSpaceOnUse">
<stop stop-color="#51BFAC"/>
<stop offset="1" stop-color="#DEE899"/>
</linearGradient>
<linearGradient id="paint2_linear_290_69" x1="20.0246" y1="23.8742" x2="20.0246" y2="38.9169" gradientUnits="userSpaceOnUse">
<stop stop-color="#EB403D"/>
<stop offset="0.19" stop-color="#D64252"/>
<stop offset="0.74" stop-color="#9F4887"/>
<stop offset="1" stop-color="#894A9C"/>
</linearGradient>
<linearGradient id="paint3_linear_290_69" x1="31.1103" y1="19.8616" x2="31.1103" y2="27.8868" gradientUnits="userSpaceOnUse">
<stop stop-color="#F48779"/>
<stop offset="0.61" stop-color="#FAB076"/>
<stop offset="1" stop-color="#FDC674"/>
</linearGradient>
</defs>
</svg>
