<svg width="83" height="34" viewBox="0 0 83 34" fill="none" xmlns="http://www.w3.org/2000/svg">
<g clip-path="url(#clip0_50_228)">
<path d="M59.1738 -5.42445e-05C55.887 -0.0227981 52.6292 0.616025 49.5939 1.87846C46.5585 3.1409 43.8076 5.0012 41.5046 7.34883C39.1982 5.00302 36.4454 3.144 33.409 1.88174C30.3725 0.619476 27.114 -0.0204031 23.8262 -5.42445e-05C10.6653 -5.42445e-05 0 9.91091 0 22.2198V33.9999H83V22.2198C83 9.91091 72.3347 -5.42445e-05 59.1738 -5.42445e-05Z" fill="#E2EE27"/>
<path d="M34.0269 20.1228V28.4929H30.6843V20.1228C30.739 19.0678 30.3738 18.0341 29.6688 17.248C28.9638 16.462 27.9764 15.9876 26.9228 15.9287C24.8462 15.9287 23.1612 18.1808 23.1612 20.9525V28.4929H19.8095V20.1228C19.8642 19.0678 19.499 18.0341 18.794 17.248C18.089 16.462 17.1016 15.9876 16.048 15.9287C13.9714 15.9287 12.2864 18.1808 12.2864 20.9525V28.4929H8.94385V13.4213H12.2591C12.2333 13.6416 12.1845 13.8586 12.1134 14.0687L11.2026 16.7037L11.6307 16.8404L12.1134 15.3816C12.2847 14.8585 12.5834 14.3862 12.9825 14.0074C13.3816 13.6286 13.8685 13.3551 14.3995 13.2116C14.9255 13.0724 15.4674 13.0019 16.0116 13.0019C17.0794 13.0013 18.1336 13.2421 19.0956 13.7063C20.0576 14.1704 20.9025 14.8459 21.5673 15.6825C22.1929 14.8612 22.9968 14.1931 23.9183 13.7287C24.8398 13.2643 25.8548 13.0157 26.8863 13.0019C27.8228 12.9983 28.7507 13.1798 29.6169 13.5361C30.483 13.8923 31.2704 14.4163 31.9338 15.0779C32.5973 15.7395 33.1237 16.5257 33.4828 17.3914C33.842 18.2572 34.0269 19.1854 34.0269 20.1228Z" fill="#4C4338"/>
<path d="M54.2465 20.9525C54.2465 25.3473 50.2208 28.9123 45.257 28.9123C40.2933 28.9123 36.2676 25.3473 36.2676 20.9525C36.2676 16.5578 40.2933 13.0019 45.257 13.0019C50.2208 13.0019 54.2465 16.5669 54.2465 20.9525ZM50.8948 20.9525C50.8948 18.2172 48.3719 15.9287 45.257 15.9287C42.1422 15.9287 39.6102 18.1807 39.6102 20.9525C39.6102 23.7243 42.133 25.9764 45.257 25.9764C48.381 25.9764 50.8948 23.7334 50.8948 20.9525Z" fill="#4C4338"/>
<path d="M74.0106 13.4213V28.4929H70.668V20.9525C70.668 18.2172 68.136 15.9287 65.0211 15.9287C61.9063 15.9287 59.438 18.1808 59.438 20.9525C59.438 23.7243 61.123 25.9764 63.2087 25.9764C64.2608 25.9106 65.2441 25.4307 65.9438 24.6414C66.6435 23.8521 67.0027 22.8176 66.9429 21.764H70.2855C70.2855 23.651 69.5373 25.4609 68.2053 26.7961C66.8733 28.1312 65.0663 28.8826 63.1814 28.885C59.2559 28.885 56.0681 25.3199 56.0681 20.9252C56.0681 16.5304 60.0938 12.9745 65.0576 12.9745C66.4198 12.9703 67.7684 13.2465 69.0195 13.786C69.7866 14.1227 70.4005 14.734 70.7409 15.5001L71.3329 16.8313L71.7428 16.649L70.9868 14.9622C70.8026 14.5329 70.7066 14.0709 70.7045 13.6037V13.3939L74.0106 13.4213Z" fill="#4C4338"/>
</g>
<defs>
<clipPath id="clip0_50_228">
<rect width="83" height="34" fill="white"/>
</clipPath>
</defs>
</svg>
