<svg width="471" height="476" viewBox="0 0 471 476" fill="none" xmlns="http://www.w3.org/2000/svg">
<path d="M468.628 159.147C478.089 150.028 483.103 115.256 483.103 80.7673C483.103 40.6564 476.386 0.0258303 463.566 0.0258303C454.436 0.0258303 448.38 20.7663 445.684 47.2707C440.291 19.2072 428.228 0.0258303 413.894 0.0258303C398.377 0.0258303 385.51 22.4198 380.779 54.2629C373.967 22.7505 355.328 0.0258303 333.473 0.0258303C310.718 0.0258303 291.464 24.5931 285.362 58.0897C277.367 24.5931 252.247 0.0258303 222.491 0.0258303C191.979 0.0258303 166.339 25.916 159.101 60.7827C155.569 46.9299 148.416 34.2627 138.373 24.0771C128.33 13.8914 115.759 6.55275 101.944 2.81196C88.1292 -0.928825 73.5675 -0.937417 59.7484 2.78688C45.9293 6.51117 33.3489 13.8347 23.294 24.0084C13.2391 34.1821 6.07078 46.8407 2.52232 60.6892C-1.02615 74.5378 -0.827322 89.0792 3.09834 102.826C7.02401 116.572 14.5357 129.031 24.8649 138.927C35.1941 148.823 47.97 155.8 61.8858 159.147C44.2854 163.405 28.6294 173.449 17.4327 187.664C6.23596 201.879 0.148614 219.44 0.148614 237.526C0.148614 255.612 6.23596 273.173 17.4327 287.388C28.6294 301.603 44.2854 311.646 61.8858 315.905C47.9796 319.268 35.2169 326.258 24.9024 336.161C14.5879 346.064 7.09147 358.525 3.17948 372.27C-0.732511 386.015 -0.91967 400.551 2.63694 414.392C6.19356 428.233 13.3664 440.882 23.4223 451.047C33.4783 461.212 46.0568 468.528 59.8717 472.246C73.6866 475.965 88.2425 475.954 102.052 472.213C115.861 468.473 128.427 461.137 138.467 450.957C148.507 440.776 155.661 428.115 159.195 414.269C166.433 449.325 192.073 474.884 222.586 474.884C252.342 474.884 277.462 450.317 285.457 416.82C291.559 450.317 310.813 474.884 333.567 474.884C355.376 474.884 373.967 452.868 381.158 422.159C385.888 453.199 398.614 474.884 413.894 474.884C428.086 474.884 440.102 455.986 445.826 429.151C448.617 454.9 454.578 474.884 463.566 474.884C476.386 474.884 483.103 434.253 483.103 394.142C483.103 359.701 478.373 324.929 468.911 315.622C478.373 306.173 483.103 271.731 483.103 237.384C483.103 203.037 478.136 168.123 468.628 159.147ZM159.195 100.752C165.156 129.524 183.653 152.06 207.07 159.099C183.7 166.139 165.156 188.58 159.195 217.447C155.553 203.306 148.138 190.416 137.742 180.15C127.346 169.883 114.356 162.625 100.157 159.147C114.381 155.639 127.385 148.342 137.783 138.033C148.18 127.724 155.581 114.79 159.195 100.61V100.752ZM445.684 204.076C441.379 181.635 432.816 165.005 422.314 159.147C432.864 153.288 441.237 136.658 445.684 114.358C447.86 135.571 452.165 153.005 458.551 159.147C452.07 165.194 447.86 183.147 445.684 203.935V204.076ZM405.426 159.147C393.883 165.619 384.706 185.084 380.921 211.116C375.386 185.415 361.999 165.761 345.536 159.147C362.046 152.627 375.386 132.926 380.921 107.177C384.706 132.973 393.836 152.485 405.426 159.147ZM321.646 159.147C304.237 165.95 290.424 187.493 285.457 214.895C278.928 187.257 260.857 165.95 238.15 159.147C260.81 152.296 278.881 130.8 285.457 103.492C290.471 130.8 304.285 152.107 321.646 159.147ZM159.195 257.652C165.061 285.999 182.849 308.157 205.792 315.622C183.227 323.275 165.156 345.858 159.243 374.205C155.646 360.07 148.264 347.179 137.888 336.917C127.512 326.654 114.534 319.407 100.346 315.952C114.536 312.433 127.504 305.134 137.868 294.834C148.232 284.533 155.603 271.618 159.195 257.463V257.652ZM239.333 315.574C261.378 308.393 279.023 287.227 285.457 260.156C290.187 287.322 303.906 308.44 320.842 315.622C303.859 322.992 290.376 344.252 285.457 371.465C279.023 344.016 261.472 322.708 239.333 315.385V315.574ZM346.577 315.574C362.519 308.676 375.481 289.306 380.921 264.172C384.706 289.968 393.789 309.385 405.237 316.141C393.978 322.614 385.084 341.417 381.205 366.362C375.481 341.134 362.566 322.047 346.577 315.291V315.574ZM422.504 315.952C432.864 309.952 441.426 293.369 445.684 271.117C447.813 291.716 452.07 309.621 458.409 315.952C452.259 322 448.049 338.771 445.826 359.276C441.332 337.638 432.817 321.527 422.504 315.669V315.952Z" fill="#FAFFAF" fill-opacity="0.5"/>
</svg>
