<svg width="266" height="104" viewBox="0 0 266 104" fill="none" xmlns="http://www.w3.org/2000/svg">
<g filter="url(#filter0_d_290_165)">
<rect x="4" width="258" height="96" rx="10" fill="white"/>
</g>
<path d="M21.819 37.675V38.412H23.799V42.185H24.712V34.958H23.799V37.675H21.819ZM22.402 39.996C20.972 39.49 20.004 38.258 20.004 36.971V36.487H22.171V35.75H16.902V36.487H19.102V36.982C19.102 38.379 18.079 39.688 16.616 40.216L17.089 40.92C18.244 40.502 19.146 39.589 19.575 38.467C20.004 39.479 20.851 40.304 21.951 40.7L22.402 39.996ZM19.311 43.857V41.547H18.398V44.594H24.987V43.857H19.311Z" fill="#353535"/>
<path d="M33.5881 38.148H28.7261V36.135H33.5881V38.148ZM34.4791 35.409H27.8461V38.874H34.4791V35.409ZM28.7261 41.778H27.8241V44.594H34.6441V43.857H28.7261V41.778ZM26.6801 39.996V40.722H30.7831V42.713H31.6851V40.722H35.6451V39.996H26.6801Z" fill="#353535"/>
<path d="M37.3493 36.003V36.751H40.9683C40.7593 39.083 39.4063 40.975 36.8873 42.24L37.3823 42.944C40.5723 41.349 41.8593 38.808 41.8593 36.003H37.3493ZM45.9953 38.951H44.4113V34.947H43.5093V44.814H44.4113V39.699H45.9953V38.951Z" fill="#353535"/>
<path d="M47.4684 36.003V36.751H51.0874C50.8784 39.083 49.5254 40.975 47.0064 42.24L47.5014 42.944C50.6914 41.349 51.9784 38.808 51.9784 36.003H47.4684ZM56.1144 38.951H54.5304V34.947H53.6284V44.814H54.5304V39.699H56.1144V38.951Z" fill="#353535"/>
<path d="M62.1485 41.789C61.1915 41.789 60.5205 40.755 60.5205 39.149C60.5205 37.554 61.1915 36.52 62.1485 36.52C63.0945 36.52 63.7655 37.554 63.7655 39.149C63.7655 40.755 63.0945 41.789 62.1485 41.789ZM62.1485 35.706C60.6965 35.706 59.6625 37.048 59.6625 39.149C59.6625 41.25 60.6965 42.592 62.1485 42.592C63.6005 42.592 64.6235 41.25 64.6235 39.149C64.6235 37.048 63.6005 35.706 62.1485 35.706ZM68.7375 38.885H67.1095V34.958H66.2075V44.814H67.1095V39.644H68.7375V38.885Z" fill="#353535"/>
<path d="M71.1567 35.904H70.2547V42.262H71.0687C72.6417 42.262 74.1927 42.152 75.9087 41.8L75.8097 41.03C74.1707 41.36 72.6417 41.492 71.1567 41.492V35.904ZM76.8217 34.947V44.803H77.7237V34.947H76.8217Z" fill="#353535"/>
<path d="M84.7408 40.271C84.8068 39.93 84.8508 39.556 84.8508 39.149C84.8508 38.698 84.7958 38.28 84.7078 37.895H86.9848V40.271H84.7408ZM82.3978 41.789C81.4518 41.789 80.7918 40.755 80.7918 39.149C80.7918 37.554 81.4518 36.52 82.3978 36.52C83.3328 36.52 84.0038 37.554 84.0038 39.149C84.0038 40.755 83.3328 41.789 82.3978 41.789ZM86.9848 34.947V37.158H84.4548C84.0368 36.234 83.3108 35.706 82.3978 35.706C80.9568 35.706 79.9338 37.048 79.9338 39.149C79.9338 41.25 80.9568 42.592 82.3978 42.592C83.3438 42.592 84.1138 42.009 84.5208 41.008H86.9848V44.836H87.8868V34.947H86.9848Z" fill="#353535"/>
<path d="M94.794 42.823V40.293H97.797V39.567H91.912V36.476H97.698V35.739H91.01V40.293H93.881V42.823H89.866V43.571H98.831V42.823H94.794Z" fill="#353535"/>
<path d="M105.085 41.789C104.128 41.789 103.457 40.755 103.457 39.149C103.457 37.554 104.128 36.52 105.085 36.52C106.031 36.52 106.702 37.554 106.702 39.149C106.702 40.755 106.031 41.789 105.085 41.789ZM105.085 35.706C103.633 35.706 102.599 37.048 102.599 39.149C102.599 41.25 103.633 42.592 105.085 42.592C106.537 42.592 107.56 41.25 107.56 39.149C107.56 37.048 106.537 35.706 105.085 35.706ZM111.674 38.885H110.046V34.958H109.144V44.814H110.046V39.644H111.674V38.885Z" fill="#353535"/>
<path d="M120.495 40.271H114.632V38.709H120.176V37.994H114.632V36.531H120.396V35.805H113.719V40.997H120.495V40.271ZM112.564 42.801V43.538H121.518V42.801H112.564Z" fill="#353535"/>
<path d="M123.926 39.512H126.269V38.797H123.926V36.861H126.731V36.124H123.057V42.438H123.695C125.246 42.438 126.17 42.405 127.292 42.185L127.215 41.448C126.17 41.657 125.312 41.701 123.926 41.701V39.512ZM128.227 38.687H126.808V39.424H128.227V44.308H129.074V35.189H128.227V38.687ZM130.207 34.936V44.803H131.065V34.936H130.207Z" fill="#353535"/>
<path d="M133.627 38.951L133.759 39.699L139.71 39.369C139.655 40.128 139.545 40.942 139.325 41.888L140.216 41.976C140.645 39.952 140.645 38.621 140.645 37.158V35.948H133.88V36.685H139.765V37.158C139.765 37.664 139.765 38.17 139.743 38.687L133.627 38.951ZM132.824 42.702V43.439H141.745V42.702H132.824Z" fill="#353535"/>
<path d="M150.574 39.16C150.827 37.862 150.827 36.883 150.827 36.234V35.717H145.921V36.454H149.947C149.947 37.081 149.914 37.928 149.683 39.061L150.574 39.16ZM151.509 39.754C150.508 39.886 149.386 39.974 148.308 40.018V37.917H147.417V40.051C146.669 40.062 145.954 40.073 145.327 40.073L145.415 40.81C147.164 40.81 149.529 40.755 151.575 40.414L151.509 39.754ZM147.736 41.701H146.834V44.594H153.39V43.857H147.736V41.701ZM153.071 38.159V34.947H152.169V42.383H153.071V38.907H154.479V38.159H153.071Z" fill="#353535"/>
<path d="M161.485 39.413C160.022 38.929 158.988 37.697 158.988 36.3V35.343H158.086V36.3C158.086 37.752 157.074 39.072 155.578 39.611L156.04 40.315C157.206 39.886 158.119 38.973 158.548 37.829C158.999 38.896 159.901 39.732 161.034 40.128L161.485 39.413ZM158.108 41.844H162.728V43.956H158.108V41.844ZM157.228 44.682H163.608V41.129H157.228V44.682ZM162.706 34.958V40.568H163.608V34.958H162.706Z" fill="#353535"/>
<path d="M173.727 34.958H172.825V40.59H173.727V34.958ZM168.425 36.278C169.404 36.278 170.13 36.927 170.13 37.829C170.13 38.742 169.404 39.38 168.425 39.38C167.446 39.38 166.742 38.742 166.742 37.829C166.742 36.927 167.446 36.278 168.425 36.278ZM168.425 40.128C169.921 40.128 171.01 39.193 171.01 37.829C171.01 36.465 169.921 35.53 168.425 35.53C166.94 35.53 165.862 36.465 165.862 37.829C165.862 39.193 166.94 40.128 168.425 40.128ZM172.627 41.019H171.747V41.547C171.747 42.317 171.274 43.307 170.328 43.89C169.415 43.351 168.964 42.416 168.964 41.547V41.019H168.095V41.547C168.095 42.493 167.358 43.56 166.115 44L166.566 44.682C167.49 44.33 168.161 43.648 168.513 42.856C168.81 43.681 169.404 44.396 170.35 44.77C171.263 44.374 171.868 43.626 172.176 42.823C172.506 43.648 173.188 44.33 174.156 44.682L174.607 44C173.353 43.582 172.627 42.57 172.627 41.547V41.019Z" fill="#353535"/>
<path d="M183.659 37.917H177.851V35.31H176.949V38.654H183.659V37.917ZM177.785 41.69H176.883V44.572H183.714V43.835H177.785V41.69ZM175.739 39.974V40.7H184.682V39.974H175.739Z" fill="#353535"/>
<path d="M195.193 38.489H190.397V37.213H195.193V38.489ZM196.084 35.255H195.193V36.52H190.397V35.255H189.506V39.204H196.084V35.255ZM190.342 41.91H189.451V44.594H196.271V43.857H190.342V41.91ZM188.307 40.161V40.887H192.41V42.801H193.312V40.887H197.272V40.161H188.307Z" fill="#353535"/>
<path d="M16.935 52.014V52.762H18.761C18.651 54.742 18.024 56.546 16.583 58.042L17.298 58.57C19.058 56.689 19.63 54.368 19.63 52.014H16.935ZM19.949 52.014V52.762H21.522C21.434 54.83 20.961 56.997 19.476 58.746L20.224 59.241C21.995 57.107 22.369 54.368 22.369 52.014H19.949ZM23.766 50.947V60.814H24.679V50.947H23.766Z" fill="#353535"/>
<path d="M28.1761 55.38H31.8171V51.86H27.2411V52.597H30.9041V54.654H27.2741V58.438H28.0881C29.7821 58.438 31.2781 58.372 33.0601 58.075L32.9721 57.338C31.2451 57.613 29.7931 57.69 28.1761 57.69V55.38ZM33.8961 50.936V60.825H34.7981V50.936H33.8961Z" fill="#353535"/>
<path d="M41.2062 52.487H46.2553V55.688H41.2062V52.487ZM44.1982 58.801V56.403H47.1353V51.772H40.3372V56.403H43.2852V58.801H39.2812V59.549H48.2243V58.801H44.1982Z" fill="#353535"/>
<path d="M54.3834 56.271C54.4494 55.93 54.4934 55.556 54.4934 55.149C54.4934 54.698 54.4384 54.28 54.3504 53.895H56.6274V56.271H54.3834ZM52.0404 57.789C51.0944 57.789 50.4344 56.755 50.4344 55.149C50.4344 53.554 51.0944 52.52 52.0404 52.52C52.9754 52.52 53.6464 53.554 53.6464 55.149C53.6464 56.755 52.9754 57.789 52.0404 57.789ZM56.6274 50.947V53.158H54.0974C53.6794 52.234 52.9534 51.706 52.0404 51.706C50.5994 51.706 49.5764 53.048 49.5764 55.149C49.5764 57.25 50.5994 58.592 52.0404 58.592C52.9864 58.592 53.7564 58.009 54.1634 57.008H56.6274V60.836H57.5294V50.947H56.6274Z" fill="#353535"/>
<path d="M62.9735 51.794H62.0715V53.565C62.0715 55.391 60.9495 57.294 59.5195 58.009L60.0695 58.724C61.1805 58.13 62.0935 56.887 62.5225 55.424C62.9735 56.81 63.8755 57.987 64.9975 58.548L65.5255 57.833C64.0955 57.151 62.9735 55.358 62.9735 53.565V51.794ZM66.7465 50.947V54.291H64.4585V55.028H66.7465V60.825H67.6485V50.947H66.7465Z" fill="#353535"/>
<path d="M75.5086 55.369H73.3856V52.509H75.5086V55.369ZM76.3446 51.805H72.5386V56.073H76.3446V51.805ZM73.7926 58.108H79.5236V60.825H80.4256V57.382H73.7926V58.108ZM79.5566 50.958V53.488H78.3026V51.134H77.4446V56.766H78.3026V54.225H79.5566V56.821H80.4256V50.958H79.5566Z" fill="#353535"/>
<path d="M83.0978 55.743C84.6268 55.479 86.0788 54.654 86.6838 53.488C87.2778 54.654 88.7408 55.479 90.2698 55.743L90.6218 55.028C88.8838 54.775 87.1788 53.642 87.1788 52.344V52.289H90.2698V51.563H83.0648V52.289H86.1778V52.344C86.1778 53.642 84.4728 54.775 82.7568 55.028L83.0978 55.743ZM91.1388 56.568H82.2288V57.305H86.2108V60.814H87.1128V57.305H91.1498L91.1388 56.568Z" fill="#353535"/>
<path d="M98.1889 52.157H95.7249V50.947H94.8229V52.157H92.3699V52.883H98.1889V52.157ZM93.7779 55.259C93.7779 54.577 94.3829 54.137 95.2739 54.137C96.1649 54.137 96.7809 54.577 96.7809 55.259C96.7809 55.952 96.1649 56.392 95.2739 56.392C94.3829 56.392 93.7779 55.952 93.7779 55.259ZM97.6389 55.259C97.6389 54.159 96.6709 53.433 95.2739 53.433C93.8769 53.433 92.9199 54.159 92.9199 55.259C92.9199 56.37 93.8769 57.096 95.2739 57.096C96.6709 57.096 97.6389 56.37 97.6389 55.259ZM94.7569 57.767H93.8549V60.594H100.433V59.857H94.7569V57.767ZM99.9929 54.203V50.947H99.0909V58.35H99.9929V54.962H101.445V54.203H99.9929Z" fill="#353535"/>
<path d="M108.187 56.029C106.735 55.523 105.789 54.313 105.789 52.993V52.542H107.967V51.805H102.698V52.542H104.887V52.993C104.887 54.39 103.897 55.71 102.423 56.238L102.885 56.964C104.04 56.524 104.931 55.644 105.349 54.511C105.778 55.523 106.625 56.315 107.703 56.722L108.187 56.029ZM104.876 57.525H103.974V60.594H110.552V59.857H104.876V57.525ZM110.112 53.961V50.947H109.21V58.152H110.112V54.709H111.564V53.961H110.112Z" fill="#353535"/>
<path d="M117.675 57.789C116.729 57.789 116.069 56.755 116.069 55.149C116.069 53.554 116.729 52.52 117.675 52.52C118.61 52.52 119.27 53.554 119.27 55.149C119.27 56.755 118.61 57.789 117.675 57.789ZM122.262 50.947V54.709H120.117C119.974 52.861 119.006 51.706 117.675 51.706C116.234 51.706 115.211 53.048 115.211 55.149C115.211 57.25 116.234 58.592 117.675 58.592C119.05 58.592 120.029 57.382 120.117 55.446H122.262V60.836H123.164V50.947H122.262Z" fill="#353535"/>
<path d="M126.276 52.927H127.563V52.19H125.451V58.24H125.847C126.254 58.24 126.892 58.24 127.706 58.053L127.618 57.305C127.112 57.426 126.639 57.47 126.276 57.481V52.927ZM128.806 52.927H130.159V52.19H127.981V58.24H128.388C128.96 58.24 129.631 58.229 130.445 58.02L130.368 57.272C129.796 57.426 129.257 57.47 128.806 57.492V52.927ZM132.799 50.947V54.973H131.644V51.167H130.808V60.319H131.644V55.71H132.799V60.803H133.657V50.947H132.799Z" fill="#353535"/>
<path d="M138.364 56.48C138.771 56.579 139.244 56.634 139.728 56.634C140.223 56.634 140.696 56.579 141.114 56.48V58.801H138.364V56.48ZM139.728 52.278C141.312 52.278 142.456 53.004 142.456 54.104C142.456 55.204 141.312 55.93 139.728 55.93C138.144 55.93 137.011 55.204 137.011 54.104C137.011 53.004 138.144 52.278 139.728 52.278ZM142.016 58.801V56.128C142.83 55.699 143.314 54.995 143.314 54.104C143.314 52.564 141.829 51.574 139.728 51.574C137.638 51.574 136.142 52.564 136.142 54.104C136.142 54.995 136.637 55.71 137.462 56.139V58.801H135.262V59.549H144.227V58.801H142.016Z" fill="#353535"/>
<path d="M146.768 57.569H147.659C147.461 55.842 149.441 55.193 149.441 53.576C149.441 52.377 148.627 51.618 147.384 51.618C146.493 51.618 145.789 52.047 145.283 52.63L145.855 53.158C146.24 52.718 146.724 52.454 147.274 52.454C148.055 52.454 148.462 52.982 148.462 53.642C148.462 54.951 146.515 55.655 146.768 57.569ZM147.241 60.143C147.648 60.143 147.978 59.835 147.978 59.384C147.978 58.922 147.648 58.603 147.241 58.603C146.845 58.603 146.515 58.922 146.515 59.384C146.515 59.835 146.845 60.143 147.241 60.143Z" fill="#353535"/>
<path d="M19.744 16.951C17.911 16.951 16.585 18.615 16.585 21.241C16.585 23.893 17.911 25.557 19.744 25.557C21.577 25.557 22.903 23.893 22.903 21.241C22.903 18.615 21.577 16.951 19.744 16.951ZM19.744 18.524C20.641 18.524 21.252 19.473 21.252 21.241C21.252 23.035 20.641 23.997 19.744 23.997C18.847 23.997 18.249 23.035 18.249 21.241C18.249 19.473 18.847 18.524 19.744 18.524ZM24.216 16.119V28.157H25.958V16.119H24.216ZM25.568 20.656V22.086H27.7V20.656H25.568Z" fill="#353535"/>
<path d="M29.7659 22.32V23.672H38.2289V22.32H29.7659ZM28.4919 25.375V26.779H39.3859V25.375H28.4919ZM29.7659 16.99V22.697H31.5209V18.381H38.1249V16.99H29.7659ZM30.9879 19.642V20.981H37.8519V19.642H30.9879Z" fill="#353535"/>
<path d="M45.3389 20.5V21.891H47.4709V20.5H45.3389ZM40.7889 24.127V25.518H41.6079C43.3369 25.518 44.4939 25.492 45.8459 25.258L45.7029 23.88C44.3899 24.101 43.2979 24.127 41.6079 24.127H40.7889ZM40.7889 17.445V24.634H42.4269V18.81H45.2609V17.445H40.7889ZM41.9589 20.682V22.008H44.8059V20.682H41.9589ZM49.1349 16.119V28.157H50.7859V16.119H49.1349ZM46.6519 16.327V27.624H48.2639V16.327H46.6519Z" fill="#353535"/>
<path d="M53.6319 17.172V18.55H61.2109V17.172H53.6319ZM52.4099 25.323V26.74H63.2909V25.323H52.4099ZM60.4829 17.172V18.563C60.4829 20.266 60.4829 22.021 59.9239 24.452L61.6269 24.608C62.1859 21.982 62.1859 20.318 62.1859 18.563V17.172H60.4829ZM60.8469 20.474L53.2809 20.721L53.4889 22.112L60.8469 21.748V20.474Z" fill="#353535"/>
<path d="M67.8342 16.99V18.381H72.9822V16.99H67.8342ZM69.3162 19.798V22.814H71.0322V19.798H69.3162ZM72.3062 16.99V17.744C72.3062 18.576 72.3062 19.616 72.0462 21.098L73.7232 21.28C74.0092 19.785 74.0092 18.589 74.0092 17.744V16.99H72.3062ZM75.1792 16.119V25.128H76.9212V16.119H75.1792ZM76.2322 19.785V21.202H78.3512V19.785H76.2322ZM68.8872 26.571V27.949H77.2982V26.571H68.8872ZM68.8872 24.322V27H70.6162V24.322H68.8872ZM67.2882 23.516C69.3552 23.516 72.1502 23.464 74.6332 22.996L74.5292 21.774C72.1112 22.112 69.2122 22.151 67.1322 22.151L67.2882 23.516Z" fill="#353535"/>
<path d="M87.5282 16.132V22.918H89.2702V16.132H87.5282ZM81.2622 23.477V28.027H89.2702V23.477H81.2622ZM87.5672 24.829V26.662H82.9522V24.829H87.5672ZM82.0812 16.561V17.718C82.0812 19.2 81.2232 20.734 79.2082 21.358L80.0402 22.723C82.3932 21.982 83.5112 19.954 83.5112 17.718V16.561H82.0812ZM82.4322 16.561V17.718C82.4322 19.928 83.5112 21.813 85.8122 22.502L86.6442 21.163C84.6942 20.578 83.8492 19.174 83.8492 17.718V16.561H82.4322Z" fill="#353535"/>
<path d="M93.9232 23.425V23.828C93.9232 24.998 93.2602 26.194 91.6872 26.727L92.5322 27.988C94.4172 27.312 95.2232 25.648 95.2232 23.828V23.425H93.9232ZM94.3652 23.425V23.828C94.3652 25.596 95.0542 27.39 96.9652 28.105L97.6542 26.831C96.1852 26.22 95.6002 24.998 95.6002 23.828V23.425H94.3652ZM98.3172 23.425V23.828C98.3172 24.894 97.7192 26.168 96.2502 26.831L96.9652 28.105C98.8372 27.364 99.5522 25.492 99.5522 23.828V23.425H98.3172ZM98.7202 23.425V23.828C98.7202 25.726 99.5002 27.338 101.411 27.988L102.256 26.727C100.67 26.233 100.02 25.076 100.02 23.828V23.425H98.7202ZM99.4872 16.132V22.931H101.229V16.132H99.4872ZM94.6772 16.743C92.8052 16.743 91.4012 17.939 91.4012 19.629C91.4012 21.306 92.8052 22.502 94.6772 22.502C96.5492 22.502 97.9402 21.306 97.9402 19.629C97.9402 17.939 96.5492 16.743 94.6772 16.743ZM94.6772 18.173C95.5872 18.173 96.2502 18.706 96.2502 19.629C96.2502 20.539 95.5872 21.072 94.6772 21.072C93.7672 21.072 93.0912 20.539 93.0912 19.629C93.0912 18.706 93.7672 18.173 94.6772 18.173Z" fill="#353535"/>
<path d="M108.625 16.717C106.09 16.717 104.127 18.108 104.127 20.201C104.127 22.307 106.09 23.685 108.625 23.685C111.16 23.685 113.123 22.307 113.123 20.201C113.123 18.108 111.16 16.717 108.625 16.717ZM108.625 18.121C110.263 18.121 111.433 18.901 111.433 20.201C111.433 21.488 110.263 22.268 108.625 22.268C106.987 22.268 105.817 21.488 105.817 20.201C105.817 18.901 106.987 18.121 108.625 18.121ZM103.191 25.297V26.714H114.085V25.297H103.191Z" fill="#353535"/>
<path d="M123.405 16.132V24.907H125.147V16.132H123.405ZM117.126 26.571V27.949H125.446V26.571H117.126ZM117.126 24.062V27.286H118.855V24.062H117.126ZM117.958 16.782V17.952C117.958 19.551 117.113 21.228 115.098 21.917L115.969 23.295C118.309 22.476 119.388 20.305 119.388 17.952V16.782H117.958ZM118.309 16.782V17.952C118.309 20.279 119.362 22.32 121.637 23.087L122.521 21.709C120.545 21.072 119.726 19.525 119.726 17.952V16.782H118.309Z" fill="#353535"/>
<path d="M130.041 22.281V23.646H140.935V22.281H130.041ZM134.76 23.009V25.544H136.502V23.009H134.76ZM131.302 26.571V27.949H139.739V26.571H131.302ZM131.302 24.634V27.156H133.018V24.634H131.302ZM131.432 16.496V21.449H139.544V16.496H137.828V17.731H133.135V16.496H131.432ZM133.135 19.031H137.828V20.097H133.135V19.031Z" fill="#353535"/>
<path d="M143.768 23.724H145.445C145.25 21.891 147.512 21.28 147.512 19.434C147.512 17.757 146.368 16.951 144.795 16.951C143.664 16.951 142.741 17.484 142.065 18.251L143.118 19.226C143.547 18.784 144.002 18.498 144.574 18.498C145.25 18.498 145.679 18.901 145.679 19.564C145.679 20.799 143.456 21.631 143.768 23.724ZM144.613 27.182C145.289 27.182 145.809 26.649 145.809 25.934C145.809 25.219 145.289 24.699 144.613 24.699C143.924 24.699 143.43 25.219 143.43 25.934C143.43 26.649 143.924 27.182 144.613 27.182Z" fill="#353535"/>
<g opacity="0.9">
<path d="M172.104 25.112C173.152 25.112 173.992 24.48 173.992 23.44C173.992 22.632 173.432 22.112 172.744 21.944V21.912C173.368 21.688 173.784 21.216 173.784 20.504C173.784 19.568 173.064 19.032 172.08 19.032C171.408 19.032 170.888 19.328 170.448 19.728L170.84 20.2C171.168 19.864 171.584 19.624 172.056 19.624C172.664 19.624 173.04 19.992 173.04 20.552C173.04 21.192 172.632 21.672 171.424 21.672V22.24C172.776 22.24 173.248 22.704 173.248 23.408C173.248 24.08 172.752 24.504 172.056 24.504C171.384 24.504 170.944 24.184 170.6 23.824L170.232 24.304C170.616 24.728 171.184 25.112 172.104 25.112Z" fill="#939393"/>
<path d="M176.742 19.016V20.312C176.742 21.68 175.87 23.064 174.798 23.576L175.206 24.12C176.39 23.52 177.286 21.976 177.286 20.312V19.016H176.742ZM176.854 19.016V20.312C176.854 21.92 177.758 23.408 178.934 23.984L179.334 23.456C178.262 22.96 177.398 21.632 177.398 20.312V19.016H176.854ZM180.086 18.384V25.632H180.75V18.384H180.086Z" fill="#939393"/>
<path d="M187.141 18.392V23.68H187.805V18.392H187.141ZM187.597 20.584V21.136H188.877V20.584H187.597ZM185.165 18.952V19.24C185.165 20.632 184.021 21.752 182.197 22.312L182.485 22.856C184.557 22.192 185.869 20.824 185.869 18.952H185.165ZM182.493 18.952V19.496H185.501V18.952H182.493ZM183.293 24.92V25.464H188.125V24.92H183.293ZM183.293 23.144V25.136H183.957V23.144H183.293Z" fill="#939393"/>
<path d="M193.388 20.384V20.928H195.212V20.384H193.388ZM194.836 18.4V23.696H195.5V18.4H194.836ZM190.884 24.92V25.464H195.7V24.92H190.884ZM190.884 23.232V25.2H191.548V23.232H190.884ZM191.396 19.296V19.88C191.396 20.904 190.652 21.864 189.572 22.248L189.916 22.776C191.124 22.328 191.94 21.192 191.94 19.88V19.296H191.396ZM191.524 19.296V19.872C191.524 21.096 192.3 22.184 193.476 22.608L193.812 22.088C192.764 21.72 192.06 20.808 192.06 19.872V19.296H191.524ZM189.78 18.984V19.52H193.644V18.984H189.78Z" fill="#939393"/>
</g>
<rect x="217" y="32" width="37.7143" height="36" rx="10" fill="#C4C4C4"/>
<g clip-path="url(#clip0_290_165)">
<path d="M235.857 49.7584C238.76 49.7584 241.114 47.3181 241.114 44.3078C241.114 41.2975 238.76 38.8572 235.857 38.8572C232.953 38.8572 230.6 41.2975 230.6 44.3078C230.6 47.3181 232.953 49.7584 235.857 49.7584Z" fill="white"/>
<path d="M230.824 51.6558H240.89C243.79 51.6558 246.143 54.0947 246.143 57.102V61.1384H225.571V57.102C225.571 54.0947 227.924 51.6558 230.824 51.6558V51.6558Z" fill="white"/>
</g>
<path d="M227.602 22.75V23.695H232.084V25.801H233.29V22.75H227.602ZM232.084 17.467V22.354H233.29V17.467H232.084ZM228.754 17.917C227.458 17.917 226.486 18.772 226.486 19.96C226.486 21.148 227.458 21.994 228.754 21.994C230.041 21.994 231.013 21.148 231.013 19.96C231.013 18.772 230.041 17.917 228.754 17.917ZM228.754 18.934C229.384 18.934 229.843 19.303 229.843 19.96C229.843 20.617 229.384 20.995 228.754 20.995C228.124 20.995 227.656 20.617 227.656 19.96C227.656 19.303 228.124 18.934 228.754 18.934Z" fill="#353535" fill-opacity="0.96"/>
<path d="M238.671 18.673V19.618H240.795V18.673H238.671ZM238.671 20.338V21.292H240.831V20.338H238.671ZM240.417 17.467V22.345H241.614V17.467H240.417ZM234.981 18.07V21.895H238.923V18.07H234.981ZM237.744 19.015V20.959H236.16V19.015H237.744ZM238.788 22.561C237.024 22.561 235.935 23.164 235.935 24.181C235.935 25.207 237.024 25.801 238.788 25.801C240.552 25.801 241.641 25.207 241.641 24.181C241.641 23.164 240.552 22.561 238.788 22.561ZM238.788 23.479C239.877 23.479 240.453 23.704 240.453 24.181C240.453 24.658 239.877 24.892 238.788 24.892C237.708 24.892 237.132 24.658 237.132 24.181C237.132 23.704 237.708 23.479 238.788 23.479Z" fill="#353535" fill-opacity="0.96"/>
<path d="M218.01 83.14C219.14 83.14 220.11 82.18 220.11 80.76C220.11 79.22 219.31 78.46 218.07 78.46C217.48 78.46 216.8 78.82 216.35 79.41L216.38 80.14C216.87 79.41 217.46 79.13 217.93 79.13C218.81 79.13 219.25 79.76 219.25 80.76C219.25 81.75 218.71 82.42 218.01 82.42C216.98 82.42 216.41 81.39 216.41 79.51C216.41 77.11 217.27 76.3 218.3 76.3C218.74 76.3 219.19 76.51 219.47 76.85L219.98 76.29C219.58 75.86 219.02 75.54 218.26 75.54C216.84 75.54 215.55 76.64 215.55 79.51C215.55 81.93 216.6 83.14 218.01 83.14Z" fill="#939393"/>
<path d="M211.182 76.1107C210.262 75.1289 208.764 75.1306 207.844 76.1107L207.395 76.5901L206.945 76.1107C206.025 75.1289 204.527 75.1306 203.607 76.1107C202.687 77.0925 202.687 78.6895 203.607 79.6695L204.192 80.2935L207.259 83.5651C207.295 83.6038 207.343 83.625 207.395 83.625C207.446 83.625 207.494 83.6038 207.53 83.5651L210.597 80.2935L211.182 79.6695C212.101 78.6877 212.101 77.0907 211.182 76.1107Z" stroke="#939393" stroke-width="0.8"/>
<path d="M246.01 83.14C247.14 83.14 248.11 82.18 248.11 80.76C248.11 79.22 247.31 78.46 246.07 78.46C245.48 78.46 244.8 78.82 244.35 79.41L244.38 80.14C244.87 79.41 245.46 79.13 245.93 79.13C246.81 79.13 247.25 79.76 247.25 80.76C247.25 81.75 246.71 82.42 246.01 82.42C244.98 82.42 244.41 81.39 244.41 79.51C244.41 77.11 245.27 76.3 246.3 76.3C246.74 76.3 247.19 76.51 247.47 76.85L247.98 76.29C247.58 75.86 247.02 75.54 246.26 75.54C244.84 75.54 243.55 76.64 243.55 79.51C243.55 81.93 244.6 83.14 246.01 83.14Z" fill="#939393"/>
<path d="M231.19 82.1053H233.452L234.81 83.9052C234.832 83.9346 234.86 83.9585 234.894 83.975C234.927 83.9914 234.963 84 235 84C235.037 84 235.073 83.9914 235.106 83.975C235.14 83.9585 235.168 83.9346 235.19 83.9052L236.548 82.1053H238.81C239.125 82.1049 239.428 81.9801 239.651 81.7581C239.874 81.536 240 81.235 240 80.9211V76.1842C240 75.8702 239.874 75.5692 239.651 75.3472C239.428 75.1252 239.125 75.0003 238.81 75H231.19C230.875 75.0004 230.572 75.1253 230.349 75.3473C230.126 75.5693 230 75.8703 230 76.1842V80.9211C230 81.235 230.126 81.536 230.349 81.758C230.572 81.98 230.875 82.1049 231.19 82.1053ZM230.476 76.1842C230.476 75.9958 230.552 75.8152 230.686 75.682C230.82 75.5488 231.001 75.4739 231.19 75.4737H238.81C238.999 75.4739 239.18 75.5488 239.314 75.682C239.448 75.8152 239.524 75.9958 239.524 76.1842V80.9211C239.524 81.1094 239.448 81.29 239.314 81.4232C239.18 81.5564 238.999 81.6314 238.81 81.6316H236.429C236.392 81.6316 236.355 81.6402 236.322 81.6567C236.289 81.6731 236.26 81.697 236.238 81.7264L235 83.3683L233.762 81.7264C233.74 81.697 233.711 81.6731 233.678 81.6566C233.645 81.6402 233.608 81.6316 233.571 81.6316H231.19C231.001 81.6314 230.82 81.5564 230.686 81.4232C230.552 81.29 230.476 81.1094 230.476 80.9211V76.1842Z" fill="#939393" stroke="#939393" stroke-width="0.3"/>
<rect x="15" y="66" width="35" height="18" rx="9" fill="#2F80ED" fill-opacity="0.05"/>
<path d="M27.0503 72.235H28.9603V71.385H24.0503V72.235H26.0203V73.105C26.0203 74.605 25.1003 76.315 23.7203 76.975L24.3103 77.795C25.3503 77.285 26.1503 76.205 26.5503 74.945C26.9603 76.085 27.7303 77.085 28.7403 77.565L29.3103 76.755C27.9403 76.105 27.0503 74.505 27.0503 73.105V72.235ZM32.2903 74.045H30.8803V70.485H29.8503V79.515H30.8803V74.895H32.2903V74.045Z" fill="#3478F6"/>
<path d="M37.1596 71.645C38.4496 71.645 39.2996 72.085 39.2996 72.805C39.2996 73.535 38.4496 73.975 37.1596 73.975C35.8596 73.975 35.0096 73.535 35.0096 72.805C35.0096 72.085 35.8596 71.645 37.1596 71.645ZM37.1596 74.805C39.0596 74.805 40.3596 74.025 40.3596 72.805C40.3596 71.595 39.0596 70.815 37.1596 70.815C35.2496 70.815 33.9496 71.595 33.9496 72.805C33.9496 74.025 35.2496 74.805 37.1596 74.805ZM41.2696 75.575H33.0796V76.425H35.0796V79.515H36.1296V76.425H38.1896V79.515H39.2396V76.425H41.2796L41.2696 75.575Z" fill="#3478F6"/>
<defs>
<filter id="filter0_d_290_165" x="0" y="0" width="266" height="104" filterUnits="userSpaceOnUse" color-interpolation-filters="sRGB">
<feFlood flood-opacity="0" result="BackgroundImageFix"/>
<feColorMatrix in="SourceAlpha" type="matrix" values="0 0 0 0 0 0 0 0 0 0 0 0 0 0 0 0 0 0 127 0" result="hardAlpha"/>
<feOffset dy="4"/>
<feGaussianBlur stdDeviation="2"/>
<feComposite in2="hardAlpha" operator="out"/>
<feColorMatrix type="matrix" values="0 0 0 0 0 0 0 0 0 0 0 0 0 0 0 0 0 0 0.25 0"/>
<feBlend mode="normal" in2="BackgroundImageFix" result="effect1_dropShadow_290_165"/>
<feBlend mode="normal" in="SourceGraphic" in2="effect1_dropShadow_290_165" result="shape"/>
</filter>
<clipPath id="clip0_290_165">
<rect width="20.5714" height="22.2857" fill="white" transform="translate(225.571 38.8572)"/>
</clipPath>
</defs>
</svg>
