<svg width="266" height="104" viewBox="0 0 266 104" fill="none" xmlns="http://www.w3.org/2000/svg">
<g filter="url(#filter0_d_290_113)">
<rect x="4" width="258" height="96" rx="10" fill="white"/>
</g>
<path d="M19.399 40.172V42.284H20.312V40.172H19.399ZM17.342 39.688V40.436H22.512V39.688H17.342ZM17.342 35.816V39.974H18.255V36.553H22.479V35.816H17.342ZM17.991 37.73V38.456H22.27V37.73H17.991ZM23.733 34.903V44.869H24.646V34.903H23.733ZM16.726 42.867C18.497 42.867 20.928 42.856 23.161 42.438L23.084 41.756C20.917 42.086 18.409 42.097 16.594 42.097L16.726 42.867Z" fill="#353535"/>
<path d="M27.8131 35.497V36.245H34.1601V35.497H27.8131ZM26.6691 39.479V40.238H35.6781V39.479H26.6691ZM33.6211 35.497V36.278C33.6211 37.169 33.6211 38.225 33.3021 39.699L34.1931 39.798C34.5121 38.28 34.5121 37.191 34.5121 36.278V35.497H33.6211ZM27.8461 43.879V44.638H34.8091V43.879H27.8461ZM27.8461 41.338V43.989H28.7591V41.338H27.8461Z" fill="#353535"/>
<path d="M39.7102 36.047V36.784H47.7072V36.047H39.7102ZM39.2482 41.36V42.108H48.2572V41.36H39.2482ZM43.2742 41.965V44.869H44.1872V41.965H43.2742ZM43.7362 37.356C41.7012 37.356 40.5022 37.95 40.5022 39.017C40.5022 40.073 41.7012 40.678 43.7362 40.678C45.7602 40.678 46.9592 40.073 46.9592 39.017C46.9592 37.95 45.7602 37.356 43.7362 37.356ZM43.7362 38.06C45.1882 38.06 46.0242 38.401 46.0242 39.017C46.0242 39.633 45.1882 39.974 43.7362 39.974C42.2842 39.974 41.4482 39.633 41.4482 39.017C41.4482 38.401 42.2842 38.06 43.7362 38.06ZM43.2742 34.859V36.542H44.1872V34.859H43.2742Z" fill="#353535"/>
<path d="M58.6363 34.914V40.821H59.5493V34.914H58.6363ZM59.2853 37.499V38.258H61.0123V37.499H59.2853ZM56.3703 41.03C54.3573 41.03 53.1033 41.745 53.1033 42.944C53.1033 44.143 54.3573 44.847 56.3703 44.847C58.3833 44.847 59.6373 44.143 59.6373 42.944C59.6373 41.745 58.3833 41.03 56.3703 41.03ZM56.3703 41.778C57.8443 41.778 58.7463 42.196 58.7463 42.944C58.7463 43.67 57.8443 44.099 56.3703 44.099C54.8963 44.099 53.9943 43.67 53.9943 42.944C53.9943 42.196 54.8963 41.778 56.3703 41.778ZM52.2673 39.292V40.04H53.0373C55.1383 40.04 56.3153 39.974 57.6903 39.699L57.5803 38.951C56.2493 39.226 55.0943 39.292 53.0373 39.292H52.2673ZM52.2673 35.673V39.776H53.1693V36.421H56.6563V35.673H52.2673Z" fill="#353535"/>
<path d="M64.3885 35.981V36.784C64.3885 38.203 63.3985 39.49 61.9025 40.018L62.3645 40.744C64.0365 40.139 65.1365 38.61 65.1365 36.784V35.981H64.3885ZM64.5535 35.981V36.773C64.5535 38.467 65.6095 39.886 67.2705 40.436L67.7105 39.721C66.2475 39.237 65.3015 38.071 65.3015 36.773V35.981H64.5535ZM62.1775 35.651V36.399H67.4905V35.651H62.1775ZM68.7445 34.914V40.909H69.6575V34.914H68.7445ZM69.4045 37.433V38.203H71.1315V37.433H69.4045ZM66.4895 41.173C64.4655 41.173 63.2225 41.844 63.2225 42.999C63.2225 44.165 64.4655 44.836 66.4895 44.836C68.5135 44.836 69.7565 44.165 69.7565 42.999C69.7565 41.844 68.5135 41.173 66.4895 41.173ZM66.4895 41.91C67.9635 41.91 68.8655 42.306 68.8655 42.999C68.8655 43.703 67.9635 44.121 66.4895 44.121C65.0155 44.121 64.1135 43.703 64.1135 42.999C64.1135 42.306 65.0155 41.91 66.4895 41.91Z" fill="#353535"/>
<path d="M81.7416 34.903V44.869H82.6546V34.903H81.7416ZM77.4076 35.673C75.9446 35.673 74.8886 37.026 74.8886 39.138C74.8886 41.261 75.9446 42.614 77.4076 42.614C78.8816 42.614 79.9376 41.261 79.9376 39.138C79.9376 37.026 78.8816 35.673 77.4076 35.673ZM77.4076 36.498C78.3866 36.498 79.0576 37.532 79.0576 39.138C79.0576 40.755 78.3866 41.811 77.4076 41.811C76.4396 41.811 75.7576 40.755 75.7576 39.138C75.7576 37.532 76.4396 36.498 77.4076 36.498Z" fill="#353535"/>
<path d="M85.0297 41.635V42.405H85.6787C87.2737 42.405 88.2417 42.372 89.3967 42.141L89.2977 41.382C88.1867 41.602 87.2517 41.635 85.6787 41.635H85.0297ZM85.0297 36.047V41.921H85.8987V36.795H88.9457V36.047H85.0297ZM85.6347 38.676V39.413H88.7917V38.676H85.6347ZM92.2127 34.914V44.858H93.0927V34.914H92.2127ZM90.6397 38.896V39.655H92.5427V38.896H90.6397ZM90.0237 35.123V44.363H90.8927V35.123H90.0237Z" fill="#353535"/>
<path d="M97.5799 39.919V42.13H98.4929V39.919H97.5799ZM101.991 34.914V42.482H102.904V34.914H101.991ZM96.1169 43.89V44.638H103.146V43.89H96.1169ZM96.1169 41.745V44.099H97.0299V41.745H96.1169ZM94.8299 40.26C96.6339 40.26 99.0429 40.227 101.188 39.886L101.122 39.215C99.0099 39.49 96.5459 39.512 94.7089 39.512L94.8299 40.26ZM99.9669 40.788V41.459H102.222V40.788H99.9669ZM97.9429 35.321C96.4799 35.321 95.4899 36.003 95.4899 37.048C95.4899 38.104 96.4799 38.786 97.9429 38.786C99.3949 38.786 100.385 38.104 100.385 37.048C100.385 36.003 99.3949 35.321 97.9429 35.321ZM97.9429 36.003C98.8669 36.003 99.5159 36.41 99.5159 37.048C99.5159 37.686 98.8669 38.093 97.9429 38.093C97.0079 38.093 96.3589 37.686 96.3589 37.048C96.3589 36.41 97.0079 36.003 97.9429 36.003Z" fill="#353535"/>
<path d="M108.909 38.775V39.534H110.79V38.775H108.909ZM112.451 34.914V44.858H113.331V34.914H112.451ZM110.482 35.123V44.363H111.351V35.123H110.482ZM107.116 35.739C105.829 35.739 105.004 37.07 105.004 39.204C105.004 41.338 105.829 42.669 107.116 42.669C108.403 42.669 109.239 41.338 109.239 39.204C109.239 37.07 108.403 35.739 107.116 35.739ZM107.116 36.586C107.908 36.586 108.403 37.598 108.403 39.204C108.403 40.81 107.908 41.822 107.116 41.822C106.335 41.822 105.84 40.81 105.84 39.204C105.84 37.598 106.335 36.586 107.116 36.586Z" fill="#353535"/>
<path d="M119.97 39.93V42.306H120.883V39.93H119.97ZM120.421 35.552C118.892 35.552 117.792 36.509 117.792 37.895C117.792 39.281 118.892 40.238 120.421 40.238C121.95 40.238 123.05 39.281 123.05 37.895C123.05 36.509 121.95 35.552 120.421 35.552ZM120.421 36.333C121.433 36.333 122.159 36.971 122.159 37.895C122.159 38.819 121.433 39.457 120.421 39.457C119.409 39.457 118.683 38.819 118.683 37.895C118.683 36.971 119.409 36.333 120.421 36.333ZM124.183 34.914V44.858H125.096V34.914H124.183ZM124.832 39.006V39.776H126.669V39.006H124.832ZM117.473 42.713C119.211 42.713 121.532 42.691 123.633 42.339L123.556 41.657C121.532 41.932 119.134 41.943 117.341 41.954L117.473 42.713Z" fill="#353535"/>
<path d="M134.808 34.925V42.185H135.732V34.925H134.808ZM129.341 43.89V44.638H136.029V43.89H129.341ZM129.341 41.437V44.143H130.243V41.437H129.341ZM130.397 35.607C128.912 35.607 127.801 36.619 127.801 38.06C127.801 39.49 128.912 40.513 130.397 40.513C131.882 40.513 132.982 39.49 132.982 38.06C132.982 36.619 131.882 35.607 130.397 35.607ZM130.397 36.399C131.365 36.399 132.102 37.081 132.102 38.06C132.102 39.028 131.365 39.71 130.397 39.71C129.429 39.71 128.692 39.028 128.692 38.06C128.692 37.081 129.429 36.399 130.397 36.399Z" fill="#353535"/>
<path d="M146.958 34.925V42.383H147.871V34.925H146.958ZM147.585 38.181V38.951H149.345V38.181H147.585ZM140.182 36.124V36.861H146.056V36.124H140.182ZM143.119 37.411C141.7 37.411 140.732 38.148 140.732 39.27C140.732 40.381 141.7 41.118 143.119 41.118C144.527 41.118 145.495 40.381 145.495 39.27C145.495 38.148 144.527 37.411 143.119 37.411ZM143.119 38.126C144.01 38.126 144.626 38.577 144.626 39.27C144.626 39.952 144.01 40.403 143.119 40.403C142.217 40.403 141.601 39.952 141.601 39.27C141.601 38.577 142.217 38.126 143.119 38.126ZM142.657 34.914V36.509H143.57V34.914H142.657ZM141.678 43.89V44.638H148.322V43.89H141.678ZM141.678 41.789V44.209H142.591V41.789H141.678Z" fill="#353535"/>
<path d="M152.721 36.157V36.96C152.721 38.379 151.731 39.71 150.246 40.249L150.719 40.975C152.369 40.359 153.469 38.797 153.469 36.96V36.157H152.721ZM152.886 36.157V36.96C152.886 38.698 153.953 40.15 155.57 40.733L156.054 40.029C154.591 39.523 153.634 38.302 153.634 36.96V36.157H152.886ZM150.521 35.772V36.52H155.823V35.772H150.521ZM157.077 34.903V42.185H157.99V34.903H157.077ZM157.704 37.95V38.709H159.464V37.95H157.704ZM151.797 43.89V44.638H158.441V43.89H151.797ZM151.797 41.547V44.253H152.71V41.547H151.797Z" fill="#353535"/>
<path d="M23.282 50.914V60.858H24.195V50.914H23.282ZM23.975 54.995V55.765H25.823V54.995H23.975ZM16.495 52.498V53.246H22.358V52.498H16.495ZM19.465 54.071C18.068 54.071 17.045 55.017 17.045 56.359C17.045 57.701 18.068 58.647 19.465 58.647C20.873 58.647 21.885 57.701 21.885 56.359C21.885 55.017 20.873 54.071 19.465 54.071ZM19.465 54.83C20.367 54.83 21.016 55.457 21.016 56.359C21.016 57.25 20.367 57.888 19.465 57.888C18.563 57.888 17.914 57.25 17.914 56.359C17.914 55.457 18.563 54.83 19.465 54.83ZM18.992 51.035V52.839H19.905V51.035H18.992Z" fill="#353535"/>
<path d="M33.9291 50.903V60.869H34.8421V50.903H33.9291ZM32.0371 54.731V55.479H34.1491V54.731H32.0371ZM27.0321 57.723V58.493H27.7911C29.5841 58.493 30.8491 58.427 32.3451 58.163L32.2571 57.404C30.7941 57.668 29.5511 57.723 27.7911 57.723H27.0321ZM27.0101 51.838V52.586H30.5521V54.577H27.0321V57.954H27.9341V55.325H31.4541V51.838H27.0101Z" fill="#353535"/>
<path d="M45.9692 50.903V60.858H46.8932V50.903H45.9692ZM46.6402 54.94V55.699H48.4772V54.94H46.6402ZM43.4282 51.981V52.124C43.4282 54.753 42.0532 56.876 39.3032 58.273L39.8092 58.977C43.0212 57.36 44.3192 54.808 44.3192 51.981H43.4282ZM39.7652 51.981V52.729H43.9012V51.981H39.7652Z" fill="#353535"/>
<path d="M56.5944 50.914V56.062H57.5074V50.914H56.5944ZM51.0834 56.568V57.283H56.6164V58.273H51.1054V60.319H51.9964V58.955H57.5184V56.568H51.0834ZM51.1054 60.022V60.748H57.8484V60.022H51.1054ZM51.9524 51.2V51.959C51.9524 53.4 50.9294 54.72 49.4334 55.248L49.8844 55.974C51.5674 55.358 52.7114 53.796 52.7114 51.959V51.2H51.9524ZM52.1174 51.2V51.959C52.1174 53.741 53.2614 55.204 54.9334 55.776L55.3844 55.061C53.9104 54.577 52.8654 53.334 52.8654 51.959V51.2H52.1174Z" fill="#353535"/>
<path d="M61.9355 56.161V56.909H70.9445V56.161H61.9355ZM66.0495 56.535V58.823H66.9625V56.535H66.0495ZM63.0795 59.89V60.638H69.9435V59.89H63.0795ZM63.0795 57.943V60.176H63.9815V57.943H63.0795ZM63.1345 51.222V55.204H69.7565V51.222H68.8435V52.487H64.0365V51.222H63.1345ZM64.0365 53.202H68.8435V54.467H64.0365V53.202Z" fill="#353535"/>
<path d="M73.4736 57.569H74.3646C74.1556 55.842 76.1466 55.204 76.1466 53.587C76.1466 52.377 75.3326 51.618 74.0786 51.618C73.1876 51.618 72.4946 52.058 71.9776 52.63L72.5496 53.158C72.9346 52.718 73.4296 52.454 73.9796 52.454C74.7606 52.454 75.1676 52.993 75.1676 53.653C75.1676 54.951 73.2096 55.655 73.4736 57.569ZM73.9466 60.154C74.3426 60.154 74.6726 59.835 74.6726 59.384C74.6726 58.922 74.3426 58.614 73.9466 58.614C73.5396 58.614 73.2206 58.922 73.2206 59.384C73.2206 59.835 73.5396 60.154 73.9466 60.154Z" fill="#353535"/>
<path d="M78.1556 57.569H78.8376L78.9806 52.916L79.0026 51.761H77.9906L78.0126 52.916L78.1556 57.569ZM78.4856 60.154C78.8926 60.154 79.2226 59.835 79.2226 59.384C79.2226 58.922 78.8926 58.614 78.4856 58.614C78.0896 58.614 77.7706 58.922 77.7706 59.384C77.7706 59.835 78.0896 60.154 78.4856 60.154Z" fill="#353535"/>
<path d="M21.096 22.892V25.635H22.825V22.892H21.096ZM21.967 16.73C19.393 16.73 17.469 18.043 17.469 20.045C17.469 22.073 19.393 23.373 21.967 23.373C24.541 23.373 26.465 22.073 26.465 20.045C26.465 18.043 24.541 16.73 21.967 16.73ZM21.967 18.095C23.618 18.095 24.762 18.823 24.762 20.045C24.762 21.293 23.618 22.008 21.967 22.008C20.316 22.008 19.172 21.293 19.172 20.045C19.172 18.823 20.316 18.095 21.967 18.095ZM16.533 25.362V26.766H27.427V25.362H16.533Z" fill="#353535"/>
<path d="M29.8309 18.524V19.889H38.1379V18.524H29.8309ZM28.4789 20.669V22.034H39.3859V20.669H28.4789ZM29.8309 16.249V19.252H31.5469V16.249H29.8309ZM29.7139 22.762V24.062H36.3699V24.738H29.7269V27.026H31.4559V25.96H38.0989V22.762H29.7139ZM29.7269 26.714V28.027H38.4499V26.714H29.7269Z" fill="#353535"/>
<path d="M51.1312 16.119V22.06H52.8602V16.119H51.1312ZM52.3792 18.355V19.772H54.4592V18.355H52.3792ZM43.8642 16.639V21.306H45.5932V16.639H43.8642ZM43.8642 20.318V21.735H44.8782C46.5682 21.735 48.4012 21.631 50.3512 21.241L50.1562 19.837C48.2712 20.201 46.4902 20.318 44.8782 20.318H43.8642ZM44.9042 22.554V23.906H51.1312V24.608H44.9302V27.312H46.6592V25.895H52.8602V22.554H44.9042ZM44.9302 26.662V28.027H53.2112V26.662H44.9302Z" fill="#353535"/>
<path d="M63.8572 16.119V28.157H65.5992V16.119H63.8572ZM56.8372 17.068V19.096C56.8372 21.007 56.6162 23.1 55.0822 24.296L56.1872 25.492C57.7862 24.192 58.0852 21.605 58.0852 19.096V17.068H56.8372ZM57.2402 17.068V19.096C57.2402 21.501 57.5262 24.322 59.2942 25.661L60.2302 24.387C58.6702 23.126 58.4622 20.929 58.4622 19.096V17.068H57.2402ZM60.1392 17.068V19.096C60.1392 20.955 59.9312 23.139 58.3582 24.387L59.2942 25.661C61.0622 24.335 61.3612 21.527 61.3612 19.096V17.068H60.1392ZM60.5292 17.068V19.096C60.5292 21.618 60.8282 24.257 62.4922 25.557L63.5322 24.296C62.0112 23.113 61.7772 21.02 61.7772 19.096V17.068H60.5292Z" fill="#353535"/>
<path d="M78.6315 16.119V28.196H80.3605V16.119H78.6315ZM75.3945 19.837V21.228H79.1255V19.837H75.3945ZM70.8705 17.406V24.881H72.5865V17.406H70.8705ZM70.8705 23.932V25.362H71.8845C73.6525 25.362 75.4985 25.258 77.4355 24.868L77.2535 23.438C75.3815 23.815 73.6005 23.932 71.8845 23.932H70.8705Z" fill="#353535"/>
<path d="M82.2055 22.853V24.231H93.1125V22.853H82.2055ZM86.7555 23.737V28.157H88.4715V23.737H86.7555ZM83.4665 16.704V21.566H91.8125V16.704H83.4665ZM90.1095 18.069V20.201H85.1695V18.069H90.1095Z" fill="#353535"/>
<path d="M101.673 19.707V21.384H103.389V19.707H101.673ZM101.361 16.977V17.276C101.361 18.082 100.204 18.953 97.5648 19.096L98.0978 20.383C101.218 20.175 102.869 18.914 102.869 17.276V16.977H101.361ZM102.245 16.977V17.276C102.245 18.927 103.896 20.175 107.003 20.383L107.536 19.096C104.884 18.953 103.74 18.082 103.74 17.276V16.977H102.245ZM98.0978 16.418V17.731H107.016V16.418H98.0978ZM98.0848 23.373V24.673H106.99V23.373H98.0848ZM97.1098 20.799V22.164H108.017V20.799H97.1098ZM102.531 25.024C100.204 25.024 98.8518 25.583 98.8518 26.61C98.8518 27.65 100.204 28.196 102.531 28.196C104.858 28.196 106.21 27.65 106.21 26.61C106.21 25.583 104.858 25.024 102.531 25.024ZM102.531 26.155C103.792 26.155 104.416 26.272 104.416 26.61C104.416 26.935 103.792 27.065 102.531 27.065C101.27 27.065 100.646 26.935 100.646 26.61C100.646 26.272 101.27 26.155 102.531 26.155ZM101.673 22.528V24.153H103.402V22.528H101.673Z" fill="#353535"/>
<path d="M112.293 16.951C110.46 16.951 109.134 18.615 109.134 21.241C109.134 23.893 110.46 25.557 112.293 25.557C114.126 25.557 115.452 23.893 115.452 21.241C115.452 18.615 114.126 16.951 112.293 16.951ZM112.293 18.524C113.19 18.524 113.801 19.473 113.801 21.241C113.801 23.035 113.19 23.997 112.293 23.997C111.396 23.997 110.798 23.035 110.798 21.241C110.798 19.473 111.396 18.524 112.293 18.524ZM116.765 16.119V28.157H118.507V16.119H116.765ZM118.117 20.656V22.086H120.249V20.656H118.117Z" fill="#353535"/>
<path d="M123.433 22.229V25.609H125.149V22.229H123.433ZM127.801 22.229V25.609H129.53V22.229H127.801ZM121.041 25.362V26.766H131.935V25.362H121.041ZM126.475 16.704C123.875 16.704 121.977 17.978 121.977 19.941C121.977 21.904 123.875 23.165 126.475 23.165C129.062 23.165 130.973 21.904 130.973 19.941C130.973 17.978 129.062 16.704 126.475 16.704ZM126.475 18.056C128.152 18.056 129.27 18.745 129.27 19.941C129.27 21.124 128.152 21.826 126.475 21.826C124.798 21.826 123.68 21.124 123.68 19.941C123.68 18.745 124.798 18.056 126.475 18.056Z" fill="#353535"/>
<rect x="16" y="70" width="45" height="19" rx="9.5" fill="#A5A6F6" fill-opacity="0.15"/>
<path d="M20.7911 82.145V83.005H29.0711V82.145H20.7911ZM24.3911 79.935V82.365H25.4311V79.935H24.3911ZM21.7111 75.705V80.095H28.1011V75.705H21.7111ZM27.0811 76.545V79.255H22.7411V76.545H27.0811Z" fill="#A5A6F6"/>
<path d="M36.4704 74.995V80.185H37.5204V74.995H36.4704ZM31.5404 80.645V84.015H37.5204V80.645H31.5404ZM36.4904 81.475V83.175H32.5704V81.475H36.4904ZM32.5904 75.445C31.1904 75.445 30.1604 76.325 30.1604 77.605C30.1604 78.865 31.1904 79.765 32.5904 79.765C33.9904 79.765 35.0104 78.865 35.0104 77.605C35.0104 76.325 33.9904 75.445 32.5904 75.445ZM32.5904 76.315C33.4004 76.315 33.9904 76.825 33.9904 77.605C33.9904 78.385 33.4004 78.885 32.5904 78.885C31.7804 78.885 31.1804 78.385 31.1804 77.605C31.1804 76.825 31.7804 76.315 32.5904 76.315Z" fill="#A5A6F6"/>
<path d="M39.6396 75.675V76.525H43.6196V75.675H39.6396ZM40.9096 77.755V80.035H41.9396V77.755H40.9096ZM43.2096 75.675V76.195C43.2096 76.805 43.2096 77.615 42.9896 78.785L44.0096 78.895C44.2396 77.725 44.2396 76.815 44.2396 76.195V75.675H43.2096ZM45.3196 74.985V81.845H46.3796V74.985H45.3196ZM45.9296 77.875V78.745H47.5896V77.875H45.9296ZM40.4596 83.095V83.945H46.6696V83.095H40.4596ZM40.4596 81.225V83.355H41.5096V81.225H40.4596ZM39.1896 80.495C40.7796 80.495 42.9396 80.455 44.8296 80.115L44.7596 79.365C42.9196 79.625 40.6996 79.655 39.0896 79.655L39.1896 80.495Z" fill="#A5A6F6"/>
<path d="M48.7488 79.705V80.555H49.4188C51.1088 80.555 52.0988 80.515 53.2488 80.315L53.1388 79.465C52.0188 79.665 51.0688 79.705 49.4188 79.705H48.7488ZM48.7288 75.625V76.465H51.6588V77.615H48.7488V80.205H49.7888V78.415H52.6988V75.625H48.7288ZM54.9088 74.995V81.725H55.9588V74.995H54.9088ZM53.2788 76.455V77.295H55.1288V76.455H53.2788ZM49.9688 83.065V83.915H56.2088V83.065H49.9688ZM49.9688 81.225V83.405H51.0088V81.225H49.9688ZM53.2788 78.505V79.355H55.1288V78.505H53.2788Z" fill="#A5A6F6"/>
<g opacity="0.9">
<path d="M172.104 25.112C173.152 25.112 173.992 24.48 173.992 23.44C173.992 22.632 173.432 22.112 172.744 21.944V21.912C173.368 21.688 173.784 21.216 173.784 20.504C173.784 19.568 173.064 19.032 172.08 19.032C171.408 19.032 170.888 19.328 170.448 19.728L170.84 20.2C171.168 19.864 171.584 19.624 172.056 19.624C172.664 19.624 173.04 19.992 173.04 20.552C173.04 21.192 172.632 21.672 171.424 21.672V22.24C172.776 22.24 173.248 22.704 173.248 23.408C173.248 24.08 172.752 24.504 172.056 24.504C171.384 24.504 170.944 24.184 170.6 23.824L170.232 24.304C170.616 24.728 171.184 25.112 172.104 25.112Z" fill="#939393"/>
<path d="M176.742 19.016V20.312C176.742 21.68 175.87 23.064 174.798 23.576L175.206 24.12C176.39 23.52 177.286 21.976 177.286 20.312V19.016H176.742ZM176.854 19.016V20.312C176.854 21.92 177.758 23.408 178.934 23.984L179.334 23.456C178.262 22.96 177.398 21.632 177.398 20.312V19.016H176.854ZM180.086 18.384V25.632H180.75V18.384H180.086Z" fill="#939393"/>
<path d="M187.141 18.392V23.68H187.805V18.392H187.141ZM187.597 20.584V21.136H188.877V20.584H187.597ZM185.165 18.952V19.24C185.165 20.632 184.021 21.752 182.197 22.312L182.485 22.856C184.557 22.192 185.869 20.824 185.869 18.952H185.165ZM182.493 18.952V19.496H185.501V18.952H182.493ZM183.293 24.92V25.464H188.125V24.92H183.293ZM183.293 23.144V25.136H183.957V23.144H183.293Z" fill="#939393"/>
<path d="M193.388 20.384V20.928H195.212V20.384H193.388ZM194.836 18.4V23.696H195.5V18.4H194.836ZM190.884 24.92V25.464H195.7V24.92H190.884ZM190.884 23.232V25.2H191.548V23.232H190.884ZM191.396 19.296V19.88C191.396 20.904 190.652 21.864 189.572 22.248L189.916 22.776C191.124 22.328 191.94 21.192 191.94 19.88V19.296H191.396ZM191.524 19.296V19.872C191.524 21.096 192.3 22.184 193.476 22.608L193.812 22.088C192.764 21.72 192.06 20.808 192.06 19.872V19.296H191.524ZM189.78 18.984V19.52H193.644V18.984H189.78Z" fill="#939393"/>
</g>
<rect x="217" y="32" width="37.7143" height="36" rx="10" fill="#C4C4C4"/>
<g clip-path="url(#clip0_290_113)">
<path d="M235.857 49.7584C238.76 49.7584 241.114 47.318 241.114 44.3078C241.114 41.2975 238.76 38.8571 235.857 38.8571C232.953 38.8571 230.6 41.2975 230.6 44.3078C230.6 47.318 232.953 49.7584 235.857 49.7584Z" fill="white"/>
<path d="M230.824 51.6558H240.89C243.79 51.6558 246.143 54.0947 246.143 57.1019V61.1384H225.571V57.1019C225.571 54.0947 227.924 51.6558 230.824 51.6558V51.6558Z" fill="white"/>
</g>
<path d="M227.602 22.75V23.695H232.084V25.801H233.29V22.75H227.602ZM232.084 17.467V22.354H233.29V17.467H232.084ZM228.754 17.917C227.458 17.917 226.486 18.772 226.486 19.96C226.486 21.148 227.458 21.994 228.754 21.994C230.041 21.994 231.013 21.148 231.013 19.96C231.013 18.772 230.041 17.917 228.754 17.917ZM228.754 18.934C229.384 18.934 229.843 19.303 229.843 19.96C229.843 20.617 229.384 20.995 228.754 20.995C228.124 20.995 227.656 20.617 227.656 19.96C227.656 19.303 228.124 18.934 228.754 18.934Z" fill="#353535" fill-opacity="0.96"/>
<path d="M238.671 18.673V19.618H240.795V18.673H238.671ZM238.671 20.338V21.292H240.831V20.338H238.671ZM240.417 17.467V22.345H241.614V17.467H240.417ZM234.981 18.07V21.895H238.923V18.07H234.981ZM237.744 19.015V20.959H236.16V19.015H237.744ZM238.788 22.561C237.024 22.561 235.935 23.164 235.935 24.181C235.935 25.207 237.024 25.801 238.788 25.801C240.552 25.801 241.641 25.207 241.641 24.181C241.641 23.164 240.552 22.561 238.788 22.561ZM238.788 23.479C239.877 23.479 240.453 23.704 240.453 24.181C240.453 24.658 239.877 24.892 238.788 24.892C237.708 24.892 237.132 24.658 237.132 24.181C237.132 23.704 237.708 23.479 238.788 23.479Z" fill="#353535" fill-opacity="0.96"/>
<path d="M218.01 83.14C219.14 83.14 220.11 82.18 220.11 80.76C220.11 79.22 219.31 78.46 218.07 78.46C217.48 78.46 216.8 78.82 216.35 79.41L216.38 80.14C216.87 79.41 217.46 79.13 217.93 79.13C218.81 79.13 219.25 79.76 219.25 80.76C219.25 81.75 218.71 82.42 218.01 82.42C216.98 82.42 216.41 81.39 216.41 79.51C216.41 77.11 217.27 76.3 218.3 76.3C218.74 76.3 219.19 76.51 219.47 76.85L219.98 76.29C219.58 75.86 219.02 75.54 218.26 75.54C216.84 75.54 215.55 76.64 215.55 79.51C215.55 81.93 216.6 83.14 218.01 83.14Z" fill="#939393"/>
<path d="M211.182 76.1107C210.262 75.1289 208.764 75.1306 207.844 76.1107L207.395 76.5901L206.945 76.1107C206.025 75.1289 204.527 75.1306 203.607 76.1107C202.687 77.0925 202.687 78.6895 203.607 79.6695L204.192 80.2935L207.259 83.5651C207.295 83.6038 207.343 83.625 207.395 83.625C207.446 83.625 207.494 83.6038 207.53 83.5651L210.597 80.2935L211.182 79.6695C212.101 78.6877 212.101 77.0907 211.182 76.1107Z" stroke="#939393" stroke-width="0.8"/>
<path d="M246.01 83.14C247.14 83.14 248.11 82.18 248.11 80.76C248.11 79.22 247.31 78.46 246.07 78.46C245.48 78.46 244.8 78.82 244.35 79.41L244.38 80.14C244.87 79.41 245.46 79.13 245.93 79.13C246.81 79.13 247.25 79.76 247.25 80.76C247.25 81.75 246.71 82.42 246.01 82.42C244.98 82.42 244.41 81.39 244.41 79.51C244.41 77.11 245.27 76.3 246.3 76.3C246.74 76.3 247.19 76.51 247.47 76.85L247.98 76.29C247.58 75.86 247.02 75.54 246.26 75.54C244.84 75.54 243.55 76.64 243.55 79.51C243.55 81.93 244.6 83.14 246.01 83.14Z" fill="#939393"/>
<path d="M231.19 82.1053H233.452L234.81 83.9052C234.832 83.9346 234.86 83.9585 234.894 83.975C234.927 83.9914 234.963 84 235 84C235.037 84 235.073 83.9914 235.106 83.975C235.14 83.9585 235.168 83.9346 235.19 83.9052L236.548 82.1053H238.81C239.125 82.1049 239.428 81.9801 239.651 81.7581C239.874 81.536 240 81.235 240 80.9211V76.1842C240 75.8702 239.874 75.5692 239.651 75.3472C239.428 75.1252 239.125 75.0003 238.81 75H231.19C230.875 75.0004 230.572 75.1253 230.349 75.3473C230.126 75.5693 230 75.8703 230 76.1842V80.9211C230 81.235 230.126 81.536 230.349 81.758C230.572 81.98 230.875 82.1049 231.19 82.1053ZM230.476 76.1842C230.476 75.9958 230.552 75.8152 230.686 75.682C230.82 75.5488 231.001 75.4739 231.19 75.4737H238.81C238.999 75.4739 239.18 75.5488 239.314 75.682C239.448 75.8152 239.524 75.9958 239.524 76.1842V80.9211C239.524 81.1094 239.448 81.29 239.314 81.4232C239.18 81.5564 238.999 81.6314 238.81 81.6316H236.429C236.392 81.6316 236.355 81.6402 236.322 81.6567C236.289 81.6731 236.26 81.697 236.238 81.7264L235 83.3683L233.762 81.7264C233.74 81.697 233.711 81.6731 233.678 81.6566C233.645 81.6402 233.608 81.6316 233.571 81.6316H231.19C231.001 81.6314 230.82 81.5564 230.686 81.4232C230.552 81.29 230.476 81.1094 230.476 80.9211V76.1842Z" fill="#939393" stroke="#939393" stroke-width="0.3"/>
<defs>
<filter id="filter0_d_290_113" x="0" y="0" width="266" height="104" filterUnits="userSpaceOnUse" color-interpolation-filters="sRGB">
<feFlood flood-opacity="0" result="BackgroundImageFix"/>
<feColorMatrix in="SourceAlpha" type="matrix" values="0 0 0 0 0 0 0 0 0 0 0 0 0 0 0 0 0 0 127 0" result="hardAlpha"/>
<feOffset dy="4"/>
<feGaussianBlur stdDeviation="2"/>
<feComposite in2="hardAlpha" operator="out"/>
<feColorMatrix type="matrix" values="0 0 0 0 0 0 0 0 0 0 0 0 0 0 0 0 0 0 0.25 0"/>
<feBlend mode="normal" in2="BackgroundImageFix" result="effect1_dropShadow_290_113"/>
<feBlend mode="normal" in="SourceGraphic" in2="effect1_dropShadow_290_113" result="shape"/>
</filter>
<clipPath id="clip0_290_113">
<rect width="20.5714" height="22.2857" fill="white" transform="translate(225.571 38.8571)"/>
</clipPath>
</defs>
</svg>
