<svg width="266" height="104" viewBox="0 0 266 104" fill="none" xmlns="http://www.w3.org/2000/svg">
<g filter="url(#filter0_d_290_140)">
<rect x="4" width="258" height="96" rx="10" fill="white"/>
</g>
<path d="M18.563 41.899H23.524V43.956H18.563V41.899ZM17.683 44.682H24.415V41.173H17.683V44.682ZM24.118 39.105C24.382 37.873 24.382 36.971 24.382 36.201V35.475H17.716V36.201H23.491C23.491 36.971 23.491 37.873 23.205 39.105H16.572V39.831H25.537V39.105H24.118Z" fill="#353535"/>
<path d="M29.7932 40.48C30.2002 40.579 30.6732 40.634 31.1572 40.634C31.6522 40.634 32.1252 40.579 32.5432 40.48V42.801H29.7932V40.48ZM31.1572 36.278C32.7412 36.278 33.8852 37.004 33.8852 38.104C33.8852 39.204 32.7412 39.93 31.1572 39.93C29.5732 39.93 28.4402 39.204 28.4402 38.104C28.4402 37.004 29.5732 36.278 31.1572 36.278ZM33.4452 42.801V40.128C34.2592 39.699 34.7432 38.995 34.7432 38.104C34.7432 36.564 33.2582 35.574 31.1572 35.574C29.0672 35.574 27.5712 36.564 27.5712 38.104C27.5712 38.995 28.0662 39.71 28.8912 40.139V42.801H26.6912V43.549H35.6562V42.801H33.4452Z" fill="#353535"/>
<path d="M44.9173 34.947H44.0153V40.007H44.9173V34.947ZM37.9213 37.499C37.9213 36.641 38.6363 36.036 39.5933 36.036C40.5613 36.036 41.2653 36.641 41.2653 37.499C41.2653 38.346 40.5613 38.951 39.5933 38.951C38.6363 38.951 37.9213 38.346 37.9213 37.499ZM42.1453 37.499C42.1453 36.19 41.0673 35.299 39.5933 35.299C38.1193 35.299 37.0523 36.19 37.0523 37.499C37.0523 38.797 38.1193 39.677 39.5933 39.677C41.0673 39.677 42.1453 38.797 42.1453 37.499ZM39.4393 43.967V42.878H44.9173V40.491H38.5263V41.206H44.0263V42.207H38.5483V44.682H45.2473V43.967H39.4393Z" fill="#353535"/>
<path d="M51.1384 38.181C51.1384 37.048 52.2934 36.311 53.8664 36.311C55.4394 36.311 56.5834 37.048 56.5834 38.181C56.5834 39.314 55.4394 40.051 53.8664 40.051C52.2934 40.051 51.1384 39.314 51.1384 38.181ZM54.3174 42.801V40.744C56.1544 40.612 57.4414 39.633 57.4414 38.181C57.4414 36.608 55.9454 35.596 53.8664 35.596C51.7764 35.596 50.2694 36.608 50.2694 38.181C50.2694 39.633 51.5674 40.612 53.4044 40.744V42.801H49.3894V43.549H58.3544V42.801H54.3174Z" fill="#353535"/>
<path d="M67.9125 36.08H64.4365V34.892H63.5235V36.08H59.9815V36.806H67.9125V36.08ZM66.2405 39.017C66.2405 39.622 65.4265 39.974 63.9855 39.974C62.5445 39.974 61.7085 39.622 61.7085 39.017C61.7085 38.412 62.5445 38.06 63.9855 38.06C65.4265 38.06 66.2405 38.412 66.2405 39.017ZM60.7735 39.017C60.7735 40.073 61.9725 40.656 63.9855 40.656C65.9765 40.656 67.1755 40.073 67.1755 39.017C67.1755 37.961 65.9765 37.367 63.9855 37.367C61.9725 37.367 60.7735 37.961 60.7735 39.017ZM68.4625 41.349H59.5195V42.086H63.5235V44.825H64.4365V42.086H68.4625V41.349Z" fill="#353535"/>
<path d="M71.8717 41.811C71.0797 41.811 70.5847 40.81 70.5847 39.193C70.5847 37.609 71.0797 36.608 71.8717 36.608C72.6417 36.608 73.1477 37.609 73.1477 39.193C73.1477 40.81 72.6417 41.811 71.8717 41.811ZM75.2047 38.786H73.9617C73.8517 36.927 73.0597 35.772 71.8717 35.772C70.5847 35.772 69.7597 37.092 69.7597 39.193C69.7597 41.327 70.5847 42.647 71.8717 42.647C73.0817 42.647 73.8847 41.459 73.9617 39.523H75.2047V44.33H76.0627V35.167H75.2047V38.786ZM77.1627 34.947V44.814H78.0207V34.947H77.1627Z" fill="#353535"/>
<path d="M86.3098 39.82H83.5158V38.016H86.3098V39.82ZM87.1898 35.662H86.3098V37.312H83.5158V35.662H82.6248V40.546H87.1898V35.662ZM84.6378 41.503H83.7358V44.594H90.3138V43.857H84.6378V41.503ZM89.8738 37.939V34.958H88.9718V42.196H89.8738V38.698H91.3258V37.939H89.8738Z" fill="#353535"/>
<path d="M95.6369 37.378H97.8259V36.652H95.6369V35.123H94.7349V36.652H92.5129V37.378H94.7459V38.148C94.7459 39.853 93.6899 41.525 92.2489 42.229L92.7549 42.911C93.8769 42.361 94.7789 41.217 95.1969 39.864C95.6149 41.129 96.4509 42.207 97.5289 42.735L98.0349 42.031C96.6159 41.349 95.6369 39.732 95.6369 38.148V37.378ZM101.555 39.006H99.9269V34.947H99.0249V44.814H99.9269V39.754H101.555V39.006Z" fill="#353535"/>
<path d="M103.842 36.146H102.94V42.251H103.567C104.634 42.251 105.767 42.196 107.098 41.943L107.01 41.162C105.833 41.393 104.788 41.459 103.842 41.47V36.146ZM109.958 34.947V38.962H108.561V35.167H107.714V44.308H108.561V39.71H109.958V44.803H110.827V34.947H109.958Z" fill="#353535"/>
<path d="M119.538 36.916C119.538 38.104 119.538 39.49 119.164 41.382L120.066 41.481C120.44 39.49 120.44 38.137 120.44 36.916V35.937H113.521V36.674H119.538V36.916ZM116.953 42.691V39.16H116.051V42.691H112.586V43.428H121.507V42.691H116.953Z" fill="#353535"/>
<path d="M130.907 38.599C129.334 38.907 127.926 39.006 126.529 39.017V35.442H125.638V39.776H126.408C127.882 39.776 129.356 39.666 131.017 39.336L130.907 38.599ZM127.475 41.789H131.93V43.945H127.475V41.789ZM126.595 44.671H132.81V41.063H126.595V44.671ZM134.273 37.213H132.81V34.947H131.908V40.524H132.81V37.961H134.273V37.213Z" fill="#353535"/>
<path d="M137.715 41.778C136.945 41.778 136.406 41.151 136.406 40.271C136.406 39.413 136.945 38.786 137.715 38.786C138.474 38.786 139.024 39.413 139.024 40.271C139.024 41.151 138.474 41.778 137.715 41.778ZM137.715 38.027C136.494 38.027 135.603 38.951 135.603 40.271C135.603 41.613 136.494 42.526 137.715 42.526C138.936 42.526 139.827 41.613 139.827 40.271C139.827 38.951 138.936 38.027 137.715 38.027ZM138.155 35.233H137.264V36.63H135.262V37.367H140.157V36.63H138.155V35.233ZM142.764 34.936V39.105H141.499V35.167H140.652V44.33H141.499V39.842H142.764V44.803H143.633V34.936H142.764Z" fill="#353535"/>
<path d="M145.921 36.003V36.751H149.54C149.331 39.083 147.978 40.975 145.459 42.24L145.954 42.944C149.144 41.349 150.431 38.808 150.431 36.003H145.921ZM154.567 38.951H152.983V34.947H152.081V44.814H152.983V39.699H154.567V38.951Z" fill="#353535"/>
<path d="M158.966 35.794H158.064V37.565C158.064 39.391 156.942 41.294 155.512 42.009L156.062 42.724C157.173 42.13 158.086 40.887 158.515 39.424C158.966 40.81 159.868 41.987 160.99 42.548L161.518 41.833C160.088 41.151 158.966 39.358 158.966 37.565V35.794ZM162.739 34.947V38.291H160.451V39.028H162.739V44.825H163.641V34.947H162.739Z" fill="#353535"/>
<path d="M176.594 39.908C174.867 39.578 172.997 38.082 172.997 36.399V35.64H172.051V36.399C172.051 38.082 170.192 39.567 168.465 39.908L168.872 40.656C170.357 40.304 171.897 39.248 172.524 37.807C173.151 39.259 174.691 40.315 176.187 40.656L176.594 39.908ZM168.091 42.746V43.494H177.034V42.746H168.091Z" fill="#353535"/>
<path d="M187.142 40.26H185.646C185.998 38.643 185.998 37.499 185.998 36.465V35.563H179.343V36.3H185.129V36.465C185.129 36.861 185.129 37.257 185.107 37.686L179.057 37.917L179.178 38.676L185.052 38.39C185.008 38.951 184.92 39.556 184.755 40.26H178.221V40.997H182.236V44.814H183.138V40.997H187.142V40.26Z" fill="#353535"/>
<path d="M192.366 41.602H189.616V39.006H192.366V41.602ZM195.556 34.947V38.61H193.246V35.728H192.366V38.291H189.616V35.728H188.725V42.339H193.246V39.336H195.556V44.836H196.458V34.947H195.556Z" fill="#353535"/>
<path d="M17.903 52.641H21.588V51.893H17.001V58.372H17.782C19.641 58.372 20.939 58.306 22.446 58.02L22.347 57.272C20.917 57.525 19.652 57.602 17.903 57.602V52.641ZM25.801 54.841H24.173V50.947H23.271V60.836H24.173V55.589H25.801V54.841Z" fill="#353535"/>
<path d="M33.8742 50.947V60.836H34.7762V50.947H33.8742ZM29.5732 51.706C28.1102 51.706 27.0652 53.048 27.0652 55.149C27.0652 57.25 28.1102 58.592 29.5732 58.592C31.0362 58.592 32.0812 57.25 32.0812 55.149C32.0812 53.048 31.0362 51.706 29.5732 51.706ZM29.5732 52.52C30.5302 52.52 31.2122 53.554 31.2122 55.149C31.2122 56.755 30.5302 57.789 29.5732 57.789C28.6052 57.789 27.9232 56.755 27.9232 55.149C27.9232 53.554 28.6052 52.52 29.5732 52.52Z" fill="#353535"/>
<path d="M37.3383 51.563V56.139H41.9583V51.563H41.0673V53.081H38.2293V51.563H37.3383ZM38.2293 53.785H41.0673V55.413H38.2293V53.785ZM44.0153 50.958V56.931H44.9173V50.958H44.0153ZM41.6393 57.129C39.5933 57.129 38.3283 57.8 38.3283 58.966C38.3283 60.132 39.5933 60.803 41.6393 60.803C43.6853 60.803 44.9503 60.132 44.9503 58.966C44.9503 57.8 43.6853 57.129 41.6393 57.129ZM41.6393 57.833C43.1353 57.833 44.0483 58.251 44.0483 58.966C44.0483 59.67 43.1353 60.099 41.6393 60.099C40.1433 60.099 39.2193 59.67 39.2193 58.966C39.2193 58.251 40.1433 57.833 41.6393 57.833Z" fill="#353535"/>
<path d="M52.2934 57.866C51.4024 57.866 50.7534 57.228 50.7534 56.348C50.7534 55.457 51.4024 54.819 52.2934 54.819C53.1954 54.819 53.8444 55.457 53.8444 56.348C53.8444 57.228 53.1954 57.866 52.2934 57.866ZM52.2934 54.071C50.9074 54.071 49.9064 55.017 49.9064 56.348C49.9064 57.69 50.9074 58.614 52.2934 58.614C53.7014 58.614 54.7024 57.69 54.7024 56.348C54.7024 55.017 53.7014 54.071 52.2934 54.071ZM52.7334 51.068H51.8314V52.531H49.3454V53.257H55.1644V52.531H52.7334V51.068ZM58.6184 55.006H57.0014V50.958H56.0994V60.814H57.0014V55.765H58.6184V55.006Z" fill="#353535"/>
<path d="M67.6045 50.958H66.7025V56.062H67.6045V50.958ZM65.4925 55.072C64.0295 54.588 62.9955 53.356 62.9955 51.992V51.244H62.0935V51.992C62.0935 53.422 61.0705 54.742 59.5855 55.259L60.0475 55.963C61.2135 55.545 62.1265 54.643 62.5555 53.51C63.0065 54.555 63.9085 55.38 65.0415 55.776L65.4925 55.072ZM62.1375 59.989V58.933H67.6155V56.557H61.2245V57.261H66.7245V58.251H61.2465V60.704H67.9455V59.989H62.1375Z" fill="#353535"/>
<path d="M78.9626 54.489H74.1666V53.213H78.9626V54.489ZM79.8536 51.255H78.9626V52.52H74.1666V51.255H73.2756V55.204H79.8536V51.255ZM74.1116 57.91H73.2206V60.594H80.0406V59.857H74.1116V57.91ZM72.0766 56.161V56.887H76.1796V58.801H77.0816V56.887H81.0416V56.161H72.0766Z" fill="#353535"/>
<path d="M83.5928 57.569H84.4838C84.2858 55.842 86.2658 55.193 86.2658 53.576C86.2658 52.377 85.4518 51.618 84.2088 51.618C83.3178 51.618 82.6138 52.047 82.1078 52.63L82.6798 53.158C83.0648 52.718 83.5488 52.454 84.0988 52.454C84.8798 52.454 85.2868 52.982 85.2868 53.642C85.2868 54.951 83.3398 55.655 83.5928 57.569ZM84.0658 60.143C84.4728 60.143 84.8028 59.835 84.8028 59.384C84.8028 58.922 84.4728 58.603 84.0658 58.603C83.6698 58.603 83.3398 58.922 83.3398 59.384C83.3398 59.835 83.6698 60.143 84.0658 60.143Z" fill="#353535"/>
<path d="M90.3277 51.684V52.41H93.9027C93.7377 54.115 92.2527 55.457 89.9097 56.15L90.2727 56.876C93.1327 56.029 94.8817 54.192 94.8817 51.684H90.3277ZM94.4527 60.088C93.0337 60.088 92.1317 59.637 92.1317 58.889C92.1317 58.13 93.0337 57.679 94.4527 57.679C95.8717 57.679 96.7737 58.13 96.7737 58.889C96.7737 59.637 95.8717 60.088 94.4527 60.088ZM94.4527 56.975C92.5057 56.975 91.2407 57.69 91.2407 58.889C91.2407 60.077 92.5057 60.803 94.4527 60.803C96.3997 60.803 97.6647 60.077 97.6647 58.889C97.6647 57.69 96.3997 56.975 94.4527 56.975ZM97.5437 53.499V50.947H96.6417V56.843H97.5437V54.247H99.0067V53.499H97.5437Z" fill="#353535"/>
<path d="M105.76 54.599C104.187 54.907 102.779 55.006 101.382 55.017V51.442H100.491V55.776H101.261C102.735 55.776 104.209 55.666 105.87 55.336L105.76 54.599ZM102.328 57.789H106.783V59.945H102.328V57.789ZM101.448 60.671H107.663V57.063H101.448V60.671ZM109.126 53.213H107.663V50.947H106.761V56.524H107.663V53.961H109.126V53.213Z" fill="#353535"/>
<path d="M112.359 57.811C111.567 57.811 111.072 56.81 111.072 55.193C111.072 53.609 111.567 52.608 112.359 52.608C113.129 52.608 113.635 53.609 113.635 55.193C113.635 56.81 113.129 57.811 112.359 57.811ZM115.692 54.786H114.449C114.339 52.927 113.547 51.772 112.359 51.772C111.072 51.772 110.247 53.092 110.247 55.193C110.247 57.327 111.072 58.647 112.359 58.647C113.569 58.647 114.372 57.459 114.449 55.523H115.692V60.33H116.55V51.167H115.692V54.786ZM117.65 50.947V60.814H118.508V50.947H117.65Z" fill="#353535"/>
<path d="M123.699 51.794H122.797V53.565C122.797 55.391 121.675 57.294 120.245 58.009L120.795 58.724C121.906 58.13 122.819 56.887 123.248 55.424C123.699 56.81 124.601 57.987 125.723 58.548L126.251 57.833C124.821 57.151 123.699 55.358 123.699 53.565V51.794ZM127.472 50.947V54.291H125.184V55.028H127.472V60.825H128.374V50.947H127.472Z" fill="#353535"/>
<path d="M133.561 54.885C135.222 54.753 136.685 54.247 137.29 53.334C137.895 54.247 139.347 54.753 140.997 54.885L141.272 54.203C139.435 54.082 137.95 53.477 137.796 52.498H140.832V51.816H137.741V50.881H136.839V51.816H133.737V52.498H136.784C136.63 53.477 135.123 54.082 133.297 54.203L133.561 54.885ZM141.734 56.018V55.325H132.835V56.018H136.828V56.931H133.891V57.602H139.71V58.438H133.924V60.704H140.898V60.022H134.804V59.087H140.601V56.931H137.741V56.018H141.734Z" fill="#353535"/>
<path d="M147.035 54.94H144.241V53.466H147.035V54.94ZM147.915 51.354H147.035V52.773H144.241V51.354H143.35V55.666H147.915V51.354ZM145.242 58.911H150.599V56.513H144.329V57.228H149.708V58.24H144.362V60.704H150.962V59.989H145.242V58.911ZM150.599 53.07V50.958H149.697V56.051H150.599V53.818H152.062V53.07H150.599Z" fill="#353535"/>
<path d="M153.91 57.569H154.603L154.735 52.905L154.768 51.761H153.745L153.778 52.905L153.91 57.569ZM154.251 60.143C154.658 60.143 154.977 59.835 154.977 59.384C154.977 58.922 154.658 58.603 154.251 58.603C153.855 58.603 153.525 58.922 153.525 59.384C153.525 59.835 153.855 60.143 154.251 60.143Z" fill="#353535"/>
<path d="M24.268 16.132V24.985H25.997V16.132H24.268ZM25.503 19.512V20.929H27.596V19.512H25.503ZM18.236 26.571V27.949H26.426V26.571H18.236ZM18.236 24.088V26.87H19.965V24.088H18.236ZM16.871 16.977V23.087H22.656V16.977H20.94V18.706H18.587V16.977H16.871ZM18.587 20.019H20.94V21.735H18.587V20.019Z" fill="#353535"/>
<path d="M31.118 19.239V19.863C31.118 21.67 30.221 23.711 28.258 24.608L29.194 25.934C31.378 24.959 32.457 22.398 32.457 19.863V19.239H31.118ZM31.495 19.239V19.863C31.495 22.281 32.522 24.751 34.641 25.726L35.564 24.413C33.679 23.503 32.834 21.579 32.834 19.863V19.239H31.495ZM28.674 18.082V19.447H35.226V18.082H28.674ZM31.105 16.392V18.784H32.834V16.392H31.105ZM36.175 16.119V28.157H37.917V16.119H36.175ZM37.527 20.786V22.216H39.659V20.786H37.527Z" fill="#353535"/>
<path d="M49.0959 16.119V28.157H50.7469V16.119H49.0959ZM47.5229 20.76V22.138H49.5249V20.76H47.5229ZM46.4049 16.327V27.585H48.0169V16.327H46.4049ZM40.9059 17.445V24.4H42.6349V17.445H40.9059ZM40.9059 23.75V25.232H41.7379C42.9599 25.232 44.3379 25.167 45.9109 24.881L45.7419 23.399C44.2469 23.685 42.8949 23.75 41.7379 23.75H40.9059Z" fill="#353535"/>
<path d="M53.5149 17.133V18.524H61.1459V17.133H53.5149ZM52.4099 25.31V26.714H63.2909V25.31H52.4099ZM56.2579 21.176V25.999H57.9869V21.176H56.2579ZM60.5219 17.133V18.29C60.5219 19.733 60.5219 21.475 60.0409 23.867L61.7699 24.062C62.2509 21.488 62.2509 19.798 62.2509 18.29V17.133H60.5219Z" fill="#353535"/>
<path d="M71.7732 16.808V17.679C71.7732 19.408 70.2782 21.319 67.5612 21.787L68.3022 23.217C71.4222 22.606 73.2812 20.292 73.2812 17.679V16.808H71.7732ZM72.1242 16.808V17.679C72.1242 20.331 73.9702 22.606 77.0902 23.217L77.8312 21.787C75.1012 21.319 73.6192 19.447 73.6192 17.679V16.808H72.1242ZM67.3142 25.284V26.688H78.2082V25.284H67.3142Z" fill="#353535"/>
<path d="M87.6972 19.382L80.1312 19.603L80.3392 21.059L87.6972 20.695V19.382ZM80.5342 16.782V18.147H88.0742V16.782H80.5342ZM79.2732 22.476V23.867H90.1542V22.476H79.2732ZM83.8362 23.581V28.144H85.5652V23.581H83.8362ZM87.2942 16.782V17.861C87.2942 19.148 87.2942 20.604 86.8132 22.632L88.4902 22.827C88.9582 20.669 88.9582 19.187 88.9582 17.861V16.782H87.2942Z" fill="#353535"/>
<path d="M99.6042 16.106V28.183H101.32V16.106H99.6042ZM96.8742 20.344V21.735H100.098V20.344H96.8742ZM91.6612 17.055V25.349H97.4462V17.055H95.7432V19.967H93.3772V17.055H91.6612ZM93.3772 21.306H95.7432V23.958H93.3772V21.306Z" fill="#353535"/>
<path d="M113.819 16.106V28.183H115.561V16.106H113.819ZM115.171 20.565V21.982H117.303V20.565H115.171ZM106.591 23.854V25.284H107.605C109.698 25.284 111.349 25.232 113.169 24.907L113 23.477C111.232 23.789 109.633 23.854 107.605 23.854H106.591ZM106.591 17.224V24.543H108.307V18.615H112.207V17.224H106.591Z" fill="#353535"/>
<path d="M126.337 16.106V28.183H128.079V16.106H126.337ZM121.592 16.951C119.772 16.951 118.433 18.615 118.433 21.241C118.433 23.893 119.772 25.557 121.592 25.557C123.412 25.557 124.751 23.893 124.751 21.241C124.751 18.615 123.412 16.951 121.592 16.951ZM121.592 18.524C122.489 18.524 123.087 19.473 123.087 21.241C123.087 23.035 122.489 23.997 121.592 23.997C120.695 23.997 120.084 23.035 120.084 21.241C120.084 19.473 120.695 18.524 121.592 18.524Z" fill="#353535"/>
<path d="M130.652 16.847V22.567H136.502V16.847H134.786V18.394H132.355V16.847H130.652ZM132.355 19.733H134.786V21.215H132.355V19.733ZM138.309 16.132V23.308H140.051V16.132H138.309ZM135.969 23.516C133.434 23.516 131.861 24.387 131.861 25.843C131.861 27.312 133.434 28.157 135.969 28.157C138.504 28.157 140.103 27.312 140.103 25.843C140.103 24.387 138.504 23.516 135.969 23.516ZM135.969 24.842C137.542 24.842 138.374 25.167 138.374 25.843C138.374 26.506 137.542 26.844 135.969 26.844C134.409 26.844 133.59 26.506 133.59 25.843C133.59 25.167 134.409 24.842 135.969 24.842Z" fill="#353535"/>
<path d="M146.797 27.182C148.123 27.182 149.267 26.675 149.917 26.025V21.696H146.485V23.269H148.201V25.167C147.928 25.388 147.46 25.518 146.992 25.518C145.107 25.518 144.145 24.27 144.145 22.164C144.145 20.11 145.25 18.862 146.862 18.862C147.72 18.862 148.266 19.213 148.747 19.668L149.761 18.433C149.137 17.809 148.175 17.211 146.797 17.211C144.236 17.211 142.182 19.057 142.182 22.229C142.182 25.44 144.184 27.182 146.797 27.182Z" fill="#353535"/>
<path d="M155.804 27.182C158.352 27.182 160.094 25.284 160.094 22.151C160.094 19.031 158.352 17.211 155.804 17.211C153.243 17.211 151.501 19.018 151.501 22.151C151.501 25.284 153.243 27.182 155.804 27.182ZM155.804 25.518C154.361 25.518 153.464 24.205 153.464 22.151C153.464 20.097 154.361 18.862 155.804 18.862C157.234 18.862 158.144 20.097 158.144 22.151C158.144 24.205 157.234 25.518 155.804 25.518Z" fill="#353535"/>
<path d="M162.584 23.724H163.832L164.105 18.927L164.157 17.12H162.246L162.298 18.927L162.584 23.724ZM163.195 27.182C163.884 27.182 164.391 26.649 164.391 25.934C164.391 25.219 163.884 24.699 163.195 24.699C162.519 24.699 162.012 25.219 162.012 25.934C162.012 26.649 162.519 27.182 163.195 27.182Z" fill="#353535"/>
<rect x="16" y="68" width="45" height="19" rx="9.5" fill="#EB5757" fill-opacity="0.05"/>
<path d="M32.5658 72.985H31.5358V79.545H32.5658V72.985ZM26.3058 75.845C26.3058 75.015 26.8958 74.475 27.6958 74.475C28.4858 74.475 29.0858 75.015 29.0858 75.845C29.0858 76.665 28.4858 77.215 27.6958 77.215C26.8958 77.215 26.3058 76.665 26.3058 75.845ZM30.0858 75.845C30.0858 74.525 29.0558 73.585 27.6958 73.585C26.3358 73.585 25.2958 74.525 25.2958 75.845C25.2958 77.155 26.3358 78.105 27.6958 78.105C29.0558 78.105 30.0858 77.155 30.0858 75.845ZM27.7058 81.005V78.885H26.6658V81.845H32.8258V81.005H27.7058Z" fill="#EB5757"/>
<path d="M34.835 73.935V74.775H38.055C37.875 76.855 36.755 78.445 34.385 79.585L34.935 80.405C38.035 78.905 39.115 76.625 39.115 73.935H34.835ZM40.745 72.985V82.015H41.775V72.985H40.745Z" fill="#EB5757"/>
<path d="M45.5142 80.265H50.6942V77.865H44.4642V78.685H49.6642V79.495H44.4842V81.925H50.9242V81.115H45.5142V80.265ZM50.4942 76.265C50.6842 75.305 50.6842 74.545 50.6842 73.955V73.355H44.5542V74.185H49.6742C49.6742 74.745 49.6442 75.405 49.4642 76.265H43.5242V77.095H51.7042V76.265H50.4942Z" fill="#EB5757"/>
<g opacity="0.9">
<path d="M172.104 25.112C173.152 25.112 173.992 24.48 173.992 23.44C173.992 22.632 173.432 22.112 172.744 21.944V21.912C173.368 21.688 173.784 21.216 173.784 20.504C173.784 19.568 173.064 19.032 172.08 19.032C171.408 19.032 170.888 19.328 170.448 19.728L170.84 20.2C171.168 19.864 171.584 19.624 172.056 19.624C172.664 19.624 173.04 19.992 173.04 20.552C173.04 21.192 172.632 21.672 171.424 21.672V22.24C172.776 22.24 173.248 22.704 173.248 23.408C173.248 24.08 172.752 24.504 172.056 24.504C171.384 24.504 170.944 24.184 170.6 23.824L170.232 24.304C170.616 24.728 171.184 25.112 172.104 25.112Z" fill="#939393"/>
<path d="M176.741 19.016V20.312C176.741 21.68 175.869 23.064 174.797 23.576L175.205 24.12C176.389 23.52 177.285 21.976 177.285 20.312V19.016H176.741ZM176.853 19.016V20.312C176.853 21.92 177.757 23.408 178.933 23.984L179.333 23.456C178.261 22.96 177.397 21.632 177.397 20.312V19.016H176.853ZM180.085 18.384V25.632H180.749V18.384H180.085Z" fill="#939393"/>
<path d="M187.141 18.392V23.68H187.805V18.392H187.141ZM187.597 20.584V21.136H188.877V20.584H187.597ZM185.165 18.952V19.24C185.165 20.632 184.021 21.752 182.197 22.312L182.485 22.856C184.557 22.192 185.869 20.824 185.869 18.952H185.165ZM182.493 18.952V19.496H185.501V18.952H182.493ZM183.293 24.92V25.464H188.125V24.92H183.293ZM183.293 23.144V25.136H183.957V23.144H183.293Z" fill="#939393"/>
<path d="M193.388 20.384V20.928H195.212V20.384H193.388ZM194.836 18.4V23.696H195.5V18.4H194.836ZM190.884 24.92V25.464H195.7V24.92H190.884ZM190.884 23.232V25.2H191.548V23.232H190.884ZM191.396 19.296V19.88C191.396 20.904 190.652 21.864 189.572 22.248L189.916 22.776C191.124 22.328 191.94 21.192 191.94 19.88V19.296H191.396ZM191.524 19.296V19.872C191.524 21.096 192.3 22.184 193.476 22.608L193.812 22.088C192.764 21.72 192.06 20.808 192.06 19.872V19.296H191.524ZM189.78 18.984V19.52H193.644V18.984H189.78Z" fill="#939393"/>
</g>
<rect x="217" y="32" width="37.7143" height="36" rx="10" fill="#C4C4C4"/>
<g clip-path="url(#clip0_290_140)">
<path d="M235.857 49.7584C238.76 49.7584 241.114 47.3181 241.114 44.3078C241.114 41.2975 238.76 38.8572 235.857 38.8572C232.953 38.8572 230.6 41.2975 230.6 44.3078C230.6 47.3181 232.953 49.7584 235.857 49.7584Z" fill="white"/>
<path d="M230.824 51.6558H240.89C243.79 51.6558 246.143 54.0947 246.143 57.102V61.1384H225.571V57.102C225.571 54.0947 227.924 51.6558 230.824 51.6558V51.6558Z" fill="white"/>
</g>
<path d="M227.602 22.75V23.695H232.084V25.801H233.29V22.75H227.602ZM232.084 17.467V22.354H233.29V17.467H232.084ZM228.754 17.917C227.458 17.917 226.486 18.772 226.486 19.96C226.486 21.148 227.458 21.994 228.754 21.994C230.041 21.994 231.013 21.148 231.013 19.96C231.013 18.772 230.041 17.917 228.754 17.917ZM228.754 18.934C229.384 18.934 229.843 19.303 229.843 19.96C229.843 20.617 229.384 20.995 228.754 20.995C228.124 20.995 227.656 20.617 227.656 19.96C227.656 19.303 228.124 18.934 228.754 18.934Z" fill="#353535" fill-opacity="0.96"/>
<path d="M238.671 18.673V19.618H240.795V18.673H238.671ZM238.671 20.338V21.292H240.831V20.338H238.671ZM240.417 17.467V22.345H241.614V17.467H240.417ZM234.981 18.07V21.895H238.923V18.07H234.981ZM237.744 19.015V20.959H236.16V19.015H237.744ZM238.788 22.561C237.024 22.561 235.935 23.164 235.935 24.181C235.935 25.207 237.024 25.801 238.788 25.801C240.552 25.801 241.641 25.207 241.641 24.181C241.641 23.164 240.552 22.561 238.788 22.561ZM238.788 23.479C239.877 23.479 240.453 23.704 240.453 24.181C240.453 24.658 239.877 24.892 238.788 24.892C237.708 24.892 237.132 24.658 237.132 24.181C237.132 23.704 237.708 23.479 238.788 23.479Z" fill="#353535" fill-opacity="0.96"/>
<path d="M218.01 83.14C219.14 83.14 220.11 82.18 220.11 80.76C220.11 79.22 219.31 78.46 218.07 78.46C217.48 78.46 216.8 78.82 216.35 79.41L216.38 80.14C216.87 79.41 217.46 79.13 217.93 79.13C218.81 79.13 219.25 79.76 219.25 80.76C219.25 81.75 218.71 82.42 218.01 82.42C216.98 82.42 216.41 81.39 216.41 79.51C216.41 77.11 217.27 76.3 218.3 76.3C218.74 76.3 219.19 76.51 219.47 76.85L219.98 76.29C219.58 75.86 219.02 75.54 218.26 75.54C216.84 75.54 215.55 76.64 215.55 79.51C215.55 81.93 216.6 83.14 218.01 83.14Z" fill="#939393"/>
<path d="M211.182 76.1107C210.262 75.1289 208.764 75.1306 207.844 76.1107L207.395 76.5901L206.945 76.1107C206.025 75.1289 204.527 75.1306 203.607 76.1107C202.687 77.0925 202.687 78.6895 203.607 79.6695L204.192 80.2935L207.259 83.5651C207.295 83.6038 207.343 83.625 207.395 83.625C207.446 83.625 207.494 83.6038 207.53 83.5651L210.597 80.2935L211.182 79.6695C212.101 78.6877 212.101 77.0907 211.182 76.1107Z" stroke="#939393" stroke-width="0.8"/>
<path d="M246.01 83.14C247.14 83.14 248.11 82.18 248.11 80.76C248.11 79.22 247.31 78.46 246.07 78.46C245.48 78.46 244.8 78.82 244.35 79.41L244.38 80.14C244.87 79.41 245.46 79.13 245.93 79.13C246.81 79.13 247.25 79.76 247.25 80.76C247.25 81.75 246.71 82.42 246.01 82.42C244.98 82.42 244.41 81.39 244.41 79.51C244.41 77.11 245.27 76.3 246.3 76.3C246.74 76.3 247.19 76.51 247.47 76.85L247.98 76.29C247.58 75.86 247.02 75.54 246.26 75.54C244.84 75.54 243.55 76.64 243.55 79.51C243.55 81.93 244.6 83.14 246.01 83.14Z" fill="#939393"/>
<path d="M231.19 82.1053H233.452L234.81 83.9052C234.832 83.9346 234.86 83.9585 234.894 83.975C234.927 83.9914 234.963 84 235 84C235.037 84 235.073 83.9914 235.106 83.975C235.14 83.9585 235.168 83.9346 235.19 83.9052L236.548 82.1053H238.81C239.125 82.1049 239.428 81.9801 239.651 81.7581C239.874 81.536 240 81.235 240 80.9211V76.1842C240 75.8702 239.874 75.5692 239.651 75.3472C239.428 75.1252 239.125 75.0003 238.81 75H231.19C230.875 75.0004 230.572 75.1253 230.349 75.3473C230.126 75.5693 230 75.8703 230 76.1842V80.9211C230 81.235 230.126 81.536 230.349 81.758C230.572 81.98 230.875 82.1049 231.19 82.1053ZM230.476 76.1842C230.476 75.9958 230.552 75.8152 230.686 75.682C230.82 75.5488 231.001 75.4739 231.19 75.4737H238.81C238.999 75.4739 239.18 75.5488 239.314 75.682C239.448 75.8152 239.524 75.9958 239.524 76.1842V80.9211C239.524 81.1094 239.448 81.29 239.314 81.4232C239.18 81.5564 238.999 81.6314 238.81 81.6316H236.429C236.392 81.6316 236.355 81.6402 236.322 81.6567C236.289 81.6731 236.26 81.697 236.238 81.7264L235 83.3683L233.762 81.7264C233.74 81.697 233.711 81.6731 233.678 81.6566C233.645 81.6402 233.608 81.6316 233.571 81.6316H231.19C231.001 81.6314 230.82 81.5564 230.686 81.4232C230.552 81.29 230.476 81.1094 230.476 80.9211V76.1842Z" fill="#939393" stroke="#939393" stroke-width="0.3"/>
<defs>
<filter id="filter0_d_290_140" x="0" y="0" width="266" height="104" filterUnits="userSpaceOnUse" color-interpolation-filters="sRGB">
<feFlood flood-opacity="0" result="BackgroundImageFix"/>
<feColorMatrix in="SourceAlpha" type="matrix" values="0 0 0 0 0 0 0 0 0 0 0 0 0 0 0 0 0 0 127 0" result="hardAlpha"/>
<feOffset dy="4"/>
<feGaussianBlur stdDeviation="2"/>
<feComposite in2="hardAlpha" operator="out"/>
<feColorMatrix type="matrix" values="0 0 0 0 0 0 0 0 0 0 0 0 0 0 0 0 0 0 0.25 0"/>
<feBlend mode="normal" in2="BackgroundImageFix" result="effect1_dropShadow_290_140"/>
<feBlend mode="normal" in="SourceGraphic" in2="effect1_dropShadow_290_140" result="shape"/>
</filter>
<clipPath id="clip0_290_140">
<rect width="20.5714" height="22.2857" fill="white" transform="translate(225.571 38.8572)"/>
</clipPath>
</defs>
</svg>
