<svg width="20" height="19" viewBox="0 0 20 19" fill="none" xmlns="http://www.w3.org/2000/svg">
<path d="M9.79981 1.1875C8.15575 1.1875 6.54861 1.67502 5.18163 2.58841C3.81465 3.5018 2.74921 4.80003 2.12006 6.31894C1.49091 7.83785 1.32629 9.50922 1.64703 11.1217C1.96777 12.7342 2.75946 14.2153 3.92198 15.3778C5.08451 16.5403 6.56565 17.332 8.17812 17.6528C9.79059 17.9735 11.462 17.8089 12.9809 17.1797C14.4998 16.5506 15.798 15.4852 16.7114 14.1182C17.6248 12.7512 18.1123 11.1441 18.1123 9.5C18.1098 7.29615 17.2333 5.18327 15.6749 3.62491C14.1165 2.06655 12.0037 1.18997 9.79981 1.1875ZM9.79981 17.0208C8.31233 17.0208 6.85825 16.5797 5.62146 15.7533C4.38466 14.9269 3.4207 13.7523 2.85146 12.3781C2.28223 11.0038 2.13329 9.49166 2.42349 8.03276C2.71368 6.57386 3.42997 5.23378 4.48178 4.18197C5.53358 3.13016 6.87367 2.41387 8.33257 2.12368C9.79147 1.83348 11.3037 1.98242 12.6779 2.55166C14.0522 3.12089 15.2268 4.08485 16.0532 5.32165C16.8796 6.55844 17.3206 8.01252 17.3206 9.5C17.3184 11.494 16.5253 13.4056 15.1153 14.8155C13.7054 16.2255 11.7938 17.0186 9.79981 17.0208ZM10.1956 5.54167V11.0833C10.1956 11.1883 10.1539 11.289 10.0797 11.3632C10.0055 11.4375 9.90479 11.4792 9.79981 11.4792C9.69483 11.4792 9.59414 11.4375 9.51991 11.3632C9.44568 11.289 9.40398 11.1883 9.40398 11.0833V5.54167C9.40398 5.43669 9.44568 5.336 9.51991 5.26177C9.59414 5.18754 9.69483 5.14583 9.79981 5.14583C9.90479 5.14583 10.0055 5.18754 10.0797 5.26177C10.1539 5.336 10.1956 5.43669 10.1956 5.54167ZM10.1956 13.0625C10.1956 13.1408 10.1724 13.2173 10.1289 13.2824C10.0854 13.3475 10.0236 13.3982 9.95129 13.4282C9.87896 13.4582 9.79937 13.466 9.72258 13.4507C9.6458 13.4355 9.57527 13.3978 9.51991 13.3424C9.46455 13.287 9.42685 13.2165 9.41158 13.1397C9.39631 13.0629 9.40415 12.9833 9.43411 12.911C9.46407 12.8387 9.5148 12.7769 9.5799 12.7334C9.64499 12.6899 9.72152 12.6667 9.79981 12.6667C9.90479 12.6667 10.0055 12.7084 10.0797 12.7826C10.1539 12.8568 10.1956 12.9575 10.1956 13.0625Z" fill="#939393"/>
</svg>
