<svg width="52" height="52" viewBox="0 0 52 52" fill="none" xmlns="http://www.w3.org/2000/svg">
<path d="M42.125 15.7188H10.625C9.17525 15.7188 8 16.922 8 18.4062V39.9062C8 41.3905 9.17525 42.5938 10.625 42.5938H42.125C43.5747 42.5938 44.75 41.3905 44.75 39.9062V18.4062C44.75 16.922 43.5747 15.7188 42.125 15.7188Z" stroke="#4C4338" stroke-linejoin="round"/>
<path d="M22.4375 9H30.3125C30.6606 9 30.9944 9.14157 31.2406 9.39358C31.4867 9.64558 31.625 9.98737 31.625 10.3438V15.7188H21.125V10.3438C21.125 9.98737 21.2633 9.64558 21.5094 9.39358C21.7556 9.14157 22.0894 9 22.4375 9V9Z" stroke="#4C4338" stroke-linejoin="round"/>
<path d="M38.1875 15.7188C38.1881 17.5005 38.8797 19.209 40.1103 20.4689C41.3409 21.7288 43.0097 22.4369 44.75 22.4375" stroke="#4C4338" stroke-linejoin="round"/>
<path d="M8 22.4375C9.74029 22.4369 11.4091 21.7288 12.6397 20.4689C13.8703 19.209 14.5619 17.5005 14.5625 15.7188" stroke="#4C4338" stroke-linejoin="round"/>
<path d="M38.1875 42.5938C38.1881 40.812 38.8797 39.1035 40.1103 37.8436C41.3409 36.5837 43.0097 35.8756 44.75 35.875" stroke="#4C4338" stroke-linejoin="round"/>
<path d="M8 35.875C9.74029 35.8756 11.4091 36.5837 12.6397 37.8436C13.8703 39.1035 14.5619 40.812 14.5625 42.5938" stroke="#4C4338" stroke-linejoin="round"/>
<path d="M32.9375 27.3806C32.9375 32.4196 26.375 35.2991 26.375 35.2991C26.375 35.2991 19.8125 32.4196 19.8125 27.3806C19.8124 26.5878 20.0681 25.8172 20.5397 25.1884C21.0113 24.5596 21.6724 24.1078 22.4206 23.9032C23.1687 23.6986 23.9618 23.7526 24.6769 24.0568C25.392 24.3611 25.9889 24.8985 26.375 25.5857C26.7611 24.8985 27.358 24.3611 28.0731 24.0568C28.7882 23.7526 29.5813 23.6986 30.3294 23.9032C31.0776 24.1078 31.7387 24.5596 32.2103 25.1884C32.6819 25.8172 32.9376 26.5878 32.9375 27.3806Z" stroke="#D0DB23" stroke-linejoin="round"/>
</svg>
