<svg width="24" height="24" viewBox="0 0 24 24" fill="none" xmlns="http://www.w3.org/2000/svg">
<path d="M15.9999 12.65C16.0853 12.65 16.1699 12.6333 16.2488 12.6006C16.3276 12.568 16.3993 12.5201 16.4597 12.4597C16.5201 12.3993 16.568 12.3276 16.6006 12.2487C16.6333 12.1699 16.6501 12.0853 16.65 11.9999L12 12.5M15.9999 12.65L16 12.5V12.65H15.9999ZM15.9999 12.65H12.0001M12.0001 12.65L12 12.5M12.0001 12.65H12V12.5M12.0001 12.65C11.9147 12.65 11.8301 12.6333 11.7513 12.6006C11.6724 12.568 11.6007 12.5201 11.5403 12.4597C11.4799 12.3993 11.432 12.3276 11.3994 12.2487C11.3667 12.1699 11.35 12.0853 11.35 11.9999M12 12.5L11.5 6C11.5 5.86739 11.5527 5.74021 11.6465 5.64645C11.7402 5.55268 11.8674 5.5 12 5.5C12.1326 5.5 12.2598 5.55268 12.3536 5.64645C12.4473 5.74021 12.5 5.86739 12.5 6V11.35H12.65M11.35 11.9999L11.5 12H11.35V11.9999ZM11.35 11.9999V6C11.35 5.82761 11.4185 5.66228 11.5404 5.54038C11.6623 5.41848 11.8276 5.35 12 5.35C12.1724 5.35 12.3377 5.41848 12.4596 5.54038C12.5815 5.66228 12.65 5.82761 12.65 6V11.35M12.65 11.35H15.9999L12.65 11.5M12.65 11.35V11.5M12.65 11.5H16C16.0657 11.5 16.1307 11.5129 16.1914 11.538C16.2521 11.5631 16.3072 11.5999 16.3536 11.6464C16.4001 11.6928 16.4369 11.7479 16.462 11.8086C16.4871 11.8693 16.5 11.9343 16.5 12L12.65 11.5ZM19.7742 6.80542C20.8016 8.34297 21.35 10.1506 21.35 11.9998C21.3472 14.4788 20.3612 16.8554 18.6083 18.6083C16.8554 20.3612 14.4788 21.3472 11.9998 21.35C10.1506 21.35 8.34298 20.8016 6.80542 19.7742C5.26782 18.7469 4.06941 17.2866 3.36173 15.5781C2.65405 13.8696 2.46889 11.9896 2.82966 10.1759C3.19043 8.36218 4.08094 6.69617 5.38856 5.38855C6.69618 4.08093 8.36219 3.19043 10.1759 2.82966C11.9896 2.46889 13.8696 2.65405 15.5781 3.36173C17.2866 4.06941 18.7469 5.26782 19.7742 6.80542ZM22.65 12V11.9998C22.6469 9.17627 21.5239 6.46923 19.5273 4.47267C17.5308 2.4761 14.8237 1.35308 12.0002 1.35L12 1.5V1.35C9.89363 1.35 7.83457 1.97461 6.08318 3.14485C4.3318 4.31509 2.96676 5.97839 2.16069 7.92442C1.35461 9.87045 1.14371 12.0118 1.55464 14.0777C1.96557 16.1436 2.97989 18.0413 4.46932 19.5307C5.95875 21.0201 7.85639 22.0344 9.92229 22.4454C11.9882 22.8563 14.1295 22.6454 16.0756 21.8393C18.0216 21.0332 19.6849 19.6682 20.8552 17.9168C22.0254 16.1654 22.65 14.1064 22.65 12Z" fill="#D0DB23" stroke="#D0DB23" stroke-width="0.3"/>
</svg>
