<svg width="22" height="22" viewBox="0 0 22 22" fill="none" xmlns="http://www.w3.org/2000/svg">
<path d="M19.702 20.1851H2.1626V22H19.702V20.1851Z" fill="#C0C0C2"/>
<path d="M16.3903 18.3201H5.47386C4.95154 18.3201 4.53369 17.9191 4.53369 17.4177V10.2181C4.53369 6.82881 7.40644 4.07129 10.9373 4.07129C14.4682 4.07129 17.3409 6.82881 17.3409 10.2181V17.4177C17.3409 17.9191 16.9126 18.3201 16.4007 18.3201H16.3903ZM6.41403 16.5052H15.4501V10.208C15.4501 7.82152 13.4235 5.87621 10.9373 5.87621C8.45107 5.87621 6.42448 7.82152 6.42448 10.208V16.5052H6.41403Z" fill="#C0C0C2"/>
<path d="M11.8776 0H9.98682V2.48678H11.8776V0Z" fill="#C0C0C2"/>
<path d="M17.8524 1.90125L16.0205 3.65967L17.3575 4.94303L19.1894 3.18461L17.8524 1.90125Z" fill="#C0C0C2"/>
<path d="M4.02498 1.89095L2.68799 3.17432L4.51988 4.93274L5.85687 3.64937L4.02498 1.89095Z" fill="#C0C0C2"/>
<path d="M21.9999 8.35254H19.4092V10.1675H21.9999V8.35254Z" fill="#C0C0C2"/>
<path d="M2.59069 8.35254H0V10.1675H2.59069V8.35254Z" fill="#C0C0C2"/>
</svg>
