<svg width="37" height="37" viewBox="0 0 37 37" fill="none" xmlns="http://www.w3.org/2000/svg">
<circle cx="18.5" cy="18.5" r="18.5" fill="#E3EF27"/>
<path d="M12.65 19.6495L12.65 24.9994L12.65 24.9995M12.65 19.6495L14 26.4995C13.6023 26.4991 13.221 26.3409 12.9398 26.0597C12.6586 25.7785 12.5004 25.3972 12.5 24.9995H12.65M12.65 19.6495H18.35V26.3495H14.0002M12.65 19.6495L14.0002 26.3495M12.65 24.9995C12.6504 25.3574 12.7928 25.7006 13.0459 25.9536C13.299 26.2068 13.6422 26.3491 14.0002 26.3495M12.65 24.9995L14.0002 26.3495M12.7256 12.3495H12L11.9998 12.3495C11.2973 12.3503 10.6238 12.6298 10.127 13.1265C9.63027 13.6233 9.35082 14.2968 9.35 14.9993V14.9995L9.35 16.9995L9.35 16.9997C9.35082 17.6103 9.56211 18.2018 9.94825 18.6747C10.3084 19.1158 10.8002 19.4285 11.35 19.5683L11.35 24.9995L11.35 24.9997C11.3508 25.7022 11.6303 26.3757 12.127 26.8725C12.6238 27.3693 13.2973 27.6487 13.9998 27.6495H14H24H24.0002C24.7027 27.6487 25.3762 27.3693 25.873 26.8725C26.3697 26.3757 26.6492 25.7022 26.65 24.9997V24.9995V19.5683C27.1998 19.4285 27.6916 19.1158 28.0518 18.6747C28.4379 18.2018 28.6492 17.6103 28.65 16.9997V16.9995V14.9995V14.9993C28.6492 14.2968 28.3697 13.6233 27.873 13.1265C27.3762 12.6298 26.7027 12.3503 26.0002 12.3495H26H25.2744C25.4838 11.9997 25.6102 11.605 25.642 11.196C25.6814 10.69 25.5745 10.1834 25.334 9.73649C25.0935 9.2896 24.7296 8.92127 24.2857 8.67541C23.8431 8.43036 23.3397 8.31728 22.8349 8.34952C20.8191 8.35205 19.6314 9.91372 19 11.1732C18.3686 9.91372 17.1809 8.35205 15.1651 8.34952C14.6603 8.31728 14.1569 8.43036 13.7143 8.67541C13.2704 8.92127 12.9065 9.2896 12.666 9.73649C12.4255 10.1834 12.3186 10.69 12.358 11.196C12.3898 11.605 12.5162 11.9997 12.7256 12.3495ZM22.8398 9.64952H22.8474L22.855 9.64875C23.0439 9.62955 23.2348 9.65018 23.4152 9.70932C23.5956 9.76846 23.7616 9.86479 23.9025 9.99208C24.0434 10.1194 24.1561 10.2748 24.2331 10.4483C24.3102 10.6219 24.35 10.8096 24.35 10.9995C24.35 11.1894 24.3102 11.3772 24.2331 11.5507C24.1561 11.7242 24.0434 11.8797 23.9025 12.007C23.7616 12.1343 23.5956 12.2306 23.4152 12.2897C23.2348 12.3489 23.0439 12.3695 22.855 12.3503L22.8474 12.3495H22.8398H19.8998C20.0938 11.8603 20.3984 11.2346 20.8346 10.7081C21.3325 10.1071 21.9892 9.64952 22.8398 9.64952ZM15.1439 9.64864L15.152 9.64952H15.1602C16.0073 9.64952 16.663 10.1069 17.1614 10.708C17.5977 11.2345 17.9034 11.8602 18.0985 12.3495H15.1602H15.152L15.1439 12.3504C14.9549 12.371 14.7636 12.3514 14.5827 12.2928C14.4018 12.2343 14.2353 12.1381 14.0942 12.0106C13.9531 11.8831 13.8406 11.7272 13.764 11.5531C13.6875 11.3791 13.6486 11.1908 13.65 11.0006L13.65 10.9984C13.6486 10.8083 13.6875 10.62 13.764 10.4459C13.8406 10.2718 13.9531 10.1159 14.0942 9.98844C14.2353 9.86095 14.4018 9.76477 14.5827 9.7062C14.7636 9.64764 14.9549 9.62802 15.1439 9.64864ZM25.35 24.9994C25.3496 25.3573 25.2072 25.7005 24.9541 25.9536C24.701 26.2068 24.3578 26.3491 23.9998 26.3495H19.65V19.6495H25.35V24.9994ZM27.35 14.9997V16.9994C27.3496 17.3573 27.2072 17.7005 26.9541 17.9536C26.701 18.2068 26.3578 18.3491 25.9998 18.3495H19.65V13.6495H25.9998C26.3578 13.6499 26.701 13.7923 26.9541 14.0454C27.2072 14.2985 27.3496 14.6417 27.35 14.9997ZM10.65 14.9997C10.6504 14.6417 10.7928 14.2985 11.0459 14.0454C11.299 13.7923 11.6422 13.6499 12.0002 13.6495H18.35V18.3495H12.0002C11.6422 18.3491 11.299 18.2068 11.0459 17.9536C10.7928 17.7005 10.6504 17.3573 10.65 16.9994V14.9997Z" fill="#4C4338" stroke="#4C4338" stroke-width="0.3"/>
</svg>
