<svg width="37" height="37" viewBox="0 0 37 37" fill="none" xmlns="http://www.w3.org/2000/svg">
<circle cx="18.5" cy="18.5" r="18.5" fill="#E3EF27"/>
<path d="M19.2389 7.35373L19.2389 7.35378C21.259 7.46901 23.1567 8.35889 24.5372 9.83818C25.9174 11.3172 26.6741 13.2716 26.6499 15.2944L26.6499 19.9997L26.6499 20.0001H26.4999C26.5012 20.5408 26.6765 21.0667 26.9999 21.5001L19.2389 7.35373ZM19.2389 7.35373L19.235 7.35361C18.211 7.32214 17.1912 7.49664 16.236 7.86675C15.2808 8.23686 14.4097 8.79505 13.6743 9.5082C12.9389 10.2214 12.3542 11.0749 11.9549 12.0183C11.5556 12.9617 11.3499 13.9757 11.3499 15.0001V19.9999C11.3488 20.5083 11.184 21.0027 10.8799 21.4101C10.5846 21.8038 10.4049 22.272 10.3607 22.7621C10.3165 23.2522 10.4097 23.745 10.6298 24.1851C10.8499 24.6253 11.1882 24.9955 11.6068 25.2542C12.0254 25.513 12.5078 25.65 12.9999 25.6501H15.4223M19.2389 7.35373L22.5774 25.6501M22.5774 25.6501C22.585 25.6072 22.5918 25.5641 22.5979 25.5209L22.4493 25.5001V25.6501H22.5774ZM22.5774 25.6501C22.4328 26.4673 22.0123 27.212 21.3841 27.7583C20.7229 28.3334 19.8761 28.6501 18.9999 28.6501C18.1236 28.6501 17.2769 28.3334 16.6157 27.7583C15.9875 27.212 15.567 26.4673 15.4223 25.6501M15.4223 25.6501H15.5504V25.5001L15.4019 25.5209C15.4079 25.5641 15.4148 25.6072 15.4223 25.6501ZM11.9198 22.19L11.9197 22.1902C11.7693 22.3908 11.6777 22.6293 11.6552 22.879C11.6327 23.1287 11.6801 23.3797 11.7923 23.6039C11.9044 23.8282 12.0768 24.0168 12.2901 24.1485C12.5034 24.2803 12.7491 24.3501 12.9999 24.3501H24.9999H24.9999C25.2507 24.3502 25.4965 24.2804 25.7098 24.1485C25.9232 24.0167 26.0955 23.828 26.2076 23.6037C26.3197 23.3794 26.367 23.1282 26.3443 22.8785C26.3216 22.6288 26.2298 22.3903 26.0791 22.1898L26.0788 22.1894C25.6071 21.5569 25.3515 20.7894 25.3498 20.0004L25.3498 20.0001L25.3498 15.2935V15.2913L25.3498 15.2913C25.3749 13.6048 24.7487 11.9737 23.6016 10.7372C22.4548 9.50126 20.8758 8.7549 19.1928 8.65334C19.1282 8.65104 19.0632 8.65008 18.9979 8.65008L11.9198 22.19ZM11.9198 22.19C12.3924 21.5577 12.6484 20.7898 12.6499 20.0004V20.0001M11.9198 22.19L12.6499 20.0001M12.6499 20.0001V15.0001M12.6499 20.0001V15.0001M12.6499 15.0001C12.6498 13.3163 13.3186 11.7014 14.509 10.5106M12.6499 15.0001L14.509 10.5106M14.509 10.5106C15.6995 9.31981 17.3141 8.65058 18.9979 8.65008L14.509 10.5106ZM18.9999 27.3501C18.4584 27.3493 17.9338 27.1619 17.5144 26.8195C17.143 26.5162 16.8743 26.1078 16.7419 25.6501H21.2579C21.1256 26.1079 20.8568 26.5163 20.4854 26.8195C20.066 27.162 19.5414 27.3494 18.9999 27.3501Z" fill="#4C4338" stroke="#4C4338" stroke-width="0.3"/>
</svg>
