<svg width="21" height="26" viewBox="0 0 21 26" fill="none" xmlns="http://www.w3.org/2000/svg">
<path d="M8.97999 24.8015L10.0007 25.3113C10.0846 25.3532 10.1771 25.375 10.2709 25.375C10.3647 25.375 10.4572 25.3532 10.5411 25.3113L11.5619 24.8015C14.2666 23.4601 16.5414 21.3878 18.1286 18.8196C19.7157 16.2514 20.5517 13.2899 20.5418 10.2708C20.5418 7.54684 19.4597 4.93441 17.5335 3.00826C15.6073 1.0821 12.9949 0 10.2709 0C7.54693 0 4.9345 1.0821 3.00835 3.00826C1.08219 4.93441 8.75913e-05 7.54684 8.75913e-05 10.2708C-0.00985083 13.2899 0.826133 16.2514 2.41329 18.8196C4.00044 21.3878 6.27528 23.4601 8.97999 24.8015ZM10.2709 14.5C11.1074 14.5 11.925 14.252 12.6205 13.7873C13.316 13.3226 13.8581 12.662 14.1782 11.8893C14.4983 11.1165 14.582 10.2661 14.4188 9.44576C14.2556 8.62539 13.8529 7.87182 13.2614 7.28036C12.6699 6.6889 11.9164 6.28611 11.096 6.12293C10.2756 5.95975 9.42527 6.0435 8.65249 6.36359C7.87971 6.68369 7.2192 7.22575 6.7545 7.92123C6.28979 8.61672 6.04175 9.43438 6.04175 10.2708C6.04311 11.3921 6.48912 12.467 7.28195 13.2598C8.07477 14.0526 9.14969 14.4986 10.2709 14.5Z" fill="#D0DB23"/>
<circle cx="10.2705" cy="8.6875" r="4.5" fill="white"/>
</svg>
