<svg width="16" height="16" viewBox="0 0 16 16" fill="none" xmlns="http://www.w3.org/2000/svg">
<path d="M1.66667 8C1.66502 6.73083 2.04522 5.49051 2.75785 4.44029C3.47048 3.39007 4.48257 2.57852 5.66256 2.11115C6.84254 1.64377 8.13584 1.54219 9.37432 1.8196C10.5448 2.08178 11.6151 2.67101 12.4618 3.51667H12.2469M1.66667 8L0.850002 8.0001C0.850029 8.12825 0.900949 8.25115 0.991567 8.34177M1.66667 8C1.66667 8.08841 1.63155 8.17319 1.56904 8.2357C1.50653 8.29821 1.42174 8.33333 1.33334 8.33333C1.24493 8.33333 1.16014 8.29821 1.09763 8.2357M1.66667 8H1C1 8.08841 1.03512 8.17319 1.09763 8.2357M12.2469 3.51667C11.4383 2.74783 10.4346 2.21082 9.34154 1.96597C8.13242 1.69514 6.8698 1.79432 5.71779 2.25061C4.56579 2.7069 3.5777 3.4992 2.88198 4.52451C2.18625 5.54983 1.81506 6.76073 1.81667 7.99981L1.81667 8C1.81667 8.12819 1.76575 8.25113 1.6751 8.34177C1.58446 8.43241 1.46152 8.48333 1.33334 8.48333C1.20515 8.48333 1.08221 8.43241 0.991567 8.34177M12.2469 3.51667C12.2985 3.56573 12.3493 3.61573 12.3992 3.66667L13.3333 4.48333H13.3332M12.2469 3.51667H10.6667C10.5385 3.51667 10.4155 3.56759 10.3249 3.65823C10.2343 3.74888 10.1833 3.87181 10.1833 4C10.1833 4.12819 10.2343 4.25113 10.3249 4.34177C10.4155 4.43241 10.5385 4.48333 10.6667 4.48333H13.3332M0.991567 8.34177C0.991567 8.34177 0.991567 8.34177 0.991567 8.34177L1.09763 8.2357M0.991567 8.34177L1.09763 8.2357M12.85 2.75271C11.8988 1.87185 10.724 1.26474 9.45041 0.999777C8.05935 0.710384 6.61359 0.842296 5.29787 1.37866C3.98215 1.91502 2.85622 2.83148 2.06394 4.01093C1.27168 5.19035 0.849032 6.57919 0.850002 8L12.85 2.75271ZM12.85 2.75271V1.33333C12.85 1.20515 12.9009 1.08221 12.9916 0.991565C13.0822 0.900922 13.2051 0.85 13.3333 0.85C13.4615 0.85 13.5845 0.900922 13.6751 0.991565C13.7657 1.08221 13.8167 1.20515 13.8167 1.33333V3.99991V4L12.85 2.75271ZM13.3332 4.48333C13.3967 4.48337 13.4596 4.47089 13.5183 4.44661C13.577 4.42233 13.6303 4.38672 13.6752 4.34183L13.5691 4.23576L13.3332 4.48333ZM14.1833 8.00019V8.00009C14.1833 7.93659 14.1958 7.87371 14.2201 7.81505C14.2443 7.75638 14.2799 7.70307 14.3248 7.65818C14.3697 7.61328 14.423 7.57767 14.4817 7.55339C14.5404 7.52912 14.6032 7.51664 14.6667 7.51667M14.1833 8.00019L2.35866 11.8724C2.34191 11.9129 2.33331 11.9562 2.33334 12H2.18334V12.0001V14.6667C2.18334 14.7949 2.23426 14.9178 2.3249 15.0084C2.41554 15.0991 2.53848 15.15 2.66667 15.15C2.79486 15.15 2.91779 15.0991 3.00844 15.0084C3.09908 14.9178 3.15 14.7949 3.15 14.6667V13.2473C4.10115 14.1281 5.27597 14.7353 6.54959 15.0002C7.94065 15.2896 9.38641 15.1577 10.7021 14.6213C12.0179 14.085 13.1438 13.1685 13.9361 11.9891C14.7283 10.8096 15.151 9.4208 15.15 7.99999M14.1833 8.00019C14.1849 9.23927 13.8138 10.4502 13.118 11.4755C12.4223 12.5008 11.4342 13.2931 10.2822 13.7494C9.13021 14.2057 7.86758 14.3049 6.65847 14.034C5.56537 13.7892 4.56172 13.2522 3.75314 12.4833H5.33333C5.46152 12.4833 5.58446 12.4324 5.6751 12.3418C5.76575 12.2511 5.81667 12.1282 5.81667 12C5.81667 11.8718 5.76575 11.7489 5.6751 11.6582C5.58446 11.5676 5.46152 11.5167 5.33333 11.5167H2.66676H2.66667V11.6667L14.1833 8.00019ZM14.6667 7.51667C14.7301 7.51664 14.793 7.52912 14.8516 7.55339C14.9103 7.57767 14.9636 7.61328 15.0085 7.65817C15.0534 7.70307 15.089 7.75638 15.1133 7.81505C15.1375 7.87369 15.15 7.93653 15.15 7.99999M14.6667 7.51667C14.6666 7.51667 14.6666 7.51667 14.6666 7.51667L14.6667 7.66667L14.6668 7.51667C14.6667 7.51667 14.6667 7.51667 14.6667 7.51667ZM15.15 7.99999C15.15 8.00002 15.15 8.00005 15.15 8.00008L15 8L15.15 7.9999C15.15 7.99993 15.15 7.99996 15.15 7.99999Z" fill="#939393" stroke="#939393" stroke-width="0.3"/>
</svg>
