<svg width="24" height="24" viewBox="0 0 24 24" fill="none" xmlns="http://www.w3.org/2000/svg">
<mask id="path-1-outside-1_540_4000" maskUnits="userSpaceOnUse" x="0.866211" y="0.5" width="22" height="23" fill="black">
<rect fill="white" x="0.866211" y="0.5" width="22" height="23"/>
<path d="M12.0003 15.5C12.6925 15.5 13.3692 15.2947 13.9448 14.9101C14.5203 14.5256 14.969 13.9789 15.2339 13.3394C15.4988 12.6999 15.5681 11.9961 15.433 11.3172C15.298 10.6383 14.9646 10.0146 14.4752 9.52513C13.9857 9.03564 13.362 8.7023 12.6831 8.56725C12.0042 8.4322 11.3004 8.50151 10.6609 8.76642C10.0213 9.03133 9.47472 9.47993 9.09014 10.0555C8.70555 10.6311 8.50028 11.3078 8.50028 12C8.5014 12.9279 8.87051 13.8175 9.52664 14.4736C10.1828 15.1298 11.0724 15.4989 12.0003 15.5ZM12.0003 9.5C12.4947 9.5 12.9781 9.64662 13.3892 9.92133C13.8003 10.196 14.1208 10.5865 14.31 11.0433C14.4992 11.5001 14.5487 12.0028 14.4522 12.4877C14.3558 12.9727 14.1177 13.4181 13.768 13.7678C13.4184 14.1174 12.973 14.3555 12.488 14.452C12.0031 14.5484 11.5004 14.4989 11.0436 14.3097C10.5868 14.1205 10.1963 13.8 9.92161 13.3889C9.6469 12.9778 9.50028 12.4945 9.50028 12C9.50106 11.3372 9.7647 10.7018 10.2334 10.2331C10.702 9.76442 11.3375 9.50078 12.0003 9.5ZM2.61698 13.4312C2.44628 13.5295 2.29663 13.6605 2.1766 13.8168C2.05657 13.973 1.9685 14.1513 1.91744 14.3416C1.86638 14.5319 1.85332 14.7304 1.87901 14.9257C1.9047 15.121 1.96864 15.3094 2.06717 15.48L4.01981 18.8628C4.21935 19.2067 4.54704 19.4576 4.93113 19.5605C5.31521 19.6633 5.72441 19.6098 6.06913 19.4116L7.72928 18.4526C7.8085 18.4113 7.89739 18.3922 7.98659 18.3972C8.07579 18.4021 8.16199 18.4311 8.23612 18.481C8.31315 18.5208 8.3782 18.5805 8.42461 18.6537C8.47103 18.727 8.49714 18.8113 8.50028 18.898V21C8.50071 21.3977 8.65889 21.779 8.9401 22.0602C9.22131 22.3414 9.60259 22.4996 10.0003 22.5H14.0003C14.398 22.4996 14.7792 22.3414 15.0605 22.0602C15.3417 21.779 15.4998 21.3977 15.5003 21V18.898C15.5041 18.8093 15.5316 18.7233 15.58 18.6488C15.6283 18.5744 15.6957 18.5142 15.7752 18.4747C15.8485 18.4273 15.9331 18.4003 16.0202 18.3965C16.1074 18.3926 16.1941 18.412 16.2713 18.4527L17.9319 19.4117C18.2766 19.61 18.6858 19.6636 19.0699 19.5606C19.454 19.4577 19.7816 19.2065 19.9808 18.8623L21.9329 15.4805C22.0315 15.3099 22.0956 15.1216 22.1214 14.9263C22.1472 14.7309 22.1342 14.5324 22.0832 14.3421C22.0323 14.1518 21.9443 13.9734 21.8243 13.8171C21.7043 13.6608 21.5547 13.5296 21.3841 13.4312L19.764 12.4957C19.6765 12.4443 19.6043 12.3705 19.5548 12.2819C19.5054 12.1933 19.4805 12.0932 19.4827 11.9917C19.4827 11.893 19.5087 11.7959 19.558 11.7104C19.6074 11.6249 19.6784 11.5538 19.764 11.5044L21.3836 10.5689C21.5543 10.4705 21.7039 10.3395 21.824 10.1833C21.944 10.027 22.0321 9.84868 22.0831 9.6584C22.1342 9.46811 22.1473 9.26963 22.1216 9.0743C22.0959 8.87896 22.0319 8.69061 21.9334 8.52L19.9808 5.1377C19.7813 4.79371 19.4536 4.54276 19.0695 4.43981C18.6854 4.33686 18.2762 4.39028 17.9314 4.58838L16.2713 5.54738C16.1919 5.58821 16.1031 5.60711 16.014 5.60214C15.9249 5.59716 15.8387 5.56848 15.7644 5.51906C15.6874 5.47918 15.6224 5.41956 15.576 5.34629C15.5295 5.27302 15.5034 5.18874 15.5003 5.10206V3C15.4998 2.60231 15.3417 2.22103 15.0605 1.93982C14.7792 1.65861 14.398 1.50043 14.0003 1.5H10.0003C9.60259 1.50043 9.22131 1.65861 8.9401 1.93982C8.65889 2.22103 8.50071 2.60231 8.50028 3V5.10205C8.4919 5.18873 8.46294 5.27215 8.41582 5.34539C8.3687 5.41862 8.30478 5.47955 8.22937 5.52311C8.15396 5.56666 8.06924 5.59158 7.98226 5.5958C7.89528 5.60002 7.80855 5.58341 7.72928 5.54736L6.06864 4.58836C5.72389 4.39043 5.31479 4.33711 4.93082 4.44006C4.54686 4.543 4.2193 4.79384 4.01981 5.13768L2.06766 8.51953C1.96903 8.6901 1.90499 8.87844 1.8792 9.07377C1.8534 9.26911 1.86636 9.46762 1.91733 9.65794C1.9683 9.84827 2.05629 10.0267 2.17625 10.183C2.29622 10.3393 2.44582 10.4704 2.61649 10.5688L4.25419 11.5147C4.33554 11.5672 4.40135 11.6405 4.44479 11.7271C4.48824 11.8136 4.50773 11.9102 4.50126 12.0068C4.50609 12.1013 4.48577 12.1954 4.44236 12.2795C4.39895 12.3635 4.33402 12.4346 4.25419 12.4853L2.61698 13.4312ZM4.75419 10.6484L3.116 9.70264C3.05915 9.66985 3.00932 9.62617 2.96936 9.57409C2.92941 9.52202 2.90011 9.46259 2.88315 9.39918C2.86619 9.33578 2.8619 9.26965 2.87052 9.20459C2.87914 9.13953 2.9005 9.0768 2.93339 9.02L4.88602 5.6377C4.9187 5.58067 4.96234 5.53067 5.01442 5.49058C5.0665 5.45048 5.126 5.42107 5.18949 5.40406C5.25297 5.38704 5.3192 5.38274 5.38435 5.39141C5.44951 5.40009 5.5123 5.42156 5.56913 5.45459L7.22928 6.41359C7.46077 6.53741 7.72001 6.60015 7.9825 6.59588C8.24499 6.59161 8.50206 6.52046 8.72939 6.38917C8.95673 6.25788 9.14683 6.07078 9.28172 5.84556C9.41661 5.62034 9.49183 5.36444 9.50028 5.10205V3C9.50037 2.86742 9.55308 2.74029 9.64683 2.64655C9.74057 2.5528 9.8677 2.50009 10.0003 2.5H14.0003C14.1329 2.50009 14.26 2.5528 14.3537 2.64655C14.4475 2.74029 14.5002 2.86742 14.5003 3V5.10205C14.5088 5.3644 14.5841 5.62025 14.719 5.84542C14.8539 6.07059 15.044 6.25765 15.2713 6.38892C15.4986 6.5202 15.7556 6.59135 16.0181 6.59566C16.2806 6.59998 16.5398 6.5373 16.7713 6.41357L18.4309 5.45457C18.5459 5.38851 18.6824 5.37069 18.8105 5.40501C18.9387 5.43932 19.048 5.52298 19.1145 5.63768L21.0677 9.02049C21.1004 9.07732 21.1217 9.14006 21.1302 9.20511C21.1387 9.27017 21.1343 9.33626 21.1173 9.39962C21.1002 9.46297 21.0709 9.52234 21.0308 9.57433C20.9908 9.62633 20.9409 9.66992 20.8841 9.70262L19.264 10.6382C19.0262 10.7772 18.8289 10.9761 18.6919 11.215C18.5548 11.4539 18.4827 11.7245 18.4827 12C18.4827 12.2754 18.5548 12.5461 18.6919 12.785C18.8289 13.0239 19.0262 13.2228 19.264 13.3618L20.8841 14.2973H20.8846C20.9414 14.3301 20.9912 14.3738 21.0312 14.4259C21.0711 14.478 21.1004 14.5374 21.1174 14.6008C21.1344 14.6642 21.1387 14.7303 21.13 14.7954C21.1214 14.8604 21.1001 14.9232 21.0672 14.98L19.1145 18.3618C19.0819 18.4188 19.0383 18.4689 18.9862 18.509C18.9341 18.5491 18.8746 18.5786 18.8112 18.5956C18.7477 18.6127 18.6814 18.617 18.6163 18.6084C18.5511 18.5998 18.4883 18.5784 18.4314 18.5454L16.7713 17.5864C16.5398 17.4626 16.2805 17.3998 16.018 17.4041C15.7555 17.4084 15.4985 17.4795 15.2711 17.6108C15.0438 17.7421 14.8537 17.9292 14.7188 18.1545C14.5839 18.3797 14.5087 18.6356 14.5003 18.898V21C14.5002 21.1326 14.4475 21.2597 14.3537 21.3535C14.26 21.4472 14.1329 21.4999 14.0003 21.5H10.0003C9.8677 21.4999 9.74057 21.4472 9.64683 21.3535C9.55308 21.2597 9.50037 21.1326 9.50028 21V18.898C9.4978 18.6337 9.42475 18.3749 9.28868 18.1484C9.15261 17.9218 8.95847 17.7358 8.72635 17.6094C8.49009 17.4703 8.22123 17.3962 7.94706 17.3946C7.69509 17.3943 7.4475 17.4605 7.22928 17.5865L5.56962 18.5455C5.45462 18.6115 5.31813 18.6294 5.19002 18.595C5.06191 18.5607 4.9526 18.4771 4.88602 18.3624L2.9329 14.9795C2.90012 14.9227 2.87886 14.8599 2.87035 14.7949C2.86183 14.7298 2.86623 14.6637 2.88328 14.6004C2.90033 14.537 2.9297 14.4776 2.96972 14.4256C3.00974 14.3737 3.05961 14.3301 3.11649 14.2974L4.75419 13.3516C4.9829 13.2079 5.17141 13.0085 5.30207 12.7721C5.43273 12.5358 5.50127 12.2701 5.50127 12C5.50127 11.7299 5.43273 11.4642 5.30207 11.2279C5.17141 10.9915 4.9829 10.7921 4.75419 10.6484Z"/>
</mask>
<path d="M12.0003 15.5C12.6925 15.5 13.3692 15.2947 13.9448 14.9101C14.5203 14.5256 14.969 13.9789 15.2339 13.3394C15.4988 12.6999 15.5681 11.9961 15.433 11.3172C15.298 10.6383 14.9646 10.0146 14.4752 9.52513C13.9857 9.03564 13.362 8.7023 12.6831 8.56725C12.0042 8.4322 11.3004 8.50151 10.6609 8.76642C10.0213 9.03133 9.47472 9.47993 9.09014 10.0555C8.70555 10.6311 8.50028 11.3078 8.50028 12C8.5014 12.9279 8.87051 13.8175 9.52664 14.4736C10.1828 15.1298 11.0724 15.4989 12.0003 15.5ZM12.0003 9.5C12.4947 9.5 12.9781 9.64662 13.3892 9.92133C13.8003 10.196 14.1208 10.5865 14.31 11.0433C14.4992 11.5001 14.5487 12.0028 14.4522 12.4877C14.3558 12.9727 14.1177 13.4181 13.768 13.7678C13.4184 14.1174 12.973 14.3555 12.488 14.452C12.0031 14.5484 11.5004 14.4989 11.0436 14.3097C10.5868 14.1205 10.1963 13.8 9.92161 13.3889C9.6469 12.9778 9.50028 12.4945 9.50028 12C9.50106 11.3372 9.7647 10.7018 10.2334 10.2331C10.702 9.76442 11.3375 9.50078 12.0003 9.5ZM2.61698 13.4312C2.44628 13.5295 2.29663 13.6605 2.1766 13.8168C2.05657 13.973 1.9685 14.1513 1.91744 14.3416C1.86638 14.5319 1.85332 14.7304 1.87901 14.9257C1.9047 15.121 1.96864 15.3094 2.06717 15.48L4.01981 18.8628C4.21935 19.2067 4.54704 19.4576 4.93113 19.5605C5.31521 19.6633 5.72441 19.6098 6.06913 19.4116L7.72928 18.4526C7.8085 18.4113 7.89739 18.3922 7.98659 18.3972C8.07579 18.4021 8.16199 18.4311 8.23612 18.481C8.31315 18.5208 8.3782 18.5805 8.42461 18.6537C8.47103 18.727 8.49714 18.8113 8.50028 18.898V21C8.50071 21.3977 8.65889 21.779 8.9401 22.0602C9.22131 22.3414 9.60259 22.4996 10.0003 22.5H14.0003C14.398 22.4996 14.7792 22.3414 15.0605 22.0602C15.3417 21.779 15.4998 21.3977 15.5003 21V18.898C15.5041 18.8093 15.5316 18.7233 15.58 18.6488C15.6283 18.5744 15.6957 18.5142 15.7752 18.4747C15.8485 18.4273 15.9331 18.4003 16.0202 18.3965C16.1074 18.3926 16.1941 18.412 16.2713 18.4527L17.9319 19.4117C18.2766 19.61 18.6858 19.6636 19.0699 19.5606C19.454 19.4577 19.7816 19.2065 19.9808 18.8623L21.9329 15.4805C22.0315 15.3099 22.0956 15.1216 22.1214 14.9263C22.1472 14.7309 22.1342 14.5324 22.0832 14.3421C22.0323 14.1518 21.9443 13.9734 21.8243 13.8171C21.7043 13.6608 21.5547 13.5296 21.3841 13.4312L19.764 12.4957C19.6765 12.4443 19.6043 12.3705 19.5548 12.2819C19.5054 12.1933 19.4805 12.0932 19.4827 11.9917C19.4827 11.893 19.5087 11.7959 19.558 11.7104C19.6074 11.6249 19.6784 11.5538 19.764 11.5044L21.3836 10.5689C21.5543 10.4705 21.7039 10.3395 21.824 10.1833C21.944 10.027 22.0321 9.84868 22.0831 9.6584C22.1342 9.46811 22.1473 9.26963 22.1216 9.0743C22.0959 8.87896 22.0319 8.69061 21.9334 8.52L19.9808 5.1377C19.7813 4.79371 19.4536 4.54276 19.0695 4.43981C18.6854 4.33686 18.2762 4.39028 17.9314 4.58838L16.2713 5.54738C16.1919 5.58821 16.1031 5.60711 16.014 5.60214C15.9249 5.59716 15.8387 5.56848 15.7644 5.51906C15.6874 5.47918 15.6224 5.41956 15.576 5.34629C15.5295 5.27302 15.5034 5.18874 15.5003 5.10206V3C15.4998 2.60231 15.3417 2.22103 15.0605 1.93982C14.7792 1.65861 14.398 1.50043 14.0003 1.5H10.0003C9.60259 1.50043 9.22131 1.65861 8.9401 1.93982C8.65889 2.22103 8.50071 2.60231 8.50028 3V5.10205C8.4919 5.18873 8.46294 5.27215 8.41582 5.34539C8.3687 5.41862 8.30478 5.47955 8.22937 5.52311C8.15396 5.56666 8.06924 5.59158 7.98226 5.5958C7.89528 5.60002 7.80855 5.58341 7.72928 5.54736L6.06864 4.58836C5.72389 4.39043 5.31479 4.33711 4.93082 4.44006C4.54686 4.543 4.2193 4.79384 4.01981 5.13768L2.06766 8.51953C1.96903 8.6901 1.90499 8.87844 1.8792 9.07377C1.8534 9.26911 1.86636 9.46762 1.91733 9.65794C1.9683 9.84827 2.05629 10.0267 2.17625 10.183C2.29622 10.3393 2.44582 10.4704 2.61649 10.5688L4.25419 11.5147C4.33554 11.5672 4.40135 11.6405 4.44479 11.7271C4.48824 11.8136 4.50773 11.9102 4.50126 12.0068C4.50609 12.1013 4.48577 12.1954 4.44236 12.2795C4.39895 12.3635 4.33402 12.4346 4.25419 12.4853L2.61698 13.4312ZM4.75419 10.6484L3.116 9.70264C3.05915 9.66985 3.00932 9.62617 2.96936 9.57409C2.92941 9.52202 2.90011 9.46259 2.88315 9.39918C2.86619 9.33578 2.8619 9.26965 2.87052 9.20459C2.87914 9.13953 2.9005 9.0768 2.93339 9.02L4.88602 5.6377C4.9187 5.58067 4.96234 5.53067 5.01442 5.49058C5.0665 5.45048 5.126 5.42107 5.18949 5.40406C5.25297 5.38704 5.3192 5.38274 5.38435 5.39141C5.44951 5.40009 5.5123 5.42156 5.56913 5.45459L7.22928 6.41359C7.46077 6.53741 7.72001 6.60015 7.9825 6.59588C8.24499 6.59161 8.50206 6.52046 8.72939 6.38917C8.95673 6.25788 9.14683 6.07078 9.28172 5.84556C9.41661 5.62034 9.49183 5.36444 9.50028 5.10205V3C9.50037 2.86742 9.55308 2.74029 9.64683 2.64655C9.74057 2.5528 9.8677 2.50009 10.0003 2.5H14.0003C14.1329 2.50009 14.26 2.5528 14.3537 2.64655C14.4475 2.74029 14.5002 2.86742 14.5003 3V5.10205C14.5088 5.3644 14.5841 5.62025 14.719 5.84542C14.8539 6.07059 15.044 6.25765 15.2713 6.38892C15.4986 6.5202 15.7556 6.59135 16.0181 6.59566C16.2806 6.59998 16.5398 6.5373 16.7713 6.41357L18.4309 5.45457C18.5459 5.38851 18.6824 5.37069 18.8105 5.40501C18.9387 5.43932 19.048 5.52298 19.1145 5.63768L21.0677 9.02049C21.1004 9.07732 21.1217 9.14006 21.1302 9.20511C21.1387 9.27017 21.1343 9.33626 21.1173 9.39962C21.1002 9.46297 21.0709 9.52234 21.0308 9.57433C20.9908 9.62633 20.9409 9.66992 20.8841 9.70262L19.264 10.6382C19.0262 10.7772 18.8289 10.9761 18.6919 11.215C18.5548 11.4539 18.4827 11.7245 18.4827 12C18.4827 12.2754 18.5548 12.5461 18.6919 12.785C18.8289 13.0239 19.0262 13.2228 19.264 13.3618L20.8841 14.2973H20.8846C20.9414 14.3301 20.9912 14.3738 21.0312 14.4259C21.0711 14.478 21.1004 14.5374 21.1174 14.6008C21.1344 14.6642 21.1387 14.7303 21.13 14.7954C21.1214 14.8604 21.1001 14.9232 21.0672 14.98L19.1145 18.3618C19.0819 18.4188 19.0383 18.4689 18.9862 18.509C18.9341 18.5491 18.8746 18.5786 18.8112 18.5956C18.7477 18.6127 18.6814 18.617 18.6163 18.6084C18.5511 18.5998 18.4883 18.5784 18.4314 18.5454L16.7713 17.5864C16.5398 17.4626 16.2805 17.3998 16.018 17.4041C15.7555 17.4084 15.4985 17.4795 15.2711 17.6108C15.0438 17.7421 14.8537 17.9292 14.7188 18.1545C14.5839 18.3797 14.5087 18.6356 14.5003 18.898V21C14.5002 21.1326 14.4475 21.2597 14.3537 21.3535C14.26 21.4472 14.1329 21.4999 14.0003 21.5H10.0003C9.8677 21.4999 9.74057 21.4472 9.64683 21.3535C9.55308 21.2597 9.50037 21.1326 9.50028 21V18.898C9.4978 18.6337 9.42475 18.3749 9.28868 18.1484C9.15261 17.9218 8.95847 17.7358 8.72635 17.6094C8.49009 17.4703 8.22123 17.3962 7.94706 17.3946C7.69509 17.3943 7.4475 17.4605 7.22928 17.5865L5.56962 18.5455C5.45462 18.6115 5.31813 18.6294 5.19002 18.595C5.06191 18.5607 4.9526 18.4771 4.88602 18.3624L2.9329 14.9795C2.90012 14.9227 2.87886 14.8599 2.87035 14.7949C2.86183 14.7298 2.86623 14.6637 2.88328 14.6004C2.90033 14.537 2.9297 14.4776 2.96972 14.4256C3.00974 14.3737 3.05961 14.3301 3.11649 14.2974L4.75419 13.3516C4.9829 13.2079 5.17141 13.0085 5.30207 12.7721C5.43273 12.5358 5.50127 12.2701 5.50127 12C5.50127 11.7299 5.43273 11.4642 5.30207 11.2279C5.17141 10.9915 4.9829 10.7921 4.75419 10.6484Z" fill="#353535"/>
<path d="M12.0003 15.5C12.6925 15.5 13.3692 15.2947 13.9448 14.9101C14.5203 14.5256 14.969 13.9789 15.2339 13.3394C15.4988 12.6999 15.5681 11.9961 15.433 11.3172C15.298 10.6383 14.9646 10.0146 14.4752 9.52513C13.9857 9.03564 13.362 8.7023 12.6831 8.56725C12.0042 8.4322 11.3004 8.50151 10.6609 8.76642C10.0213 9.03133 9.47472 9.47993 9.09014 10.0555C8.70555 10.6311 8.50028 11.3078 8.50028 12C8.5014 12.9279 8.87051 13.8175 9.52664 14.4736C10.1828 15.1298 11.0724 15.4989 12.0003 15.5ZM12.0003 9.5C12.4947 9.5 12.9781 9.64662 13.3892 9.92133C13.8003 10.196 14.1208 10.5865 14.31 11.0433C14.4992 11.5001 14.5487 12.0028 14.4522 12.4877C14.3558 12.9727 14.1177 13.4181 13.768 13.7678C13.4184 14.1174 12.973 14.3555 12.488 14.452C12.0031 14.5484 11.5004 14.4989 11.0436 14.3097C10.5868 14.1205 10.1963 13.8 9.92161 13.3889C9.6469 12.9778 9.50028 12.4945 9.50028 12C9.50106 11.3372 9.7647 10.7018 10.2334 10.2331C10.702 9.76442 11.3375 9.50078 12.0003 9.5ZM2.61698 13.4312C2.44628 13.5295 2.29663 13.6605 2.1766 13.8168C2.05657 13.973 1.9685 14.1513 1.91744 14.3416C1.86638 14.5319 1.85332 14.7304 1.87901 14.9257C1.9047 15.121 1.96864 15.3094 2.06717 15.48L4.01981 18.8628C4.21935 19.2067 4.54704 19.4576 4.93113 19.5605C5.31521 19.6633 5.72441 19.6098 6.06913 19.4116L7.72928 18.4526C7.8085 18.4113 7.89739 18.3922 7.98659 18.3972C8.07579 18.4021 8.16199 18.4311 8.23612 18.481C8.31315 18.5208 8.3782 18.5805 8.42461 18.6537C8.47103 18.727 8.49714 18.8113 8.50028 18.898V21C8.50071 21.3977 8.65889 21.779 8.9401 22.0602C9.22131 22.3414 9.60259 22.4996 10.0003 22.5H14.0003C14.398 22.4996 14.7792 22.3414 15.0605 22.0602C15.3417 21.779 15.4998 21.3977 15.5003 21V18.898C15.5041 18.8093 15.5316 18.7233 15.58 18.6488C15.6283 18.5744 15.6957 18.5142 15.7752 18.4747C15.8485 18.4273 15.9331 18.4003 16.0202 18.3965C16.1074 18.3926 16.1941 18.412 16.2713 18.4527L17.9319 19.4117C18.2766 19.61 18.6858 19.6636 19.0699 19.5606C19.454 19.4577 19.7816 19.2065 19.9808 18.8623L21.9329 15.4805C22.0315 15.3099 22.0956 15.1216 22.1214 14.9263C22.1472 14.7309 22.1342 14.5324 22.0832 14.3421C22.0323 14.1518 21.9443 13.9734 21.8243 13.8171C21.7043 13.6608 21.5547 13.5296 21.3841 13.4312L19.764 12.4957C19.6765 12.4443 19.6043 12.3705 19.5548 12.2819C19.5054 12.1933 19.4805 12.0932 19.4827 11.9917C19.4827 11.893 19.5087 11.7959 19.558 11.7104C19.6074 11.6249 19.6784 11.5538 19.764 11.5044L21.3836 10.5689C21.5543 10.4705 21.7039 10.3395 21.824 10.1833C21.944 10.027 22.0321 9.84868 22.0831 9.6584C22.1342 9.46811 22.1473 9.26963 22.1216 9.0743C22.0959 8.87896 22.0319 8.69061 21.9334 8.52L19.9808 5.1377C19.7813 4.79371 19.4536 4.54276 19.0695 4.43981C18.6854 4.33686 18.2762 4.39028 17.9314 4.58838L16.2713 5.54738C16.1919 5.58821 16.1031 5.60711 16.014 5.60214C15.9249 5.59716 15.8387 5.56848 15.7644 5.51906C15.6874 5.47918 15.6224 5.41956 15.576 5.34629C15.5295 5.27302 15.5034 5.18874 15.5003 5.10206V3C15.4998 2.60231 15.3417 2.22103 15.0605 1.93982C14.7792 1.65861 14.398 1.50043 14.0003 1.5H10.0003C9.60259 1.50043 9.22131 1.65861 8.9401 1.93982C8.65889 2.22103 8.50071 2.60231 8.50028 3V5.10205C8.4919 5.18873 8.46294 5.27215 8.41582 5.34539C8.3687 5.41862 8.30478 5.47955 8.22937 5.52311C8.15396 5.56666 8.06924 5.59158 7.98226 5.5958C7.89528 5.60002 7.80855 5.58341 7.72928 5.54736L6.06864 4.58836C5.72389 4.39043 5.31479 4.33711 4.93082 4.44006C4.54686 4.543 4.2193 4.79384 4.01981 5.13768L2.06766 8.51953C1.96903 8.6901 1.90499 8.87844 1.8792 9.07377C1.8534 9.26911 1.86636 9.46762 1.91733 9.65794C1.9683 9.84827 2.05629 10.0267 2.17625 10.183C2.29622 10.3393 2.44582 10.4704 2.61649 10.5688L4.25419 11.5147C4.33554 11.5672 4.40135 11.6405 4.44479 11.7271C4.48824 11.8136 4.50773 11.9102 4.50126 12.0068C4.50609 12.1013 4.48577 12.1954 4.44236 12.2795C4.39895 12.3635 4.33402 12.4346 4.25419 12.4853L2.61698 13.4312ZM4.75419 10.6484L3.116 9.70264C3.05915 9.66985 3.00932 9.62617 2.96936 9.57409C2.92941 9.52202 2.90011 9.46259 2.88315 9.39918C2.86619 9.33578 2.8619 9.26965 2.87052 9.20459C2.87914 9.13953 2.9005 9.0768 2.93339 9.02L4.88602 5.6377C4.9187 5.58067 4.96234 5.53067 5.01442 5.49058C5.0665 5.45048 5.126 5.42107 5.18949 5.40406C5.25297 5.38704 5.3192 5.38274 5.38435 5.39141C5.44951 5.40009 5.5123 5.42156 5.56913 5.45459L7.22928 6.41359C7.46077 6.53741 7.72001 6.60015 7.9825 6.59588C8.24499 6.59161 8.50206 6.52046 8.72939 6.38917C8.95673 6.25788 9.14683 6.07078 9.28172 5.84556C9.41661 5.62034 9.49183 5.36444 9.50028 5.10205V3C9.50037 2.86742 9.55308 2.74029 9.64683 2.64655C9.74057 2.5528 9.8677 2.50009 10.0003 2.5H14.0003C14.1329 2.50009 14.26 2.5528 14.3537 2.64655C14.4475 2.74029 14.5002 2.86742 14.5003 3V5.10205C14.5088 5.3644 14.5841 5.62025 14.719 5.84542C14.8539 6.07059 15.044 6.25765 15.2713 6.38892C15.4986 6.5202 15.7556 6.59135 16.0181 6.59566C16.2806 6.59998 16.5398 6.5373 16.7713 6.41357L18.4309 5.45457C18.5459 5.38851 18.6824 5.37069 18.8105 5.40501C18.9387 5.43932 19.048 5.52298 19.1145 5.63768L21.0677 9.02049C21.1004 9.07732 21.1217 9.14006 21.1302 9.20511C21.1387 9.27017 21.1343 9.33626 21.1173 9.39962C21.1002 9.46297 21.0709 9.52234 21.0308 9.57433C20.9908 9.62633 20.9409 9.66992 20.8841 9.70262L19.264 10.6382C19.0262 10.7772 18.8289 10.9761 18.6919 11.215C18.5548 11.4539 18.4827 11.7245 18.4827 12C18.4827 12.2754 18.5548 12.5461 18.6919 12.785C18.8289 13.0239 19.0262 13.2228 19.264 13.3618L20.8841 14.2973H20.8846C20.9414 14.3301 20.9912 14.3738 21.0312 14.4259C21.0711 14.478 21.1004 14.5374 21.1174 14.6008C21.1344 14.6642 21.1387 14.7303 21.13 14.7954C21.1214 14.8604 21.1001 14.9232 21.0672 14.98L19.1145 18.3618C19.0819 18.4188 19.0383 18.4689 18.9862 18.509C18.9341 18.5491 18.8746 18.5786 18.8112 18.5956C18.7477 18.6127 18.6814 18.617 18.6163 18.6084C18.5511 18.5998 18.4883 18.5784 18.4314 18.5454L16.7713 17.5864C16.5398 17.4626 16.2805 17.3998 16.018 17.4041C15.7555 17.4084 15.4985 17.4795 15.2711 17.6108C15.0438 17.7421 14.8537 17.9292 14.7188 18.1545C14.5839 18.3797 14.5087 18.6356 14.5003 18.898V21C14.5002 21.1326 14.4475 21.2597 14.3537 21.3535C14.26 21.4472 14.1329 21.4999 14.0003 21.5H10.0003C9.8677 21.4999 9.74057 21.4472 9.64683 21.3535C9.55308 21.2597 9.50037 21.1326 9.50028 21V18.898C9.4978 18.6337 9.42475 18.3749 9.28868 18.1484C9.15261 17.9218 8.95847 17.7358 8.72635 17.6094C8.49009 17.4703 8.22123 17.3962 7.94706 17.3946C7.69509 17.3943 7.4475 17.4605 7.22928 17.5865L5.56962 18.5455C5.45462 18.6115 5.31813 18.6294 5.19002 18.595C5.06191 18.5607 4.9526 18.4771 4.88602 18.3624L2.9329 14.9795C2.90012 14.9227 2.87886 14.8599 2.87035 14.7949C2.86183 14.7298 2.86623 14.6637 2.88328 14.6004C2.90033 14.537 2.9297 14.4776 2.96972 14.4256C3.00974 14.3737 3.05961 14.3301 3.11649 14.2974L4.75419 13.3516C4.9829 13.2079 5.17141 13.0085 5.30207 12.7721C5.43273 12.5358 5.50127 12.2701 5.50127 12C5.50127 11.7299 5.43273 11.4642 5.30207 11.2279C5.17141 10.9915 4.9829 10.7921 4.75419 10.6484Z" stroke="#353535" stroke-width="0.6" mask="url(#path-1-outside-1_540_4000)"/>
</svg>
