<svg width="20" height="20" viewBox="0 0 20 20" fill="none" xmlns="http://www.w3.org/2000/svg">
<path d="M18.2965 7.23286C18.4842 7.36951 18.6228 7.56309 18.6918 7.78483C18.7656 8.00501 18.7663 8.24312 18.694 8.46378C18.6216 8.68443 18.48 8.87585 18.2902 9.00957L14.6126 11.6634C14.5439 11.7133 14.492 11.7829 14.4638 11.863C14.4356 11.9431 14.4324 12.0299 14.4547 12.1118L15.8943 17.356C15.9552 17.5775 15.9452 17.8125 15.8656 18.0281C15.7861 18.2436 15.641 18.4288 15.4508 18.5577C15.2606 18.6865 15.0348 18.7525 14.8051 18.7465C14.5754 18.7404 14.3534 18.6625 14.1703 18.5238L10.2518 15.5518C10.1792 15.4971 10.0908 15.4675 9.99996 15.4675C9.90909 15.4675 9.82068 15.4971 9.74809 15.5518L5.82964 18.5238C5.64655 18.6624 5.42462 18.7403 5.19502 18.7464C4.96542 18.7526 4.73966 18.6866 4.54944 18.5579C4.35922 18.4292 4.21409 18.2441 4.13441 18.0287C4.05473 17.8133 4.04452 17.5783 4.10519 17.3568L5.54566 12.111C5.56768 12.0291 5.56433 11.9425 5.53606 11.8626C5.50778 11.7827 5.45592 11.7132 5.38733 11.6634L1.70976 9.0096C1.5219 8.87416 1.38182 8.68265 1.30965 8.46259C1.23748 8.24252 1.23694 8.00525 1.30811 7.78486C1.37929 7.56448 1.5185 7.37233 1.70575 7.23604C1.89299 7.09976 2.11863 7.02635 2.35022 7.02637H7.08492C7.17381 7.02678 7.26048 6.9986 7.33214 6.946C7.40379 6.89339 7.45664 6.81914 7.48287 6.73421L8.95015 2.02067C9.01976 1.79666 9.1592 1.60079 9.34808 1.46169C9.53696 1.32259 9.76539 1.24756 9.99996 1.24756C10.2345 1.24756 10.463 1.32259 10.6518 1.46169C10.8407 1.60079 10.9802 1.79666 11.0498 2.02067L12.5171 6.73421C12.5433 6.81914 12.5961 6.89339 12.6678 6.946C12.7394 6.9986 12.8261 7.02678 12.915 7.02637H17.6497C17.8819 7.0238 18.1087 7.09622 18.2965 7.23286Z" fill="#D0DB23"/>
</svg>
