<svg width="137" height="58" viewBox="0 0 137 58" fill="none" xmlns="http://www.w3.org/2000/svg">
<g filter="url(#filter0_d_72_2754)">
<rect x="10" y="10" width="116.207" height="38" rx="19" fill="white"/>
<path d="M21.125 29C21.124 27.4351 21.5895 25.9055 22.4621 24.6065C23.3347 23.3075 24.5747 22.2981 26.0238 21.7073C27.4729 21.1166 29.0652 20.9712 30.5973 21.2899C32.1293 21.6085 33.5316 22.3767 34.625 23.4963V21.5C34.625 21.4006 34.6645 21.3052 34.7348 21.2349C34.8052 21.1645 34.9005 21.125 35 21.125C35.0995 21.125 35.1948 21.1645 35.2652 21.2349C35.3355 21.3052 35.375 21.4006 35.375 21.5V24.4964L35.3758 24.5C35.3758 24.5493 35.3661 24.598 35.3473 24.6436C35.3284 24.6891 35.3008 24.7304 35.266 24.7652C35.2312 24.8001 35.1898 24.8277 35.1443 24.8465C35.0988 24.8654 35.05 24.875 35.0008 24.875L35.0004 24.8749L35 24.875H32C31.9005 24.875 31.8052 24.8355 31.7348 24.7652C31.6645 24.6949 31.625 24.5995 31.625 24.5C31.625 24.4006 31.6645 24.3052 31.7348 24.2349C31.8052 24.1645 31.9005 24.125 32 24.125H34.1834C33.047 22.9214 31.5265 22.1516 29.8836 21.9483C28.2408 21.745 26.5785 22.1208 25.183 23.0111C23.7874 23.9014 22.7459 25.2504 22.2379 26.8259C21.7298 28.4013 21.7869 30.1046 22.3994 31.6425C23.0119 33.1803 24.1414 34.4565 25.5935 35.2513C27.0456 36.0461 28.7294 36.3097 30.3549 35.9967C31.9804 35.6838 33.4459 34.8139 34.4991 33.5368C35.5523 32.2597 36.1273 30.6554 36.125 29C36.125 28.9006 36.1645 28.8052 36.2348 28.7349C36.3052 28.6645 36.4005 28.625 36.5 28.625C36.5995 28.625 36.6948 28.6645 36.7652 28.7349C36.8355 28.8052 36.875 28.9006 36.875 29C36.875 31.0886 36.0453 33.0916 34.5685 34.5685C33.0916 36.0453 31.0886 36.875 29 36.875C26.9114 36.875 24.9084 36.0453 23.4315 34.5685C21.9547 33.0916 21.125 31.0886 21.125 29V29Z" fill="#353535"/>
<path fill-rule="evenodd" clip-rule="evenodd" d="M21.1252 29.0002C21.1242 27.4353 21.5897 25.9057 22.4623 24.6067C23.3348 23.3077 24.5749 22.2983 26.024 21.7075C27.4731 21.1168 29.0654 20.9714 30.5975 21.2901C31.9928 21.5803 33.2805 22.2434 34.3252 23.2052C34.4276 23.2994 34.5276 23.3966 34.6252 23.4965V21.5002C34.6252 21.4008 34.6647 21.3054 34.735 21.235C34.8054 21.1647 34.9007 21.1252 35.0002 21.1252C35.0997 21.1252 35.195 21.1647 35.2654 21.235C35.3357 21.3054 35.3752 21.4008 35.3752 21.5002V24.4966L35.3759 24.5002C35.376 24.5495 35.3663 24.5982 35.3475 24.6438C35.3286 24.6893 35.301 24.7306 35.2662 24.7654C35.2313 24.8003 35.19 24.8279 35.1445 24.8467C35.099 24.8656 35.0502 24.8752 35.0009 24.8752H32.0002C31.9007 24.8752 31.8054 24.8357 31.735 24.7654C31.6647 24.6951 31.6252 24.5997 31.6252 24.5002C31.6252 24.4008 31.6647 24.3054 31.735 24.235C31.8054 24.1647 31.9007 24.1252 32.0002 24.1252H34.1836C34.0861 24.022 33.9859 23.922 33.8829 23.8252C32.7855 22.7937 31.3858 22.1344 29.8838 21.9485C28.241 21.7452 26.5787 22.121 25.1832 23.0113C23.7876 23.9016 22.7461 25.2506 22.238 26.8261C21.73 28.4015 21.7871 30.1048 22.3996 31.6427C23.0121 33.1805 24.1416 34.4567 25.5937 35.2515C27.0458 36.0463 28.7295 36.3099 30.355 35.9969C31.9805 35.684 33.4461 34.8141 34.4993 33.537C35.5525 32.2599 36.1275 30.6556 36.1252 29.0002C36.1252 28.9008 36.1647 28.8054 36.235 28.735C36.3054 28.6647 36.4007 28.6252 36.5002 28.6252C36.5997 28.6252 36.695 28.6647 36.7654 28.735C36.8357 28.8054 36.8752 28.9008 36.8752 29.0002C36.8752 31.0888 36.0455 33.0918 34.5687 34.5687C33.0918 36.0455 31.0888 36.8752 29.0002 36.8752C26.9116 36.8752 24.9086 36.0455 23.4317 34.5687C21.9549 33.0918 21.1252 31.0888 21.1252 29.0002ZM33.4334 23.8252C32.4224 22.9626 31.1765 22.4108 29.847 22.2462C28.2734 22.0515 26.6812 22.4115 25.3445 23.2642C24.0078 24.117 23.0102 25.4091 22.5236 26.9181C22.0369 28.4272 22.0916 30.0586 22.6783 31.5317C23.265 33.0047 24.3469 34.2271 25.7378 34.9883C27.1286 35.7496 28.7414 36.0021 30.2983 35.7023C31.8553 35.4026 33.259 34.5694 34.2678 33.3461C35.2766 32.1229 35.8274 30.5862 35.8252 29.0006C35.8252 28.8216 35.8963 28.6495 36.0229 28.5229C36.1495 28.3963 36.3212 28.3252 36.5002 28.3252C36.6792 28.3252 36.8509 28.3963 36.9775 28.5229C37.1041 28.6495 37.1752 28.8212 37.1752 29.0002C37.1752 31.1684 36.3139 33.2477 34.7808 34.7808C33.2477 36.3139 31.1683 37.1752 29.0002 37.1752C26.8321 37.1752 24.7527 36.3139 23.2196 34.7808C21.6865 33.2477 20.8253 31.1685 20.8252 29.0004M33.4334 23.8252H32.0002C31.8212 23.8252 31.6495 23.8963 31.5229 24.0229C31.3963 24.1495 31.3252 24.3212 31.3252 24.5002C31.3252 24.6792 31.3963 24.8509 31.5229 24.9775C31.6495 25.1041 31.8212 25.1752 32.0002 25.1752H35.0002C35.0004 25.1752 35.0013 25.1752 35.0015 25.1752H35.0351L35.0398 25.1741C35.1151 25.1698 35.1893 25.1528 35.2592 25.1239C35.3412 25.09 35.4156 25.0403 35.4783 24.9776C35.541 24.9149 35.5907 24.8404 35.6247 24.7585C35.6586 24.6765 35.676 24.5887 35.6759 24.5L35.6759 24.4694L35.6752 24.4658V21.5002C35.6752 21.3212 35.6041 21.1495 35.4775 21.0229C35.3509 20.8963 35.1792 20.8252 35.0002 20.8252C34.8212 20.8252 34.6495 20.8963 34.5229 21.0229C34.3963 21.1495 34.3252 21.3212 34.3252 21.5002V22.8036C33.2788 21.9027 32.0179 21.2791 30.6585 20.9964C29.068 20.6656 27.415 20.8165 25.9107 21.4297C24.4064 22.043 23.1191 23.0909 22.2132 24.4394C21.3074 25.7879 20.8241 27.3759 20.8252 29.0004" fill="#353535"/>
<path d="M56.638 22.5879V35.4119H58.108V22.5879H56.638ZM51.29 23.5399C49.386 23.5399 48 25.2899 48 28.0479C48 30.8059 49.386 32.5699 51.29 32.5699C53.208 32.5699 54.594 30.8059 54.594 28.0479C54.594 25.2899 53.208 23.5399 51.29 23.5399ZM51.29 24.8699C52.41 24.8699 53.18 26.0599 53.18 28.0479C53.18 30.0499 52.41 31.2539 51.29 31.2539C50.17 31.2539 49.4 30.0499 49.4 28.0479C49.4 26.0599 50.17 24.8699 51.29 24.8699Z" fill="#353535"/>
<path d="M66.8514 24.5199V26.3119C66.8514 28.4959 65.5214 30.8899 63.5474 31.7999L64.3874 32.9619C66.5854 31.9119 68.0274 29.1259 68.0274 26.3119V24.5199H66.8514ZM67.1594 24.5199V26.3119C67.1594 29.0559 68.6014 31.6459 70.8274 32.6399L71.6394 31.4779C69.6374 30.6379 68.3214 28.4259 68.3214 26.3119V24.5199H67.1594ZM64.0094 23.8759V25.0939H71.1634V23.8759H64.0094ZM72.6614 22.6019V35.3979H74.1314V22.6019H72.6614Z" fill="#353535"/>
<path d="M82.2223 24.4079V25.5979H86.0723V24.4079H82.2223ZM82.2223 27.2359V28.4259H86.0723V27.2359H82.2223ZM78.4563 30.8059V31.9819H85.6103V35.3979H87.0803V30.8059H78.4563ZM85.6103 22.6019V30.1619H87.0803V22.6019H85.6103ZM79.9823 23.2879C78.0783 23.2879 76.6503 24.5899 76.6503 26.4099C76.6503 28.2439 78.0783 29.5319 79.9823 29.5319C81.8723 29.5319 83.3143 28.2439 83.3143 26.4099C83.3143 24.5899 81.8723 23.2879 79.9823 23.2879ZM79.9823 24.5479C81.0883 24.5479 81.9143 25.2899 81.9143 26.4099C81.9143 27.5439 81.0883 28.2859 79.9823 28.2859C78.8763 28.2859 78.0503 27.5439 78.0503 26.4099C78.0503 25.2899 78.8763 24.5479 79.9823 24.5479Z" fill="#353535"/>
<path d="M97.5318 23.3859V24.0439C97.5318 26.2419 95.7538 27.9919 92.6038 28.8739L93.1778 30.0219C96.8878 28.9859 99.0718 26.6759 99.0718 23.3859H97.5318ZM93.2758 23.3859V24.5619H98.5398V23.3859H93.2758ZM101.634 22.6019V29.8399H103.104V22.6019H101.634ZM99.1138 25.7799V26.9839H101.872V25.7799H99.1138ZM94.7738 30.3719V35.2439H103.104V30.3719H94.7738ZM101.662 31.5339V34.0679H96.2158V31.5339H101.662Z" fill="#353535"/>
<path d="M107.891 23.3579V24.9539C107.891 26.4099 107.023 28.0479 105.301 28.8179L106.085 29.9659C108.059 29.0839 109.039 26.9979 109.039 24.9539V23.3579H107.891ZM108.143 23.3579V24.9539C108.143 26.9699 109.095 28.8319 111.013 29.6299L111.783 28.5099C110.131 27.8239 109.305 26.3959 109.305 24.9539V23.3579H108.143ZM114.821 22.6159V30.3579H116.207V22.6159H114.821ZM112.987 25.8359V27.0399H115.227V25.8359H112.987ZM112.091 22.8259V30.2879H113.463V22.8259H112.091ZM107.541 30.9879V32.1779H114.751V35.3979H116.207V30.9879H107.541Z" fill="#353535"/>
</g>
<defs>
<filter id="filter0_d_72_2754" x="0" y="0" width="136.207" height="58" filterUnits="userSpaceOnUse" color-interpolation-filters="sRGB">
<feFlood flood-opacity="0" result="BackgroundImageFix"/>
<feColorMatrix in="SourceAlpha" type="matrix" values="0 0 0 0 0 0 0 0 0 0 0 0 0 0 0 0 0 0 127 0" result="hardAlpha"/>
<feOffset/>
<feGaussianBlur stdDeviation="5"/>
<feComposite in2="hardAlpha" operator="out"/>
<feColorMatrix type="matrix" values="0 0 0 0 0 0 0 0 0 0 0 0 0 0 0 0 0 0 0.1 0"/>
<feBlend mode="normal" in2="BackgroundImageFix" result="effect1_dropShadow_72_2754"/>
<feBlend mode="normal" in="SourceGraphic" in2="effect1_dropShadow_72_2754" result="shape"/>
</filter>
</defs>
</svg>
