<svg width="20" height="20" viewBox="0 0 20 20" fill="none" xmlns="http://www.w3.org/2000/svg">
<path d="M17.1667 16.4167V9.75C17.1661 9.19764 16.9464 8.66808 16.5558 8.2775C16.1653 7.88693 15.6357 7.66725 15.0833 7.66667H13.8333V4.75C13.8333 3.75544 13.4382 2.80161 12.735 2.09835C12.0317 1.39509 11.0779 1 10.0833 1C9.08877 1 8.13495 1.39509 7.43168 2.09835C6.72842 2.80161 6.33333 3.75544 6.33333 4.75V7.66667H5.08333C4.53098 7.66725 4.00141 7.88693 3.61084 8.2775C3.22026 8.66808 3.00058 9.19764 3 9.75V16.4167C3.00058 16.969 3.22026 17.4986 3.61084 17.8892C4.00141 18.2797 4.53098 18.4994 5.08333 18.5H15.0833C15.6357 18.4994 16.1653 18.2797 16.5558 17.8892C16.9464 17.4986 17.1661 16.969 17.1667 16.4167V16.4167ZM7.16667 4.75C7.16667 3.97645 7.47396 3.23459 8.02094 2.68761C8.56792 2.14062 9.30979 1.83333 10.0833 1.83333C10.8569 1.83333 11.5987 2.14062 12.1457 2.68761C12.6927 3.23459 13 3.97645 13 4.75V7.66667H7.16667V4.75ZM3.83333 16.4167V9.75C3.8337 9.41859 3.96551 9.10086 4.19985 8.86652C4.43419 8.63217 4.75192 8.50036 5.08333 8.5H15.0833C15.4147 8.50036 15.7325 8.63217 15.9668 8.86652C16.2012 9.10086 16.333 9.41859 16.3333 9.75V16.4167C16.333 16.7481 16.2012 17.0658 15.9668 17.3002C15.7325 17.5345 15.4147 17.6663 15.0833 17.6667H5.08333C4.75192 17.6663 4.43419 17.5345 4.19985 17.3002C3.96551 17.0658 3.8337 16.7481 3.83333 16.4167Z" fill="#C0C0C2" stroke="#C0C0C2" stroke-width="0.3"/>
</svg>
