<svg width="414" height="183" viewBox="0 0 414 183" fill="none" xmlns="http://www.w3.org/2000/svg">
<rect width="414" height="183" fill="#E3EF27"/>
<path d="M240 124H26V145H240V124Z" fill="#4C4338"/>
<path d="M42.5431 66.495V58.773C49.6711 58.575 54.1921 55.374 54.1921 50.457C54.1921 45.375 49.3741 42.141 41.8831 42.141C34.3921 42.141 29.5741 45.375 29.5741 50.457C29.5741 55.374 34.0951 58.575 41.1571 58.773V66.495H27.9571V67.782H55.8091V66.495H42.5431ZM30.9931 50.457C30.9931 46.233 35.2831 43.428 41.8831 43.428C48.4831 43.428 52.7731 46.233 52.7731 50.457C52.7731 54.681 48.4831 57.486 41.8831 57.486C35.2831 57.486 30.9931 54.681 30.9931 50.457ZM63.3963 41.415H62.0103V50.193H85.6713V48.906H63.3963V41.415ZM87.5523 53.592H59.7003V54.879H87.5523V53.592ZM85.4073 58.311H61.8123V59.565H84.0543V62.865H61.8783V68.805H86.0343V67.551H63.2313V64.086H85.4073V58.311ZM117.117 41.25H115.731V69.432H117.117V41.25ZM101.046 42.174C96.1295 42.174 92.5655 45.804 92.5655 50.82C92.5655 55.836 96.1295 59.466 101.046 59.466C105.963 59.466 109.527 55.836 109.527 50.82C109.527 45.804 105.963 42.174 101.046 42.174ZM101.046 43.461C105.303 43.461 108.108 46.662 108.108 50.82C108.108 54.978 105.303 58.179 101.046 58.179C96.7895 58.179 93.9845 54.978 93.9845 50.82C93.9845 46.662 96.7895 43.461 101.046 43.461ZM112.728 65.967V64.647C110.682 65.637 106.821 66.165 101.937 66.165H91.4435V67.452H101.739C106.821 67.452 110.781 66.891 112.728 65.967ZM147.022 66.495V57.882H158.143V42.57H134.581V57.882H145.636V66.495H132.436V67.782H160.288V66.495H147.022ZM135.967 43.857H156.757V56.595H135.967V43.857ZM193.417 53.592H188.962V41.25H187.576V69.432H188.962V54.879H193.417V53.592ZM173.518 42.174C168.832 42.174 165.4 46.332 165.4 55.011C165.4 63.69 168.832 67.848 173.518 67.848C178.204 67.848 181.636 63.69 181.636 55.011C181.636 46.332 178.204 42.174 173.518 42.174ZM173.518 66.561C169.69 66.561 166.819 62.832 166.819 55.011C166.819 47.19 169.69 43.461 173.518 43.461C177.346 43.461 180.217 47.19 180.217 55.011C180.217 62.832 177.346 66.561 173.518 66.561ZM42.5431 103.495V95.476H53.6641V79.24H52.2781V85.477H31.4881V79.24H30.1021V95.476H41.1571V103.495H27.9571V104.782H55.8091V103.495H42.5431ZM31.4881 86.764H52.2781V94.189H31.4881V86.764ZM84.1203 78.25V90.691H77.6523V92.011H84.1203V106.432H85.5393V78.25H84.1203ZM62.8683 103.165V92.473H75.2763V79.57H61.4163V80.857H73.8903V91.186H61.4823V104.452H72.2073C74.9133 104.452 77.7843 103.957 79.5003 103.099V101.812C77.7843 102.637 74.8803 103.165 72.2073 103.165H62.8683ZM120.681 90.592H116.226V78.25H114.84V106.432H116.226V91.879H120.681V90.592ZM92.6975 80.857H106.128V85.807C106.128 96.202 101.079 103 92.6975 103V104.32C102.102 104.32 107.514 96.73 107.514 85.675V79.57H92.6975V80.857ZM148.762 78.25H147.376V92.176H148.762V78.25ZM132.856 85.378L142.657 90.988L143.416 89.8L133.483 84.19C134.242 82.507 134.638 80.692 134.638 78.712L133.252 78.646C133.252 83.926 129.754 88.843 123.682 90.163V91.483C127.873 90.625 131.041 88.414 132.856 85.378ZM127.378 104.518V100.558H148.762V94.156H125.86V95.41H147.343V99.337H125.926V105.772H149.752V104.518H127.378ZM179.911 78.25V90.427H173.443V78.448H172.057V105.937H173.443V91.714H179.911V106.432H181.297V78.25H179.911ZM157.471 103.165V92.341H166.843V79.57H156.085V80.857H165.457V91.054H156.085V104.452H160.045C164.467 104.452 167.437 103.891 169.417 102.967V101.548C167.008 102.67 164.302 103.165 159.946 103.165H157.471ZM207.298 103.495V94.519C210.829 93.199 212.908 90.691 212.908 87.358C212.908 82.276 208.09 79.141 200.599 79.141C193.108 79.141 188.29 82.276 188.29 87.358C188.29 90.691 190.369 93.199 193.933 94.519V103.495H186.673V104.782H214.525V103.495H207.298ZM189.709 87.358C189.709 83.134 193.999 80.428 200.599 80.428C207.199 80.428 211.489 83.134 211.489 87.358C211.489 91.582 207.199 94.288 200.599 94.288C193.999 94.288 189.709 91.582 189.709 87.358ZM195.319 94.948C196.87 95.377 198.652 95.575 200.599 95.575C202.579 95.575 204.361 95.344 205.912 94.948V103.495H195.319V94.948ZM225.841 99.502H227.26C227.26 96.235 227.458 93.826 230.791 91.714C233.464 90.031 234.751 88.018 234.751 85.708C234.751 81.88 231.847 78.877 226.798 78.877C222.046 78.877 218.845 82.375 218.68 86.17H220.099C220.264 83.431 222.442 80.197 226.831 80.197C230.923 80.197 233.332 82.441 233.332 85.708C233.332 87.688 232.21 89.074 229.768 90.757C226.633 92.902 225.841 95.212 225.841 99.502ZM226.567 106.102C227.425 106.102 228.118 105.409 228.118 104.551C228.118 103.693 227.425 103 226.567 103C225.709 103 225.016 103.693 225.016 104.551C225.016 105.409 225.709 106.102 226.567 106.102Z" fill="#4C4338"/>
<path d="M32.572 140H38.552V138.986H35.913C35.432 138.986 34.86 139.025 34.353 139.077C36.602 136.958 38.097 135.021 38.097 133.11C38.097 131.407 37.031 130.302 35.328 130.302C34.119 130.302 33.287 130.861 32.507 131.706L33.196 132.369C33.729 131.745 34.405 131.264 35.185 131.264C36.368 131.264 36.927 132.07 36.927 133.162C36.927 134.787 35.562 136.698 32.572 139.311V140ZM43.0069 134.124V136.217H44.0859V134.124H43.0069ZM48.4019 129.262V136.178H49.4809V129.262H48.4019ZM39.9519 134.488C42.1489 134.488 44.9569 134.462 47.5309 134.085L47.4659 133.383C44.9569 133.669 42.0839 133.682 39.8219 133.682L39.9519 134.488ZM41.6029 136.607V137.387H48.4149V138.336H41.6289V140.377H42.6819V139.051H49.4809V136.607H41.6029ZM41.6289 140.104V140.884H49.8709V140.104H41.6289ZM46.0619 134.852V135.554H48.7399V134.852H46.0619ZM43.6179 129.483C41.8629 129.483 40.7189 130.159 40.7189 131.251C40.7189 132.343 41.8629 133.019 43.6179 133.019C45.3599 133.019 46.5039 132.343 46.5039 131.251C46.5039 130.159 45.3599 129.483 43.6179 129.483ZM43.6179 130.237C44.7489 130.237 45.4899 130.627 45.4899 131.251C45.4899 131.875 44.7489 132.265 43.6179 132.265C42.4609 132.265 41.7199 131.875 41.7199 131.251C41.7199 130.627 42.4609 130.237 43.6179 130.237ZM54.6491 140H60.6291V138.986H57.9901C57.5091 138.986 56.9371 139.025 56.4301 139.077C58.6791 136.958 60.1741 135.021 60.1741 133.11C60.1741 131.407 59.1081 130.302 57.4051 130.302C56.1961 130.302 55.3641 130.861 54.5841 131.706L55.2731 132.369C55.8061 131.745 56.4821 131.264 57.2621 131.264C58.4451 131.264 59.0041 132.07 59.0041 133.162C59.0041 134.787 57.6391 136.698 54.6491 139.311V140ZM64.9151 140.182C66.6961 140.182 67.9051 139.103 67.9051 137.712C67.9051 136.412 67.1251 135.684 66.2931 135.203V135.138C66.8651 134.696 67.5671 133.851 67.5671 132.837C67.5671 131.381 66.5791 130.341 64.9541 130.341C63.4591 130.341 62.3281 131.303 62.3281 132.746C62.3281 133.747 62.9261 134.475 63.6281 134.956V135.008C62.7571 135.476 61.8731 136.36 61.8731 137.647C61.8731 139.116 63.1601 140.182 64.9151 140.182ZM65.5651 134.839C64.4471 134.397 63.4201 133.89 63.4201 132.746C63.4201 131.836 64.0571 131.212 64.9281 131.212C65.9551 131.212 66.5531 131.966 66.5531 132.902C66.5531 133.617 66.2151 134.267 65.5651 134.839ZM64.9411 139.285C63.7971 139.285 62.9391 138.544 62.9391 137.53C62.9391 136.62 63.4721 135.866 64.2521 135.372C65.5911 135.918 66.7611 136.399 66.7611 137.673C66.7611 138.622 66.0331 139.285 64.9411 139.285ZM72.438 129.691C70.696 129.691 69.409 130.757 69.409 132.304C69.409 133.838 70.696 134.904 72.438 134.904C74.193 134.904 75.48 133.838 75.48 132.304C75.48 130.757 74.193 129.691 72.438 129.691ZM72.438 130.575C73.582 130.575 74.427 131.29 74.427 132.304C74.427 133.318 73.582 134.02 72.438 134.02C71.307 134.02 70.449 133.318 70.449 132.304C70.449 131.29 71.307 130.575 72.438 130.575ZM77.69 129.262V135.281H78.782V129.262H77.69ZM71.177 135.853V136.724H77.716V137.907H71.203V140.481H72.256V138.713H78.782V135.853H71.177ZM71.203 140V140.858H79.172V140H71.203ZM92.0622 129.262V136.243H93.1412V129.262H92.0622ZM92.8292 132.317V133.214H94.8702V132.317H92.8292ZM89.3842 136.49C87.0052 136.49 85.5232 137.335 85.5232 138.752C85.5232 140.169 87.0052 141.001 89.3842 141.001C91.7632 141.001 93.2452 140.169 93.2452 138.752C93.2452 137.335 91.7632 136.49 89.3842 136.49ZM89.3842 137.374C91.1262 137.374 92.1922 137.868 92.1922 138.752C92.1922 139.61 91.1262 140.117 89.3842 140.117C87.6422 140.117 86.5762 139.61 86.5762 138.752C86.5762 137.868 87.6422 137.374 89.3842 137.374ZM84.5352 134.436V135.32H85.4452C87.9282 135.32 89.3192 135.242 90.9442 134.917L90.8142 134.033C89.2412 134.358 87.8762 134.436 85.4452 134.436H84.5352ZM84.5352 130.159V135.008H85.6012V131.043H89.7222V130.159H84.5352ZM99.2632 129.691C97.5212 129.691 96.2342 130.757 96.2342 132.304C96.2342 133.838 97.5212 134.904 99.2632 134.904C101.018 134.904 102.305 133.838 102.305 132.304C102.305 130.757 101.018 129.691 99.2632 129.691ZM99.2632 130.575C100.407 130.575 101.252 131.29 101.252 132.304C101.252 133.318 100.407 134.02 99.2632 134.02C98.1322 134.02 97.2742 133.318 97.2742 132.304C97.2742 131.29 98.1322 130.575 99.2632 130.575ZM104.515 129.262V135.281H105.607V129.262H104.515ZM98.0022 135.853V136.724H104.541V137.907H98.0282V140.481H99.0812V138.713H105.607V135.853H98.0022ZM98.0282 140V140.858H105.997V140H98.0282ZM115.585 129.678V130.328C115.585 132.005 113.518 133.409 111.373 133.734L111.802 134.605C114.246 134.189 116.534 132.577 116.534 130.328V129.678H115.585ZM115.78 129.678V130.328C115.78 132.551 118.081 134.189 120.499 134.605L120.928 133.734C118.809 133.409 116.716 131.966 116.716 130.328V129.678H115.78ZM115.585 136.542V141.014H116.651V136.542H115.585ZM110.84 135.879V136.776H121.461V135.879H110.84ZM130.833 129.262V136.295H131.912V129.262H130.833ZM131.613 132.291V133.201H133.654V132.291H131.613ZM127.583 130.12V130.614C127.583 132.811 125.789 134.579 122.799 135.463L123.254 136.334C126.647 135.333 128.74 133.136 128.74 130.12H127.583ZM123.319 130.12V131.017H128.194V130.12H123.319ZM128.233 136.438C125.893 136.438 124.398 137.296 124.398 138.713C124.398 140.13 125.893 140.988 128.233 140.988C130.56 140.988 132.042 140.13 132.042 138.713C132.042 137.296 130.56 136.438 128.233 136.438ZM128.233 137.296C129.923 137.296 131.002 137.829 131.002 138.713C131.002 139.597 129.923 140.13 128.233 140.13C126.543 140.13 125.464 139.597 125.464 138.713C125.464 137.829 126.543 137.296 128.233 137.296ZM145.609 129.249V141.014H146.701V129.249H145.609ZM146.402 134.02V134.917H148.573V134.02H146.402ZM142.606 130.523V130.692C142.606 133.799 140.981 136.308 137.731 137.959L138.329 138.791C142.125 136.88 143.659 133.864 143.659 130.523H142.606ZM138.277 130.523V131.407H143.165V130.523H138.277ZM151.068 132.525V133.409H159.037V132.525H151.068ZM151.068 129.496V132.915H152.134V129.496H151.068ZM149.625 134.774V135.645H160.246V134.774H149.625ZM154.916 136.698C152.407 136.698 150.886 137.465 150.886 138.843C150.886 140.195 152.407 140.975 154.916 140.975C157.425 140.975 158.946 140.195 158.946 138.843C158.946 137.465 157.425 136.698 154.916 136.698ZM154.916 137.543C156.762 137.543 157.854 138.011 157.854 138.843C157.854 139.649 156.762 140.117 154.916 140.117C153.083 140.117 151.978 139.649 151.978 138.843C151.978 138.011 153.083 137.543 154.916 137.543ZM169.618 129.275V138.089H170.697V129.275H169.618ZM170.359 133.123V134.033H172.439V133.123H170.359ZM161.61 130.692V131.563H168.552V130.692H161.61ZM165.081 132.213C163.404 132.213 162.26 133.084 162.26 134.41C162.26 135.723 163.404 136.594 165.081 136.594C166.745 136.594 167.889 135.723 167.889 134.41C167.889 133.084 166.745 132.213 165.081 132.213ZM165.081 133.058C166.134 133.058 166.862 133.591 166.862 134.41C166.862 135.216 166.134 135.749 165.081 135.749C164.015 135.749 163.287 135.216 163.287 134.41C163.287 133.591 164.015 133.058 165.081 133.058ZM164.535 129.262V131.147H165.614V129.262H164.535ZM163.378 139.87V140.754H171.23V139.87H163.378ZM163.378 137.387V140.247H164.457V137.387H163.378ZM177.802 129.808V130.679H185.368V129.808H177.802ZM184.666 129.808V130.718C184.666 131.68 184.666 132.759 184.315 134.28L185.381 134.397C185.719 132.85 185.719 131.693 185.719 130.718V129.808H184.666ZM184.965 131.797L177.503 132.031L177.646 132.889L184.965 132.564V131.797ZM176.45 134.072V134.93H187.058V134.072H176.45ZM177.685 136.048V136.88H184.744V137.985H177.711V140.377H178.777V138.791H185.81V136.048H177.685ZM177.711 140.013V140.858H186.213V140.013H177.711ZM188.786 137.309V138.206H189.566C191.022 138.206 192.348 138.167 193.973 137.881L193.882 136.984C192.296 137.257 190.996 137.309 189.566 137.309H188.786ZM188.76 130.536V131.42H192.114V133.786H188.786V137.647H189.839V134.67H193.167V130.536H188.76ZM197.34 129.262V141.014H198.38V129.262H197.34ZM195.351 133.903V134.787H197.613V133.903H195.351ZM194.675 129.522V140.416H195.689V129.522H194.675ZM205.074 130.068V130.965C205.074 132.967 202.864 134.761 200.797 135.151L201.278 136.048C203.631 135.515 206.01 133.526 206.01 130.965V130.068H205.074ZM205.269 130.068V130.965C205.269 133.539 207.661 135.515 210.001 136.048L210.482 135.151C208.428 134.761 206.205 132.98 206.205 130.965V130.068H205.269ZM200.368 138.544V139.428H211.015V138.544H200.368Z" fill="#E3EF27"/>
</svg>
