<svg width="414" height="183" viewBox="0 0 414 183" fill="none" xmlns="http://www.w3.org/2000/svg">
<path d="M0 0H414V183H0V0Z" fill="#E3EF27"/>
<path d="M55.8091 70.1617V71.4487H27.9571V70.1617H41.1571V62.4397C38.8251 62.3737 36.7791 61.9997 35.0191 61.3177C33.2811 60.6137 31.9391 59.6457 30.9931 58.4137C30.0471 57.1817 29.5741 55.7517 29.5741 54.1237C29.5741 52.4517 30.0801 50.9887 31.0921 49.7347C32.1041 48.4807 33.5341 47.5127 35.3821 46.8307C37.2301 46.1487 39.3971 45.8077 41.8831 45.8077C44.3691 45.8077 46.5361 46.1487 48.3841 46.8307C50.2321 47.5127 51.6621 48.4807 52.6741 49.7347C53.6861 50.9887 54.1921 52.4517 54.1921 54.1237C54.1921 55.7517 53.7191 57.1817 52.7731 58.4137C51.8271 59.6457 50.4741 60.6137 48.7141 61.3177C46.9541 61.9997 44.8971 62.3737 42.5431 62.4397V70.1617H55.8091ZM30.9931 54.1237C30.9931 55.5097 31.4441 56.7417 32.3461 57.8197C33.2481 58.8757 34.5131 59.7007 36.1411 60.2947C37.7911 60.8667 39.7051 61.1527 41.8831 61.1527C44.0611 61.1527 45.9641 60.8667 47.5921 60.2947C49.2421 59.7007 50.5181 58.8757 51.4201 57.8197C52.3221 56.7417 52.7731 55.5097 52.7731 54.1237C52.7731 52.7377 52.3221 51.5167 51.4201 50.4607C50.5181 49.3827 49.2421 48.5577 47.5921 47.9857C45.9641 47.3917 44.0611 47.0947 41.8831 47.0947C39.7051 47.0947 37.7911 47.3917 36.1411 47.9857C34.5131 48.5577 33.2481 49.3827 32.3461 50.4607C31.4441 51.5167 30.9931 52.7377 30.9931 54.1237Z" fill="#4C4338"/>
<path d="M63.3963 52.5727H85.6713V53.8597H62.0103V45.0817H63.3963V52.5727ZM87.5523 58.5457H59.7003V57.2587H87.5523V58.5457ZM85.4073 67.7527H63.2313V71.2177H86.0343V72.4717H61.8783V66.5317H84.0543V63.2317H61.8123V61.9777H85.4073V67.7527Z" fill="#4C4338"/>
<path d="M117.117 73.0987H115.731V44.9167H117.117V73.0987ZM101.046 45.8407C102.674 45.8407 104.126 46.2147 105.402 46.9627C106.7 47.6887 107.712 48.7117 108.438 50.0317C109.164 51.3517 109.527 52.8367 109.527 54.4867C109.527 56.1367 109.164 57.6217 108.438 58.9417C107.712 60.2617 106.7 61.2957 105.402 62.0437C104.126 62.7697 102.674 63.1327 101.046 63.1327C99.4184 63.1327 97.9554 62.7697 96.6574 62.0437C95.3814 61.2957 94.3804 60.2617 93.6544 58.9417C92.9284 57.6217 92.5654 56.1367 92.5654 54.4867C92.5654 52.8367 92.9284 51.3517 93.6544 50.0317C94.3804 48.7117 95.3814 47.6887 96.6574 46.9627C97.9554 46.2147 99.4184 45.8407 101.046 45.8407ZM101.046 47.1277C99.6604 47.1277 98.4284 47.4467 97.3504 48.0847C96.2724 48.7227 95.4364 49.6027 94.8424 50.7247C94.2704 51.8467 93.9844 53.1007 93.9844 54.4867C93.9844 55.8727 94.2704 57.1267 94.8424 58.2487C95.4364 59.3707 96.2724 60.2507 97.3504 60.8887C98.4284 61.5267 99.6604 61.8457 101.046 61.8457C102.432 61.8457 103.664 61.5267 104.742 60.8887C105.82 60.2507 106.645 59.3707 107.217 58.2487C107.811 57.1267 108.108 55.8727 108.108 54.4867C108.108 53.1007 107.811 51.8467 107.217 50.7247C106.645 49.6027 105.82 48.7227 104.742 48.0847C103.664 47.4467 102.432 47.1277 101.046 47.1277ZM112.728 69.6337C111.738 70.0957 110.286 70.4587 108.372 70.7227C106.458 70.9867 104.247 71.1187 101.739 71.1187H91.4434V69.8317H101.937C104.401 69.8317 106.557 69.6997 108.405 69.4357C110.275 69.1717 111.716 68.7977 112.728 68.3137V69.6337Z" fill="#4C4338"/>
<path d="M145.867 51.8467C144.349 54.1787 142.446 56.0487 140.158 57.4567C137.87 58.8647 135.516 59.5797 133.096 59.6017V58.2817C135.208 58.3037 137.254 57.7097 139.234 56.4997C141.236 55.2677 142.941 53.6177 144.349 51.5497C145.779 49.4817 146.736 47.2597 147.22 44.8837L148.672 45.1807C148.254 47.0947 147.55 48.9427 146.56 50.7247L159.1 58.4137L158.44 59.5357L145.867 51.8467ZM160.288 64.5847H147.022V73.7587H145.636V64.5847H132.436V63.2977H160.288V64.5847Z" fill="#4C4338"/>
<path d="M190.018 44.9167V59.6347H188.632V52.6717H181.603C181.515 53.8817 181.119 54.9597 180.415 55.9057C179.711 56.8517 178.743 57.5997 177.511 58.1497C176.279 58.6777 174.838 58.9417 173.188 58.9417C171.472 58.9417 169.976 58.6557 168.7 58.0837C167.424 57.4897 166.445 56.6867 165.763 55.6747C165.103 54.6407 164.773 53.4857 164.773 52.2097C164.773 50.9337 165.103 49.7897 165.763 48.7777C166.445 47.7437 167.424 46.9407 168.7 46.3687C169.976 45.7747 171.472 45.4777 173.188 45.4777C175.586 45.4777 177.522 46.0277 178.996 47.1277C180.492 48.2277 181.35 49.6577 181.57 51.4177H188.632V44.9167H190.018ZM173.188 57.6547C175.278 57.6547 176.972 57.1707 178.27 56.2027C179.568 55.2347 180.217 53.9037 180.217 52.2097C180.217 50.5157 179.568 49.1847 178.27 48.2167C176.972 47.2487 175.278 46.7647 173.188 46.7647C171.098 46.7647 169.404 47.2487 168.106 48.2167C166.808 49.1847 166.159 50.5157 166.159 52.2097C166.159 53.9037 166.808 55.2347 168.106 56.2027C169.404 57.1707 171.098 57.6547 173.188 57.6547ZM188.632 61.0537H190.018V72.4387H167.38V61.0537H168.766V65.1457H188.632V61.0537ZM188.632 71.1847V66.3667H168.766V71.1847H188.632Z" fill="#4C4338"/>
<path d="M55.8091 108.162V109.449H27.9571V108.162H41.1571V100.143H30.1021V83.9067H31.4881V90.1437H52.2781V83.9067H53.6641V100.143H42.5431V108.162H55.8091ZM31.4881 98.8557H52.2781V91.4307H31.4881V98.8557Z" fill="#4C4338"/>
<path d="M85.5393 82.9167V111.099H84.1203V96.6777H77.6523V95.3577H84.1203V82.9167H85.5393ZM72.2073 107.832C73.5493 107.832 74.8803 107.711 76.2003 107.469C77.5423 107.227 78.6423 106.897 79.5003 106.479V107.766C78.6643 108.184 77.5863 108.514 76.2663 108.756C74.9463 108.998 73.5933 109.119 72.2073 109.119H61.4823V95.8527H73.8903V85.5237H61.4163V84.2367H75.2763V97.1397H62.8683V107.832H72.2073Z" fill="#4C4338"/>
<path d="M120.681 96.5457H116.226V111.099H114.84V82.9167H116.226V95.2587H120.681V96.5457ZM92.6974 84.2367H107.514V90.3417C107.514 94.0377 106.931 97.2937 105.765 100.11C104.599 102.904 102.894 105.082 100.65 106.644C98.4284 108.206 95.7774 108.987 92.6974 108.987V107.667C95.4474 107.667 97.8344 106.963 99.8584 105.555C101.882 104.125 103.433 102.123 104.511 99.5487C105.589 96.9527 106.128 93.9277 106.128 90.4737V85.5237H92.6974V84.2367Z" fill="#4C4338"/>
<path d="M148.762 96.8427H147.376V82.9167H148.762V96.8427ZM132.856 90.0447C131.932 91.5847 130.689 92.8827 129.127 93.9387C127.565 94.9947 125.75 95.7317 123.682 96.1497V94.8297C125.662 94.4117 127.367 93.6307 128.797 92.4867C130.249 91.3427 131.349 89.9787 132.097 88.3947C132.867 86.7887 133.252 85.0947 133.252 83.3127L134.638 83.3787C134.638 85.3147 134.253 87.1407 133.483 88.8567L143.416 94.4667L142.657 95.6547L132.856 90.0447ZM149.752 109.185V110.439H125.926V104.004H147.343V100.077H125.86V98.8227H148.762V105.225H127.378V109.185H149.752Z" fill="#4C4338"/>
<path d="M181.297 82.9167V111.099H179.911V96.3807H173.443V110.604H172.057V83.1147H173.443V95.0937H179.911V82.9167H181.297ZM159.946 107.832C162.102 107.832 163.917 107.711 165.391 107.469C166.865 107.205 168.207 106.787 169.417 106.215V107.634C167.305 108.624 164.181 109.119 160.045 109.119H156.085V95.7207H165.457V85.5237H156.085V84.2367H166.843V97.0077H157.471V107.832H159.946Z" fill="#4C4338"/>
<path d="M214.525 108.162V109.449H186.673V108.162H193.933V99.1857C192.129 98.5257 190.732 97.5797 189.742 96.3477C188.774 95.1157 188.29 93.6747 188.29 92.0247C188.29 90.3527 188.796 88.9007 189.808 87.6687C190.82 86.4147 192.25 85.4577 194.098 84.7977C195.946 84.1377 198.113 83.8077 200.599 83.8077C203.085 83.8077 205.252 84.1377 207.1 84.7977C208.948 85.4577 210.378 86.4147 211.39 87.6687C212.402 88.9007 212.908 90.3527 212.908 92.0247C212.908 93.6747 212.413 95.1157 211.423 96.3477C210.455 97.5797 209.08 98.5257 207.298 99.1857V108.162H214.525ZM189.709 92.0247C189.709 93.4107 190.149 94.6317 191.029 95.6877C191.931 96.7217 193.207 97.5247 194.857 98.0967C196.507 98.6687 198.421 98.9547 200.599 98.9547C202.777 98.9547 204.691 98.6687 206.341 98.0967C207.991 97.5247 209.256 96.7217 210.136 95.6877C211.038 94.6317 211.489 93.4107 211.489 92.0247C211.489 90.6387 211.038 89.4287 210.136 88.3947C209.256 87.3387 207.991 86.5247 206.341 85.9527C204.691 85.3807 202.777 85.0947 200.599 85.0947C198.421 85.0947 196.507 85.3807 194.857 85.9527C193.207 86.5247 191.931 87.3387 191.029 88.3947C190.149 89.4287 189.709 90.6387 189.709 92.0247ZM195.319 108.162H205.912V99.6147C204.284 100.033 202.513 100.242 200.599 100.242C198.597 100.242 196.837 100.033 195.319 99.6147V108.162Z" fill="#4C4338"/>
<path d="M225.841 104.169C225.841 101.947 226.116 100.198 226.666 98.9217C227.216 97.6237 228.25 96.4577 229.768 95.4237C231.022 94.5657 231.924 93.7517 232.474 92.9817C233.046 92.2117 233.332 91.3427 233.332 90.3747C233.332 88.7247 232.749 87.3937 231.583 86.3817C230.439 85.3697 228.855 84.8637 226.831 84.8637C225.445 84.8637 224.257 85.1607 223.267 85.7547C222.277 86.3487 221.518 87.1077 220.99 88.0317C220.462 88.9337 220.165 89.8687 220.099 90.8367H218.68C218.746 89.5607 219.12 88.3617 219.802 87.2397C220.506 86.1177 221.463 85.2267 222.673 84.5667C223.883 83.8847 225.258 83.5437 226.798 83.5437C228.426 83.5437 229.845 83.8407 231.055 84.4347C232.265 85.0287 233.178 85.8427 233.794 86.8767C234.432 87.9107 234.751 89.0767 234.751 90.3747C234.751 92.7067 233.431 94.7087 230.791 96.3807C229.735 97.0407 228.954 97.7557 228.448 98.5257C227.942 99.2957 227.612 100.11 227.458 100.968C227.326 101.804 227.26 102.871 227.26 104.169H225.841ZM226.567 110.769C226.149 110.769 225.786 110.615 225.478 110.307C225.17 110.021 225.016 109.658 225.016 109.218C225.016 108.8 225.17 108.437 225.478 108.129C225.786 107.821 226.149 107.667 226.567 107.667C227.007 107.667 227.37 107.821 227.656 108.129C227.964 108.437 228.118 108.8 228.118 109.218C228.118 109.658 227.964 110.021 227.656 110.307C227.37 110.615 227.007 110.769 226.567 110.769Z" fill="#4C4338"/>
</svg>
