<svg width="26" height="19" viewBox="0 0 26 19" fill="none" xmlns="http://www.w3.org/2000/svg">
<path d="M6.9998 14.3691C6.26638 14.0739 5.56874 13.8325 4.89794 13.5194C3.93447 13.0544 3.08547 12.3826 2.41149 11.5517C1.51748 10.5371 1.01683 9.23556 1.00042 7.88335C0.984006 6.53114 1.45292 5.21787 2.32204 4.18184C3.42125 2.81921 4.93474 1.85208 6.63309 1.42706C7.99284 1.01599 9.42468 0.89989 10.8329 1.08652C12.2411 1.27315 13.5933 1.75823 14.799 2.50931C15.6584 3.02974 16.3964 3.7281 16.9635 4.55747C17.679 5.57094 18.0413 6.79166 17.9944 8.0314C17.9476 9.27114 17.4942 10.461 16.7041 11.4176C15.6269 12.7313 14.1617 13.6705 12.5183 14.1008C11.8832 14.2797 11.2303 14.3512 10.5864 14.4854C10.4323 14.5102 10.2873 14.575 10.166 14.6732C9.27159 15.4871 8.37716 16.31 7.42909 17.1418C7.21444 17.3385 6.99085 17.4727 6.72253 17.267C6.61935 17.1752 6.54747 17.0533 6.517 16.9186C6.48653 16.7839 6.49898 16.643 6.55259 16.5157C6.68675 15.818 6.88352 15.1293 6.9998 14.3691ZM7.81371 15.353C8.44874 14.7805 9.02115 14.2797 9.60252 13.752C9.82106 13.5534 10.0963 13.4283 10.3896 13.3942C11.1027 13.2982 11.808 13.1518 12.5004 12.956C14.0184 12.5287 15.3364 11.5782 16.2211 10.2727C16.7145 9.54735 16.9783 8.69037 16.9783 7.81312C16.9783 6.93587 16.7145 6.07889 16.2211 5.35351C15.7132 4.56364 15.023 3.90723 14.2087 3.43947C12.8908 2.65301 11.398 2.20689 9.86466 2.14131C8.33136 2.07573 6.80584 2.39277 5.42563 3.06383C4.39978 3.51344 3.51333 4.23 2.85869 5.13883C2.28703 5.88527 1.97279 6.79696 1.96311 7.73711C1.95344 8.67725 2.24885 9.59519 2.80503 10.3532C3.06428 10.7253 3.36427 11.0673 3.69944 11.3728C4.77266 12.3425 6.09539 12.993 7.51854 13.2511C8.06413 13.3674 8.20724 13.5999 8.06414 14.2081C7.99259 14.5569 7.91208 14.9147 7.77792 15.353H7.81371Z" fill="#D0DB23" stroke="#D0DB23" stroke-width="0.2" stroke-miterlimit="10"/>
<path d="M19.4047 16.8644C19.4047 16.3904 19.3332 16.0326 19.3153 15.6749C19.3153 15.0667 19.3153 14.9504 19.8609 14.7805C20.9489 14.4639 21.9354 13.8689 22.723 13.0543C23.2099 12.5816 23.5743 11.9974 23.7847 11.3522C23.9951 10.707 24.0451 10.0203 23.9304 9.35144C23.7201 8.2935 23.1437 7.34348 22.3026 6.66822C21.2559 5.7879 19.9754 5.23156 18.6177 5.06723C18.5462 5.07214 18.4745 5.07214 18.403 5.06723C18.2723 5.02798 18.1599 4.94333 18.0861 4.82853C18.0123 4.71374 17.982 4.57634 18.0005 4.44113C18.0005 4.13703 18.242 3.90451 18.5282 3.95817C19.2359 4.08368 19.935 4.25394 20.6211 4.46796C21.7004 4.8344 22.6674 5.47192 23.4296 6.31939C23.9349 6.8251 24.3341 7.42671 24.6037 8.08885C24.8734 8.75099 25.008 9.46032 24.9996 10.1752C24.9913 10.8901 24.8402 11.5961 24.5552 12.2518C24.2702 12.9075 23.8571 13.4996 23.3401 13.9934C22.5921 14.7844 21.6748 15.3959 20.6569 15.7822C20.6092 15.789 20.5635 15.8061 20.5231 15.8324C20.4826 15.8587 20.4484 15.8935 20.4229 15.9344C20.3973 15.9753 20.381 16.0213 20.3751 16.0692C20.3692 16.1171 20.3738 16.1656 20.3886 16.2115C20.4601 16.7482 20.478 17.2937 20.5228 17.8304C20.5547 17.9589 20.5489 18.0939 20.5061 18.2193C20.4632 18.3446 20.3852 18.4549 20.2813 18.537C20.1802 18.5959 20.0619 18.6183 19.9463 18.6004C19.8307 18.5825 19.7247 18.5254 19.6462 18.4386C18.7518 17.7767 17.8574 17.1238 16.963 16.4798C16.8288 16.3805 16.6721 16.316 16.5069 16.292C15.6195 16.1979 14.7529 15.9624 13.9399 15.5944C13.8646 15.5702 13.7949 15.5311 13.735 15.4795C13.6751 15.4279 13.6261 15.3647 13.5911 15.2938C13.5561 15.2229 13.5356 15.1457 13.531 15.0667C13.5264 14.9877 13.5377 14.9087 13.5643 14.8341C13.5824 14.76 13.6179 14.6912 13.6678 14.6334C13.7176 14.5756 13.7805 14.5305 13.8512 14.5017C13.9219 14.4729 13.9984 14.4612 14.0745 14.4677C14.1505 14.4742 14.2239 14.4986 14.2887 14.539C15.0655 14.8564 15.8856 15.0554 16.7215 15.1293C16.9481 15.164 17.1629 15.253 17.3476 15.3887C18.0005 15.8448 18.6445 16.3278 19.4047 16.8644Z" fill="#D0DB23" stroke="#D0DB23" stroke-width="0.2" stroke-miterlimit="10"/>
</svg>
