<svg width="26" height="26" viewBox="0 0 26 26" fill="none" xmlns="http://www.w3.org/2000/svg">
<path d="M25.15 13V12.9998C25.1463 9.77862 23.8651 6.6904 21.5873 4.41266C19.3096 2.13492 16.2214 0.853675 13.0002 0.85L13 0.999582V0.85C10.597 0.85 8.24788 1.56258 6.24983 2.89764C4.25177 4.2327 2.69447 6.13027 1.77487 8.35039C0.855264 10.5705 0.614654 13.0135 1.08346 15.3703C1.55227 17.7272 2.70945 19.8921 4.40866 21.5913C6.10787 23.2906 8.27279 24.4477 10.6297 24.9165C12.9865 25.3853 15.4295 25.1447 17.6496 24.2251C19.8697 23.3055 21.7673 21.7482 23.1024 19.7502C24.4374 17.7521 25.15 15.403 25.15 13ZM12.9998 23.7071C10.8822 23.7071 8.81217 23.0791 7.05143 21.9027C5.29065 20.7261 3.91829 19.0539 3.1079 17.0974C2.2975 15.141 2.08546 12.9881 2.4986 10.9111C2.91173 8.83416 3.93149 6.92633 5.42891 5.42891C6.92633 3.93148 8.83416 2.91173 10.9111 2.49859C12.9881 2.08545 15.141 2.29749 17.0974 3.10789C19.0539 3.91829 20.7262 5.29065 21.9027 7.05143C23.0791 8.81216 23.7071 10.8822 23.7071 12.9998C23.7039 15.8386 22.5747 18.5601 20.5674 20.5674C18.5601 22.5747 15.8386 23.7039 12.9998 23.7071ZM14.075 6.86113C14.217 6.64852 14.2929 6.39856 14.2929 6.14286C14.2929 5.79997 14.1566 5.47113 13.9142 5.22867C13.6717 4.98621 13.3429 4.85 13 4.85C12.7443 4.85 12.4943 4.92582 12.2817 5.06788C12.0691 5.20995 11.9034 5.41186 11.8056 5.6481C11.7077 5.88434 11.6821 6.14429 11.732 6.39508C11.7819 6.64587 11.905 6.87623 12.0858 7.05704C12.2666 7.23785 12.497 7.36099 12.7478 7.41087C12.9986 7.46076 13.2585 7.43515 13.4948 7.3373C13.731 7.23945 13.9329 7.07374 14.075 6.86113ZM17.5035 11.4326C17.6456 11.2199 17.7214 10.97 17.7214 10.7143C17.7214 10.3714 17.5852 10.0426 17.3428 9.8001C17.1003 9.55764 16.7715 9.42143 16.4286 9.42143C16.1729 9.42143 15.9229 9.49725 15.7103 9.63931C15.4977 9.78137 15.332 9.98329 15.2341 10.2195C15.1363 10.4558 15.1107 10.7157 15.1606 10.9665C15.2104 11.2173 15.3336 11.4477 15.5144 11.6285C15.6952 11.8093 15.9256 11.9324 16.1764 11.9823C16.4271 12.0322 16.6871 12.0066 16.9233 11.9087C17.1596 11.8109 17.3615 11.6452 17.5035 11.4326ZM10.6464 11.4326C10.7885 11.2199 10.8643 10.97 10.8643 10.7143C10.8643 10.3714 10.7281 10.0426 10.4856 9.8001C10.2432 9.55764 9.91432 9.42143 9.57143 9.42143C9.31573 9.42143 9.06577 9.49725 8.85316 9.63931C8.64055 9.78137 8.47484 9.98329 8.37699 10.2195C8.27914 10.4558 8.25353 10.7157 8.30342 10.9665C8.3533 11.2173 8.47644 11.4477 8.65724 11.6285C8.83805 11.8093 9.06842 11.9324 9.31921 11.9823C9.57 12.0322 9.82995 12.0066 10.0662 11.9087C10.3024 11.8109 10.5043 11.6452 10.6464 11.4326Z" fill="#D0DB23" stroke="#D0DB23" stroke-width="0.3"/>
</svg>
