<svg width="26" height="26" viewBox="0 0 26 26" fill="none" xmlns="http://www.w3.org/2000/svg">
<path d="M15.8571 13L15.7071 13.0001C15.7071 12.9053 15.7257 12.8115 15.762 12.7239C15.7982 12.6363 15.8513 12.5568 15.9183 12.4898C15.9854 12.4228 16.0649 12.3696 16.1525 12.3334L15.8571 13ZM15.8571 13C15.8571 13.0751 15.8719 13.1494 15.9006 13.2187C15.9293 13.2881 15.9713 13.3511 16.0244 13.4042C16.0775 13.4572 16.1405 13.4993 16.2098 13.528C16.2792 13.5567 16.3535 13.5715 16.4286 13.5714V13.7214C16.4286 13.7214 16.4286 13.7214 16.4287 13.7214C18.1355 13.7214 19.7724 13.0434 20.9793 11.8365C22.1862 10.6295 22.8643 8.99257 22.8643 7.28571C22.8643 5.57886 22.1862 3.94191 20.9793 2.73498C19.7724 1.52805 18.1354 0.85 16.4286 0.85C16.2372 0.85 16.0537 0.926007 15.9184 1.0613C15.7832 1.1966 15.7071 1.38009 15.7071 1.57143C15.7071 1.76276 15.7832 1.94626 15.9184 2.08156C16.0537 2.21685 16.2372 2.29286 16.4286 2.29286C17.7528 2.29286 19.0227 2.81889 19.9591 3.75523C20.8954 4.69157 21.4214 5.96153 21.4214 7.28571C21.4214 8.6099 20.8954 9.87986 19.9591 10.8162C19.0227 11.7525 17.7528 12.2785 16.4287 12.2786L15.8571 13ZM16.0071 7.28571L16.0071 7.28554C16.0051 5.57935 15.3264 3.94362 14.12 2.73716C12.9135 1.5307 11.2778 0.852025 9.57161 0.85L9.57143 0.999598V0.85C8.29856 0.85 7.05429 1.22745 5.99594 1.93461C4.93759 2.64178 4.11271 3.6469 3.6256 4.82287C3.1385 5.99885 3.01105 7.29285 3.25937 8.54126C3.5077 9.78967 4.12064 10.9364 5.02069 11.8365C5.92074 12.7365 7.06748 13.3494 8.31588 13.5978C9.56429 13.8461 10.8583 13.7186 12.0343 13.2315C13.2102 12.7444 14.2154 11.9196 14.9225 10.8612C15.6297 9.80286 16.0071 8.55858 16.0071 7.28571ZM0.85 22.1427V22.1429V24.4286C0.85 24.6199 0.926007 24.8034 1.0613 24.9387C1.1966 25.074 1.38009 25.15 1.57143 25.15C1.76276 25.15 1.94626 25.074 2.08156 24.9387C2.21685 24.8034 2.29286 24.6199 2.29286 24.4286L2.29286 22.143C2.29286 22.143 2.29286 22.143 2.29286 22.1429C2.29412 21.1222 2.70015 20.1437 3.42191 19.4219C4.14369 18.7001 5.12229 18.2941 6.14304 18.2929H12.9998C14.0206 18.2941 14.9992 18.7001 15.7209 19.4219C16.4427 20.1437 16.8488 21.1223 16.85 22.143V24.4286C16.85 24.6199 16.926 24.8034 17.0613 24.9387C17.1966 25.074 17.3801 25.15 17.5714 25.15C17.7628 25.15 17.9463 25.074 18.0816 24.9387C18.2169 24.8034 18.2929 24.6199 18.2929 24.4286V22.1429V22.1427C18.2913 20.7395 17.7332 19.3941 16.741 18.4019C15.7487 17.4096 14.4034 16.8515 13.0002 16.85H13H6.14286H6.14269C4.73945 16.8515 3.39412 17.4096 2.40188 18.4019C1.40964 19.3941 0.851529 20.7395 0.85 22.1427ZM19.8573 16.85H19.8571C19.6658 16.85 19.4823 16.926 19.347 17.0613C19.2117 17.1966 19.1357 17.3801 19.1357 17.5714C19.1357 17.7628 19.2117 17.9463 19.347 18.0816C19.4823 18.2168 19.6657 18.2928 19.857 18.2929C20.8777 18.2941 21.8563 18.7001 22.5781 19.4219C23.2999 20.1437 23.7059 21.1223 23.7071 22.143V24.4286C23.7071 24.6199 23.7831 24.8034 23.9184 24.9387C24.0537 25.074 24.2372 25.15 24.4286 25.15C24.6199 25.15 24.8034 25.074 24.9387 24.9387C25.074 24.8034 25.15 24.6199 25.15 24.4286V22.1429V22.1427C25.1485 20.7395 24.5904 19.3941 23.5981 18.4019C22.6059 17.4096 21.2605 16.8515 19.8573 16.85ZM9.57127 12.2786C8.58383 12.2785 7.61857 11.9857 6.79755 11.4371C5.97647 10.8885 5.33653 10.1087 4.95863 9.1964C4.58073 8.28407 4.48186 7.28018 4.67451 6.31166C4.86716 5.34314 5.34268 4.45349 6.04095 3.75523C6.73921 3.05697 7.62885 2.58144 8.59737 2.38879C9.56589 2.19614 10.5698 2.29502 11.4821 2.67292C12.3944 3.05081 13.1742 3.69076 13.7228 4.51183C14.2714 5.33286 14.5643 6.29811 14.5643 7.28555C14.5628 8.60934 14.0363 9.8785 13.1003 10.8146C12.1642 11.7506 10.8951 12.2771 9.57127 12.2786Z" fill="#D0DB23" stroke="#D0DB23" stroke-width="0.3"/>
</svg>
