<svg width="19" height="18" viewBox="0 0 19 18" fill="none" xmlns="http://www.w3.org/2000/svg">
<g clip-path="url(#clip0_1164_3676)">
<path d="M16.8447 18H2.15531C0.967813 18 0 17.0466 0 15.8724V4.32955C0 3.15729 0.965833 2.2019 2.15531 2.2019H16.8447C18.0322 2.2019 19 3.15534 19 4.32955V15.8724C19 17.0446 18.0342 18 16.8447 18ZM2.15531 3.56954C1.73177 3.56954 1.38542 3.90949 1.38542 4.32955V15.8724C1.38542 16.2905 1.72979 16.6324 2.15531 16.6324H16.8447C17.2682 16.6324 17.6146 16.2924 17.6146 15.8724V4.32955C17.6146 3.91145 17.2702 3.56954 16.8447 3.56954H2.15531Z" fill="#D0DB23"/>
<path d="M4.92216 6.06252C4.55205 6.06252 4.25122 5.76555 4.25122 5.40019V0.662325C4.25122 0.296972 4.55205 0 4.92216 0C5.29226 0 5.5931 0.296972 5.5931 0.662325V5.40019C5.5931 5.76555 5.29226 6.06252 4.92216 6.06252Z" fill="#D0DB23"/>
<path d="M14.0777 6.06252C13.7076 6.06252 13.4067 5.76555 13.4067 5.40019V0.662325C13.4067 0.296972 13.7076 0 14.0777 0C14.4478 0 14.7486 0.296972 14.7486 0.662325V5.40019C14.7486 5.76555 14.4478 6.06252 14.0777 6.06252Z" fill="#D0DB23"/>
<path d="M5.32002 7.63525H4.46898C3.98803 7.63525 3.59814 8.02013 3.59814 8.49491V9.33502C3.59814 9.8098 3.98803 10.1947 4.46898 10.1947H5.32002C5.80097 10.1947 6.19085 9.8098 6.19085 9.33502V8.49491C6.19085 8.02013 5.80097 7.63525 5.32002 7.63525Z" fill="#D0DB23"/>
<path d="M9.92549 7.63525H9.07445C8.5935 7.63525 8.20361 8.02013 8.20361 8.49491V9.33502C8.20361 9.8098 8.5935 10.1947 9.07445 10.1947H9.92549C10.4064 10.1947 10.7963 9.8098 10.7963 9.33502V8.49491C10.7963 8.02013 10.4064 7.63525 9.92549 7.63525Z" fill="#D0DB23"/>
<path d="M14.531 7.63525H13.6799C13.199 7.63525 12.8091 8.02013 12.8091 8.49491V9.33502C12.8091 9.8098 13.199 10.1947 13.6799 10.1947H14.531C15.0119 10.1947 15.4018 9.8098 15.4018 9.33502V8.49491C15.4018 8.02013 15.0119 7.63525 14.531 7.63525Z" fill="#D0DB23"/>
<path d="M5.32002 11.5837H4.46898C3.98803 11.5837 3.59814 11.9686 3.59814 12.4434V13.2835C3.59814 13.7583 3.98803 14.1432 4.46898 14.1432H5.32002C5.80097 14.1432 6.19085 13.7583 6.19085 13.2835V12.4434C6.19085 11.9686 5.80097 11.5837 5.32002 11.5837Z" fill="#D0DB23"/>
<path d="M9.92549 11.5837H9.07445C8.5935 11.5837 8.20361 11.9686 8.20361 12.4434V13.2835C8.20361 13.7583 8.5935 14.1432 9.07445 14.1432H9.92549C10.4064 14.1432 10.7963 13.7583 10.7963 13.2835V12.4434C10.7963 11.9686 10.4064 11.5837 9.92549 11.5837Z" fill="#D0DB23"/>
<path d="M14.531 11.5837H13.6799C13.199 11.5837 12.8091 11.9686 12.8091 12.4434V13.2835C12.8091 13.7583 13.199 14.1432 13.6799 14.1432H14.531C15.0119 14.1432 15.4018 13.7583 15.4018 13.2835V12.4434C15.4018 11.9686 15.0119 11.5837 14.531 11.5837Z" fill="#D0DB23"/>
</g>
<defs>
<clipPath id="clip0_1164_3676">
<rect width="19" height="18" fill="white"/>
</clipPath>
</defs>
</svg>
