<svg width="58" height="58" viewBox="0 0 58 58" fill="none" xmlns="http://www.w3.org/2000/svg">
<mask id="path-1-inside-1_1560_3983" fill="white">
<path d="M0 29C0 12.9837 12.9837 0 29 0V0C45.0163 0 58 12.9837 58 29V29C58 45.0163 45.0163 58 29 58V58C12.9837 58 0 45.0163 0 29V29Z"/>
</mask>
<path d="M0 29C0 12.9837 12.9837 0 29 0V0C45.0163 0 58 12.9837 58 29V29C58 45.0163 45.0163 58 29 58V58C12.9837 58 0 45.0163 0 29V29Z" fill="white"/>
<path d="M29 57.5C13.2599 57.5 0.5 44.7401 0.5 29H-0.5C-0.5 45.2924 12.7076 58.5 29 58.5V57.5ZM57.5 29C57.5 44.7401 44.7401 57.5 29 57.5V58.5C45.2924 58.5 58.5 45.2924 58.5 29H57.5ZM29 0.5C44.7401 0.5 57.5 13.2599 57.5 29H58.5C58.5 12.7076 45.2924 -0.5 29 -0.5V0.5ZM29 -0.5C12.7076 -0.5 -0.5 12.7076 -0.5 29H0.5C0.5 13.2599 13.2599 0.5 29 0.5V-0.5Z" fill="#E9EAF2" mask="url(#path-1-inside-1_1560_3983)"/>
<g clip-path="url(#clip0_1560_3983)">
<path d="M39.1641 40.9999H19.8359C18.2734 40.9999 17 39.7287 17 38.1631V22.7727C17 21.2096 18.2708 19.9358 19.8359 19.9358H39.1641C40.7266 19.9358 42 21.207 42 22.7727V38.1631C42 39.7261 40.7292 40.9999 39.1641 40.9999ZM19.8359 21.7593C19.2786 21.7593 18.8229 22.2126 18.8229 22.7727V38.1631C18.8229 38.7206 19.276 39.1764 19.8359 39.1764H39.1641C39.7214 39.1764 40.1771 38.7232 40.1771 38.1631V22.7727C40.1771 22.2152 39.724 21.7593 39.1641 21.7593H19.8359Z" fill="#D0DB23"/>
<path d="M23.4766 25.0834C22.9896 25.0834 22.5938 24.6874 22.5938 24.2003V17.8831C22.5938 17.396 22.9896 17 23.4766 17C23.9635 17 24.3594 17.396 24.3594 17.8831V24.2003C24.3594 24.6874 23.9635 25.0834 23.4766 25.0834Z" fill="#D0DB23"/>
<path d="M35.5234 25.0834C35.0365 25.0834 34.6406 24.6874 34.6406 24.2003V17.8831C34.6406 17.396 35.0365 17 35.5234 17C36.0104 17 36.4062 17.396 36.4062 17.8831V24.2003C36.4062 24.6874 36.0104 25.0834 35.5234 25.0834Z" fill="#D0DB23"/>
<path d="M24 27.1804H22.8802C22.2474 27.1804 21.7344 27.6936 21.7344 28.3266V29.4468C21.7344 30.0798 22.2474 30.593 22.8802 30.593H24C24.6328 30.593 25.1458 30.0798 25.1458 29.4468V28.3266C25.1458 27.6936 24.6328 27.1804 24 27.1804Z" fill="#D0DB23"/>
<path d="M30.0598 27.1804H28.94C28.3072 27.1804 27.7942 27.6936 27.7942 28.3266V29.4468C27.7942 30.0798 28.3072 30.593 28.94 30.593H30.0598C30.6926 30.593 31.2057 30.0798 31.2057 29.4468V28.3266C31.2057 27.6936 30.6926 27.1804 30.0598 27.1804Z" fill="#D0DB23"/>
<path d="M36.1199 27.1804H35.0001C34.3673 27.1804 33.8542 27.6936 33.8542 28.3266V29.4468C33.8542 30.0798 34.3673 30.593 35.0001 30.593H36.1199C36.7527 30.593 37.2657 30.0798 37.2657 29.4468V28.3266C37.2657 27.6936 36.7527 27.1804 36.1199 27.1804Z" fill="#D0DB23"/>
<path d="M24 32.4451H22.8802C22.2474 32.4451 21.7344 32.9582 21.7344 33.5913V34.7114C21.7344 35.3445 22.2474 35.8576 22.8802 35.8576H24C24.6328 35.8576 25.1458 35.3445 25.1458 34.7114V33.5913C25.1458 32.9582 24.6328 32.4451 24 32.4451Z" fill="#D0DB23"/>
<path d="M30.0598 32.4451H28.94C28.3072 32.4451 27.7942 32.9582 27.7942 33.5913V34.7114C27.7942 35.3445 28.3072 35.8576 28.94 35.8576H30.0598C30.6926 35.8576 31.2057 35.3445 31.2057 34.7114V33.5913C31.2057 32.9582 30.6926 32.4451 30.0598 32.4451Z" fill="#D0DB23"/>
<path d="M36.1199 32.4451H35.0001C34.3673 32.4451 33.8542 32.9582 33.8542 33.5913V34.7114C33.8542 35.3445 34.3673 35.8576 35.0001 35.8576H36.1199C36.7527 35.8576 37.2657 35.3445 37.2657 34.7114V33.5913C37.2657 32.9582 36.7527 32.4451 36.1199 32.4451Z" fill="#D0DB23"/>
</g>
<defs>
<clipPath id="clip0_1560_3983">
<rect width="25" height="24" fill="white" transform="translate(17 17)"/>
</clipPath>
</defs>
</svg>
