<svg width="24" height="24" viewBox="0 0 24 24" fill="none" xmlns="http://www.w3.org/2000/svg">
<path d="M18.2768 6.27075C16.6869 4.57489 14.1009 4.57794 12.511 6.27075L11.7346 7.09889L10.9582 6.27075C9.36833 4.57489 6.78228 4.57794 5.19241 6.27075C3.60253 7.96661 3.60253 10.725 5.19241 12.4179L6.20285 13.4957L11.5005 19.1465C11.5633 19.2135 11.6461 19.25 11.7346 19.25C11.8231 19.25 11.9059 19.2135 11.9686 19.1465L17.2663 13.4957L18.2768 12.4179C19.8638 10.722 19.8638 7.96356 18.2768 6.27075Z" fill="#D0DB23"/>
<path d="M18.7687 6.24846C17.1241 4.58235 14.4489 4.58534 12.8042 6.24846L12.0011 7.06207L11.198 6.24846C9.55331 4.58235 6.87815 4.58534 5.23349 6.24846C3.58884 7.91456 3.58884 10.6246 5.23349 12.2877L6.27875 13.3466L11.759 18.8983C11.8239 18.9641 11.9096 19 12.0011 19C12.0926 19 12.1783 18.9641 12.2432 18.8983L17.7235 13.3466L18.7687 12.2877C20.4104 10.6216 20.4104 7.91157 18.7687 6.24846Z" stroke="#D0DB23" stroke-width="1.3"/>
</svg>
