<svg width="21" height="22" viewBox="0 0 21 22" fill="none" xmlns="http://www.w3.org/2000/svg">
<path d="M20.4496 7.67944C20.6749 7.84341 20.8413 8.07571 20.924 8.3418C21.0125 8.60601 21.0135 8.89175 20.9266 9.15653C20.8398 9.42132 20.6699 9.65102 20.442 9.81149L16.029 12.9961C15.9465 13.056 15.8843 13.1395 15.8504 13.2356C15.8166 13.3317 15.8128 13.4358 15.8395 13.5341L17.567 19.8272C17.6401 20.093 17.6281 20.375 17.5326 20.6337C17.4372 20.8923 17.2631 21.1146 17.0348 21.2692C16.8065 21.4238 16.5356 21.5031 16.26 21.4958C15.9844 21.4885 15.718 21.395 15.4982 21.2285L10.7961 17.6621C10.7089 17.5965 10.6029 17.561 10.4938 17.561C10.3848 17.561 10.2787 17.5965 10.1916 17.6621L5.48941 21.2285C5.2697 21.3949 5.0034 21.4884 4.72787 21.4957C4.45235 21.5031 4.18144 21.4239 3.95318 21.2695C3.72492 21.115 3.55076 20.8929 3.45514 20.6344C3.35953 20.3759 3.34727 20.094 3.42007 19.8281L5.14864 13.5332C5.17506 13.435 5.17104 13.331 5.13712 13.2351C5.10319 13.1392 5.04096 13.0559 4.95864 12.9961L0.545563 9.81152C0.320129 9.64899 0.152029 9.41918 0.0654271 9.1551C-0.021175 8.89103 -0.02182 8.6063 0.0635849 8.34183C0.14899 8.07737 0.316046 7.8468 0.540742 7.68325C0.765438 7.51971 1.0362 7.43161 1.31411 7.43164H6.99575C7.10242 7.43213 7.20643 7.39832 7.29241 7.3352C7.3784 7.27207 7.44181 7.18297 7.47329 7.08105L9.23403 1.4248C9.31756 1.15599 9.48489 0.920946 9.71155 0.754028C9.93821 0.58711 10.2123 0.49707 10.4938 0.49707C10.7753 0.49707 11.0494 0.58711 11.2761 0.754028C11.5027 0.920946 11.67 1.15599 11.7536 1.4248L13.5143 7.08105C13.5458 7.18297 13.6092 7.27207 13.6952 7.3352C13.7812 7.39832 13.8852 7.43213 13.9919 7.43164H19.6735C19.9521 7.42855 20.2243 7.51546 20.4496 7.67944Z" fill="#D0DB23"/>
</svg>
