<svg width="21" height="21" viewBox="0 0 21 21" fill="none" xmlns="http://www.w3.org/2000/svg">
<path d="M20.4496 7.18237C20.6749 7.34634 20.8413 7.57864 20.924 7.84473C21.0125 8.10894 21.0135 8.39468 20.9266 8.65946C20.8398 8.92425 20.6699 9.15395 20.442 9.31442L16.029 12.499C15.9465 12.5589 15.8843 12.6424 15.8504 12.7385C15.8166 12.8346 15.8128 12.9388 15.8395 13.0371L17.567 19.3301C17.6401 19.5959 17.6281 19.878 17.5326 20.1366C17.4372 20.3953 17.2631 20.6175 17.0348 20.7721C16.8065 20.9268 16.5356 21.006 16.26 20.9987C15.9844 20.9914 15.718 20.8979 15.4982 20.7314L10.7961 17.165C10.7089 17.0994 10.6029 17.064 10.4938 17.064C10.3848 17.064 10.2787 17.0994 10.1916 17.165L5.48941 20.7314C5.2697 20.8979 5.0034 20.9913 4.72787 20.9986C4.45235 21.006 4.18144 20.9269 3.95318 20.7724C3.72492 20.6179 3.55076 20.3958 3.45514 20.1373C3.35953 19.8788 3.34727 19.5969 3.42007 19.331L5.14864 13.0361C5.17506 12.9379 5.17104 12.8339 5.13712 12.738C5.10319 12.6421 5.04096 12.5588 4.95864 12.499L0.545563 9.31445C0.320129 9.15192 0.152029 8.92211 0.0654271 8.65803C-0.021175 8.39396 -0.02182 8.10923 0.0635849 7.84476C0.14899 7.5803 0.316046 7.34973 0.540742 7.18618C0.765438 7.02264 1.0362 6.93454 1.31411 6.93457H6.99575C7.10242 6.93506 7.20643 6.90125 7.29241 6.83813C7.3784 6.775 7.44181 6.6859 7.47329 6.58398L9.23403 0.927729C9.31756 0.658919 9.48489 0.423876 9.71155 0.256958C9.93821 0.0900399 10.2123 0 10.4938 0C10.7753 0 11.0494 0.0900399 11.2761 0.256958C11.5027 0.423876 11.67 0.658919 11.7536 0.927729L13.5143 6.58398C13.5458 6.6859 13.6092 6.775 13.6952 6.83813C13.7812 6.90125 13.8852 6.93506 13.9919 6.93457H19.6735C19.9521 6.93148 20.2243 7.01839 20.4496 7.18237Z" fill="#C0C0C2"/>
</svg>
