<svg width="312" height="21" viewBox="0 0 312 21" fill="none" xmlns="http://www.w3.org/2000/svg">
<g clip-path="url(#clip0_1151_3554)">
<path d="M0.958822 6.1995C0.93806 5.40478 1.09847 4.61595 1.4275 3.89471C1.75654 3.17346 2.24528 2.53935 2.85551 2.04197C4.3182 0.816768 6.47207 0.253174 9.22869 0.253174C11.9853 0.253174 14.1794 0.816768 15.5697 2.04197C16.1858 2.53603 16.6807 3.16867 17.0154 3.8901C17.3501 4.61154 17.5155 5.40208 17.4986 6.1995C17.5161 6.99819 17.3511 7.79013 17.0164 8.51299C16.6817 9.23584 16.1865 9.86988 15.5697 10.3652C14.2838 11.4597 12.355 12.0641 9.94396 12.154V18.3535H18.1335V19.5297H0.299805V18.3535H8.56967V12.154C6.15863 12.0805 4.1655 11.4842 2.85551 10.3652C2.24465 9.86655 1.75558 9.23105 1.42654 8.50838C1.09751 7.78572 0.937427 6.99549 0.958822 6.1995ZM2.33311 6.1995C2.3243 6.81381 2.45197 7.42222 2.70661 7.97942C2.96126 8.53662 3.33632 9.02825 3.80385 9.4177C5.00133 10.4305 6.87391 10.937 9.22869 10.937C11.5835 10.937 13.456 10.4305 14.6776 9.4177C15.1408 9.02585 15.5112 8.53315 15.7617 7.97608C16.0121 7.41901 16.136 6.81183 16.1243 6.1995C16.1348 5.58853 16.0103 4.98295 15.7599 4.42739C15.5095 3.87183 15.1397 3.38045 14.6776 2.98946C13.456 1.97663 11.5513 1.49471 9.22869 1.49471C6.90605 1.49471 5.00133 1.97663 3.80385 2.98946C3.33738 3.37805 2.96297 3.86836 2.70837 4.42406C2.45377 4.97975 2.32551 5.58656 2.33311 6.1995Z" fill="#4C4338"/>
<path d="M21.8867 9.4177V8.24967H39.9454V9.4177H21.8867ZM24.6675 0.253174V4.4107H38.6756V5.62774H23.2851V0.253174H24.6675ZM24.6675 16.9568V19.6032H39.0614V20.7549H23.2851V15.8541H37.1647V13.2322H23.2851V12.0805H38.555V16.9813L24.6675 16.9568Z" fill="#4C4338"/>
<path d="M59.7236 10.0385H50.5215V0.367589H59.9888V1.63363H51.9038V8.87051H59.9406C62.0864 8.87051 63.7822 8.50294 64.9315 7.62897V0.11438H66.3138V5.0152H69.4723V6.22406H66.3459V11.6966H64.9636V8.77249C63.8545 9.69548 62.0463 10.0385 59.7236 10.0385ZM51.4698 16.8588C51.4751 16.3134 51.6147 15.7781 51.8758 15.3015C52.1369 14.825 52.5112 14.4225 52.9647 14.1307C54.3149 13.1669 56.5089 12.7013 59.1771 12.7013C61.8453 12.7013 63.9992 13.1669 65.3976 14.1307C65.8481 14.423 66.2186 14.8265 66.4743 15.3035C66.7301 15.7805 66.8629 16.3156 66.8603 16.8588C66.8718 17.406 66.743 17.9467 66.4865 18.4279C66.2301 18.9091 65.8548 19.3142 65.3976 19.6033C64.0394 20.5916 61.8453 21.0327 59.1771 21.0327C56.5089 21.0327 54.3149 20.5916 52.9647 19.6033C52.5037 19.3158 52.1238 18.9119 51.8618 18.431C51.5999 17.9501 51.4648 17.4085 51.4698 16.8588ZM52.8522 16.8588C52.8615 17.2292 52.9639 17.5909 53.1496 17.9097C53.3353 18.2285 53.5981 18.4938 53.913 18.6803C54.9498 19.4154 56.7822 19.7993 59.1771 19.7993C61.5721 19.7993 63.3804 19.4154 64.4412 18.6803C64.7558 18.4948 65.0175 18.2294 65.2007 17.91C65.3838 17.5907 65.4822 17.2284 65.486 16.8588C65.481 16.4873 65.3824 16.1232 65.1994 15.8014C65.0165 15.4797 64.7555 15.211 64.4412 15.021C63.3804 14.3104 61.548 13.902 59.1771 13.902C56.8063 13.902 54.9498 14.3104 53.913 15.021C53.5978 15.2113 53.3352 15.4797 53.1497 15.8011C52.9642 16.1225 52.8618 16.4864 52.8522 16.8588Z" fill="#4C4338"/>
<path d="M72.2209 0.392093H82.2749V1.63363H77.9592V3.53678C77.9445 4.92229 78.4025 6.2702 79.2552 7.35129C80.1079 8.43239 81.3028 9.17992 82.6366 9.46677V10.7246C81.4908 10.4829 80.4138 9.98027 79.4867 9.25449C78.5596 8.52872 77.8065 7.59871 77.2841 6.53445C76.799 7.66028 76.0579 8.65306 75.1218 9.43119C74.1858 10.2093 73.0814 10.7506 71.8994 11.0105V9.71998C73.2689 9.40946 74.4878 8.62061 75.344 7.4908C76.2001 6.36098 76.6392 4.96176 76.5849 3.53678V1.63363H72.2209V0.392093ZM73.1692 16.8588C73.1737 16.3142 73.312 15.7793 73.5717 15.3028C73.8314 14.8264 74.2041 14.4235 74.656 14.1307C76.0143 13.1669 78.2083 12.7013 80.8765 12.7013C83.5447 12.7013 85.6986 13.1669 87.089 14.1307C87.5415 14.4215 87.9139 14.8244 88.1712 15.3016C88.4285 15.7788 88.5622 16.3147 88.5597 16.8588C88.572 17.4061 88.4436 17.9472 88.187 18.4285C87.9305 18.9099 87.5548 19.3148 87.097 19.6033C85.7468 20.5916 83.5528 21.0327 80.8846 21.0327C78.2163 21.0327 76.0223 20.5916 74.6641 19.6033C74.2026 19.3164 73.8222 18.9127 73.5602 18.4316C73.2982 17.9506 73.1635 17.4086 73.1692 16.8588ZM74.5435 16.8588C74.5529 17.2301 74.6562 17.5927 74.8434 17.9117C75.0306 18.2307 75.2955 18.4954 75.6124 18.6803C76.6492 19.4154 78.4816 19.7993 80.8765 19.7993C83.2715 19.7993 85.0798 19.4154 86.1406 18.6803C86.4536 18.493 86.7141 18.2271 86.897 17.9082C87.0799 17.5893 87.1792 17.2279 87.1854 16.8588C87.1789 16.4876 87.0796 16.1241 86.8968 15.8026C86.7141 15.4811 86.4538 15.2122 86.1406 15.021C85.0798 14.3104 83.2474 13.902 80.8765 13.902C78.5057 13.902 76.6492 14.3104 75.6124 15.021C75.2952 15.2098 75.0306 15.4776 74.8436 15.7991C74.6566 16.1207 74.5533 16.4854 74.5435 16.8588ZM88.0453 0.11438V5.0152H91.2038V6.22406H88.0453V11.6966H86.663V0.11438H88.0453Z" fill="#4C4338"/>
<path d="M116.882 11.6722H109.809V18.3536H117.991V19.5298H100.157V18.3536H108.427V11.6722H101.266V0.50647H116.882V11.6722ZM115.499 10.4306V1.74801H102.641V10.4306H115.499Z" fill="#4C4338"/>
<path d="M122.146 5.19487C122.107 4.45219 122.231 3.70997 122.509 3.02199C122.787 2.334 123.212 1.71747 123.753 1.21704C124.786 0.427139 126.044 0 127.337 0C128.631 0 129.889 0.427139 130.922 1.21704C131.462 1.71818 131.887 2.33484 132.165 3.02265C132.443 3.71046 132.567 4.45232 132.529 5.19487C132.566 5.94333 132.441 6.69087 132.163 7.38508C131.886 8.07929 131.462 8.70337 130.922 9.21354C129.889 10.0034 128.631 10.4306 127.337 10.4306C126.044 10.4306 124.786 10.0034 123.753 9.21354C123.212 8.70441 122.787 8.08051 122.509 7.38604C122.232 6.69157 122.107 5.94352 122.146 5.19487ZM123.504 5.19487C123.476 5.75011 123.56 6.30526 123.751 6.82634C123.942 7.34741 124.235 7.82342 124.613 8.22521C125.358 8.89515 126.327 9.24893 127.321 9.21354C128.309 9.24062 129.271 8.88764 130.014 8.22521C130.396 7.82657 130.692 7.35106 130.883 6.82919C131.074 6.30733 131.156 5.75065 131.123 5.19487C131.152 4.64562 131.069 4.09615 130.878 3.58145C130.687 3.06675 130.393 2.59811 130.014 2.20537C129.652 1.86777 129.227 1.60657 128.765 1.43691C128.303 1.26726 127.812 1.19252 127.321 1.21704C126.828 1.188 126.333 1.26057 125.868 1.4304C125.403 1.60023 124.976 1.86382 124.613 2.20537C124.24 2.60234 123.949 3.07168 123.759 3.58533C123.568 4.09897 123.482 4.64639 123.504 5.19487ZM123.729 20.7141V13.3629H138.533V20.7141H123.729ZM137.158 14.5554H125.103V19.5216H137.158V14.5554ZM138.533 11.4352H137.158V0.114359H138.533V11.4352Z" fill="#4C4338"/>
<path d="M143.436 9.80166V8.63363H161.502V9.80166H143.436ZM144.456 3.26724C144.444 2.88465 144.53 2.50539 144.704 2.16623C144.879 1.82706 145.137 1.5395 145.453 1.33142C146.65 0.481941 148.981 0.11438 152.501 0.11438C156.021 0.11438 158.36 0.481941 159.533 1.30691C159.858 1.51331 160.122 1.80355 160.3 2.14797C160.478 2.49238 160.563 2.87863 160.546 3.26724C160.554 3.64319 160.465 4.01479 160.287 4.3446C160.11 4.67441 159.85 4.95078 159.533 5.14589C158.36 5.96269 156.053 6.36292 152.501 6.36292C148.949 6.36292 146.65 5.99536 145.453 5.14589C145.141 4.94695 144.885 4.66932 144.711 4.34007C144.536 4.01083 144.448 3.6412 144.456 3.26724ZM146.216 17.1529V19.6033H160.618V20.755H144.842V16.0094H158.722V13.559H144.842V12.4154H160.112V17.1529H146.216ZM145.831 3.26724C145.831 3.4822 145.888 3.69316 145.995 3.87837C146.102 4.06357 146.257 4.21634 146.441 4.32091C147.325 4.94168 149.294 5.19489 152.501 5.19489C155.708 5.19489 157.677 4.90084 158.625 4.29641C158.792 4.18369 158.93 4.03082 159.025 3.85132C159.12 3.67182 159.171 3.47121 159.172 3.26724C159.184 3.04737 159.14 2.82797 159.045 2.63042C158.949 2.43286 158.804 2.26392 158.625 2.14005C157.717 1.53562 155.756 1.26607 152.541 1.26607C149.327 1.26607 147.366 1.53562 146.481 2.14005C146.281 2.24783 146.113 2.41042 145.998 2.60954C145.883 2.80865 145.825 3.03642 145.831 3.26724Z" fill="#4C4338"/>
<path d="M180.661 19.0479H172.367V0.367589H173.75V17.8308H180.822C182.888 17.9294 184.917 17.2487 186.52 15.9195V0.11438H187.894V8.8705H191.262V10.063H187.894V20.4691H186.52V17.0957C185.363 18.3536 183.104 19.0479 180.661 19.0479Z" fill="#4C4338"/>
<path d="M202.185 4.77832V1.77249H194.067V0.506445H203.535V4.63947C203.535 12.4481 200.392 17.4388 193.891 19.1622V17.8962C199.404 16.2626 202.185 11.7865 202.185 4.77832ZM209.595 0.11438V8.8705H212.962V10.063H209.595V20.4691H208.22V0.11438H209.595Z" fill="#4C4338"/>
<path d="M215.18 19.5298V18.3536H221.665V8.16808H223.04V18.3536H233.013V19.5298H215.18ZM230.522 7.60449V1.77251H216.168V0.50647H231.904V7.35128C231.919 9.6058 231.744 11.8575 231.382 14.0817H230.008C230.361 11.9416 230.533 9.77456 230.522 7.60449Z" fill="#4C4338"/>
<path d="M243.011 0.253236V3.00586C243.011 6.50178 245.422 8.6173 247.978 9.46677V10.7246C245.318 9.90785 243.156 8.13538 242.304 6.10971C241.605 8.15172 239.483 10.1284 236.63 11.0105V9.69548C238.062 9.27781 239.322 8.40066 240.223 7.19498C241.124 5.9893 241.617 4.51979 241.629 3.00586V0.253236H243.011ZM241.677 14.5636H238.752V13.3466H253.555V14.5636H250.71V16.769C250.717 17.7099 250.595 18.6473 250.349 19.5543H253.965V20.7468H238.342V19.5543H241.669L241.677 14.5636ZM249.36 16.8425V14.5636H243.011V19.5543H249.031C249.257 18.6691 249.365 17.757 249.352 16.8425H249.36ZM253.555 11.4353H252.181V0.11438H253.555V11.4353Z" fill="#4C4338"/>
<path d="M267.773 19.0479H259.157V0.481941H268.496V1.74799H260.54V17.8308H267.925C269.867 17.9347 271.777 17.3032 273.286 16.0584V0.11438H274.668V8.8705H278.036V10.063H274.668V20.4691H273.31V17.2509C272.249 18.4271 270.103 19.0479 267.773 19.0479Z" fill="#4C4338"/>
<path d="M280.832 11.0514V0.392093H290.259V2.71181H295.572V0.11438H296.954V14.2696H295.572V8.89501H290.259V11.0514H280.832ZM297.356 20.5835H282.142V14.1307H283.524V19.3664H297.356V20.5835ZM288.885 1.63363H282.214V9.88334H288.885V1.63363ZM290.259 3.95335V7.66981H295.572V3.92885L290.259 3.95335Z" fill="#4C4338"/>
<path d="M309.089 10.5205C307.281 12.0642 306.984 12.7748 306.984 14.1307V14.6535H305.585V14.0327C305.585 12.3174 305.995 11.5088 307.996 9.78533C309.467 8.50295 309.941 7.60447 309.941 6.08521C309.985 5.598 309.925 5.10696 309.764 4.64565C309.604 4.18433 309.348 3.76364 309.013 3.41232C308.678 3.061 308.272 2.78734 307.823 2.61005C307.375 2.43276 306.894 2.35603 306.413 2.3851C305.934 2.36602 305.457 2.45062 305.012 2.63331C304.568 2.81599 304.166 3.09259 303.835 3.44476C303.504 3.79693 303.25 4.21664 303.09 4.67608C302.931 5.13551 302.869 5.62419 302.909 6.10972H301.511V6.04437C301.511 3.28358 303.182 1.14355 306.413 1.14355C309.644 1.14355 311.324 3.26724 311.324 6.04437C311.324 7.97203 310.761 9.09922 309.089 10.5205ZM307.032 19.2766H305.513V16.9569H307.032V19.2766Z" fill="#4C4338"/>
</g>
<defs>
<clipPath id="clip0_1151_3554">
<rect width="311" height="21" fill="white" transform="translate(0.299805)"/>
</clipPath>
</defs>
</svg>
