<svg width="52" height="52" viewBox="0 0 52 52" fill="none" xmlns="http://www.w3.org/2000/svg">
<path d="M23.0903 28.9112L17.3064 24.3671C16.4878 23.7206 15.9637 22.7817 15.8489 21.7563C15.7342 20.7308 16.0383 19.7026 16.6944 18.897C17.3506 18.0914 18.3052 17.5743 19.349 17.459C20.3929 17.3437 21.4406 17.6397 22.2626 18.2821L23.0903 18.9326L23.9181 18.282C24.74 17.6397 25.7878 17.3437 26.8316 17.459C27.8754 17.5743 28.8301 18.0914 29.4862 18.897C30.1423 19.7026 30.4464 20.7308 30.3317 21.7563C30.217 22.7817 29.6928 23.7206 28.8743 24.367L23.0903 28.9112Z" stroke="#D0DB23" stroke-miterlimit="10" stroke-linecap="round"/>
<path d="M34.7282 6H11.4546C10.6512 6 10 6.63959 10 7.42857V38.8571C10 39.6461 10.6512 40.2857 11.4546 40.2857H34.7282C35.5315 40.2857 36.1827 39.6461 36.1827 38.8571V7.42857C36.1827 6.63959 35.5315 6 34.7282 6Z" stroke="#4C4338" stroke-linecap="round" stroke-linejoin="round"/>
<path d="M36.1817 11.7144H40.5455C40.9313 11.7144 41.3013 11.8649 41.5741 12.1328C41.8469 12.4007 42.0001 12.764 42.0001 13.1429V44.5715C42.0001 44.9504 41.8469 45.3137 41.5741 45.5816C41.3013 45.8495 40.9313 46.0001 40.5455 46.0001H17.272C16.8862 46.0001 16.5162 45.8495 16.2434 45.5816C15.9706 45.3137 15.8174 44.9504 15.8174 44.5715V40.2858" stroke="#4C4338" stroke-linejoin="round"/>
</svg>
