<svg width="20" height="22" viewBox="0 0 20 22" fill="none" xmlns="http://www.w3.org/2000/svg">
<path d="M2.58598 7.83927C2.33929 8.32994 2.21022 8.87068 2.20882 9.41915C2.20882 9.41922 2.20882 9.41928 2.20882 9.41934L2.05882 9.41897L2.58598 7.83927ZM2.58598 7.83927C2.83268 7.34859 3.19032 6.92127 3.63095 6.59085C3.63099 6.59083 3.63102 6.5908 3.63106 6.59077L9.13577 2.48551C9.13585 2.48545 9.13593 2.48539 9.13601 2.48533C9.38577 2.30092 9.6887 2.20128 10 2.20128C10.3113 2.20128 10.6142 2.30092 10.864 2.48533C10.8641 2.48539 10.8642 2.48545 10.8642 2.48551L16.3689 6.59077C16.369 6.59079 16.369 6.59081 16.369 6.59084C16.8096 6.9213 17.1672 7.34863 17.4139 7.83931C17.6607 8.33003 17.7898 8.87082 17.7912 9.41936V18.3678C17.7908 18.7465 17.6393 19.1097 17.3697 19.3778C17.1001 19.6458 16.7344 19.7968 16.3528 19.7972H13.5384V15.7359C13.5384 14.8023 13.1654 13.907 12.5018 13.2471C11.8381 12.5872 10.9382 12.2167 10 12.2167C9.06182 12.2167 8.16189 12.5872 7.49824 13.2471C6.83456 13.907 6.46155 14.8023 6.46155 15.7359V19.7972H3.64722C3.26559 19.7968 2.89988 19.6458 2.63028 19.3778C2.36074 19.1097 2.20927 18.7465 2.20882 18.3679M2.58598 7.83927L2.20882 18.3679M2.20882 18.3679C2.20882 18.3679 2.20882 18.3678 2.20882 18.3678L2.20882 18.3679ZM3.64688 21.15H3.64706H16.3529H16.3531C17.0944 21.1491 17.8052 20.856 18.3295 20.3346C18.854 19.8131 19.1491 19.1059 19.15 18.3681V18.3679V9.41897V9.4186C19.1481 8.66012 18.9696 7.91241 18.6286 7.23406C18.2875 6.55571 17.7932 5.96518 17.1843 5.50869L17.184 5.50846L11.6779 1.40256L11.6774 1.4022C11.1924 1.04359 10.6042 0.85 10 0.85C9.3958 0.85 8.80759 1.04359 8.32259 1.4022L8.3221 1.40256L2.816 5.50846L2.81569 5.50869C2.20684 5.96518 1.71248 6.55571 1.37142 7.23406C1.03036 7.91241 0.851878 8.66012 0.85 9.4186V9.41897L0.85 18.3679L0.85 18.3681C0.850871 19.1059 1.14603 19.8131 1.67045 20.3346C2.19484 20.856 2.90565 21.1491 3.64688 21.15ZM12.1796 19.7972H7.82038V15.7359C7.82038 15.1616 8.04981 14.6107 8.45847 14.2043C8.86717 13.7979 9.42165 13.5695 10 13.5695C10.5783 13.5695 11.1328 13.7979 11.5415 14.2043C11.9502 14.6107 12.1796 15.1616 12.1796 15.7359V19.7972Z" fill="#D0DB23" stroke="#D0DB23" stroke-width="0.3"/>
</svg>
