<svg width="24" height="24" viewBox="0 0 24 24" fill="none" xmlns="http://www.w3.org/2000/svg">
<path d="M12.2389 1.35373L12.2389 1.35378C14.259 1.46901 16.1567 2.35889 17.5372 3.83818C18.9174 5.31723 19.6741 7.27155 19.6499 9.29441L19.6499 13.9997L19.6499 14.0001M12.2389 1.35373L19.9999 15.5001C19.6765 15.0667 19.5012 14.5408 19.4999 14.0001H19.6499M12.2389 1.35373L12.235 1.35361C11.211 1.32214 10.1912 1.49664 9.23602 1.86675C8.28082 2.23686 7.40967 2.79505 6.67427 3.5082C5.93887 4.22135 5.35418 5.07494 4.9549 6.01832C4.55562 6.96171 4.34988 7.97568 4.34988 9.00008V13.9999M12.2389 1.35373L4.49988 14.0001M19.6499 14.0001C19.6512 14.5083 19.8159 15.0027 20.1199 15.4101L19.6499 14.0001ZM3.87987 15.4101C3.58464 15.8038 3.40487 16.272 3.3607 16.7621C3.31653 17.2522 3.4097 17.745 3.62978 18.1851C3.84986 18.6253 4.18816 18.9955 4.60676 19.2542C5.02537 19.513 5.50775 19.65 5.99988 19.6501H8.42234C8.56696 20.4673 8.98745 21.212 9.61569 21.7583C10.2769 22.3334 11.1236 22.6501 11.9999 22.6501C12.8761 22.6501 13.7229 22.3334 14.3841 21.7583C15.0123 21.212 15.4328 20.4673 15.5774 19.6501H17.9999C18.492 19.6502 18.9745 19.5132 19.3932 19.2545C19.8119 18.9958 20.1503 18.6255 20.3704 18.1853C20.5905 17.7451 20.6836 17.2523 20.6394 16.7621C20.5952 16.272 20.4153 15.804 20.1201 15.4104L3.99988 15.5001M3.87987 15.4101L3.99988 15.5001M3.87987 15.4101C3.87981 15.4102 3.87975 15.4102 3.87969 15.4103L3.99988 15.5001M3.87987 15.4101C4.18398 15.0027 4.34879 14.5083 4.34988 13.9999M3.99988 15.5001C4.32342 15.0668 4.49875 14.5408 4.49988 14.0001M4.34988 13.9999V14.0001H4.49988M4.34988 13.9999C4.34988 13.9999 4.34988 13.9998 4.34988 13.9998L4.49988 14.0001M4.91983 16.19L4.91968 16.1902C4.76926 16.3908 4.67766 16.6293 4.65515 16.879C4.63265 17.1287 4.68013 17.3797 4.79227 17.6039C4.90442 17.8282 5.07679 18.0168 5.29008 18.1485C5.50337 18.2803 5.74914 18.3501 5.99988 18.3501H17.9999H17.9999C18.2507 18.3502 18.4965 18.2804 18.7098 18.1485C18.9232 18.0167 19.0955 17.828 19.2076 17.6037C19.3197 17.3794 19.367 17.1282 19.3443 16.8785C19.3216 16.6288 19.2298 16.3903 19.0791 16.1898L19.0788 16.1894C18.6071 15.5569 18.3515 14.7894 18.3498 14.0004L18.3498 14.0001L18.3498 9.2935V9.29127L18.3498 9.29127C18.3749 7.60483 17.7487 5.97366 16.6016 4.73724C15.4548 3.50126 13.8758 2.7549 12.1928 2.65334C12.1282 2.65104 12.0632 2.65008 11.9979 2.65008L4.91983 16.19ZM4.91983 16.19C5.39242 15.5577 5.64845 14.7898 5.64988 14.0004V14.0001M4.91983 16.19L5.64988 14.0001M5.64988 14.0001V9.00008M5.64988 14.0001V9.00008M5.64988 9.00008C5.64985 7.31628 6.31859 5.70141 7.50903 4.51061M5.64988 9.00008L7.50903 4.51061M7.50903 4.51061C8.69946 3.31981 10.3141 2.65058 11.9979 2.65008L7.50903 4.51061ZM10.5144 20.8195C10.143 20.5162 9.87429 20.1078 9.7419 19.6501H14.2579C14.1256 20.1079 13.8568 20.5163 13.4854 20.8195C13.066 21.162 12.5414 21.3494 11.9999 21.3501C11.4584 21.3493 10.9338 21.1619 10.5144 20.8195Z" fill="#353535" stroke="#353535" stroke-width="0.3"/>
</svg>
