<svg width="24" height="24" viewBox="0 0 24 24" fill="none" xmlns="http://www.w3.org/2000/svg">
<path d="M4 17.65H3.99982C3.2973 17.6492 2.62379 17.3697 2.12703 16.873C1.63027 16.3762 1.35082 15.7027 1.35 15.0002L1.35 15L1.35 5V4.99982C1.35082 4.2973 1.63027 3.62379 2.12703 3.12703C2.62379 2.63027 3.2973 2.35082 3.99982 2.35L4 2.35L20 2.35H20.0002C20.7027 2.35074 21.3763 2.63015 21.8731 3.12694C22.3698 3.62372 22.6493 4.29729 22.65 4.99984V5V15V15.0002C22.6493 15.7027 22.3698 16.3763 21.8731 16.8731C21.3763 17.3698 20.7027 17.6493 20.0002 17.65H20H15.325L12.52 21.3897L12.5199 21.3898L12.3999 21.2998C12.3534 21.362 12.293 21.4124 12.2236 21.4472C12.1542 21.4819 12.0776 21.5 12 21.5C11.9224 21.5 11.8458 21.4819 11.7764 21.4472C11.707 21.4124 11.6466 21.362 11.6001 21.2998L4 17.65ZM4 17.65H8.675L11.48 21.3897L4 17.65ZM12 19.9165L14.4796 16.6102L14.4797 16.6101C14.5403 16.5294 14.6189 16.4639 14.7091 16.4188C14.7994 16.3736 14.8989 16.3501 14.9999 16.35H15H19.9998C20.3578 16.3496 20.701 16.2072 20.9541 15.9541C21.2072 15.701 21.3496 15.3578 21.35 14.9998V5.00016C21.3496 4.6422 21.2072 4.29901 20.9541 4.04589C20.701 3.79277 20.3578 3.65039 19.9998 3.65H4.00016C3.6422 3.65039 3.29901 3.79277 3.04589 4.04589C2.79277 4.29901 2.65039 4.6422 2.65 5.00016V14.9998C2.65039 15.3578 2.79277 15.701 3.04589 15.9541C3.29901 16.2072 3.6422 16.3496 4.00016 16.35H9H9.00003C9.10096 16.35 9.20049 16.3736 9.29074 16.4187C9.38095 16.4639 9.45941 16.5294 9.51989 16.6102L12 19.9165ZM12 19.9165L9.51997 16.6103L12 19.9165Z" fill="#353535" stroke="#353535" stroke-width="0.3"/>
</svg>
