<svg width="12" height="15" viewBox="0 0 12 15" fill="none" xmlns="http://www.w3.org/2000/svg">
<path d="M5.99955 0C4.40844 0.000231782 2.88257 0.606235 1.75749 1.68475C0.63241 2.76326 0.000241791 4.22596 0 5.75121C0 8.92797 5.99955 15 5.99955 15C5.99955 15 12 8.92797 12 5.75121C11.9998 4.22581 11.3675 2.76297 10.2422 1.68444C9.11691 0.605901 7.59081 -1.76157e-08 5.99955 0ZM6.16917 7.20497C5.92434 7.22889 5.67702 7.20027 5.44517 7.12117C5.21332 7.04207 5.00275 6.91449 4.82873 6.74768C4.65472 6.58087 4.52163 6.37901 4.43912 6.15675C4.3566 5.9345 4.32674 5.69742 4.3517 5.46273C4.3916 5.10034 4.55978 4.76199 4.82824 4.504C5.09671 4.24601 5.44926 4.08396 5.82719 4.04482C6.07256 4.01975 6.32066 4.04753 6.55339 4.12613C6.78613 4.20473 6.99761 4.33216 7.17239 4.49913C7.34718 4.66609 7.48087 4.86837 7.56368 5.0912C7.64649 5.31402 7.67633 5.55176 7.65104 5.78705C7.61121 6.15049 7.44222 6.48975 7.1724 6.74791C6.90259 7.00608 6.54837 7.16745 6.16917 7.20497Z" fill="#E3EF27"/>
</svg>
