<svg width="58" height="58" viewBox="0 0 58 58" fill="none" xmlns="http://www.w3.org/2000/svg">
<circle cx="29" cy="29" r="29" fill="#EEEEEE"/>
<path d="M29 15C26.2311 15 23.5243 15.8211 21.222 17.3594C18.9197 18.8978 17.1253 21.0843 16.0657 23.6424C15.0061 26.2006 14.7288 29.0155 15.269 31.7313C15.8092 34.447 17.1426 36.9416 19.1005 38.8995C21.0584 40.8574 23.553 42.1908 26.2687 42.731C28.9845 43.2712 31.7994 42.9939 34.3576 41.9343C36.9157 40.8747 39.1022 39.0803 40.6406 36.778C42.1789 34.4757 43 31.7689 43 29C42.9957 25.2883 41.5194 21.7298 38.8948 19.1052C36.2702 16.4806 32.7117 15.0043 29 15ZM29 41.6667C26.4948 41.6667 24.0458 40.9238 21.9628 39.5319C19.8798 38.1401 18.2562 36.1619 17.2975 33.8473C16.3388 31.5328 16.088 28.9859 16.5767 26.5289C17.0655 24.0718 18.2719 21.8148 20.0433 20.0433C21.8148 18.2718 24.0718 17.0655 26.5289 16.5767C28.986 16.088 31.5328 16.3388 33.8473 17.2975C36.1619 18.2562 38.1401 19.8798 39.5319 21.9628C40.9238 24.0458 41.6667 26.4948 41.6667 29C41.6629 32.3582 40.3271 35.5778 37.9525 37.9525C35.5778 40.3271 32.3582 41.6629 29 41.6667ZM35.6667 25C35.6667 25.2637 35.5885 25.5215 35.442 25.7408C35.2955 25.96 35.0872 26.1309 34.8436 26.2318C34.5999 26.3328 34.3319 26.3592 34.0732 26.3077C33.8146 26.2563 33.577 26.1293 33.3905 25.9428C33.2041 25.7563 33.0771 25.5188 33.0256 25.2601C32.9742 25.0015 33.0006 24.7334 33.1015 24.4898C33.2024 24.2461 33.3733 24.0379 33.5926 23.8914C33.8118 23.7449 34.0696 23.6667 34.3333 23.6667C34.687 23.6667 35.0261 23.8071 35.2761 24.0572C35.5262 24.3072 35.6667 24.6464 35.6667 25ZM23.6667 26.3333C23.403 26.3333 23.1452 26.2551 22.9259 26.1086C22.7066 25.9621 22.5357 25.7539 22.4348 25.5102C22.3339 25.2666 22.3075 24.9985 22.359 24.7399C22.4104 24.4812 22.5374 24.2437 22.7239 24.0572C22.9103 23.8707 23.1479 23.7437 23.4066 23.6923C23.6652 23.6408 23.9333 23.6672 24.1769 23.7682C24.4206 23.8691 24.6288 24.04 24.7753 24.2592C24.9218 24.4785 25 24.7363 25 25C25 25.3536 24.8595 25.6928 24.6095 25.9428C24.3594 26.1929 24.0203 26.3333 23.6667 26.3333ZM35 30.3333C35 31.9246 34.3679 33.4508 33.2426 34.576C32.1174 35.7012 30.5913 36.3333 29 36.3333C27.4087 36.3333 25.8826 35.7012 24.7574 34.576C23.6321 33.4508 23 31.9246 23 30.3333C23 30.1565 23.0702 29.987 23.1953 29.8619C23.3203 29.7369 23.4899 29.6667 23.6667 29.6667C23.8435 29.6667 24.0131 29.7369 24.1381 29.8619C24.2631 29.987 24.3333 30.1565 24.3333 30.3333C24.3333 31.571 24.825 32.758 25.7002 33.6332C26.5753 34.5083 27.7623 35 29 35C30.2377 35 31.4247 34.5083 32.2998 33.6332C33.175 32.758 33.6667 31.571 33.6667 30.3333C33.6667 30.1565 33.7369 29.987 33.8619 29.8619C33.987 29.7369 34.1565 29.6667 34.3333 29.6667C34.5101 29.6667 34.6797 29.7369 34.8047 29.8619C34.9298 29.987 35 30.1565 35 30.3333Z" fill="#939393"/>
</svg>
