<svg width="52" height="52" viewBox="0 0 52 52" fill="none" xmlns="http://www.w3.org/2000/svg">
<path fill-rule="evenodd" clip-rule="evenodd" d="M6.72918 12.4016C9.6672 10.5084 13.1079 9.5 16.625 9.5C20.1421 9.5 23.5828 10.5084 26.5208 12.4016C26.6637 12.4936 26.75 12.6519 26.75 12.8219V37.0094C26.75 37.1924 26.65 37.3608 26.4894 37.4484C26.3287 37.536 26.133 37.5288 25.9792 37.4297C23.2038 35.6414 19.9514 34.6875 16.625 34.6875C13.2986 34.6875 10.0462 35.6414 7.27082 37.4297C7.11699 37.5288 6.9213 37.536 6.76064 37.4484C6.59997 37.3608 6.5 37.1924 6.5 37.0094V12.8219C6.5 12.6519 6.58632 12.4936 6.72918 12.4016ZM7.5 13.0971V36.1192C10.261 34.5296 13.4111 33.6875 16.625 33.6875C19.8389 33.6875 22.989 34.5296 25.75 36.1192V13.0971C23.0255 11.4023 19.8603 10.5 16.625 10.5C13.3897 10.5 10.2245 11.4023 7.5 13.0971Z" fill="#4C4338"/>
<path fill-rule="evenodd" clip-rule="evenodd" d="M25.9792 12.4016C28.9172 10.5084 32.3579 9.5 35.875 9.5C39.3921 9.5 42.8328 10.5084 45.7708 12.4016C45.9137 12.4936 46 12.6519 46 12.8219V37.0094C46 37.1924 45.9 37.3608 45.7394 37.4484C45.5787 37.536 45.383 37.5288 45.2292 37.4297C42.4538 35.6414 39.2014 34.6875 35.875 34.6875C32.5486 34.6875 29.2962 35.6414 26.5208 37.4297C26.367 37.5288 26.1713 37.536 26.0106 37.4484C25.85 37.3608 25.75 37.1924 25.75 37.0094V12.8219C25.75 12.6519 25.8363 12.4936 25.9792 12.4016ZM26.75 13.0971V36.1192C29.511 34.5296 32.6611 33.6875 35.875 33.6875C39.0889 33.6875 42.239 34.5296 45 36.1192V13.0971C42.2755 11.4023 39.1103 10.5 35.875 10.5C32.6397 10.5 29.4745 11.4023 26.75 13.0971Z" fill="#4C4338"/>
<path fill-rule="evenodd" clip-rule="evenodd" d="M41.2212 16.7174C37.7499 15.5942 34.0003 15.5942 30.5291 16.7174C30.2663 16.8024 29.9844 16.6584 29.8994 16.3957C29.8144 16.1329 29.9585 15.851 30.2212 15.766C33.8926 14.578 37.8577 14.578 41.5291 15.766C41.7918 15.851 41.9359 16.1329 41.8508 16.3957C41.7658 16.6584 41.4839 16.8024 41.2212 16.7174Z" fill="#D0DB23"/>
<path fill-rule="evenodd" clip-rule="evenodd" d="M41.2212 23.4362C37.7499 22.3129 34.0003 22.3129 30.5291 23.4362C30.2663 23.5212 29.9844 23.3771 29.8994 23.1144C29.8144 22.8517 29.9585 22.5698 30.2212 22.4848C33.8926 21.2967 37.8577 21.2967 41.5291 22.4848C41.7918 22.5698 41.9359 22.8517 41.8508 23.1144C41.7658 23.3771 41.4839 23.5212 41.2212 23.4362Z" fill="#D0DB23"/>
<path fill-rule="evenodd" clip-rule="evenodd" d="M41.2212 30.1549C37.7499 29.0317 34.0003 29.0317 30.5291 30.1549C30.2663 30.24 29.9844 30.0959 29.8994 29.8332C29.8144 29.5704 29.9585 29.2885 30.2212 29.2035C33.8926 28.0155 37.8577 28.0155 41.5291 29.2035C41.7918 29.2885 41.9359 29.5704 41.8508 29.8332C41.7658 30.0959 41.4839 30.24 41.2212 30.1549Z" fill="#D0DB23"/>
<path fill-rule="evenodd" clip-rule="evenodd" d="M21.9712 16.7174C18.4999 15.5942 14.7503 15.5942 11.2791 16.7174C11.0163 16.8024 10.7344 16.6584 10.6494 16.3957C10.5644 16.1329 10.7085 15.851 10.9712 15.766C14.6426 14.578 18.6077 14.578 22.2791 15.766C22.5418 15.851 22.6859 16.1329 22.6008 16.3957C22.5158 16.6584 22.2339 16.8024 21.9712 16.7174Z" fill="#D0DB23"/>
<path fill-rule="evenodd" clip-rule="evenodd" d="M21.9712 23.4362C18.4999 22.3129 14.7503 22.3129 11.2791 23.4362C11.0163 23.5212 10.7344 23.3771 10.6494 23.1144C10.5644 22.8517 10.7085 22.5698 10.9712 22.4848C14.6426 21.2967 18.6077 21.2967 22.2791 22.4848C22.5418 22.5698 22.6859 22.8517 22.6008 23.1144C22.5158 23.3771 22.2339 23.5212 21.9712 23.4362Z" fill="#D0DB23"/>
<path fill-rule="evenodd" clip-rule="evenodd" d="M21.9712 30.1549C18.4999 29.0317 14.7503 29.0317 11.2791 30.1549C11.0163 30.24 10.7344 30.0959 10.6494 29.8332C10.5644 29.5704 10.7085 29.2885 10.9712 29.2035C14.6426 28.0155 18.6077 28.0155 22.2791 29.2035C22.5418 29.2885 22.6859 29.5704 22.6008 29.8332C22.5158 30.0959 22.2339 30.24 21.9712 30.1549Z" fill="#D0DB23"/>
<path fill-rule="evenodd" clip-rule="evenodd" d="M7 36.5094C7.27614 36.5094 7.5 36.7333 7.5 37.0094V39.1969H22.125C22.2556 39.1969 22.3811 39.248 22.4745 39.3393L23.7037 40.5406H28.7963L30.0255 39.3393C30.1189 39.248 30.2444 39.1969 30.375 39.1969H45V37.0094C45 36.7333 45.2239 36.5094 45.5 36.5094C45.7761 36.5094 46 36.7333 46 37.0094V39.6969C46 39.973 45.7761 40.1969 45.5 40.1969H30.5787L29.3495 41.3982C29.2561 41.4895 29.1306 41.5406 29 41.5406H23.5C23.3694 41.5406 23.2439 41.4895 23.1505 41.3982L21.9213 40.1969H7C6.72386 40.1969 6.5 39.973 6.5 39.6969V37.0094C6.5 36.7333 6.72386 36.5094 7 36.5094Z" fill="#4C4338"/>
</svg>
