<svg width="45" height="45" viewBox="0 0 45 45" fill="none" xmlns="http://www.w3.org/2000/svg">
<circle cx="22.5" cy="22.5" r="22.5" fill="#5ABC38"/>
<path d="M28.9763 14.85H28.9762L16.0238 14.85L16.0237 14.85C15.4485 14.8505 14.8964 15.0735 14.4886 15.4712C14.0807 15.869 13.8505 16.4093 13.85 16.9735V16.9737L13.85 28.0263L13.85 28.0265C13.8505 28.5907 14.0807 29.131 14.4886 29.5288C14.8964 29.9265 15.4485 30.1495 16.0237 30.15H16.0238H28.9762H28.9763C29.5515 30.1495 30.1036 29.9265 30.5114 29.5288C30.9193 29.131 31.1495 28.5907 31.15 28.0265V28.0263V16.9737V16.9735C31.1495 16.4093 30.9193 15.869 30.5114 15.4712C30.1036 15.0735 29.5515 14.8505 28.9763 14.85ZM30.0405 28.0261C30.0402 28.2992 29.9289 28.5617 29.7297 28.7559C29.5304 28.9503 29.2594 29.0602 28.976 29.0605H16.024C15.7406 29.0602 15.4696 28.9503 15.2703 28.7559C15.0712 28.5617 14.9599 28.2992 14.9595 28.0262V20.3007L21.3831 24.0596C21.3831 24.0596 21.3831 24.0596 21.3831 24.0596C21.7207 24.2573 22.1068 24.3616 22.5 24.3616C22.8932 24.3616 23.2793 24.2573 23.6169 24.0596C23.6169 24.0596 23.6169 24.0596 23.6169 24.0596L30.0405 20.3007V28.0261ZM30.0405 16.9739V19.0325L23.0496 23.1238C23.0496 23.1238 23.0496 23.1238 23.0496 23.1238C22.8838 23.2207 22.6938 23.2721 22.5 23.2721C22.3062 23.2721 22.1162 23.2207 21.9504 23.1238L14.9595 19.0325V16.9737C14.9599 16.7008 15.0712 16.4383 15.2703 16.2441C15.4696 16.0497 15.7406 15.9398 16.024 15.9395H28.976C28.9761 15.9395 28.9761 15.9395 28.9761 15.9395C29.2595 15.9398 29.5304 16.0498 29.7297 16.2441C29.9289 16.4383 30.0402 16.7008 30.0405 16.9739Z" fill="white" stroke="white" stroke-width="0.3"/>
</svg>
