<svg width="52" height="52" viewBox="0 0 52 52" fill="none" xmlns="http://www.w3.org/2000/svg">
<path d="M23.3787 32.7591C22.3724 32.7608 21.3758 32.563 20.4464 32.1772C13.372 29.2448 7.71401 14.9047 9.32947 11C9.32947 11 22.3987 16.413 26.311 18.0284C27.4682 18.5069 28.4898 19.2628 29.2856 20.2295C30.0814 21.1963 30.627 22.344 30.8742 23.5716" stroke="#4C4338" stroke-linecap="round" stroke-linejoin="round"/>
<path d="M28.1024 19.0697C28.4293 17.3635 29.3266 15.8192 30.647 14.6903C31.9673 13.5614 33.6323 12.9149 35.3685 12.857C37.1047 12.7992 38.809 13.3333 40.2016 14.3718C41.5942 15.4103 42.5923 16.8914 43.0321 18.572L47.8785 20.509C37.1598 26.634 37.1598 41.9465 23.3785 41.9465C17.2535 41.9465 12.6598 37.3528 12.6598 34.2903L6.42758 30.554C5.87656 30.2244 5.44891 29.7231 5.21022 29.127C4.97154 28.5309 4.93501 27.873 5.10623 27.2542C5.27746 26.6353 5.64698 26.0897 6.15812 25.7011C6.66925 25.3125 7.29377 25.1023 7.93586 25.1028H13.3259" stroke="#4C4338" stroke-linecap="round" stroke-linejoin="round"/>
<path d="M14.4639 20.1006C15.5528 22.6413 18.9283 28.0495 23.7194 29.3561" stroke="#D0DB23" stroke-linecap="round" stroke-linejoin="round"/>
<path d="M18.2744 20.6453C18.9149 22.1398 20.9006 25.3211 23.7189 26.0897" stroke="#D0DB23" stroke-linecap="round" stroke-linejoin="round"/>
<circle cx="35.0499" cy="18.026" r="1.32432" fill="#4C4338"/>
</svg>
