<svg width="18" height="18" viewBox="0 0 18 18" fill="none" xmlns="http://www.w3.org/2000/svg">
<circle cx="9" cy="9" r="9" fill="#C0C0C2"/>
<path d="M9.39135 10.8481C10.1962 10.8481 10.8486 10.1957 10.8486 9.39087C10.8486 8.58604 10.1962 7.93359 9.39135 7.93359C8.58652 7.93359 7.93408 8.58604 7.93408 9.39087C7.93408 10.1957 8.58652 10.8481 9.39135 10.8481Z" fill="white"/>
<path d="M7.98276 4.69531L7.12345 5.63084H5.63493C5.11841 5.63084 4.6958 6.05183 4.6958 6.56638V12.1796C4.6958 12.6941 5.11841 13.1151 5.63493 13.1151H13.148C13.6645 13.1151 14.0871 12.6941 14.0871 12.1796V6.56638C14.0871 6.05183 13.6645 5.63084 13.148 5.63084H11.6595L10.8001 4.69531H7.98276ZM9.39145 11.7118C8.09545 11.7118 7.04363 10.664 7.04363 9.37297C7.04363 8.08194 8.09545 7.03414 9.39145 7.03414C10.6875 7.03414 11.7393 8.08194 11.7393 9.37297C11.7393 10.664 10.6875 11.7118 9.39145 11.7118Z" fill="white"/>
</svg>
