<svg width="24" height="24" viewBox="0 0 24 24" fill="none" xmlns="http://www.w3.org/2000/svg">
<path d="M2.85008 9.90451C2.84132 12.5503 3.5818 15.1455 4.98744 17.396C6.39309 19.6464 8.40765 21.4621 10.8026 22.6374C10.8026 22.6374 10.8027 22.6374 10.8027 22.6375L11.6968 23.0792L11.7606 22.9501L11.6968 23.0792C11.791 23.1258 11.8948 23.15 12 23.15C12.1052 23.15 12.209 23.1258 12.3032 23.0792L12.2368 22.9448L12.3032 23.0792L13.1973 22.6375C13.1973 22.6374 13.1973 22.6374 13.1973 22.6374C15.5923 21.4622 17.6069 19.6465 19.0126 17.396C20.4182 15.1454 21.1587 12.5501 21.1499 9.90426C21.1498 7.50245 20.1854 5.19937 18.4694 3.50152C16.7533 1.8036 14.4262 0.85 12 0.85C9.5738 0.85 7.24666 1.8036 5.53059 3.50152C3.81453 5.19943 2.85014 7.50261 2.85008 9.90451ZM2.85008 9.90451C2.85008 9.90443 2.85008 9.90435 2.85008 9.90426L3.00008 9.90476H2.85008C2.85008 9.90468 2.85008 9.9046 2.85008 9.90451ZM19.7911 9.90493V9.90527C19.7992 12.2997 19.1291 14.6487 17.8567 16.6858C16.5843 18.7229 14.7604 20.3669 12.5915 21.431L12.5911 21.4312L12 21.7236L11.4089 21.4312L11.4085 21.431C9.23963 20.3669 7.41571 18.7229 6.1433 16.6858C4.87089 14.6487 4.20082 12.2997 4.20889 9.90527L4.20889 9.90493C4.21114 7.86202 5.03234 5.90311 6.49283 4.45806C7.95333 3.013 9.93387 2.19989 12 2.19762C14.0661 2.19989 16.0467 3.013 17.5072 4.45806C18.9677 5.90311 19.7889 7.86202 19.7911 9.90493ZM8.14415 9.90476V9.90495C8.14539 10.9173 8.5524 11.8875 9.27538 12.6028C9.99831 13.3181 10.9781 13.7202 11.9998 13.7214L12 13.5714V13.7214C12.7623 13.7214 13.5075 13.4978 14.1416 13.0786C14.7757 12.6594 15.2701 12.0634 15.5621 11.3659C15.8542 10.6683 15.9306 9.90054 15.7817 9.15987C15.6328 8.4192 15.2653 7.73907 14.7259 7.20541C14.1866 6.67176 13.4996 6.30852 12.7519 6.16137C12.0043 6.01423 11.2293 6.08973 10.5249 6.37841C9.82057 6.66709 9.21827 7.15605 8.79439 7.78372C8.3705 8.41141 8.14415 9.14954 8.14415 9.90476ZM12.0001 7.43571C12.4943 7.43574 12.9773 7.58075 13.3879 7.85223C13.7986 8.12372 14.1184 8.50944 14.3072 8.96042C14.496 9.41138 14.5453 9.90752 14.4491 10.3861C14.3529 10.8648 14.1153 11.3047 13.7662 11.6501C13.4171 11.9955 12.9721 12.2309 12.4874 12.3263C12.0028 12.4217 11.5004 12.3727 11.0439 12.1857C10.5874 11.9986 10.1976 11.6819 9.92338 11.2759C9.64923 10.8699 9.50299 10.3928 9.50296 9.9049C9.50357 9.25074 9.76647 8.62321 10.2345 8.16015C10.7025 7.69704 11.3375 7.43632 12.0001 7.43571Z" fill="#D0DB23" stroke="#D0DB23" stroke-width="0.3"/>
</svg>
