<svg width="24" height="24" viewBox="0 0 24 24" fill="none" xmlns="http://www.w3.org/2000/svg">
<mask id="path-1-outside-1_1286_4059" maskUnits="userSpaceOnUse" x="0" y="0" width="24" height="24" fill="black">
<rect fill="white" width="24" height="24"/>
<path d="M6.2381 12.5238C5.2021 12.5238 4.18937 12.831 3.32797 13.4066C2.46657 13.9822 1.79519 14.8002 1.39873 15.7574C1.00227 16.7145 0.898538 17.7677 1.10065 18.7838C1.30276 19.7999 1.80164 20.7332 2.5342 21.4658C3.26677 22.1984 4.20011 22.6972 5.2162 22.8993C6.23229 23.1015 7.28549 22.9977 8.24263 22.6013C9.19977 22.2048 10.0178 21.5334 10.5934 20.672C11.169 19.8106 11.4762 18.7979 11.4762 17.7619C11.4746 16.3732 10.9222 15.0418 9.94019 14.0598C8.95821 13.0778 7.62683 12.5254 6.2381 12.5238ZM6.2381 21.9524C5.4093 21.9524 4.59911 21.7066 3.90999 21.2462C3.22087 20.7857 2.68377 20.1312 2.3666 19.3655C2.04944 18.5998 1.96645 17.7573 2.12814 16.9444C2.28983 16.1315 2.68893 15.3848 3.27498 14.7988C3.86103 14.2127 4.6077 13.8136 5.42058 13.6519C6.23345 13.4903 7.07601 13.5732 7.84172 13.8904C8.60743 14.2076 9.26189 14.7447 9.72235 15.4338C10.1828 16.1229 10.4286 16.9331 10.4286 17.7619C10.4275 18.8729 9.98561 19.9382 9.19999 20.7238C8.41436 21.5094 7.34914 21.9513 6.2381 21.9524ZM20.381 1.00001H16.1905C15.4961 1.00065 14.8303 1.27679 14.3392 1.76782C13.8482 2.25885 13.5721 2.92464 13.5714 3.61906V7.80953C13.5721 8.50395 13.8482 9.16974 14.3392 9.66077C14.8303 10.1518 15.4961 10.4279 16.1905 10.4286H20.381C21.0754 10.4279 21.7412 10.1518 22.2322 9.66077C22.7232 9.16974 22.9994 8.50395 23 7.80953V3.61906C22.9994 2.92464 22.7232 2.25885 22.2322 1.76782C21.7412 1.27679 21.0754 1.00065 20.381 1.00001ZM21.9524 7.80953C21.9519 8.22616 21.7862 8.62559 21.4916 8.92019C21.197 9.2148 20.7976 9.3805 20.381 9.38096H16.1905C15.7738 9.3805 15.3744 9.2148 15.0798 8.92019C14.7852 8.62559 14.6195 8.22616 14.619 7.80953V3.61906C14.6195 3.20243 14.7852 2.80299 15.0798 2.50839C15.3744 2.21379 15.7738 2.04808 16.1905 2.04763H20.381C20.7976 2.04808 21.197 2.21379 21.4916 2.50839C21.7862 2.80299 21.9519 3.20243 21.9524 3.61906V7.80953ZM19.6096 13.8661C19.4867 13.6202 19.2978 13.4133 19.0639 13.2688C18.8301 13.1242 18.5606 13.0476 18.2857 13.0476C18.0108 13.0476 17.7413 13.1242 17.5075 13.2688C17.2737 13.4133 17.0847 13.6202 16.9619 13.8661L13.729 20.3339C13.616 20.5596 13.5626 20.8104 13.5739 21.0625C13.5852 21.3146 13.6607 21.5596 13.7934 21.7743C13.926 21.989 14.1114 22.1661 14.3318 22.289C14.5523 22.4118 14.8005 22.4763 15.0528 22.4762H21.5186C21.771 22.4763 22.0192 22.4118 22.2396 22.289C22.46 22.1661 22.6454 21.989 22.778 21.7743C22.9107 21.5596 22.9863 21.3146 22.9975 21.0625C23.0088 20.8104 22.9554 20.5596 22.8424 20.3339L19.6096 13.8661ZM21.8869 21.224C21.8483 21.2869 21.7942 21.3388 21.7296 21.3747C21.6651 21.4105 21.5924 21.4291 21.5186 21.4286H15.0528C14.979 21.4288 14.9064 21.41 14.8419 21.3741C14.7774 21.3383 14.7231 21.2865 14.6844 21.2237C14.6456 21.1609 14.6235 21.0892 14.6203 21.0154C14.6171 20.9417 14.6329 20.8684 14.6661 20.8024L17.899 14.3346C17.9348 14.2627 17.99 14.2022 18.0583 14.1599C18.1266 14.1176 18.2054 14.0952 18.2857 14.0952C18.3661 14.0952 18.4448 14.1176 18.5131 14.1599C18.5814 14.2022 18.6366 14.2627 18.6724 14.3346L21.9053 20.8024C21.9388 20.8683 21.9547 20.9418 21.9515 21.0156C21.9483 21.0895 21.926 21.1612 21.8869 21.224ZM1.74581 1.70183C1.61247 1.91626 1.5365 2.16138 1.52522 2.41364C1.51393 2.6659 1.5677 2.91682 1.68136 3.14231L4.91425 9.61012C5.03712 9.85604 5.22606 10.0629 5.45989 10.2074C5.69372 10.352 5.96319 10.4286 6.2381 10.4286C6.513 10.4286 6.78248 10.352 7.0163 10.2074C7.25013 10.0629 7.43907 9.85604 7.56194 9.61012L10.7948 3.14231C10.9078 2.91665 10.9612 2.66584 10.9499 2.41374C10.9386 2.16163 10.8631 1.91659 10.7304 1.70192C10.5978 1.48724 10.4124 1.31005 10.192 1.1872C9.97154 1.06435 9.72335 0.99991 9.47099 1.00001H3.00521C2.7527 0.999068 2.50421 1.06314 2.28364 1.18606C2.06307 1.30897 1.87785 1.4866 1.74581 1.70183ZM2.63691 2.25224C2.67547 2.1893 2.72964 2.13739 2.79417 2.10154C2.8587 2.06569 2.93139 2.04712 3.00521 2.04763H9.47099C9.5448 2.04744 9.61742 2.06618 9.68193 2.10205C9.74644 2.13792 9.80068 2.18973 9.83946 2.25253C9.87825 2.31533 9.90029 2.38702 9.90348 2.46076C9.90668 2.5345 9.89092 2.60783 9.8577 2.67375L6.62482 9.14155C6.58899 9.21347 6.53382 9.27397 6.46551 9.31626C6.39719 9.35855 6.31844 9.38095 6.2381 9.38095C6.15775 9.38095 6.079 9.35855 6.01069 9.31626C5.94237 9.27397 5.8872 9.21347 5.85138 9.14155L2.61849 2.67375C2.58501 2.60785 2.56911 2.53442 2.57233 2.46057C2.57556 2.38673 2.5978 2.31497 2.63691 2.25224Z"/>
</mask>
<path d="M6.2381 12.5238C5.2021 12.5238 4.18937 12.831 3.32797 13.4066C2.46657 13.9822 1.79519 14.8002 1.39873 15.7574C1.00227 16.7145 0.898538 17.7677 1.10065 18.7838C1.30276 19.7999 1.80164 20.7332 2.5342 21.4658C3.26677 22.1984 4.20011 22.6972 5.2162 22.8993C6.23229 23.1015 7.28549 22.9977 8.24263 22.6013C9.19977 22.2048 10.0178 21.5334 10.5934 20.672C11.169 19.8106 11.4762 18.7979 11.4762 17.7619C11.4746 16.3732 10.9222 15.0418 9.94019 14.0598C8.95821 13.0778 7.62683 12.5254 6.2381 12.5238ZM6.2381 21.9524C5.4093 21.9524 4.59911 21.7066 3.90999 21.2462C3.22087 20.7857 2.68377 20.1312 2.3666 19.3655C2.04944 18.5998 1.96645 17.7573 2.12814 16.9444C2.28983 16.1315 2.68893 15.3848 3.27498 14.7988C3.86103 14.2127 4.6077 13.8136 5.42058 13.6519C6.23345 13.4903 7.07601 13.5732 7.84172 13.8904C8.60743 14.2076 9.26189 14.7447 9.72235 15.4338C10.1828 16.1229 10.4286 16.9331 10.4286 17.7619C10.4275 18.8729 9.98561 19.9382 9.19999 20.7238C8.41436 21.5094 7.34914 21.9513 6.2381 21.9524ZM20.381 1.00001H16.1905C15.4961 1.00065 14.8303 1.27679 14.3392 1.76782C13.8482 2.25885 13.5721 2.92464 13.5714 3.61906V7.80953C13.5721 8.50395 13.8482 9.16974 14.3392 9.66077C14.8303 10.1518 15.4961 10.4279 16.1905 10.4286H20.381C21.0754 10.4279 21.7412 10.1518 22.2322 9.66077C22.7232 9.16974 22.9994 8.50395 23 7.80953V3.61906C22.9994 2.92464 22.7232 2.25885 22.2322 1.76782C21.7412 1.27679 21.0754 1.00065 20.381 1.00001ZM21.9524 7.80953C21.9519 8.22616 21.7862 8.62559 21.4916 8.92019C21.197 9.2148 20.7976 9.3805 20.381 9.38096H16.1905C15.7738 9.3805 15.3744 9.2148 15.0798 8.92019C14.7852 8.62559 14.6195 8.22616 14.619 7.80953V3.61906C14.6195 3.20243 14.7852 2.80299 15.0798 2.50839C15.3744 2.21379 15.7738 2.04808 16.1905 2.04763H20.381C20.7976 2.04808 21.197 2.21379 21.4916 2.50839C21.7862 2.80299 21.9519 3.20243 21.9524 3.61906V7.80953ZM19.6096 13.8661C19.4867 13.6202 19.2978 13.4133 19.0639 13.2688C18.8301 13.1242 18.5606 13.0476 18.2857 13.0476C18.0108 13.0476 17.7413 13.1242 17.5075 13.2688C17.2737 13.4133 17.0847 13.6202 16.9619 13.8661L13.729 20.3339C13.616 20.5596 13.5626 20.8104 13.5739 21.0625C13.5852 21.3146 13.6607 21.5596 13.7934 21.7743C13.926 21.989 14.1114 22.1661 14.3318 22.289C14.5523 22.4118 14.8005 22.4763 15.0528 22.4762H21.5186C21.771 22.4763 22.0192 22.4118 22.2396 22.289C22.46 22.1661 22.6454 21.989 22.778 21.7743C22.9107 21.5596 22.9863 21.3146 22.9975 21.0625C23.0088 20.8104 22.9554 20.5596 22.8424 20.3339L19.6096 13.8661ZM21.8869 21.224C21.8483 21.2869 21.7942 21.3388 21.7296 21.3747C21.6651 21.4105 21.5924 21.4291 21.5186 21.4286H15.0528C14.979 21.4288 14.9064 21.41 14.8419 21.3741C14.7774 21.3383 14.7231 21.2865 14.6844 21.2237C14.6456 21.1609 14.6235 21.0892 14.6203 21.0154C14.6171 20.9417 14.6329 20.8684 14.6661 20.8024L17.899 14.3346C17.9348 14.2627 17.99 14.2022 18.0583 14.1599C18.1266 14.1176 18.2054 14.0952 18.2857 14.0952C18.3661 14.0952 18.4448 14.1176 18.5131 14.1599C18.5814 14.2022 18.6366 14.2627 18.6724 14.3346L21.9053 20.8024C21.9388 20.8683 21.9547 20.9418 21.9515 21.0156C21.9483 21.0895 21.926 21.1612 21.8869 21.224ZM1.74581 1.70183C1.61247 1.91626 1.5365 2.16138 1.52522 2.41364C1.51393 2.6659 1.5677 2.91682 1.68136 3.14231L4.91425 9.61012C5.03712 9.85604 5.22606 10.0629 5.45989 10.2074C5.69372 10.352 5.96319 10.4286 6.2381 10.4286C6.513 10.4286 6.78248 10.352 7.0163 10.2074C7.25013 10.0629 7.43907 9.85604 7.56194 9.61012L10.7948 3.14231C10.9078 2.91665 10.9612 2.66584 10.9499 2.41374C10.9386 2.16163 10.8631 1.91659 10.7304 1.70192C10.5978 1.48724 10.4124 1.31005 10.192 1.1872C9.97154 1.06435 9.72335 0.99991 9.47099 1.00001H3.00521C2.7527 0.999068 2.50421 1.06314 2.28364 1.18606C2.06307 1.30897 1.87785 1.4866 1.74581 1.70183ZM2.63691 2.25224C2.67547 2.1893 2.72964 2.13739 2.79417 2.10154C2.8587 2.06569 2.93139 2.04712 3.00521 2.04763H9.47099C9.5448 2.04744 9.61742 2.06618 9.68193 2.10205C9.74644 2.13792 9.80068 2.18973 9.83946 2.25253C9.87825 2.31533 9.90029 2.38702 9.90348 2.46076C9.90668 2.5345 9.89092 2.60783 9.8577 2.67375L6.62482 9.14155C6.58899 9.21347 6.53382 9.27397 6.46551 9.31626C6.39719 9.35855 6.31844 9.38095 6.2381 9.38095C6.15775 9.38095 6.079 9.35855 6.01069 9.31626C5.94237 9.27397 5.8872 9.21347 5.85138 9.14155L2.61849 2.67375C2.58501 2.60785 2.56911 2.53442 2.57233 2.46057C2.57556 2.38673 2.5978 2.31497 2.63691 2.25224Z" fill="#D0DB23"/>
<path d="M6.2381 12.5238C5.2021 12.5238 4.18937 12.831 3.32797 13.4066C2.46657 13.9822 1.79519 14.8002 1.39873 15.7574C1.00227 16.7145 0.898538 17.7677 1.10065 18.7838C1.30276 19.7999 1.80164 20.7332 2.5342 21.4658C3.26677 22.1984 4.20011 22.6972 5.2162 22.8993C6.23229 23.1015 7.28549 22.9977 8.24263 22.6013C9.19977 22.2048 10.0178 21.5334 10.5934 20.672C11.169 19.8106 11.4762 18.7979 11.4762 17.7619C11.4746 16.3732 10.9222 15.0418 9.94019 14.0598C8.95821 13.0778 7.62683 12.5254 6.2381 12.5238ZM6.2381 21.9524C5.4093 21.9524 4.59911 21.7066 3.90999 21.2462C3.22087 20.7857 2.68377 20.1312 2.3666 19.3655C2.04944 18.5998 1.96645 17.7573 2.12814 16.9444C2.28983 16.1315 2.68893 15.3848 3.27498 14.7988C3.86103 14.2127 4.6077 13.8136 5.42058 13.6519C6.23345 13.4903 7.07601 13.5732 7.84172 13.8904C8.60743 14.2076 9.26189 14.7447 9.72235 15.4338C10.1828 16.1229 10.4286 16.9331 10.4286 17.7619C10.4275 18.8729 9.98561 19.9382 9.19999 20.7238C8.41436 21.5094 7.34914 21.9513 6.2381 21.9524ZM20.381 1.00001H16.1905C15.4961 1.00065 14.8303 1.27679 14.3392 1.76782C13.8482 2.25885 13.5721 2.92464 13.5714 3.61906V7.80953C13.5721 8.50395 13.8482 9.16974 14.3392 9.66077C14.8303 10.1518 15.4961 10.4279 16.1905 10.4286H20.381C21.0754 10.4279 21.7412 10.1518 22.2322 9.66077C22.7232 9.16974 22.9994 8.50395 23 7.80953V3.61906C22.9994 2.92464 22.7232 2.25885 22.2322 1.76782C21.7412 1.27679 21.0754 1.00065 20.381 1.00001ZM21.9524 7.80953C21.9519 8.22616 21.7862 8.62559 21.4916 8.92019C21.197 9.2148 20.7976 9.3805 20.381 9.38096H16.1905C15.7738 9.3805 15.3744 9.2148 15.0798 8.92019C14.7852 8.62559 14.6195 8.22616 14.619 7.80953V3.61906C14.6195 3.20243 14.7852 2.80299 15.0798 2.50839C15.3744 2.21379 15.7738 2.04808 16.1905 2.04763H20.381C20.7976 2.04808 21.197 2.21379 21.4916 2.50839C21.7862 2.80299 21.9519 3.20243 21.9524 3.61906V7.80953ZM19.6096 13.8661C19.4867 13.6202 19.2978 13.4133 19.0639 13.2688C18.8301 13.1242 18.5606 13.0476 18.2857 13.0476C18.0108 13.0476 17.7413 13.1242 17.5075 13.2688C17.2737 13.4133 17.0847 13.6202 16.9619 13.8661L13.729 20.3339C13.616 20.5596 13.5626 20.8104 13.5739 21.0625C13.5852 21.3146 13.6607 21.5596 13.7934 21.7743C13.926 21.989 14.1114 22.1661 14.3318 22.289C14.5523 22.4118 14.8005 22.4763 15.0528 22.4762H21.5186C21.771 22.4763 22.0192 22.4118 22.2396 22.289C22.46 22.1661 22.6454 21.989 22.778 21.7743C22.9107 21.5596 22.9863 21.3146 22.9975 21.0625C23.0088 20.8104 22.9554 20.5596 22.8424 20.3339L19.6096 13.8661ZM21.8869 21.224C21.8483 21.2869 21.7942 21.3388 21.7296 21.3747C21.6651 21.4105 21.5924 21.4291 21.5186 21.4286H15.0528C14.979 21.4288 14.9064 21.41 14.8419 21.3741C14.7774 21.3383 14.7231 21.2865 14.6844 21.2237C14.6456 21.1609 14.6235 21.0892 14.6203 21.0154C14.6171 20.9417 14.6329 20.8684 14.6661 20.8024L17.899 14.3346C17.9348 14.2627 17.99 14.2022 18.0583 14.1599C18.1266 14.1176 18.2054 14.0952 18.2857 14.0952C18.3661 14.0952 18.4448 14.1176 18.5131 14.1599C18.5814 14.2022 18.6366 14.2627 18.6724 14.3346L21.9053 20.8024C21.9388 20.8683 21.9547 20.9418 21.9515 21.0156C21.9483 21.0895 21.926 21.1612 21.8869 21.224ZM1.74581 1.70183C1.61247 1.91626 1.5365 2.16138 1.52522 2.41364C1.51393 2.6659 1.5677 2.91682 1.68136 3.14231L4.91425 9.61012C5.03712 9.85604 5.22606 10.0629 5.45989 10.2074C5.69372 10.352 5.96319 10.4286 6.2381 10.4286C6.513 10.4286 6.78248 10.352 7.0163 10.2074C7.25013 10.0629 7.43907 9.85604 7.56194 9.61012L10.7948 3.14231C10.9078 2.91665 10.9612 2.66584 10.9499 2.41374C10.9386 2.16163 10.8631 1.91659 10.7304 1.70192C10.5978 1.48724 10.4124 1.31005 10.192 1.1872C9.97154 1.06435 9.72335 0.99991 9.47099 1.00001H3.00521C2.7527 0.999068 2.50421 1.06314 2.28364 1.18606C2.06307 1.30897 1.87785 1.4866 1.74581 1.70183ZM2.63691 2.25224C2.67547 2.1893 2.72964 2.13739 2.79417 2.10154C2.8587 2.06569 2.93139 2.04712 3.00521 2.04763H9.47099C9.5448 2.04744 9.61742 2.06618 9.68193 2.10205C9.74644 2.13792 9.80068 2.18973 9.83946 2.25253C9.87825 2.31533 9.90029 2.38702 9.90348 2.46076C9.90668 2.5345 9.89092 2.60783 9.8577 2.67375L6.62482 9.14155C6.58899 9.21347 6.53382 9.27397 6.46551 9.31626C6.39719 9.35855 6.31844 9.38095 6.2381 9.38095C6.15775 9.38095 6.079 9.35855 6.01069 9.31626C5.94237 9.27397 5.8872 9.21347 5.85138 9.14155L2.61849 2.67375C2.58501 2.60785 2.56911 2.53442 2.57233 2.46057C2.57556 2.38673 2.5978 2.31497 2.63691 2.25224Z" stroke="#D0DB23" stroke-width="0.6" mask="url(#path-1-outside-1_1286_4059)"/>
</svg>
